<svg width="280" height="133" viewBox="0 0 280 133" fill="none" xmlns="http://www.w3.org/2000/svg">
<rect x="60" y="37" width="160" height="54" rx="10" fill="#1AB58F"/>
<path d="M125.4 70.24C124.557 70.24 123.797 70.0933 123.12 69.8C122.448 69.5067 121.893 69.088 121.456 68.544C121.024 67.9947 120.749 67.344 120.632 66.592L122.632 66.288C122.802 66.9707 123.152 67.4987 123.68 67.872C124.213 68.2453 124.826 68.432 125.52 68.432C125.93 68.432 126.317 68.368 126.68 68.24C127.042 68.112 127.336 67.9253 127.56 67.68C127.789 67.4347 127.904 67.1333 127.904 66.776C127.904 66.616 127.877 66.4693 127.824 66.336C127.77 66.1973 127.69 66.0747 127.584 65.968C127.482 65.8613 127.349 65.7653 127.184 65.68C127.024 65.5893 126.837 65.512 126.624 65.448L123.648 64.568C123.392 64.4933 123.114 64.3947 122.816 64.272C122.522 64.144 122.242 63.9707 121.976 63.752C121.714 63.528 121.498 63.2453 121.328 62.904C121.162 62.5573 121.08 62.1307 121.08 61.624C121.08 60.8827 121.266 60.2613 121.64 59.76C122.018 59.2533 122.525 58.8747 123.16 58.624C123.8 58.3733 124.509 58.2507 125.288 58.256C126.077 58.2613 126.781 58.3973 127.4 58.664C128.018 58.9253 128.536 59.3067 128.952 59.808C129.368 60.3093 129.661 60.9147 129.832 61.624L127.76 61.984C127.674 61.5787 127.509 61.2347 127.264 60.952C127.024 60.664 126.728 60.4453 126.376 60.296C126.029 60.1467 125.658 60.0667 125.264 60.056C124.88 60.0507 124.522 60.1093 124.192 60.232C123.866 60.3493 123.602 60.52 123.4 60.744C123.202 60.968 123.104 61.2293 123.104 61.528C123.104 61.8107 123.189 62.0427 123.36 62.224C123.53 62.4 123.741 62.5413 123.992 62.648C124.248 62.7493 124.506 62.8347 124.768 62.904L126.832 63.48C127.114 63.5547 127.432 63.656 127.784 63.784C128.136 63.912 128.474 64.0907 128.8 64.32C129.125 64.5493 129.392 64.8507 129.6 65.224C129.813 65.5973 129.92 66.072 129.92 66.648C129.92 67.2453 129.794 67.7707 129.544 68.224C129.298 68.672 128.965 69.0453 128.544 69.344C128.122 69.6427 127.64 69.8667 127.096 70.016C126.557 70.1653 125.992 70.24 125.4 70.24ZM136.715 70C136.145 70.1067 135.585 70.152 135.035 70.136C134.491 70.1253 134.003 70.0267 133.571 69.84C133.139 69.648 132.811 69.3467 132.587 68.936C132.39 68.5627 132.286 68.1813 132.275 67.792C132.265 67.4027 132.259 66.9627 132.259 66.472V58.96H134.179V66.36C134.179 66.7067 134.182 67.0107 134.187 67.272C134.198 67.5333 134.254 67.7467 134.355 67.912C134.547 68.232 134.854 68.4107 135.275 68.448C135.697 68.4853 136.177 68.464 136.715 68.384V70ZM130.691 62.872V61.36H136.715V62.872H130.691ZM140.989 70.24C140.365 70.24 139.837 70.1227 139.405 69.888C138.973 69.648 138.645 69.3307 138.421 68.936C138.202 68.5413 138.093 68.1067 138.093 67.632C138.093 67.216 138.162 66.8427 138.301 66.512C138.44 66.176 138.653 65.888 138.941 65.648C139.229 65.4027 139.602 65.2027 140.061 65.048C140.408 64.936 140.813 64.8347 141.277 64.744C141.746 64.6533 142.253 64.5707 142.797 64.496C143.346 64.416 143.92 64.3307 144.517 64.24L143.829 64.632C143.834 64.0347 143.701 63.5947 143.429 63.312C143.157 63.0293 142.698 62.888 142.053 62.888C141.664 62.888 141.288 62.9787 140.925 63.16C140.562 63.3413 140.309 63.6533 140.165 64.096L138.405 63.544C138.618 62.8133 139.024 62.2267 139.621 61.784C140.224 61.3413 141.034 61.12 142.053 61.12C142.821 61.12 143.496 61.2453 144.077 61.496C144.664 61.7467 145.098 62.1573 145.381 62.728C145.536 63.032 145.629 63.344 145.661 63.664C145.693 63.9787 145.709 64.3227 145.709 64.696V70H144.021V68.128L144.301 68.432C143.912 69.056 143.456 69.5147 142.933 69.808C142.416 70.096 141.768 70.24 140.989 70.24ZM141.373 68.704C141.81 68.704 142.184 68.6267 142.493 68.472C142.802 68.3173 143.048 68.128 143.229 67.904C143.416 67.68 143.541 67.4693 143.605 67.272C143.706 67.0267 143.762 66.7467 143.773 66.432C143.789 66.112 143.797 65.8533 143.797 65.656L144.389 65.832C143.808 65.9227 143.309 66.0027 142.893 66.072C142.477 66.1413 142.12 66.208 141.821 66.272C141.522 66.3307 141.258 66.3973 141.029 66.472C140.805 66.552 140.616 66.6453 140.461 66.752C140.306 66.8587 140.186 66.9813 140.101 67.12C140.021 67.2587 139.981 67.4213 139.981 67.608C139.981 67.8213 140.034 68.0107 140.141 68.176C140.248 68.336 140.402 68.464 140.605 68.56C140.813 68.656 141.069 68.704 141.373 68.704ZM147.792 70V61.36H149.496V63.464L149.288 63.192C149.395 62.904 149.536 62.6427 149.712 62.408C149.893 62.168 150.109 61.9707 150.36 61.816C150.573 61.672 150.808 61.56 151.064 61.48C151.325 61.3947 151.592 61.344 151.864 61.328C152.136 61.3067 152.4 61.3173 152.656 61.36V63.16C152.4 63.0853 152.104 63.0613 151.768 63.088C151.437 63.1147 151.139 63.208 150.872 63.368C150.605 63.512 150.387 63.696 150.216 63.92C150.051 64.144 149.928 64.4 149.848 64.688C149.768 64.9707 149.728 65.2773 149.728 65.608V70H147.792ZM159.247 70C158.676 70.1067 158.116 70.152 157.567 70.136C157.023 70.1253 156.535 70.0267 156.103 69.84C155.671 69.648 155.343 69.3467 155.118 68.936C154.921 68.5627 154.817 68.1813 154.807 67.792C154.796 67.4027 154.791 66.9627 154.791 66.472V58.96H156.711V66.36C156.711 66.7067 156.713 67.0107 156.719 67.272C156.729 67.5333 156.785 67.7467 156.887 67.912C157.079 68.232 157.385 68.4107 157.807 68.448C158.228 68.4853 158.708 68.464 159.247 68.384V70ZM153.223 62.872V61.36H159.247V62.872H153.223Z" fill="white"/>
<ellipse cx="140" cy="66.5" rx="134" ry="60.5" stroke="#1AB58F" stroke-width="11" stroke-dasharray="1 40"/>
</svg>
