<svg width="354" height="189" viewBox="0 0 354 189" fill="none" xmlns="http://www.w3.org/2000/svg">
<path d="M157.324 139.912C162.394 147.686 179.226 163.335 205.994 163.74C239.455 164.247 255.171 167.796 259.734 171.852C264.297 175.908 273.423 178.443 281.534 178.95C289.646 179.457 294.209 183.512 297.251 180.47C300.293 177.429 300.293 166.275 299.279 161.205C298.265 156.135 293.195 157.149 292.181 161.205C291.37 164.45 291.843 170.669 292.181 173.373" stroke="black"/>
<path d="M299.28 175.401C303.167 176.077 311.549 176.516 313.982 172.866C316.254 169.458 314.284 162.25 312.775 158.42C312.573 157.909 312.303 157.43 311.987 156.98C309.48 153.414 304.983 147.137 303.843 145.996C302.322 144.475 296.745 148.531 300.294 155.122C303.843 161.712 304.856 166.782 303.843 169.824" stroke="black"/>
<path d="M315.502 168.81C318.375 168.979 324.222 168.404 324.628 164.754C325.135 160.191 321.586 151.066 316.516 143.461C311.447 135.856 307.898 143.968 308.912 147.01C309.926 150.052 314.488 157.149 314.488 159.684" stroke="black"/>
<path d="M325.137 162.726C327.502 162.557 332.234 160.8 332.234 155.122C332.234 148.024 325.644 139.912 325.137 139.405C324.63 138.898 320.067 139.912 322.095 145.489C324.123 151.066 325.137 154.108 323.616 156.643" stroke="black"/>
<path d="M270.891 151.066C272.75 152.08 277.887 153.804 283.565 152.587C285.836 152.101 287.587 151.112 288.904 149.97C291.61 147.625 294.655 144.908 298.234 144.799L308.914 144.476" stroke="black"/>
<path d="M283.562 174.894C284.238 173.035 286.807 169.317 291.674 169.317" stroke="black"/>
<path d="M138.062 50.1777C137.386 73.8368 134.918 126.529 130.457 148.025" stroke="black"/>
<path d="M61 148.531H162.903" stroke="black"/>
<path d="M330.203 148.531H353.524" stroke="black"/>
<path d="M107.133 1C108.485 2.85893 114.944 5.04724 128.933 7.59074C151.24 11.6466 168.477 32.9397 175.068 53.2189M199.91 121.154C205.994 123.689 219.885 129.773 226.78 133.829C235.399 138.899 258.213 140.926 263.79 138.899C269.366 136.871 276.971 129.773 290.66 131.801C304.348 133.829 308.404 134.843 311.446 134.336C314.488 133.829 317.529 135.35 318.036 137.885C318.442 139.912 316.516 141.433 315.502 141.94" stroke="black"/>
<path d="M109.227 83.5127C100.878 79.8392 94.9694 88.7845 94.9694 88.7845C94.9694 88.7845 89.0613 79.8392 80.7114 83.5069C74.1809 86.3814 71.7747 94.4023 75.2944 100.592C78.0058 105.363 83.5607 111.375 93.9998 118.817C94.2837 119.019 94.6236 119.127 94.9723 119.127C95.3209 119.127 95.6612 119.018 95.9451 118.817C106.378 111.38 111.933 105.363 114.645 100.598C118.164 94.4085 115.752 86.3872 109.227 83.5127Z" stroke="black" stroke-width="2" stroke-miterlimit="10"/>
<path opacity="0.3" d="M137.043 65.6611C143.949 61.1132 159.958 53.0272 173.586 53.3741C176.423 53.4463 178.728 55.4799 179.688 58.1506L199.529 113.317C200.563 116.192 199.886 119.425 197.564 121.41C190.463 127.478 177.773 135.879 163.05 139.032C159.658 139.759 156.343 137.827 154.916 134.666L136.48 93.8079" stroke="black" stroke-width="2"/>
<path d="M137.596 64.9398C145.631 59.631 164.227 52.7349 178.443 52.3345C181.536 52.2474 184.155 54.3619 185.183 57.2804L203.858 110.336C204.864 113.195 204.185 116.39 201.887 118.366C193.152 125.874 175.92 137.25 157.4 141.06C153.928 141.774 150.556 139.759 149.181 136.492L135.5 104.001" stroke="black" stroke-width="2" stroke-dasharray="4 4"/>
<path d="M137.047 69.6023C143.052 66.4123 155.736 60.1449 158.438 60.5953C160.874 61.0012 172.332 91.3099 179.379 110.891C180.642 114.401 179.283 118.297 176.064 120.179C166.487 125.779 151.575 133.898 149.002 135" stroke="black" stroke-dasharray="2 2"/>
<path fill-rule="evenodd" clip-rule="evenodd" d="M180.77 106.197C182.322 105.162 184.419 105.581 185.454 107.133C188.831 112.2 194.933 126.279 194.464 144.559C194.198 154.946 196.73 161.944 200.635 166.57C204.547 171.205 210.188 173.872 216.933 174.91C224.042 176.003 248.609 177.686 273.589 178.956C298.594 180.228 323.394 181.053 331.018 180.509L334.387 180.268L334.869 187.006L331.5 187.247C323.362 187.828 298.061 186.965 273.246 185.703C248.405 184.44 223.434 182.745 215.906 181.587C208.016 180.373 200.708 177.129 195.473 170.927C190.23 164.716 187.415 155.952 187.711 144.385C188.143 127.538 182.46 114.821 179.833 110.88C178.799 109.328 179.218 107.231 180.77 106.197Z" fill="white" stroke="black" stroke-width="2" stroke-linecap="round"/>
<line x1="-4.37114e-08" y1="97.5" x2="236" y2="97.5" stroke="#1AB58F" stroke-dasharray="6 6"/>
<path d="M209.027 70.6504L216.476 72.8002L214.326 80.2491" stroke="black" stroke-width="2"/>
<path d="M216.475 72.8005L198.648 82.6416" stroke="black" stroke-width="2"/>
<path d="M120.281 131.089L111.703 128.79L114.001 120.212" stroke="black" stroke-width="2"/>
<path d="M111.702 128.79L131.902 117.127" stroke="black" stroke-width="2"/>
</svg>
