<svg width="299" height="243" viewBox="0 0 299 243" fill="none" xmlns="http://www.w3.org/2000/svg">
<rect width="299" height="243" fill="white"/>
<mask id="mask0_2133_13846" style="mask-type:alpha" maskUnits="userSpaceOnUse" x="14" y="13" width="270" height="227">
<rect x="14" y="13" width="269.616" height="226.32" fill="#D9D9D9"/>
</mask>
<g mask="url(#mask0_2133_13846)">
<path d="M228.794 192.669C228.493 190.268 228.073 184.744 228.794 181.862C229.694 178.26 234.197 177.359 235.098 181.862C235.998 186.365 235.998 196.272 233.297 198.974C230.595 201.675 226.542 198.073 219.337 197.623C212.132 197.172 204.027 194.921 199.974 191.318C195.922 187.716 181.962 184.564 152.243 184.114C128.467 183.753 113.517 169.854 109.014 162.95C104.211 153.343 93.704 130.978 90.1016 118.37" stroke="black"/>
<path d="M235.096 194.47C238.548 195.071 245.993 195.461 248.154 192.219C250.156 189.217 248.451 182.895 247.115 179.473C246.915 178.961 246.646 178.484 246.33 178.035C244.093 174.856 240.153 169.358 239.148 168.353C237.797 167.002 232.844 170.604 235.996 176.458C239.148 182.312 240.049 186.815 239.148 189.517" stroke="black"/>
<path d="M249.504 188.617C252.056 188.767 257.249 188.256 257.609 185.014C258.06 180.961 254.908 172.856 250.405 166.102C245.902 159.347 242.75 166.552 243.65 169.254C244.551 171.956 248.603 178.26 248.603 180.511" stroke="black"/>
<path d="M258.063 183.213C260.164 183.063 264.367 181.502 264.367 176.458C264.367 170.154 258.513 162.949 258.063 162.499C257.613 162.049 253.56 162.949 255.361 167.903C257.162 172.856 258.064 175.558 256.712 177.809" stroke="black"/>
<path d="M209.879 172.856C211.53 173.756 216.093 175.287 221.136 174.207C222.864 173.836 224.254 173.138 225.352 172.308C228.209 170.149 231.263 167.377 234.842 167.269L243.651 167.002" stroke="black"/>
<path d="M221.137 194.021C221.737 192.37 224.019 189.067 228.341 189.067" stroke="black"/>
<path d="M91.9029 83.2471C91.3025 104.261 89.1111 151.062 85.1484 170.155" stroke="black"/>
<path d="M23.457 170.604H113.967" stroke="black"/>
<path d="M262.566 170.604H283.28" stroke="black"/>
<path d="M64.4336 39.5674C65.6344 41.2185 71.3712 43.1621 83.7964 45.4213C103.61 49.0237 118.92 67.9362 124.774 85.9481L145.635 142.998C146.402 145.095 148.009 146.772 150.06 147.655C156.185 150.292 165.601 154.544 170.704 157.546C178.359 162.049 198.623 163.85 203.576 162.049C208.529 160.247 215.284 153.943 227.442 155.744C239.6 157.546 243.202 158.446 245.904 157.996C248.606 157.546 251.308 158.897 251.758 161.148C252.118 162.949 250.407 164.3 249.506 164.75" stroke="black"/>
<path d="M66.2918 112.855C58.8758 109.592 53.6278 117.537 53.6278 117.537C53.6278 117.537 48.3803 109.592 40.9639 112.85C35.1635 115.403 33.0263 122.527 36.1525 128.025C38.5608 132.262 43.4946 137.602 52.7666 144.212C53.0188 144.391 53.3207 144.487 53.6303 144.487C53.94 144.487 54.2422 144.391 54.4944 144.212C63.7611 137.607 68.6949 132.262 71.1033 128.03C74.2296 122.532 72.0871 115.408 66.2918 112.855Z" stroke="black" stroke-width="2" stroke-miterlimit="10"/>
</g>
</svg>
