<svg width="270" height="123" viewBox="0 0 270 123" fill="none" xmlns="http://www.w3.org/2000/svg">
<rect x="55" y="32" width="160" height="54" rx="10" fill="#1AB58F"/>
<path d="M120.4 65.24C119.557 65.24 118.797 65.0933 118.12 64.8C117.448 64.5067 116.893 64.088 116.456 63.544C116.024 62.9947 115.749 62.344 115.632 61.592L117.632 61.288C117.802 61.9707 118.152 62.4987 118.68 62.872C119.213 63.2453 119.826 63.432 120.52 63.432C120.93 63.432 121.317 63.368 121.68 63.24C122.042 63.112 122.336 62.9253 122.56 62.68C122.789 62.4347 122.904 62.1333 122.904 61.776C122.904 61.616 122.877 61.4693 122.824 61.336C122.77 61.1973 122.69 61.0747 122.584 60.968C122.482 60.8613 122.349 60.7653 122.184 60.68C122.024 60.5893 121.837 60.512 121.624 60.448L118.648 59.568C118.392 59.4933 118.114 59.3947 117.816 59.272C117.522 59.144 117.242 58.9707 116.976 58.752C116.714 58.528 116.498 58.2453 116.328 57.904C116.162 57.5573 116.08 57.1307 116.08 56.624C116.08 55.8827 116.266 55.2613 116.64 54.76C117.018 54.2533 117.525 53.8747 118.16 53.624C118.8 53.3733 119.509 53.2507 120.288 53.256C121.077 53.2613 121.781 53.3973 122.4 53.664C123.018 53.9253 123.536 54.3067 123.952 54.808C124.368 55.3093 124.661 55.9147 124.832 56.624L122.76 56.984C122.674 56.5787 122.509 56.2347 122.264 55.952C122.024 55.664 121.728 55.4453 121.376 55.296C121.029 55.1467 120.658 55.0667 120.264 55.056C119.88 55.0507 119.522 55.1093 119.192 55.232C118.866 55.3493 118.602 55.52 118.4 55.744C118.202 55.968 118.104 56.2293 118.104 56.528C118.104 56.8107 118.189 57.0427 118.36 57.224C118.53 57.4 118.741 57.5413 118.992 57.648C119.248 57.7493 119.506 57.8347 119.768 57.904L121.832 58.48C122.114 58.5547 122.432 58.656 122.784 58.784C123.136 58.912 123.474 59.0907 123.8 59.32C124.125 59.5493 124.392 59.8507 124.6 60.224C124.813 60.5973 124.92 61.072 124.92 61.648C124.92 62.2453 124.794 62.7707 124.544 63.224C124.298 63.672 123.965 64.0453 123.544 64.344C123.122 64.6427 122.64 64.8667 122.096 65.016C121.557 65.1653 120.992 65.24 120.4 65.24ZM131.715 65C131.145 65.1067 130.585 65.152 130.035 65.136C129.491 65.1253 129.003 65.0267 128.571 64.84C128.139 64.648 127.811 64.3467 127.587 63.936C127.39 63.5627 127.286 63.1813 127.275 62.792C127.265 62.4027 127.259 61.9627 127.259 61.472V53.96H129.179V61.36C129.179 61.7067 129.182 62.0107 129.187 62.272C129.198 62.5333 129.254 62.7467 129.355 62.912C129.547 63.232 129.854 63.4107 130.275 63.448C130.697 63.4853 131.177 63.464 131.715 63.384V65ZM125.691 57.872V56.36H131.715V57.872H125.691ZM135.989 65.24C135.365 65.24 134.837 65.1227 134.405 64.888C133.973 64.648 133.645 64.3307 133.421 63.936C133.202 63.5413 133.093 63.1067 133.093 62.632C133.093 62.216 133.162 61.8427 133.301 61.512C133.44 61.176 133.653 60.888 133.941 60.648C134.229 60.4027 134.602 60.2027 135.061 60.048C135.408 59.936 135.813 59.8347 136.277 59.744C136.746 59.6533 137.253 59.5707 137.797 59.496C138.346 59.416 138.92 59.3307 139.517 59.24L138.829 59.632C138.834 59.0347 138.701 58.5947 138.429 58.312C138.157 58.0293 137.698 57.888 137.053 57.888C136.664 57.888 136.288 57.9787 135.925 58.16C135.562 58.3413 135.309 58.6533 135.165 59.096L133.405 58.544C133.618 57.8133 134.024 57.2267 134.621 56.784C135.224 56.3413 136.034 56.12 137.053 56.12C137.821 56.12 138.496 56.2453 139.077 56.496C139.664 56.7467 140.098 57.1573 140.381 57.728C140.536 58.032 140.629 58.344 140.661 58.664C140.693 58.9787 140.709 59.3227 140.709 59.696V65H139.021V63.128L139.301 63.432C138.912 64.056 138.456 64.5147 137.933 64.808C137.416 65.096 136.768 65.24 135.989 65.24ZM136.373 63.704C136.81 63.704 137.184 63.6267 137.493 63.472C137.802 63.3173 138.048 63.128 138.229 62.904C138.416 62.68 138.541 62.4693 138.605 62.272C138.706 62.0267 138.762 61.7467 138.773 61.432C138.789 61.112 138.797 60.8533 138.797 60.656L139.389 60.832C138.808 60.9227 138.309 61.0027 137.893 61.072C137.477 61.1413 137.12 61.208 136.821 61.272C136.522 61.3307 136.258 61.3973 136.029 61.472C135.805 61.552 135.616 61.6453 135.461 61.752C135.306 61.8587 135.186 61.9813 135.101 62.12C135.021 62.2587 134.981 62.4213 134.981 62.608C134.981 62.8213 135.034 63.0107 135.141 63.176C135.248 63.336 135.402 63.464 135.605 63.56C135.813 63.656 136.069 63.704 136.373 63.704ZM142.792 65V56.36H144.496V58.464L144.288 58.192C144.395 57.904 144.536 57.6427 144.712 57.408C144.893 57.168 145.109 56.9707 145.36 56.816C145.573 56.672 145.808 56.56 146.064 56.48C146.325 56.3947 146.592 56.344 146.864 56.328C147.136 56.3067 147.4 56.3173 147.656 56.36V58.16C147.4 58.0853 147.104 58.0613 146.768 58.088C146.437 58.1147 146.139 58.208 145.872 58.368C145.605 58.512 145.387 58.696 145.216 58.92C145.051 59.144 144.928 59.4 144.848 59.688C144.768 59.9707 144.728 60.2773 144.728 60.608V65H142.792ZM154.247 65C153.676 65.1067 153.116 65.152 152.567 65.136C152.023 65.1253 151.535 65.0267 151.103 64.84C150.671 64.648 150.343 64.3467 150.118 63.936C149.921 63.5627 149.817 63.1813 149.807 62.792C149.796 62.4027 149.791 61.9627 149.791 61.472V53.96H151.711V61.36C151.711 61.7067 151.713 62.0107 151.719 62.272C151.729 62.5333 151.785 62.7467 151.887 62.912C152.079 63.232 152.385 63.4107 152.807 63.448C153.228 63.4853 153.708 63.464 154.247 63.384V65ZM148.223 57.872V56.36H154.247V57.872H148.223Z" fill="white"/>
<ellipse cx="135" cy="61.5" rx="134" ry="60.5" stroke="#1AB58F" stroke-width="2" stroke-dasharray="1 40"/>
</svg>
