<svg width="243" height="265" viewBox="0 0 243 265" fill="none" xmlns="http://www.w3.org/2000/svg">
<path d="M106.664 218.212C105.855 210.527 99.4176 211.134 96.2999 212.398C90.2332 218.06 82.3966 224.532 83.9136 228.071C86.8619 234.948 97.3114 238.435 100.344 237.929C103.377 237.424 106.664 218.212 106.664 218.212Z" stroke="black" stroke-width="2" stroke-linecap="round"/>
<path d="M136.492 220.743C137.301 213.059 143.739 213.665 146.856 214.929C152.923 220.591 160.76 227.063 159.243 230.602C156.294 237.48 145.845 240.966 142.812 240.46C139.779 239.955 136.492 220.743 136.492 220.743Z" stroke="black" stroke-width="2" stroke-linecap="round"/>
<path d="M119.056 220.433C115.32 212.83 108.777 215.924 105.972 218.421C101.717 226.578 95.9036 236.247 98.8278 239.309C104.511 245.261 116.811 244.844 119.811 243.16C122.812 241.476 119.056 220.433 119.056 220.433Z" fill="white" stroke="black" stroke-width="2" stroke-linecap="round"/>
<path d="M135.373 220.254C130.033 213.618 124.52 217.981 122.43 220.992C120.282 229.816 117.003 240.433 120.506 242.813C127.316 247.438 138.943 244.495 141.409 242.236C143.875 239.977 135.373 220.254 135.373 220.254Z" fill="white" stroke="black" stroke-width="2" stroke-linecap="round"/>
<path d="M220.669 40C239.712 61.7393 263.339 126.401 205.502 211.134C192.02 228.913 156.361 264.37 121.578 263.965" stroke="black"/>
<path d="M22.2571 40C3.28095 61.7423 -20.2629 126.413 37.3708 211.158C50.8052 228.939 86.8392 264.405 121.5 264" stroke="black"/>
<path d="M19.0531 84.6885C17.4915 78.6964 21.2384 72.4434 27.3514 71.4557L30.7217 70.9112C36.732 69.9401 42.1978 74.5235 42.6587 80.5943C42.8544 83.1712 43.1166 85.799 43.4662 88.0296C43.8655 90.5767 44.5276 93.5554 45.2363 96.406C46.7036 102.308 42.9544 108.368 36.951 109.338L33.4901 109.897C27.4009 110.881 21.8905 106.167 21.4965 100.011C21.326 97.3472 21.0776 94.6281 20.7158 92.3269C20.3457 89.973 19.7299 87.2858 19.0531 84.6885Z" stroke="#1D1D1D" stroke-width="2"/>
<path d="M30.3203 79.1816C31.7527 82.6363 34.4659 91.568 33.8593 99.657" stroke="#1D1D1D" stroke-width="2" stroke-linecap="round"/>
<path d="M225.619 84.6885C227.18 78.6964 223.434 72.4434 217.32 71.4557L213.95 70.9112C207.94 69.9401 202.474 74.5235 202.013 80.5943C201.817 83.1712 201.555 85.799 201.206 88.0296C200.806 90.5767 200.144 93.5554 199.436 96.406C197.968 102.308 201.718 108.368 207.721 109.338L211.182 109.897C217.271 110.881 222.781 106.167 223.175 100.011C223.346 97.3472 223.594 94.6281 223.956 92.3269C224.326 89.973 224.942 87.2858 225.619 84.6885Z" stroke="#1D1D1D" stroke-width="2"/>
<path d="M214.352 79.1816C212.919 82.6363 210.206 91.568 210.813 99.657" stroke="#1D1D1D" stroke-width="2" stroke-linecap="round"/>
<path d="M27.4288 124.796C25.0314 118.922 27.8464 112.254 33.9698 110.712L36.5312 110.067C42.5357 108.556 48.711 112.739 50.0783 118.75C50.4037 120.181 50.7587 121.572 51.1366 122.806C51.5939 124.3 52.2075 125.964 52.8776 127.635C55.1897 133.399 52.323 139.845 46.3265 141.355L43.6574 142.027C37.5616 143.562 31.3184 139.228 29.9972 133.114C29.6777 131.636 29.3216 130.199 28.9316 128.928C28.5337 127.631 28.0097 126.219 27.4288 124.796Z" stroke="#1D1D1D" stroke-width="2"/>
<path d="M37.2422 116.912C38.9894 119.627 42.5225 126.758 42.6777 133.559" stroke="#1D1D1D" stroke-width="2" stroke-linecap="round"/>
<path d="M217.239 124.796C219.637 118.922 216.822 112.254 210.698 110.712L208.137 110.067C202.132 108.556 195.957 112.739 194.59 118.75C194.264 120.181 193.909 121.572 193.531 122.806C193.074 124.3 192.461 125.964 191.79 127.635C189.478 133.399 192.345 139.845 198.341 141.355L201.011 142.027C207.106 143.562 213.35 139.228 214.671 133.114C214.99 131.636 215.346 130.199 215.736 128.928C216.134 127.631 216.658 126.219 217.239 124.796Z" stroke="#1D1D1D" stroke-width="2"/>
<path d="M207.426 116.912C205.679 119.627 202.145 126.758 201.99 133.559" stroke="#1D1D1D" stroke-width="2" stroke-linecap="round"/>
<path d="M35.6715 159.08C32.7115 153.531 34.7822 146.59 40.6212 144.302L41.5967 143.92C47.3276 141.675 53.851 145.033 55.8782 150.827C56.3481 152.17 56.8395 153.471 57.3326 154.621C57.9312 156.017 58.6909 157.56 59.5036 159.105C62.3735 164.56 60.2325 171.299 54.5089 173.541L53.4364 173.961C47.6226 176.238 41.0199 172.747 39.0245 166.851C38.5527 165.457 38.0532 164.108 37.5431 162.92C37.022 161.707 36.3736 160.397 35.6715 159.08Z" stroke="#1D1D1D" stroke-width="2"/>
<path d="M43.7539 150.291C45.7044 152.769 49.8506 159.385 50.831 166.028" stroke="#1D1D1D" stroke-width="2" stroke-linecap="round"/>
<path d="M209 159.08C211.96 153.531 209.89 146.59 204.051 144.302L203.075 143.92C197.344 141.675 190.821 145.033 188.794 150.827C188.324 152.17 187.832 153.471 187.339 154.621C186.741 156.017 185.981 157.56 185.168 159.105C182.298 164.56 184.439 171.299 190.163 173.541L191.235 173.961C197.049 176.238 203.652 172.747 205.647 166.851C206.119 165.457 206.619 164.108 207.129 162.92C207.65 161.707 208.298 160.397 209 159.08Z" stroke="#1D1D1D" stroke-width="2"/>
<path d="M200.918 150.291C198.967 152.769 194.821 159.385 193.841 166.028" stroke="#1D1D1D" stroke-width="2" stroke-linecap="round"/>
<path d="M47.4933 183.633C46.8171 180.057 49.0198 176.832 52.5861 175.36L60.9409 171.912C62.0879 171.439 63.3524 171.128 64.6468 171.372C66.2858 171.68 68.5744 172.513 70.0069 174.735C71.5805 177.176 71.6999 181.271 71.5566 184.076C71.4554 186.055 70.4261 187.816 68.8595 189.14L63.8052 193.411C59.729 196.855 52.7874 195.055 49.7863 190.406V190.406C48.6692 188.676 47.9496 186.047 47.4933 183.633Z" stroke="#1D1D1D" stroke-width="2"/>
<path d="M56.0117 176.803C57.9408 178.31 62.0573 182.506 63.091 187.236" stroke="#1D1D1D" stroke-width="2" stroke-linecap="round"/>
<path d="M200.339 185.996C201.015 182.419 198.812 179.195 195.246 177.723L186.891 174.274C185.744 173.801 184.48 173.49 183.185 173.734C181.546 174.043 179.258 174.875 177.825 177.097C176.252 179.538 176.132 183.634 176.275 186.438C176.377 188.417 177.406 190.179 178.973 191.502L184.027 195.773C188.103 199.217 195.045 197.417 198.046 192.769V192.769C199.163 191.038 199.882 188.409 200.339 185.996Z" stroke="#1D1D1D" stroke-width="2"/>
<path d="M191.82 179.166C189.891 180.673 185.775 184.87 184.741 189.599" stroke="#1D1D1D" stroke-width="2" stroke-linecap="round"/>
<path d="M70.0085 211.639C67.3794 216.695 69.2504 223.352 70.5145 226.048C88.4628 230.598 89.4725 215.179 90.4837 214.167C91.4948 213.156 98.8255 205.067 93.0115 201.781C88.3603 199.152 83.6585 201.697 81.8891 203.298C75.0639 211.892 73.2948 205.32 70.0085 211.639Z" stroke="black" stroke-width="2"/>
<path d="M81.3867 209.112C82.6508 209.365 85.3307 210.68 85.9373 213.915" stroke="black" stroke-width="2" stroke-linecap="round"/>
<path d="M60.6055 201.946C59.9537 199.297 61.1773 196.687 63.3977 194.862L65.4463 193.177C68.8891 190.347 74.3108 189.84 77.6212 192.957C77.9585 193.274 78.2889 193.604 78.6063 193.945C79.4159 194.814 80.153 195.691 80.8033 196.519C82.9239 199.219 82.7282 202.664 80.7806 205.358L80.1906 206.174C79.1547 207.607 77.6724 208.75 75.9084 209.477L72.9745 210.687C71.8515 211.15 70.6267 211.462 69.3815 211.275C67.7838 211.034 65.4705 210.336 63.6318 208.365C62.0683 206.689 61.1433 204.132 60.6055 201.946Z" fill="white" stroke="#1D1D1D" stroke-width="2"/>
<path d="M68.2422 196.598C69.866 197.399 73.443 199.816 74.7599 203.076" stroke="#1D1D1D" stroke-width="2" stroke-linecap="round"/>
<path d="M176.409 215.519C179.039 220.575 177.168 227.232 175.903 229.928C157.955 234.478 156.945 219.058 155.934 218.047C154.923 217.036 147.592 208.947 153.406 205.661C158.058 203.032 162.759 205.577 164.529 207.178C171.354 215.772 173.123 209.2 176.409 215.519Z" stroke="black" stroke-width="2"/>
<path d="M165.031 212.992C163.767 213.245 161.087 214.559 160.481 217.795" stroke="black" stroke-width="2" stroke-linecap="round"/>
<path d="M185.812 205.826C186.464 203.177 185.241 200.567 183.02 198.742L180.972 197.057C177.529 194.226 172.107 193.72 168.797 196.837C168.459 197.154 168.129 197.484 167.812 197.825C167.002 198.694 166.265 199.571 165.615 200.399C163.494 203.099 163.69 206.544 165.637 209.238L166.227 210.054C167.263 211.486 168.746 212.63 170.51 213.357L173.444 214.567C174.566 215.03 175.791 215.342 177.036 215.155C178.634 214.914 180.947 214.216 182.786 212.245C184.35 210.569 185.275 208.012 185.812 205.826Z" fill="white" stroke="#1D1D1D" stroke-width="2"/>
<path d="M178.176 200.478C176.552 201.279 172.975 203.696 171.658 206.956" stroke="#1D1D1D" stroke-width="2" stroke-linecap="round"/>
<path d="M106.664 218.212C105.855 210.527 99.4176 211.134 96.2999 212.398C90.2332 218.06 82.3966 224.532 83.9136 228.071C86.8619 234.948 97.3114 238.435 100.344 237.929C103.377 237.424 106.664 218.212 106.664 218.212Z" stroke="black" stroke-width="2" stroke-linecap="round"/>
<path d="M136.492 220.743C137.301 213.059 143.739 213.665 146.856 214.929C152.923 220.591 160.76 227.063 159.243 230.602C156.294 237.48 145.845 240.966 142.812 240.46C139.779 239.955 136.492 220.743 136.492 220.743Z" stroke="black" stroke-width="2" stroke-linecap="round"/>
<path d="M119.056 220.433C115.32 212.83 108.777 215.924 105.972 218.421C101.717 226.578 95.9036 236.247 98.8278 239.309C104.511 245.261 116.811 244.844 119.811 243.16C122.812 241.476 119.056 220.433 119.056 220.433Z" fill="white" stroke="black" stroke-width="2" stroke-linecap="round"/>
<path d="M135.373 220.254C130.033 213.618 124.52 217.981 122.43 220.992C120.282 229.816 117.003 240.433 120.506 242.813C127.316 247.438 138.943 244.495 141.409 242.236C143.875 239.977 135.373 220.254 135.373 220.254Z" fill="white" stroke="black" stroke-width="2" stroke-linecap="round"/>
<path d="M220.669 40C239.712 61.7393 263.339 126.401 205.502 211.134C192.02 228.913 156.361 264.37 121.578 263.965" stroke="black"/>
<path d="M22.2571 40C3.28095 61.7423 -20.2629 126.413 37.3708 211.158C50.8052 228.939 86.8392 264.405 121.5 264" stroke="black"/>
<path d="M19.0531 84.6885C17.4915 78.6964 21.2384 72.4434 27.3514 71.4557L30.7217 70.9112C36.732 69.9401 42.1978 74.5235 42.6587 80.5943C42.8544 83.1712 43.1166 85.799 43.4662 88.0296C43.8655 90.5767 44.5276 93.5554 45.2363 96.406C46.7036 102.308 42.9544 108.368 36.951 109.338L33.4901 109.897C27.4009 110.881 21.8905 106.167 21.4965 100.011C21.326 97.3472 21.0776 94.6281 20.7158 92.3269C20.3457 89.973 19.7299 87.2858 19.0531 84.6885Z" stroke="#1D1D1D" stroke-width="2"/>
<path d="M30.3203 79.1816C31.7527 82.6363 34.4659 91.568 33.8593 99.657" stroke="#1D1D1D" stroke-width="2" stroke-linecap="round"/>
<path d="M225.619 84.6885C227.18 78.6964 223.434 72.4434 217.32 71.4557L213.95 70.9112C207.94 69.9401 202.474 74.5235 202.013 80.5943C201.817 83.1712 201.555 85.799 201.206 88.0296C200.806 90.5767 200.144 93.5554 199.436 96.406C197.968 102.308 201.718 108.368 207.721 109.338L211.182 109.897C217.271 110.881 222.781 106.167 223.175 100.011C223.346 97.3472 223.594 94.6281 223.956 92.3269C224.326 89.973 224.942 87.2858 225.619 84.6885Z" stroke="#1D1D1D" stroke-width="2"/>
<path d="M214.352 79.1816C212.919 82.6363 210.206 91.568 210.813 99.657" stroke="#1D1D1D" stroke-width="2" stroke-linecap="round"/>
<path d="M27.4288 124.796C25.0314 118.922 27.8464 112.254 33.9698 110.712L36.5312 110.067C42.5357 108.556 48.711 112.739 50.0783 118.75C50.4037 120.181 50.7587 121.572 51.1366 122.806C51.5939 124.3 52.2075 125.964 52.8776 127.635C55.1897 133.399 52.323 139.845 46.3265 141.355L43.6574 142.027C37.5616 143.562 31.3184 139.228 29.9972 133.114C29.6777 131.636 29.3216 130.199 28.9316 128.928C28.5337 127.631 28.0097 126.219 27.4288 124.796Z" stroke="#1D1D1D" stroke-width="2"/>
<path d="M37.2422 116.912C38.9894 119.627 42.5225 126.758 42.6777 133.559" stroke="#1D1D1D" stroke-width="2" stroke-linecap="round"/>
<path d="M217.239 124.796C219.637 118.922 216.822 112.254 210.698 110.712L208.137 110.067C202.132 108.556 195.957 112.739 194.59 118.75C194.264 120.181 193.909 121.572 193.531 122.806C193.074 124.3 192.461 125.964 191.79 127.635C189.478 133.399 192.345 139.845 198.341 141.355L201.011 142.027C207.106 143.562 213.35 139.228 214.671 133.114C214.99 131.636 215.346 130.199 215.736 128.928C216.134 127.631 216.658 126.219 217.239 124.796Z" stroke="#1D1D1D" stroke-width="2"/>
<path d="M207.426 116.912C205.679 119.627 202.145 126.758 201.99 133.559" stroke="#1D1D1D" stroke-width="2" stroke-linecap="round"/>
<path d="M35.6715 159.08C32.7115 153.531 34.7822 146.59 40.6212 144.302L41.5967 143.92C47.3276 141.675 53.851 145.033 55.8782 150.827C56.3481 152.17 56.8395 153.471 57.3326 154.621C57.9312 156.017 58.6909 157.56 59.5036 159.105C62.3735 164.56 60.2325 171.299 54.5089 173.541L53.4364 173.961C47.6226 176.238 41.0199 172.747 39.0245 166.851C38.5527 165.457 38.0532 164.108 37.5431 162.92C37.022 161.707 36.3736 160.397 35.6715 159.08Z" stroke="#1D1D1D" stroke-width="2"/>
<path d="M43.7539 150.291C45.7044 152.769 49.8506 159.385 50.831 166.028" stroke="#1D1D1D" stroke-width="2" stroke-linecap="round"/>
<path d="M209 159.08C211.96 153.531 209.89 146.59 204.051 144.302L203.075 143.92C197.344 141.675 190.821 145.033 188.794 150.827C188.324 152.17 187.832 153.471 187.339 154.621C186.741 156.017 185.981 157.56 185.168 159.105C182.298 164.56 184.439 171.299 190.163 173.541L191.235 173.961C197.049 176.238 203.652 172.747 205.647 166.851C206.119 165.457 206.619 164.108 207.129 162.92C207.65 161.707 208.298 160.397 209 159.08Z" stroke="#1D1D1D" stroke-width="2"/>
<path d="M200.918 150.291C198.967 152.769 194.821 159.385 193.841 166.028" stroke="#1D1D1D" stroke-width="2" stroke-linecap="round"/>
<path d="M47.4933 183.633C46.8171 180.057 49.0198 176.832 52.5861 175.36L60.9409 171.912C62.0879 171.439 63.3524 171.128 64.6468 171.372C66.2858 171.68 68.5744 172.513 70.0069 174.735C71.5805 177.176 71.6999 181.271 71.5566 184.076C71.4554 186.055 70.4261 187.816 68.8595 189.14L63.8052 193.411C59.729 196.855 52.7874 195.055 49.7863 190.406V190.406C48.6692 188.676 47.9496 186.047 47.4933 183.633Z" stroke="#1D1D1D" stroke-width="2"/>
<path d="M56.0117 176.803C57.9408 178.31 62.0573 182.506 63.091 187.236" stroke="#1D1D1D" stroke-width="2" stroke-linecap="round"/>
<path d="M200.339 185.996C201.015 182.419 198.812 179.195 195.246 177.723L186.891 174.274C185.744 173.801 184.48 173.49 183.185 173.734C181.546 174.043 179.258 174.875 177.825 177.097C176.252 179.538 176.132 183.634 176.275 186.438C176.377 188.417 177.406 190.179 178.973 191.502L184.027 195.773C188.103 199.217 195.045 197.417 198.046 192.769V192.769C199.163 191.038 199.882 188.409 200.339 185.996Z" stroke="#1D1D1D" stroke-width="2"/>
<path d="M191.82 179.166C189.891 180.673 185.775 184.87 184.741 189.599" stroke="#1D1D1D" stroke-width="2" stroke-linecap="round"/>
<path d="M70.0085 211.639C67.3794 216.695 69.2504 223.352 70.5145 226.048C88.4628 230.598 89.4725 215.179 90.4837 214.167C91.4948 213.156 98.8255 205.067 93.0115 201.781C88.3603 199.152 83.6585 201.697 81.8891 203.298C75.0639 211.892 73.2948 205.32 70.0085 211.639Z" stroke="black" stroke-width="2"/>
<path d="M81.3867 209.112C82.6508 209.365 85.3307 210.68 85.9373 213.915" stroke="black" stroke-width="2" stroke-linecap="round"/>
<path d="M60.6055 201.946C59.9537 199.297 61.1773 196.687 63.3977 194.862L65.4463 193.177C68.8891 190.347 74.3108 189.84 77.6212 192.957C77.9585 193.274 78.2889 193.604 78.6063 193.945C79.4159 194.814 80.153 195.691 80.8033 196.519C82.9239 199.219 82.7282 202.664 80.7806 205.358L80.1906 206.174C79.1547 207.607 77.6724 208.75 75.9084 209.477L72.9745 210.687C71.8515 211.15 70.6267 211.462 69.3815 211.275C67.7838 211.034 65.4705 210.336 63.6318 208.365C62.0683 206.689 61.1433 204.132 60.6055 201.946Z" fill="white" stroke="#1D1D1D" stroke-width="2"/>
<path d="M68.2422 196.598C69.866 197.399 73.443 199.816 74.7599 203.076" stroke="#1D1D1D" stroke-width="2" stroke-linecap="round"/>
<path d="M176.409 215.519C179.039 220.575 177.168 227.232 175.903 229.928C157.955 234.478 156.945 219.058 155.934 218.047C154.923 217.036 147.592 208.947 153.406 205.661C158.058 203.032 162.759 205.577 164.529 207.178C171.354 215.772 173.123 209.2 176.409 215.519Z" stroke="black" stroke-width="2"/>
<path d="M165.031 212.992C163.767 213.245 161.087 214.559 160.481 217.795" stroke="black" stroke-width="2" stroke-linecap="round"/>
<path d="M185.812 205.826C186.464 203.177 185.241 200.567 183.02 198.742L180.972 197.057C177.529 194.226 172.107 193.72 168.797 196.837C168.459 197.154 168.129 197.484 167.812 197.825C167.002 198.694 166.265 199.571 165.615 200.399C163.494 203.099 163.69 206.544 165.637 209.238L166.227 210.054C167.263 211.486 168.746 212.63 170.51 213.357L173.444 214.567C174.566 215.03 175.791 215.342 177.036 215.155C178.634 214.914 180.947 214.216 182.786 212.245C184.35 210.569 185.275 208.012 185.812 205.826Z" fill="white" stroke="#1D1D1D" stroke-width="2"/>
<path d="M178.176 200.478C176.552 201.279 172.975 203.696 171.658 206.956" stroke="#1D1D1D" stroke-width="2" stroke-linecap="round"/>
<path d="M83 89C83 94.7535 81.5121 99.8685 79.2122 103.483C76.8972 107.12 73.945 109 71 109C68.055 109 65.1028 107.12 62.7878 103.483C60.4879 99.8685 59 94.7535 59 89C59 83.2465 60.4879 78.1315 62.7878 74.5174C65.1028 70.8796 68.055 69 71 69C73.945 69 76.8972 70.8796 79.2122 74.5174C81.5121 78.1315 83 83.2465 83 89Z" fill="#32EE94" stroke="#1FC174" stroke-width="4"/>
<path d="M184 89C184 94.7399 182.463 99.845 180.083 103.456C177.693 107.083 174.617 109 171.5 109C168.383 109 165.307 107.083 162.917 103.456C160.537 99.845 159 94.7399 159 89C159 83.2601 160.537 78.155 162.917 74.5443C165.307 70.9175 168.383 69 171.5 69C174.617 69 177.693 70.9175 180.083 74.5443C182.463 78.155 184 83.2601 184 89Z" fill="#32EE94" stroke="#1FC174" stroke-width="4"/>
<path opacity="0.5" d="M61.4 21V6.6H62.87V13.09H70.83V6.6H72.29V21H70.83V14.5H62.87V21H61.4ZM79.6614 21.3C78.6081 21.3 77.6947 21.0667 76.9214 20.6C76.1547 20.1333 75.5581 19.4767 75.1314 18.63C74.7047 17.7833 74.4914 16.79 74.4914 15.65C74.4914 14.47 74.7014 13.45 75.1214 12.59C75.5414 11.73 76.1314 11.0667 76.8914 10.6C77.6581 10.1333 78.5614 9.9 79.6014 9.9C80.6681 9.9 81.5781 10.1467 82.3314 10.64C83.0847 11.1267 83.6547 11.8267 84.0414 12.74C84.4281 13.6533 84.6047 14.7433 84.5714 16.01H83.0714V15.49C83.0447 14.09 82.7414 13.0333 82.1614 12.32C81.5881 11.6067 80.7481 11.25 79.6414 11.25C78.4814 11.25 77.5914 11.6267 76.9714 12.38C76.3581 13.1333 76.0514 14.2067 76.0514 15.6C76.0514 16.96 76.3581 18.0167 76.9714 18.77C77.5914 19.5167 78.4681 19.89 79.6014 19.89C80.3747 19.89 81.0481 19.7133 81.6214 19.36C82.2014 19 82.6581 18.4833 82.9914 17.81L84.3614 18.34C83.9347 19.28 83.3047 20.01 82.4714 20.53C81.6447 21.0433 80.7081 21.3 79.6614 21.3ZM75.5314 16.01V14.78H83.7814V16.01H75.5314ZM89.6853 21.3C88.872 21.3 88.1886 21.1533 87.6353 20.86C87.0886 20.5667 86.6786 20.1767 86.4053 19.69C86.132 19.2033 85.9953 18.6733 85.9953 18.1C85.9953 17.5133 86.112 17.0133 86.3453 16.6C86.5853 16.18 86.9086 15.8367 87.3153 15.57C87.7286 15.3033 88.2053 15.1 88.7453 14.96C89.292 14.8267 89.8953 14.71 90.5553 14.61C91.222 14.5033 91.872 14.4133 92.5053 14.34C93.1453 14.26 93.7053 14.1833 94.1853 14.11L93.6653 14.43C93.6853 13.3633 93.4786 12.5733 93.0453 12.06C92.612 11.5467 91.8586 11.29 90.7853 11.29C90.0453 11.29 89.4186 11.4567 88.9053 11.79C88.3986 12.1233 88.042 12.65 87.8353 13.37L86.4053 12.95C86.652 11.9833 87.1486 11.2333 87.8953 10.7C88.642 10.1667 89.612 9.9 90.8053 9.9C91.792 9.9 92.6286 10.0867 93.3153 10.46C94.0086 10.8267 94.4986 11.36 94.7853 12.06C94.9186 12.3733 95.0053 12.7233 95.0453 13.11C95.0853 13.4967 95.1053 13.89 95.1053 14.29V21H93.7953V18.29L94.1753 18.45C93.8086 19.3767 93.2386 20.0833 92.4653 20.57C91.692 21.0567 90.7653 21.3 89.6853 21.3ZM89.8553 20.03C90.542 20.03 91.142 19.9067 91.6553 19.66C92.1686 19.4133 92.582 19.0767 92.8953 18.65C93.2086 18.2167 93.412 17.73 93.5053 17.19C93.5853 16.8433 93.6286 16.4633 93.6353 16.05C93.642 15.63 93.6453 15.3167 93.6453 15.11L94.2053 15.4C93.7053 15.4667 93.162 15.5333 92.5753 15.6C91.9953 15.6667 91.422 15.7433 90.8553 15.83C90.2953 15.9167 89.7886 16.02 89.3353 16.14C89.0286 16.2267 88.732 16.35 88.4453 16.51C88.1586 16.6633 87.922 16.87 87.7353 17.13C87.5553 17.39 87.4653 17.7133 87.4653 18.1C87.4653 18.4133 87.542 18.7167 87.6953 19.01C87.8553 19.3033 88.1086 19.5467 88.4553 19.74C88.8086 19.9333 89.2753 20.03 89.8553 20.03ZM103.589 21C102.982 21.1267 102.382 21.1767 101.789 21.15C101.202 21.1233 100.675 20.9967 100.209 20.77C99.7486 20.5433 99.3986 20.19 99.1586 19.71C98.9653 19.31 98.8586 18.9067 98.8386 18.5C98.8253 18.0867 98.8186 17.6167 98.8186 17.09V7.2H100.279V17.03C100.279 17.4833 100.282 17.8633 100.289 18.17C100.302 18.47 100.372 18.7367 100.499 18.97C100.739 19.4167 101.119 19.6833 101.639 19.77C102.165 19.8567 102.815 19.8367 103.589 19.71V21ZM96.5086 11.46V10.2H103.589V11.46H96.5086ZM109.72 21V6.6H115.28C115.42 6.6 115.577 6.60667 115.75 6.62C115.93 6.62667 116.11 6.64667 116.29 6.68C117.044 6.79333 117.68 7.05667 118.2 7.47C118.727 7.87667 119.124 8.39 119.39 9.01C119.664 9.63 119.8 10.3167 119.8 11.07C119.8 11.8167 119.664 12.5 119.39 13.12C119.117 13.74 118.717 14.2567 118.19 14.67C117.67 15.0767 117.037 15.3367 116.29 15.45C116.11 15.4767 115.93 15.4967 115.75 15.51C115.577 15.5233 115.42 15.53 115.28 15.53H111.19V21H109.72ZM111.19 14.13H115.24C115.36 14.13 115.5 14.1233 115.66 14.11C115.82 14.0967 115.977 14.0733 116.13 14.04C116.624 13.9333 117.027 13.73 117.34 13.43C117.66 13.13 117.897 12.7733 118.05 12.36C118.21 11.9467 118.29 11.5167 118.29 11.07C118.29 10.6233 118.21 10.1933 118.05 9.78C117.897 9.36 117.66 9 117.34 8.7C117.027 8.4 116.624 8.19667 116.13 8.09C115.977 8.05667 115.82 8.03667 115.66 8.03C115.5 8.01667 115.36 8.01 115.24 8.01H111.19V14.13ZM126.242 21.3C125.169 21.3 124.252 21.0567 123.492 20.57C122.732 20.0833 122.149 19.41 121.742 18.55C121.335 17.69 121.132 16.7033 121.132 15.59C121.132 14.4567 121.339 13.4633 121.752 12.61C122.165 11.7567 122.752 11.0933 123.512 10.62C124.279 10.14 125.189 9.9 126.242 9.9C127.322 9.9 128.242 10.1433 129.002 10.63C129.769 11.11 130.352 11.78 130.752 12.64C131.159 13.4933 131.362 14.4767 131.362 15.59C131.362 16.7233 131.159 17.72 130.752 18.58C130.345 19.4333 129.759 20.1 128.992 20.58C128.225 21.06 127.309 21.3 126.242 21.3ZM126.242 19.89C127.442 19.89 128.335 19.4933 128.922 18.7C129.509 17.9 129.802 16.8633 129.802 15.59C129.802 14.2833 129.505 13.2433 128.912 12.47C128.325 11.6967 127.435 11.31 126.242 11.31C125.435 11.31 124.769 11.4933 124.242 11.86C123.722 12.22 123.332 12.7233 123.072 13.37C122.819 14.01 122.692 14.75 122.692 15.59C122.692 16.89 122.992 17.9333 123.592 18.72C124.192 19.5 125.075 19.89 126.242 19.89ZM138.048 21.3C136.961 21.3 136.041 21.0567 135.288 20.57C134.535 20.0833 133.961 19.4133 133.568 18.56C133.181 17.7 132.981 16.7133 132.968 15.6C132.981 14.4667 133.188 13.4733 133.588 12.62C133.988 11.76 134.565 11.0933 135.318 10.62C136.071 10.14 136.985 9.9 138.058 9.9C139.151 9.9 140.101 10.1667 140.908 10.7C141.721 11.2333 142.278 11.9633 142.578 12.89L141.138 13.35C140.885 12.7033 140.481 12.2033 139.928 11.85C139.381 11.49 138.755 11.31 138.048 11.31C137.255 11.31 136.598 11.4933 136.078 11.86C135.558 12.22 135.171 12.7233 134.918 13.37C134.665 14.0167 134.535 14.76 134.528 15.6C134.541 16.8933 134.841 17.9333 135.428 18.72C136.015 19.5 136.888 19.89 138.048 19.89C138.781 19.89 139.405 19.7233 139.918 19.39C140.438 19.05 140.831 18.5567 141.098 17.91L142.578 18.35C142.178 19.31 141.591 20.0433 140.818 20.55C140.045 21.05 139.121 21.3 138.048 21.3ZM144.632 21L144.642 6.6H146.122V15.4L150.942 10.2H152.902L147.842 15.6L153.562 21H151.422L146.122 15.8V21H144.632ZM158.939 21.3C157.885 21.3 156.972 21.0667 156.199 20.6C155.432 20.1333 154.835 19.4767 154.409 18.63C153.982 17.7833 153.769 16.79 153.769 15.65C153.769 14.47 153.979 13.45 154.399 12.59C154.819 11.73 155.409 11.0667 156.169 10.6C156.935 10.1333 157.839 9.9 158.879 9.9C159.945 9.9 160.855 10.1467 161.609 10.64C162.362 11.1267 162.932 11.8267 163.319 12.74C163.705 13.6533 163.882 14.7433 163.849 16.01H162.349V15.49C162.322 14.09 162.019 13.0333 161.439 12.32C160.865 11.6067 160.025 11.25 158.919 11.25C157.759 11.25 156.869 11.6267 156.249 12.38C155.635 13.1333 155.329 14.2067 155.329 15.6C155.329 16.96 155.635 18.0167 156.249 18.77C156.869 19.5167 157.745 19.89 158.879 19.89C159.652 19.89 160.325 19.7133 160.899 19.36C161.479 19 161.935 18.4833 162.269 17.81L163.639 18.34C163.212 19.28 162.582 20.01 161.749 20.53C160.922 21.0433 159.985 21.3 158.939 21.3ZM154.809 16.01V14.78H163.059V16.01H154.809ZM171.948 21C171.341 21.1267 170.741 21.1767 170.148 21.15C169.561 21.1233 169.035 20.9967 168.568 20.77C168.108 20.5433 167.758 20.19 167.518 19.71C167.325 19.31 167.218 18.9067 167.198 18.5C167.185 18.0867 167.178 17.6167 167.178 17.09V7.2H168.638V17.03C168.638 17.4833 168.641 17.8633 168.648 18.17C168.661 18.47 168.731 18.7367 168.858 18.97C169.098 19.4167 169.478 19.6833 169.998 19.77C170.525 19.8567 171.175 19.8367 171.948 19.71V21ZM164.868 11.46V10.2H171.948V11.46H164.868ZM178.106 21.29C176.839 21.29 175.796 21.0167 174.976 20.47C174.162 19.9233 173.662 19.1633 173.476 18.19L174.976 17.94C175.136 18.5533 175.499 19.0433 176.066 19.41C176.639 19.77 177.346 19.95 178.186 19.95C179.006 19.95 179.652 19.78 180.126 19.44C180.599 19.0933 180.836 18.6233 180.836 18.03C180.836 17.6967 180.759 17.4267 180.606 17.22C180.459 17.0067 180.156 16.81 179.696 16.63C179.236 16.45 178.549 16.2367 177.636 15.99C176.656 15.7233 175.889 15.4567 175.336 15.19C174.782 14.9233 174.389 14.6167 174.156 14.27C173.922 13.9167 173.806 13.4867 173.806 12.98C173.806 12.3667 173.979 11.83 174.326 11.37C174.672 10.9033 175.152 10.5433 175.766 10.29C176.379 10.03 177.092 9.9 177.906 9.9C178.719 9.9 179.446 10.0333 180.086 10.3C180.732 10.56 181.252 10.9267 181.646 11.4C182.039 11.8733 182.272 12.4233 182.346 13.05L180.846 13.32C180.746 12.6867 180.429 12.1867 179.896 11.82C179.369 11.4467 178.699 11.2533 177.886 11.24C177.119 11.22 176.496 11.3667 176.016 11.68C175.536 11.9867 175.296 12.3967 175.296 12.91C175.296 13.1967 175.382 13.4433 175.556 13.65C175.729 13.85 176.042 14.04 176.496 14.22C176.956 14.4 177.609 14.5967 178.456 14.81C179.449 15.0633 180.229 15.33 180.796 15.61C181.362 15.89 181.766 16.22 182.006 16.6C182.246 16.98 182.366 17.45 182.366 18.01C182.366 19.03 181.986 19.8333 181.226 20.42C180.472 21 179.432 21.29 178.106 21.29Z" fill="black"/>
<path d="M68 83L121.5 30L175 83" stroke="#12884F" stroke-width="2" stroke-linecap="round"/>
</svg>
