<svg width="175" height="191" viewBox="0 0 175 191" fill="none" xmlns="http://www.w3.org/2000/svg">
<path d="M173.418 48C173.418 74.0411 154.086 95 130.418 95C106.75 95 87.418 74.0411 87.418 48C87.418 21.9589 106.75 1 130.418 1C154.086 1 173.418 21.9589 173.418 48Z" stroke="#1D1D1D" stroke-width="2"/>
<path d="M166.418 48C166.418 70.1904 150.206 88 130.418 88C110.63 88 94.418 70.1904 94.418 48C94.418 25.8096 110.63 8 130.418 8C150.206 8 166.418 25.8096 166.418 48Z" stroke="#1D1D1D" stroke-width="2"/>
<path d="M146.918 48C146.918 62.6824 136.128 74.5 122.918 74.5C109.708 74.5 98.918 62.6824 98.918 48C98.918 33.3176 109.708 21.5 122.918 21.5C136.128 21.5 146.918 33.3176 146.918 48Z" stroke="#1D1D1D"/>
<path fill-rule="evenodd" clip-rule="evenodd" d="M126.917 65V75C126.917 94.7619 121.286 124.105 103.952 148.353C86.1983 173.189 56.6284 191.938 10.9909 189.991L1 189.565L1.85231 169.583L11.8432 170.009C50.6057 171.662 73.7858 156.161 87.6819 136.722C101.998 116.695 106.917 91.7381 106.917 75V65H126.917Z" fill="white" stroke="black" stroke-linecap="square"/>
<path d="M136.418 48.5C136.418 65.9267 122.733 80 105.918 80C89.1025 80 75.418 65.9267 75.418 48.5C75.418 31.0733 89.1025 17 105.918 17C122.733 17 136.418 31.0733 136.418 48.5Z" fill="white" stroke="#1D1D1D" stroke-width="2"/>
<path d="M126.918 49C126.918 63.132 116.574 74.5 103.918 74.5C91.2618 74.5 80.918 63.132 80.918 49C80.918 34.868 91.2618 23.5 103.918 23.5C116.574 23.5 126.918 34.868 126.918 49Z" stroke="#1D1D1D"/>
</svg>
