<svg width="321" height="94" viewBox="0 0 321 94" fill="none" xmlns="http://www.w3.org/2000/svg">
<rect x="133.5" y="17.5" width="85" height="39" rx="9.5" fill="white" stroke="#125873"/>
<path d="M158.007 43V31.48H159.935V41.192H165.023V43H158.007ZM169.618 43.248C168.978 43.248 168.45 43.1413 168.034 42.928C167.618 42.7147 167.288 42.4427 167.042 42.112C166.797 41.7813 166.616 41.4293 166.498 41.056C166.381 40.6827 166.304 40.3307 166.266 40C166.234 39.664 166.218 39.392 166.218 39.184V34.36H168.17V38.52C168.17 38.7867 168.189 39.088 168.226 39.424C168.264 39.7547 168.349 40.0747 168.482 40.384C168.621 40.688 168.824 40.9387 169.09 41.136C169.362 41.3333 169.728 41.432 170.186 41.432C170.432 41.432 170.674 41.392 170.914 41.312C171.154 41.232 171.37 41.096 171.562 40.904C171.76 40.7067 171.917 40.4373 172.034 40.096C172.152 39.7547 172.21 39.3227 172.21 38.8L173.354 39.288C173.354 40.024 173.21 40.6907 172.922 41.288C172.64 41.8853 172.221 42.3627 171.666 42.72C171.112 43.072 170.429 43.248 169.618 43.248ZM172.442 43V40.32H172.21V34.36H174.146V43H172.442ZM182.37 43V38.84C182.37 38.568 182.351 38.2667 182.314 37.936C182.277 37.6053 182.189 37.288 182.05 36.984C181.917 36.6747 181.714 36.4213 181.442 36.224C181.175 36.0267 180.813 35.928 180.354 35.928C180.109 35.928 179.866 35.968 179.626 36.048C179.386 36.128 179.167 36.2667 178.97 36.464C178.778 36.656 178.623 36.9227 178.506 37.264C178.389 37.6 178.33 38.032 178.33 38.56L177.186 38.072C177.186 37.336 177.327 36.6693 177.61 36.072C177.898 35.4747 178.319 35 178.874 34.648C179.429 34.2907 180.111 34.112 180.922 34.112C181.562 34.112 182.09 34.2187 182.506 34.432C182.922 34.6453 183.253 34.9173 183.498 35.248C183.743 35.5787 183.925 35.9307 184.042 36.304C184.159 36.6773 184.234 37.032 184.266 37.368C184.303 37.6987 184.322 37.968 184.322 38.176V43H182.37ZM176.378 43V34.36H178.098V37.04H178.33V43H176.378ZM190.042 47.08C189.562 47.08 189.1 47.0053 188.658 46.856C188.22 46.7067 187.826 46.4907 187.474 46.208C187.122 45.9307 186.834 45.5947 186.61 45.2L188.386 44.32C188.551 44.6347 188.783 44.8667 189.082 45.016C189.386 45.1707 189.708 45.248 190.05 45.248C190.45 45.248 190.807 45.176 191.122 45.032C191.436 44.8933 191.679 44.6853 191.85 44.408C192.026 44.136 192.108 43.7947 192.098 43.384V40.928H192.338V34.36H194.026V43.416C194.026 43.6347 194.015 43.8427 193.994 44.04C193.978 44.2427 193.948 44.44 193.906 44.632C193.778 45.192 193.532 45.6507 193.17 46.008C192.807 46.3707 192.356 46.64 191.818 46.816C191.284 46.992 190.692 47.08 190.042 47.08ZM189.874 43.24C189.079 43.24 188.386 43.04 187.794 42.64C187.202 42.24 186.743 41.696 186.418 41.008C186.092 40.32 185.93 39.544 185.93 38.68C185.93 37.8053 186.092 37.0267 186.418 36.344C186.748 35.656 187.215 35.1147 187.818 34.72C188.42 34.32 189.13 34.12 189.946 34.12C190.767 34.12 191.455 34.32 192.01 34.72C192.57 35.1147 192.994 35.656 193.282 36.344C193.57 37.032 193.714 37.8107 193.714 38.68C193.714 39.5387 193.57 40.3147 193.282 41.008C192.994 41.696 192.564 42.24 191.994 42.64C191.423 43.04 190.716 43.24 189.874 43.24ZM190.17 41.512C190.687 41.512 191.103 41.3947 191.418 41.16C191.738 40.92 191.97 40.5867 192.114 40.16C192.263 39.7333 192.338 39.24 192.338 38.68C192.338 38.1147 192.263 37.6213 192.114 37.2C191.97 36.7733 191.743 36.4427 191.434 36.208C191.124 35.968 190.724 35.848 190.234 35.848C189.716 35.848 189.29 35.976 188.954 36.232C188.618 36.4827 188.37 36.824 188.21 37.256C188.05 37.6827 187.97 38.1573 187.97 38.68C187.97 39.208 188.047 39.688 188.202 40.12C188.362 40.5467 188.604 40.8853 188.93 41.136C189.255 41.3867 189.668 41.512 190.17 41.512Z" fill="#125873"/>
<rect x="235.5" y="17.5" width="85" height="39" rx="9.5" fill="white" stroke="#125873"/>
<path d="M255.902 43V31.48H260.47C261.249 31.48 261.886 31.6373 262.382 31.952C262.883 32.2613 263.254 32.6587 263.494 33.144C263.739 33.6293 263.862 34.1307 263.862 34.648C263.862 35.2827 263.71 35.8213 263.406 36.264C263.107 36.7067 262.699 37.0053 262.182 37.16V36.76C262.907 36.9253 263.457 37.2693 263.83 37.792C264.209 38.3147 264.398 38.9093 264.398 39.576C264.398 40.2587 264.267 40.856 264.006 41.368C263.745 41.88 263.355 42.28 262.838 42.568C262.326 42.856 261.691 43 260.934 43H255.902ZM257.854 41.184H260.694C261.03 41.184 261.331 41.1173 261.598 40.984C261.865 40.8453 262.073 40.6533 262.222 40.408C262.377 40.1573 262.454 39.8613 262.454 39.52C262.454 39.2107 262.387 38.9333 262.254 38.688C262.121 38.4427 261.926 38.248 261.67 38.104C261.414 37.9547 261.107 37.88 260.75 37.88H257.854V41.184ZM257.854 36.08H260.446C260.723 36.08 260.971 36.0267 261.19 35.92C261.409 35.8133 261.582 35.656 261.71 35.448C261.838 35.24 261.902 34.984 261.902 34.68C261.902 34.28 261.774 33.9467 261.518 33.68C261.262 33.4133 260.905 33.28 260.446 33.28H257.854V36.08ZM269.812 43.24C268.948 43.24 268.193 43.0453 267.548 42.656C266.902 42.2667 266.401 41.7307 266.044 41.048C265.692 40.36 265.516 39.5707 265.516 38.68C265.516 37.7733 265.697 36.9787 266.06 36.296C266.422 35.6133 266.926 35.08 267.572 34.696C268.217 34.312 268.964 34.12 269.812 34.12C270.681 34.12 271.438 34.3147 272.084 34.704C272.729 35.0933 273.23 35.632 273.588 36.32C273.945 37.0027 274.124 37.7893 274.124 38.68C274.124 39.576 273.942 40.368 273.58 41.056C273.222 41.7387 272.721 42.2747 272.076 42.664C271.43 43.048 270.676 43.24 269.812 43.24ZM269.812 41.432C270.58 41.432 271.15 41.176 271.524 40.664C271.897 40.152 272.084 39.4907 272.084 38.68C272.084 37.8427 271.894 37.176 271.516 36.68C271.137 36.1787 270.569 35.928 269.812 35.928C269.294 35.928 268.868 36.0453 268.532 36.28C268.201 36.5093 267.956 36.832 267.796 37.248C267.636 37.6587 267.556 38.136 267.556 38.68C267.556 39.5173 267.745 40.1867 268.124 40.688C268.508 41.184 269.07 41.432 269.812 41.432ZM277.414 43L274.774 34.344L276.662 34.36L278.35 39.904L280.062 34.36H281.686L283.39 39.904L285.086 34.36H286.974L284.334 43H282.83L280.87 37.056L278.918 43H277.414ZM292.033 43.24C291.158 43.24 290.39 43.0507 289.729 42.672C289.068 42.2933 288.55 41.768 288.177 41.096C287.809 40.424 287.625 39.6507 287.625 38.776C287.625 37.832 287.806 37.0133 288.169 36.32C288.532 35.6213 289.036 35.08 289.681 34.696C290.326 34.312 291.073 34.12 291.921 34.12C292.817 34.12 293.577 34.3307 294.201 34.752C294.83 35.168 295.297 35.7573 295.601 36.52C295.905 37.2827 296.02 38.1813 295.945 39.216H294.033V38.512C294.028 37.5733 293.862 36.888 293.537 36.456C293.212 36.024 292.7 35.808 292.001 35.808C291.212 35.808 290.625 36.0533 290.241 36.544C289.857 37.0293 289.665 37.7413 289.665 38.68C289.665 39.5547 289.857 40.232 290.241 40.712C290.625 41.192 291.185 41.432 291.921 41.432C292.396 41.432 292.804 41.328 293.145 41.12C293.492 40.9067 293.758 40.6 293.945 40.2L295.849 40.776C295.518 41.5547 295.006 42.16 294.313 42.592C293.625 43.024 292.865 43.24 292.033 43.24ZM289.057 39.216V37.76H295.001V39.216H289.057ZM297.89 43V31.24H299.818V43H297.89Z" fill="#125873"/>
<g filter="url(#filter0_d_2133_16237)">
<rect x="20" y="10" width="97" height="54" rx="10" fill="#125873"/>
</g>
<path d="M47.3466 43V31.48H49.2746V36.328H54.7306V31.48H56.6506V43H54.7306V38.136H49.2746V43H47.3466ZM62.8214 43.24C61.9468 43.24 61.1788 43.0507 60.5174 42.672C59.8561 42.2933 59.3388 41.768 58.9654 41.096C58.5974 40.424 58.4134 39.6507 58.4134 38.776C58.4134 37.832 58.5948 37.0133 58.9574 36.32C59.3201 35.6213 59.8241 35.08 60.4694 34.696C61.1148 34.312 61.8614 34.12 62.7094 34.12C63.6054 34.12 64.3654 34.3307 64.9894 34.752C65.6188 35.168 66.0854 35.7573 66.3894 36.52C66.6934 37.2827 66.8081 38.1813 66.7334 39.216H64.8214V38.512C64.8161 37.5733 64.6508 36.888 64.3254 36.456C64.0001 36.024 63.4881 35.808 62.7894 35.808C62.0001 35.808 61.4134 36.0533 61.0294 36.544C60.6454 37.0293 60.4534 37.7413 60.4534 38.68C60.4534 39.5547 60.6454 40.232 61.0294 40.712C61.4134 41.192 61.9734 41.432 62.7094 41.432C63.1841 41.432 63.5921 41.328 63.9334 41.12C64.2801 40.9067 64.5468 40.6 64.7334 40.2L66.6374 40.776C66.3068 41.5547 65.7948 42.16 65.1014 42.592C64.4134 43.024 63.6534 43.24 62.8214 43.24ZM59.8454 39.216V37.76H65.7894V39.216H59.8454ZM70.7782 43.24C70.1542 43.24 69.6262 43.1227 69.1942 42.888C68.7622 42.648 68.4342 42.3307 68.2102 41.936C67.9915 41.5413 67.8822 41.1067 67.8822 40.632C67.8822 40.216 67.9515 39.8427 68.0902 39.512C68.2289 39.176 68.4422 38.888 68.7302 38.648C69.0182 38.4027 69.3915 38.2027 69.8502 38.048C70.1969 37.936 70.6022 37.8347 71.0662 37.744C71.5355 37.6533 72.0422 37.5707 72.5862 37.496C73.1355 37.416 73.7089 37.3307 74.3062 37.24L73.6182 37.632C73.6235 37.0347 73.4902 36.5947 73.2182 36.312C72.9462 36.0293 72.4875 35.888 71.8422 35.888C71.4529 35.888 71.0769 35.9787 70.7142 36.16C70.3515 36.3413 70.0982 36.6533 69.9542 37.096L68.1942 36.544C68.4075 35.8133 68.8129 35.2267 69.4102 34.784C70.0129 34.3413 70.8235 34.12 71.8422 34.12C72.6102 34.12 73.2849 34.2453 73.8662 34.496C74.4529 34.7467 74.8875 35.1573 75.1702 35.728C75.3249 36.032 75.4182 36.344 75.4502 36.664C75.4822 36.9787 75.4982 37.3227 75.4982 37.696V43H73.8102V41.128L74.0902 41.432C73.7009 42.056 73.2449 42.5147 72.7222 42.808C72.2049 43.096 71.5569 43.24 70.7782 43.24ZM71.1622 41.704C71.5995 41.704 71.9729 41.6267 72.2822 41.472C72.5915 41.3173 72.8369 41.128 73.0182 40.904C73.2049 40.68 73.3302 40.4693 73.3942 40.272C73.4955 40.0267 73.5515 39.7467 73.5622 39.432C73.5782 39.112 73.5862 38.8533 73.5862 38.656L74.1782 38.832C73.5969 38.9227 73.0982 39.0027 72.6822 39.072C72.2662 39.1413 71.9089 39.208 71.6102 39.272C71.3115 39.3307 71.0475 39.3973 70.8182 39.472C70.5942 39.552 70.4049 39.6453 70.2502 39.752C70.0955 39.8587 69.9755 39.9813 69.8902 40.12C69.8102 40.2587 69.7702 40.4213 69.7702 40.608C69.7702 40.8213 69.8235 41.0107 69.9302 41.176C70.0369 41.336 70.1915 41.464 70.3942 41.56C70.6022 41.656 70.8582 41.704 71.1622 41.704ZM77.5809 43V34.36H79.2849V36.464L79.0769 36.192C79.1836 35.904 79.3249 35.6427 79.5009 35.408C79.6823 35.168 79.8983 34.9707 80.1489 34.816C80.3623 34.672 80.5969 34.56 80.8529 34.48C81.1143 34.3947 81.3809 34.344 81.6529 34.328C81.9249 34.3067 82.1889 34.3173 82.4449 34.36V36.16C82.1889 36.0853 81.8929 36.0613 81.5569 36.088C81.2263 36.1147 80.9276 36.208 80.6609 36.368C80.3943 36.512 80.1756 36.696 80.0049 36.92C79.8396 37.144 79.7169 37.4 79.6369 37.688C79.5569 37.9707 79.5169 38.2773 79.5169 38.608V43H77.5809ZM89.0356 43C88.4649 43.1067 87.9049 43.152 87.3556 43.136C86.8116 43.1253 86.3236 43.0267 85.8916 42.84C85.4596 42.648 85.1316 42.3467 84.9076 41.936C84.7102 41.5627 84.6062 41.1813 84.5956 40.792C84.5849 40.4027 84.5796 39.9627 84.5796 39.472V31.96H86.4996V39.36C86.4996 39.7067 86.5022 40.0107 86.5076 40.272C86.5182 40.5333 86.5742 40.7467 86.6756 40.912C86.8676 41.232 87.1742 41.4107 87.5956 41.448C88.0169 41.4853 88.4969 41.464 89.0356 41.384V43ZM83.0116 35.872V34.36H89.0356V35.872H83.0116Z" fill="white"/>
<defs>
<filter id="filter0_d_2133_16237" x="0" y="0" width="137" height="94" filterUnits="userSpaceOnUse" color-interpolation-filters="sRGB">
<feFlood flood-opacity="0" result="BackgroundImageFix"/>
<feColorMatrix in="SourceAlpha" type="matrix" values="0 0 0 0 0 0 0 0 0 0 0 0 0 0 0 0 0 0 127 0" result="hardAlpha"/>
<feOffset dy="10"/>
<feGaussianBlur stdDeviation="10"/>
<feComposite in2="hardAlpha" operator="out"/>
<feColorMatrix type="matrix" values="0 0 0 0 0.0705882 0 0 0 0 0.345098 0 0 0 0 0.45098 0 0 0 0.19 0"/>
<feBlend mode="normal" in2="BackgroundImageFix" result="effect1_dropShadow_2133_16237"/>
<feBlend mode="normal" in="SourceGraphic" in2="effect1_dropShadow_2133_16237" result="shape"/>
</filter>
</defs>
</svg>
