<svg width="243" height="245" viewBox="0 0 243 245" fill="none" xmlns="http://www.w3.org/2000/svg">
<path d="M99 100C99 126.041 79.6681 147 56 147C32.3319 147 13 126.041 13 100C13 73.9589 32.3319 53 56 53C79.6681 53 99 73.9589 99 100Z" stroke="#1D1D1D" stroke-width="2"/>
<path d="M92 100C92 122.19 75.7882 140 56 140C36.2118 140 20 122.19 20 100C20 77.8096 36.2118 60 56 60C75.7882 60 92 77.8096 92 100Z" stroke="#1D1D1D" stroke-width="2"/>
<path d="M72.5 100C72.5 114.682 61.7102 126.5 48.5 126.5C35.2898 126.5 24.5 114.682 24.5 100C24.5 85.3176 35.2898 73.5 48.5 73.5C61.7102 73.5 72.5 85.3176 72.5 100Z" stroke="#1D1D1D"/>
<path fill-rule="evenodd" clip-rule="evenodd" d="M29.5829 119V129C29.5829 148.762 35.2143 178.105 52.5478 202.353C70.3017 227.189 99.8716 245.938 145.509 243.991L155.5 243.565L154.648 223.583L144.657 224.009C105.894 225.662 82.7142 210.161 68.8181 190.722C54.5016 170.695 49.5829 145.738 49.5829 129V119H29.5829Z" fill="white" stroke="black" stroke-linecap="square"/>
<path d="M62 100.5C62 117.927 48.3155 132 31.5 132C14.6845 132 1 117.927 1 100.5C1 83.0733 14.6845 69 31.5 69C48.3155 69 62 83.0733 62 100.5Z" fill="white" stroke="#1D1D1D" stroke-width="2"/>
<path d="M52.5 101C52.5 115.132 42.1562 126.5 29.5 126.5C16.8438 126.5 6.5 115.132 6.5 101C6.5 86.868 16.8438 75.5 29.5 75.5C42.1562 75.5 52.5 86.868 52.5 101Z" stroke="#1D1D1D"/>
<path d="M115.082 36L118.082 31.5L120.582 35.5L122.582 42.5L129.082 45L130.582 47L128.582 49L122.582 51.5L120.082 59.5L118.082 62L115.582 59.5L113.582 51.5L109.082 49.5L105.082 47L108.082 44.5L113.582 42.5L115.082 36Z" fill="white"/>
<path d="M94.582 5.5L97.582 1L100.082 5L102.082 12L108.582 14.5L110.082 16.5L108.082 18.5L102.082 21L99.582 29L97.582 31.5L95.082 29L93.082 21L88.582 19L84.582 16.5L87.582 14L93.082 12L94.582 5.5Z" fill="white"/>
<path d="M78.582 54.5L81.582 50L84.082 54L86.082 61L92.582 63.5L94.082 65.5L92.082 67.5L86.082 70L83.582 78L81.582 80.5L79.082 78L77.082 70L72.582 68L68.582 65.5L71.582 63L77.082 61L78.582 54.5Z" fill="white"/>
<path d="M97.5763 32.4397C96.4625 32.4397 95.5172 31.7571 95.168 30.701L92.1164 21.4969C92.0562 21.3128 91.9173 21.1661 91.7378 21.0927L85.4969 18.5724C84.5332 18.1833 83.9102 17.2595 83.9102 16.2199C83.9102 15.1802 84.5332 14.2564 85.4969 13.8673L91.7378 11.3464C91.9186 11.2737 92.0562 11.1269 92.1158 10.9441L95.1681 1.73871C95.5172 0.682621 96.4633 0 97.5763 0C98.6887 0 99.6347 0.682654 99.9839 1.74005L103.034 10.9435C103.095 11.1269 103.233 11.2743 103.414 11.347L109.655 13.868C110.619 14.2571 111.242 15.1809 111.242 16.2205C111.242 17.2602 110.619 18.184 109.655 18.5731L103.414 21.094C103.233 21.1674 103.095 21.3148 103.034 21.4982L99.9839 30.7017C99.634 31.7571 98.6886 32.4397 97.5763 32.4397ZM97.5763 1.87852C97.4642 1.87852 97.0895 1.91128 96.9506 2.32991L93.899 11.5347C93.6658 12.2416 93.1338 12.8089 92.4413 13.0887L86.2005 15.6096C85.8283 15.7603 85.7877 16.0872 85.7877 16.2202C85.7877 16.3538 85.8283 16.6807 86.2005 16.8308L92.4413 19.3517C93.1345 19.6328 93.6658 20.1995 93.8997 20.9077L96.9501 30.1104C97.0883 30.529 97.4637 30.5618 97.5758 30.5618C97.6865 30.5618 98.0619 30.529 98.2001 30.1104L101.251 20.9063C101.485 20.1988 102.016 19.6321 102.709 19.3523V19.3517L108.95 16.8307C109.322 16.6801 109.362 16.3531 109.362 16.2201C109.362 16.0865 109.322 15.7596 108.95 15.6096L102.709 13.0886C102.017 12.8089 101.485 12.2428 101.251 11.5346L98.2001 2.33055C98.0625 1.91126 97.687 1.87852 97.5763 1.87852Z" fill="black"/>
<path d="M81.2463 81.6308C80.1339 81.6308 79.1879 80.9475 78.8381 79.8908L75.7876 70.6873C75.7261 70.5032 75.5885 70.3565 75.409 70.2831L69.1694 67.7628C68.2044 67.3737 67.582 66.4506 67.582 65.411C67.582 64.3706 68.2051 63.4475 69.1688 63.0584L75.4097 60.5368C75.5892 60.4641 75.7267 60.3167 75.7883 60.1326L78.8387 50.9291C79.1892 49.8724 80.1346 49.1904 81.247 49.1904C82.3594 49.1904 83.3054 49.8731 83.6552 50.9291L86.7056 60.1332C86.7672 60.3167 86.9048 60.4641 87.0836 60.5361L93.3259 63.0584C94.2896 63.4476 94.9126 64.3707 94.9126 65.411C94.9126 66.45 94.2896 67.3738 93.3259 67.7629L87.0843 70.2831C86.9048 70.3565 86.7672 70.5033 86.7056 70.6874L83.6552 79.8908C83.3041 80.9475 82.3587 81.6308 81.2463 81.6308ZM81.2463 51.0696C81.1343 51.0696 80.7595 51.1023 80.6206 51.521L77.5702 60.7251C77.3344 61.4339 76.8037 62.0006 76.1119 62.2797L69.8723 64.8C69.5002 64.9507 69.4596 65.2776 69.4596 65.4119C69.4596 65.5449 69.5002 65.8724 69.8723 66.0225L76.1119 68.5427C76.8043 68.8225 77.3357 69.3892 77.5702 70.0974L80.6206 79.3008C80.7602 79.7201 81.1343 79.7529 81.2463 79.7529C81.3583 79.7529 81.7324 79.7201 81.872 79.3008L84.9224 70.0974C85.1569 69.3892 85.6882 68.8225 86.3801 68.5427L86.3807 68.5421L92.6223 66.0218C92.9937 65.8724 93.0343 65.5449 93.0343 65.4119C93.0343 65.2782 92.9937 64.9507 92.6216 64.8L86.3801 62.2784C85.6895 62.0006 85.1582 61.4339 84.9224 60.7257L81.872 51.5209C81.7331 51.1023 81.3577 51.0696 81.2463 51.0696Z" fill="black"/>
<path d="M117.914 63.0029C116.802 63.0029 115.856 62.3196 115.506 61.2628L112.456 52.0594C112.394 51.8753 112.256 51.7286 112.077 51.6552L105.837 49.1349C104.872 48.7458 104.25 47.8227 104.25 46.783C104.25 45.7427 104.873 44.8196 105.837 44.4305L112.078 41.9089C112.257 41.8361 112.395 41.6887 112.456 41.5046L115.507 32.3012C115.857 31.2445 116.803 30.5625 117.915 30.5625C119.027 30.5625 119.973 31.2452 120.323 32.3012L123.374 41.506C123.435 41.6894 123.573 41.8368 123.752 41.9089L129.994 44.4312C130.958 44.8203 131.581 45.7434 131.581 46.7837C131.581 47.8228 130.958 48.7465 129.994 49.1356L123.752 51.6559C123.573 51.7292 123.435 51.876 123.374 52.0601L120.323 61.2635C119.973 62.3196 119.027 63.0029 117.914 63.0029ZM117.914 32.44C117.802 32.44 117.427 32.4727 117.289 32.8914L114.238 42.0948C114.002 42.8037 113.472 43.3704 112.78 43.6494L106.54 46.1697C106.168 46.3204 106.128 46.6473 106.128 46.7816C106.128 46.9146 106.168 47.2422 106.54 47.3922L112.78 49.9125C113.472 50.1922 114.004 50.7589 114.238 51.4671L117.289 60.6705C117.428 61.0898 117.802 61.1226 117.914 61.1226C118.026 61.1226 118.4 61.0898 118.54 60.6705L121.59 51.4671C121.825 50.7589 122.356 50.1922 123.048 49.9125L123.049 49.9118L129.29 47.3915C129.662 47.2422 129.702 46.9146 129.702 46.7816C129.702 46.648 129.662 46.3204 129.29 46.1697L123.048 43.6481C122.358 43.3703 121.826 42.8036 121.59 42.0954L118.54 32.8913C118.401 32.4727 118.026 32.44 117.914 32.44Z" fill="black"/>
<path d="M175.941 146.613C175.941 146.617 175.941 146.621 175.941 146.626C175.941 146.638 175.942 146.651 175.942 146.664L175.938 211.63C175.938 211.631 175.938 211.633 175.938 211.635C175.938 211.636 175.938 211.638 175.938 211.64L175.937 227.637C175.937 229.497 177.538 231.038 180.399 232.287C183.216 233.517 187.038 234.363 191.006 234.941C198.933 236.096 207.297 236.16 209.01 236.16C210.722 236.16 219.086 236.096 227.012 234.941C230.981 234.363 234.802 233.517 237.62 232.287C240.481 231.038 242.082 229.498 242.082 227.637V143.596C241.968 141.686 241.575 139.852 240.909 138.013L240.909 138.012C239.889 135.17 238.285 132.561 236.153 130.241L230.633 124.268L230.501 124.124L230.501 123.929L230.497 119.928L230.496 119.428H230.997H232.099C233.058 119.428 233.84 118.646 233.84 117.687V109.095C233.84 108.136 233.058 107.354 232.099 107.354H228.957H228.457V106.854V99.9133C228.457 98.9543 227.675 98.1724 226.716 98.1724H222.747H222.247V97.6724V76.8394C222.247 74.432 220.285 72.4697 217.877 72.4697H200.689C198.276 72.4697 196.314 74.4324 196.314 76.8394V97.6711V98.1711H195.814H191.371C190.412 98.1711 189.63 98.953 189.63 99.9121V106.853V107.353H189.13H185.922C184.963 107.353 184.181 108.135 184.181 109.094V117.685C184.181 118.644 184.963 119.426 185.922 119.426H187.005H187.504L187.505 119.925L187.515 123.926L187.515 124.122L187.382 124.266L181.867 130.24L181.867 130.24C179.729 132.555 178.125 135.175 177.106 138.017L177.105 138.018C176.446 139.845 176.058 141.674 175.939 143.455V145.545L175.941 145.543V146.613ZM175.92 211.505C175.918 211.499 175.917 211.495 175.916 211.491L175.914 211.785C175.915 211.781 175.917 211.774 175.92 211.765C175.921 211.76 175.923 211.754 175.924 211.747C175.926 211.74 175.928 211.732 175.929 211.722C175.93 211.718 175.931 211.713 175.932 211.708C175.933 211.701 175.934 211.694 175.934 211.686C175.936 211.674 175.937 211.658 175.937 211.64C175.937 211.638 175.937 211.636 175.937 211.635C175.937 211.633 175.937 211.631 175.937 211.63C175.937 211.611 175.936 211.596 175.934 211.583C175.934 211.577 175.933 211.572 175.932 211.567C175.931 211.56 175.93 211.553 175.929 211.547C175.928 211.537 175.926 211.529 175.924 211.522C175.923 211.515 175.921 211.509 175.92 211.505ZM230.997 120.428L231.001 123.928L176.635 137.848C177.678 134.94 179.319 132.263 181.5 129.901L187.015 123.927L187.005 119.926H185.922C184.687 119.926 183.681 118.92 183.681 117.685V109.094C183.681 107.859 184.687 106.853 185.922 106.853H188.63H189.13V106.353V99.9121C189.13 98.6769 190.136 97.6711 191.371 97.6711H195.314H195.814V97.1711V76.8394C195.814 74.1559 198 71.9697 200.689 71.9697H217.877C220.561 71.9697 222.747 74.1559 222.747 76.8394V97.1724V97.6724H223.247H226.716C227.951 97.6724 228.957 98.6782 228.957 99.9133V106.354V106.854H229.457H232.099C233.334 106.854 234.34 107.86 234.34 109.095V117.687C234.34 118.922 233.334 119.928 232.099 119.928H231.497V119.927L230.997 119.928V120.428H230.997ZM217.867 75.9513L218.37 75.9402L218.378 76.4428L218.733 97.6637L218.742 98.1721H218.233H200.297H199.797V97.6721V94.1872V93.7854L200.189 93.6989C203.137 93.0495 205.333 90.6545 205.333 87.7197C205.333 84.7848 203.137 82.3899 200.189 81.7404L199.797 81.654V81.2521V76.8388V76.3497L200.286 76.3389L217.867 75.9513ZM199.796 85.931V84.9968L201.35 87.7209H201.85C201.85 87.7212 201.85 87.7214 201.85 87.7217C201.85 88.6751 201.297 89.4427 200.574 89.9263L199.796 90.4465V89.5107V85.931ZM224.474 101.655H224.974L224.974 102.155L224.973 106.855L224.973 107.355H224.473H193.61H193.11V106.855V102.155V101.655H193.61H224.474ZM229.858 110.836H230.358L230.358 111.336L230.357 115.446L230.357 115.946H229.857H228.753H228.748H188.162H187.662V115.446V111.336V110.836H188.162H229.858ZM238.605 143.689L238.606 143.704L238.606 143.718L238.604 146.448L238.604 146.611L238.508 146.743C238.284 147.049 237.903 147.33 237.441 147.589C236.966 147.855 236.355 148.126 235.621 148.394C234.151 148.932 232.146 149.476 229.651 149.963C224.66 150.937 217.672 151.688 209.008 151.688C200.294 151.688 193.281 150.928 188.289 149.947C185.795 149.456 183.796 148.908 182.338 148.368C181.61 148.098 181.006 147.827 180.54 147.56C180.087 147.3 179.712 147.017 179.5 146.703L179.414 146.576L179.414 146.422L179.416 143.58L179.416 143.564L179.417 143.548C179.503 142.226 179.831 140.71 180.38 139.192C181.245 136.781 182.604 134.565 184.424 132.6L190.534 125.983C190.831 125.66 190.997 125.236 190.997 124.798C190.997 124.798 190.997 124.798 190.997 124.797L190.986 119.929L190.985 119.428H191.486H226.517H227.016L227.017 119.927L227.024 124.803C227.024 124.804 227.024 124.804 227.024 124.805C227.03 125.243 227.192 125.663 227.488 125.984L233.598 132.602L233.598 132.602C235.412 134.567 236.77 136.788 237.641 139.192L237.641 139.193C238.191 140.718 238.519 142.23 238.605 143.689ZM237.896 151.151L238.604 150.826L238.604 151.605L238.601 211.448L238.601 211.613L238.503 211.745C238.278 212.05 237.897 212.33 237.433 212.589C236.958 212.855 236.347 213.125 235.612 213.394C234.141 213.932 232.135 214.475 229.641 214.961C224.651 215.934 217.667 216.684 209.008 216.684C200.232 216.684 193.176 215.913 188.173 214.921C185.672 214.425 183.675 213.872 182.227 213.328C181.504 213.056 180.907 212.782 180.45 212.513C180.008 212.254 179.638 211.965 179.441 211.639L179.368 211.519L179.368 211.379L179.41 151.605L179.411 150.826L180.119 151.151C184.292 153.066 190.837 154.079 196.719 154.607C202.582 155.133 207.711 155.172 209.008 155.172C210.305 155.172 215.434 155.133 221.296 154.606C227.178 154.078 233.723 153.066 237.896 151.151ZM238.599 227.638L238.599 227.787L238.518 227.912C238.325 228.207 237.956 228.464 237.531 228.692C237.085 228.933 236.497 229.183 235.782 229.435C234.349 229.94 232.36 230.468 229.862 230.947C224.866 231.907 217.8 232.68 209.008 232.68C200.217 232.68 193.15 231.907 188.143 230.913C185.641 230.417 183.644 229.863 182.199 229.319C181.477 229.047 180.882 228.773 180.427 228.504C179.989 228.244 179.619 227.954 179.426 227.625L179.357 227.507L179.357 227.371L179.364 216.574L179.365 215.792L180.074 216.12C184.236 218.046 190.79 219.064 196.687 219.595C202.563 220.125 207.708 220.165 209.008 220.165C210.305 220.165 215.432 220.125 221.293 219.599C227.174 219.071 233.718 218.06 237.892 216.146L238.601 215.821L238.601 216.6L238.599 227.638Z" fill="black" stroke="white"/>
<path d="M209.005 161.151C195.498 161.151 184.507 172.142 184.507 185.649C184.507 199.157 195.498 210.148 209.005 210.148C222.513 210.148 233.504 199.157 233.504 185.649C233.504 172.142 222.513 161.151 209.005 161.151ZM209.006 164.633C220.595 164.633 230.022 174.06 230.022 185.649C230.022 197.239 220.595 206.666 209.006 206.666C197.416 206.666 187.989 197.239 187.989 185.649C187.989 174.06 197.416 164.633 209.006 164.633Z" fill="black" stroke="white"/>
<path d="M203.568 190.588H204.068V191.088V198.199C204.068 199.158 204.85 199.94 205.809 199.94H212.209C213.168 199.94 213.95 199.158 213.95 198.199V191.088V190.588H214.45H221.556C222.515 190.588 223.297 189.806 223.297 188.847V182.447C223.297 181.488 222.515 180.706 221.556 180.706H214.45H213.95V180.206V173.1C213.95 172.141 213.168 171.359 212.209 171.359H205.809C204.85 171.359 204.068 172.141 204.068 173.1V180.206V180.706H203.568H196.458C195.499 180.706 194.717 181.488 194.717 182.447V188.847C194.717 189.806 195.499 190.588 196.458 190.588H203.568ZM208.049 196.457H207.549V195.957V188.847C207.549 187.888 206.768 187.106 205.809 187.106H198.697H198.197V186.606V184.688V184.188H198.697H205.808C206.767 184.188 207.549 183.406 207.549 182.447V175.341V174.841H208.049H209.967H210.467V175.341V182.447C210.467 183.406 211.249 184.188 212.208 184.188H219.314H219.814V184.688V186.606V187.106H219.314H212.208C211.249 187.106 210.467 187.888 210.467 188.847V195.957V196.457H209.967H208.049Z" fill="black" stroke="white"/>
<path d="M159.31 99.9689C159.676 100.018 160.042 100.04 160.408 100.04C164.025 100.04 167.11 97.6294 168.234 94.2256C171.366 93.7366 179.53 92.4641 185.277 91.5682C188.788 91.021 191.397 90.6143 191.408 90.6124C192.49 90.4329 193.282 89.4985 193.281 88.4041L159.31 99.9689ZM159.31 99.9689C159.026 99.9317 158.757 99.8528 158.486 99.7736C158.394 99.7468 158.302 99.72 158.21 99.6947L159.31 99.9689ZM163.219 76.9062L163.714 76.9721C163.661 77.3728 163.731 77.8884 163.919 78.3456C164.11 78.8099 164.388 79.13 164.683 79.2556L164.692 79.2598L164.702 79.2644L164.702 79.2646C164.706 79.2661 164.716 79.2701 164.739 79.2781C164.789 79.2959 164.881 79.3277 165.063 79.3882C165.425 79.5086 166.124 79.7378 167.501 80.1863C170.254 81.083 175.71 82.8547 186.583 86.3819L186.507 87.3514L162.748 91.1109C161.803 91.2782 161.171 92.176 161.332 93.1222C161.446 93.7641 161.958 94.2108 162.656 94.3943L163.733 94.6778L162.805 95.2943C161.968 95.8505 160.944 96.1706 159.829 96.0268L159.828 96.0267C158.471 95.8481 157.294 95.0636 156.598 93.8774C156.112 93.054 155.053 92.781 154.215 93.2631C153.389 93.7518 153.114 94.8166 153.601 95.6434L153.601 95.6438C153.906 96.1609 154.265 96.6336 154.668 97.0619L155.021 97.4379L154.634 97.7792C153.175 99.0664 151.169 99.6932 149.11 99.4206C146.574 99.0888 144.566 97.4377 143.664 95.3057L143.376 94.6245L144.115 94.611C144.387 94.6061 144.643 94.5976 144.893 94.5692L144.896 94.5689C145.85 94.4664 146.538 93.611 146.437 92.6536L146.436 92.6519C146.336 91.68 145.529 90.974 144.537 91.1118L144.524 91.1136L144.511 91.1147C144.1 91.1499 143.664 91.1444 143.238 91.0973L143.238 91.0974L143.228 91.096C140.292 90.7095 138.227 88.0047 138.606 85.0709L138.606 85.0692C138.744 84.0279 139.193 83.0902 139.84 82.3254L140.329 81.7488L140.669 82.4234C140.904 82.8909 141.136 83.3282 141.421 83.7316L141.422 83.7325C141.757 84.2076 142.296 84.4667 142.839 84.4667C143.185 84.4667 143.538 84.3618 143.845 84.1437L143.846 84.1434C144.624 83.5927 144.813 82.5055 144.256 81.72L144.256 81.7191C143.304 80.3706 142.894 78.7253 143.108 77.0921L143.108 77.0902C143.34 75.3655 144.221 73.8305 145.606 72.7708C146.966 71.7207 148.677 71.3077 150.317 71.4848L151.046 71.5636L150.706 72.2138C150.229 73.1245 149.892 74.0979 149.757 75.1294L149.757 75.13C149.63 76.0819 150.295 76.9491 151.243 77.0813C152.266 77.1768 153.082 76.5256 153.203 75.5896L153.203 75.5882C153.389 74.1851 154.108 72.9341 155.23 72.0715C156.354 71.2082 157.788 70.8395 159.148 71.0214C160.551 71.2082 161.802 71.9269 162.665 73.055C163.527 74.1768 163.902 75.5726 163.714 76.9725L163.219 76.9062ZM163.219 76.9062C163.388 75.6387 163.049 74.3761 162.268 73.3591L164.486 79.7155C163.563 79.3217 163.087 77.9008 163.219 76.9062ZM191.322 90.1198L191.326 90.1192L191.73 83.8736C191.575 84.3492 191.575 84.3492 191.575 84.3491L191.575 84.3491L191.574 84.3489L191.572 84.3481L191.562 84.3449L191.522 84.3321L191.368 84.282L190.777 84.0901L188.624 83.3912C186.818 82.8048 184.351 82.0038 181.706 81.145C176.418 79.4276 170.419 77.4791 167.582 76.5555L167.243 76.445L167.237 76.0883C167.207 74.2511 166.582 72.4466 165.422 70.9353C163.994 69.0737 161.927 67.88 159.599 67.5745L159.598 67.5743C157.624 67.31 155.666 67.7599 153.968 68.7821L153.748 68.9149L153.512 68.8125C152.656 68.4413 151.788 68.1549 150.878 68.0332C148.209 67.6948 145.604 68.3874 143.485 70.0107C141.366 71.635 140.009 73.9859 139.66 76.6315L139.66 76.6321C139.617 76.9499 139.617 77.2629 139.616 77.6128C139.615 77.6925 139.615 77.774 139.614 77.8579L139.612 78.136L139.374 78.2806C137.102 79.6647 135.513 81.9423 135.157 84.6157C134.683 88.2488 136.493 91.6662 139.472 93.4117L139.693 93.5412L139.717 93.7962C140.148 98.3708 143.797 102.229 148.652 102.866L148.652 102.866C149.128 102.929 149.603 102.96 150.074 102.96C153.11 102.96 155.902 101.612 157.831 99.3687L158.037 99.1291L158.342 99.2124C158.455 99.2433 158.558 99.2736 158.657 99.3023C158.914 99.3776 159.133 99.4413 159.375 99.4732L159.376 99.4733C159.718 99.5188 160.062 99.54 160.408 99.54C163.793 99.54 166.698 97.2836 167.759 94.0687L167.855 93.7787L168.157 93.7315C170.679 93.3377 176.466 92.4357 181.625 91.6315L188.407 90.5743L190.534 90.2428C190.779 90.2045 190.97 90.1747 191.103 90.154C191.248 90.1313 191.323 90.1196 191.322 90.1198Z" fill="black" stroke="white"/>
<path d="M153.316 89.2735L153.316 89.2735L153.318 89.2705C153.869 88.4858 153.677 87.3987 152.895 86.852L152.893 86.8506C151.967 86.1976 151.485 85.1038 151.631 83.9942C151.735 83.197 152.142 82.4874 152.778 82.0007C153.543 81.4143 153.686 80.3246 153.102 79.5666C152.508 78.8029 151.417 78.6633 150.665 79.2418L150.665 79.2421C149.289 80.2985 148.407 81.8244 148.184 83.5391L148.184 83.5405C147.865 85.9391 148.903 88.2976 150.899 89.6943L150.899 89.6942L150.902 89.6964C151.207 89.9132 151.547 90.014 151.896 90.014C152.445 90.014 152.982 89.7551 153.316 89.2735Z" fill="black" stroke="white"/>
<path d="M157.459 84.2661C156.501 84.2661 155.723 85.0417 155.718 86.0019C155.719 86.9617 156.496 87.7427 157.455 87.7468C157.455 87.7468 157.455 87.7468 157.455 87.7468L169.738 87.7742H169.739H169.743C170.702 87.7742 171.48 86.9986 171.484 86.0385C171.484 85.0787 170.707 84.2976 169.748 84.2935C169.748 84.2935 169.748 84.2935 169.748 84.2935L157.464 84.2661H157.464H157.459Z" fill="black" stroke="white"/>
</svg>
