<svg width="316" height="239" viewBox="0 0 316 239" fill="none" xmlns="http://www.w3.org/2000/svg">
<mask id="mask0_2133_16585" style="mask-type:alpha" maskUnits="userSpaceOnUse" x="0" y="0" width="316" height="239">
<rect width="315.48" height="239" fill="#D9D9D9"/>
</mask>
<g mask="url(#mask0_2133_16585)">
<g opacity="0.2">
<path d="M182.539 11.2988C183.352 16.4452 186.805 27.6317 194.118 31.207C203.26 35.6762 248.967 37.0982 263.391 51.3183C277.814 65.5385 278.83 83.4152 276.798 104.542C275.173 121.444 285.33 150.182 290.612 162.438C299.686 178.961 317.427 215.784 315.802 230.898" stroke="black" stroke-width="3"/>
<path d="M176.852 122.622C184.3 126.685 203.87 131.154 217.48 123.232C229.491 116.24 233.326 106.777 235.56 94.9946C229.396 127.498 246.124 160.61 255.265 170.361C254.25 181.941 259.45 213.997 288.378 249.588M235.56 245.728C226.622 225.21 225.235 162.682 235.799 126.279" stroke="black" stroke-width="3"/>
<path d="M135.105 11.2988C134.293 16.4452 130.839 27.6317 123.526 31.207C114.385 35.6762 67.7602 37.5045 54.2539 51.3183C43.849 61.9601 38.8149 83.4152 40.8463 104.542C42.4715 121.444 32.3143 150.182 27.0325 162.438C17.9587 178.961 0.217408 215.784 1.84257 230.898" stroke="black" stroke-width="3"/>
<path d="M140.793 122.622C133.344 126.685 113.775 131.154 100.164 123.232C88.1534 116.24 84.3188 106.777 82.0842 94.9946C88.2485 127.498 71.5206 160.61 62.3791 170.361C63.3948 181.941 58.1943 213.997 29.2665 249.588M82.0842 245.728C91.0225 225.21 92.4095 162.682 81.846 126.279" stroke="black" stroke-width="3"/>
</g>
</g>
<path d="M160.944 212.724H143.613C139.726 212.724 136.566 209.562 136.566 205.675C136.566 201.79 139.727 198.629 143.613 198.629H174.775C175.287 198.629 175.702 198.215 175.702 197.702C175.702 197.189 175.287 196.775 174.775 196.775L143.613 196.775C139.726 196.775 136.566 193.614 136.566 189.727C136.566 185.842 139.727 182.681 143.613 182.681H174.775C176.738 182.681 178.336 181.084 178.336 179.121C178.336 177.158 176.738 175.56 174.775 175.56L153.72 175.56C147.654 175.56 143.711 172.404 142.902 166.9C141.996 160.73 145.562 152.483 152.129 150.511C152.144 150.507 152.153 150.495 152.167 150.49C152.182 150.484 152.199 150.487 152.214 150.481C156.207 148.849 154.693 141.819 154.627 141.519C154.515 141.019 154.021 140.703 153.521 140.816C153.021 140.927 152.706 141.422 152.817 141.921C153.151 143.422 153.628 147.899 151.512 148.763C151.51 148.763 151.509 148.765 151.507 148.765C143.984 151.088 140.035 160.132 141.068 167.166C142.011 173.581 146.742 177.41 153.721 177.41H174.775C175.717 177.41 176.483 178.176 176.483 179.117C176.483 180.058 175.717 180.823 174.775 180.823L143.612 180.825C138.704 180.825 134.711 184.818 134.711 189.725C134.711 193.22 136.742 196.243 139.681 197.7C136.742 199.154 134.711 202.177 134.711 205.672C134.711 210.581 138.704 214.575 143.612 214.575H160.943C161.123 214.575 165.347 214.614 165.347 217.97V229.787C165.347 230.3 165.762 230.714 166.274 230.714C166.787 230.714 167.202 230.3 167.202 229.787L167.201 217.973C167.202 213.821 163.108 212.724 160.944 212.724L160.944 212.724Z" fill="black"/>
<path d="M183.684 189.558C189.238 187.051 190.893 181.808 190.479 177.573C189.964 172.31 186.236 166.983 180.108 166.983C173.445 166.983 172.882 162.787 172.23 157.928C171.721 154.149 171.196 150.242 167.398 148.775C167.395 148.775 167.394 148.771 167.392 148.771C163.25 147.009 163.18 141.936 163.178 141.723C163.178 141.211 162.763 140.795 162.251 140.795C161.74 140.795 161.324 141.211 161.324 141.723C161.324 141.988 161.384 148.231 166.665 150.477C166.671 150.48 166.678 150.478 166.684 150.481C166.69 150.483 166.693 150.488 166.7 150.49C169.502 151.553 169.915 154.621 170.391 158.174C171.029 162.924 171.822 168.835 180.107 168.835C185.133 168.835 188.2 173.321 188.634 177.752C189.046 181.968 187.026 187.377 179.999 188.8L148.943 188.799C148.431 188.799 148.016 189.214 148.016 189.726C148.016 190.239 148.431 190.654 148.943 190.654H180.106C183.991 190.654 187.153 193.815 187.153 197.702C187.153 201.587 183.992 204.749 180.106 204.749L163.642 204.748C163.631 204.748 163.62 204.747 163.608 204.747C163.606 204.747 163.605 204.748 163.603 204.748H156.189C155.677 204.748 155.261 205.162 155.261 205.675C155.261 206.188 155.676 206.602 156.189 206.602H163.665C164.467 206.618 173.846 206.943 173.846 213.6L173.847 229.787C173.847 230.3 174.262 230.714 174.774 230.714C175.287 230.714 175.702 230.3 175.702 229.787L175.701 213.6C175.701 210.143 173.77 207.945 171.314 206.602H180.106C185.013 206.602 189.006 202.609 189.006 197.702C189.007 194.067 186.814 190.937 183.684 189.557L183.684 189.558Z" fill="black"/>
<path d="M153.45 150.92C146.999 152.88 146.269 158.424 146.241 158.658C146.181 159.166 146.544 159.628 147.052 159.688C147.089 159.692 147.126 159.694 147.163 159.694C147.627 159.694 148.026 159.348 148.082 158.877C148.088 158.832 148.685 154.305 153.989 152.695C154.48 152.545 154.756 152.028 154.608 151.538C154.457 151.048 153.939 150.771 153.45 150.92Z" fill="black"/>
<circle cx="115.56" cy="207.247" r="9.06" fill="#428347" stroke="#206225"/>
<circle cx="202.56" cy="207.713" r="9.06" fill="#428347" stroke="#206225"/>
<circle cx="115.56" cy="165.127" r="9.06" fill="#428347" stroke="#206225"/>
<circle cx="202.56" cy="165.127" r="9.06" fill="#428347" stroke="#206225"/>
</svg>
