<svg width="317" height="239" viewBox="0 0 317 239" fill="none" xmlns="http://www.w3.org/2000/svg">
<path d="M159.62 57.4992C159.615 57.4936 159.611 57.4874 159.606 57.4824H159.605C159.614 57.4949 159.617 57.4998 159.62 57.4992Z" fill="black"/>
<path d="M181.413 140.976C173.628 140.975 166.378 137.689 161.669 134.931C156.21 131.737 151.571 127.315 148.256 122.145C147.84 121.498 148.029 120.638 148.675 120.223C149.323 119.808 150.182 119.996 150.598 120.642C153.678 125.445 157.992 129.555 163.074 132.53C167.488 135.113 174.251 138.192 181.414 138.193C182.183 138.193 182.805 138.816 182.805 139.584C182.805 140.351 182.183 140.976 181.414 140.976H181.413Z" fill="black"/>
<path d="M181.417 149.483C177.403 149.483 173.244 148.818 169.025 147.499C165.144 146.286 161.223 144.528 157.372 142.274C154.088 140.351 151.041 138.062 148.317 135.47C145.557 132.844 143.128 129.906 141.096 126.738C136.87 120.151 134.97 113.639 135.447 107.384C135.791 102.864 137.354 98.5758 140.092 94.6378C140.531 94.0073 141.397 93.8508 142.028 94.2897C142.659 94.7285 142.815 95.5948 142.376 96.226C138.213 102.216 135.018 112.11 143.437 125.237C147.238 131.163 152.543 136.224 158.778 139.873C164.22 143.059 172.414 146.701 181.422 146.701C182.105 146.701 182.791 146.68 183.483 146.637C187.111 146.408 190.348 144.103 191.729 140.765C193.279 137.021 194.82 129.943 193.365 117.49C192.221 107.702 189.903 99.8206 186.475 94.0672C183.111 88.4198 179.39 86.0643 176.86 85.0837C176.144 84.8058 175.788 83.9996 176.066 83.2841C176.344 82.568 177.15 82.2121 177.867 82.49C180.804 83.6291 185.096 86.3154 188.865 92.6438C192.495 98.737 194.938 106.988 196.128 117.169C196.793 122.863 196.912 127.982 196.481 132.381C196.125 136.016 195.391 139.195 194.301 141.831C193.418 143.964 191.953 145.802 190.064 147.146C188.181 148.485 185.966 149.27 183.658 149.415C182.916 149.46 182.169 149.483 181.417 149.483L181.417 149.483Z" fill="black"/>
<path d="M169.236 125.851C169.128 125.851 169.019 125.838 168.908 125.812C168.161 125.631 167.702 124.88 167.881 124.133C168.761 120.482 167.497 117.101 166.158 113.522C164.76 109.78 163.313 105.912 164.384 101.622C165.601 96.7443 168.62 93.0153 171.541 89.4097C174.267 86.043 176.842 82.8629 178.024 78.8451C178.429 77.4659 178.083 75.9741 177.12 74.9513C177.08 74.9098 177.04 74.867 176.998 74.8255C175.688 73.512 173.596 73.2961 172.021 74.3118C169.184 76.142 163.697 80.7648 158.83 91.1502C156.034 97.117 153.235 101.642 150.513 104.599C148.325 106.977 146.763 107.703 146.025 107.924C145.289 108.145 144.514 107.727 144.294 106.991C144.072 106.255 144.49 105.479 145.226 105.258C145.353 105.22 146.524 104.825 148.466 102.715C150.996 99.9667 153.635 95.6789 156.31 89.9694C161.472 78.9533 167.423 73.9653 170.512 71.9731C171.806 71.1382 173.363 70.7657 174.895 70.9229C176.435 71.0813 177.882 71.7694 178.969 72.8599C179.029 72.9199 179.087 72.9813 179.146 73.0426C180.783 74.7822 181.376 77.3055 180.693 79.6285C179.356 84.1809 176.482 87.729 173.703 91.1603C170.847 94.6854 168.151 98.015 167.083 102.295C166.222 105.747 167.457 109.05 168.764 112.546C170.191 116.36 171.665 120.305 170.586 124.784C170.433 125.422 169.864 125.849 169.236 125.849L169.236 125.851Z" fill="black"/>
<path d="M181.236 106.51C180.828 106.51 180.424 106.332 180.149 105.988C176.668 101.637 171.168 99.7602 167.167 98.9533C166.414 98.8013 165.927 98.0679 166.079 97.3146C166.231 96.5614 166.964 96.074 167.717 96.226C170.342 96.7556 172.784 97.5554 174.974 98.6025C178.015 100.056 180.487 101.956 182.322 104.25C182.802 104.85 182.704 105.725 182.105 106.205C181.848 106.41 181.541 106.51 181.236 106.51L181.236 106.51Z" fill="black"/>
<path d="M148.591 105.967C148.276 105.967 147.961 105.861 147.7 105.644C144.101 102.643 141.497 99.3988 139.962 96.0041C137.972 91.6038 138.149 87.7388 138.646 85.2716C138.964 83.6968 139.451 82.4689 139.812 81.7049L135.994 76.7667C135.547 76.1885 135.623 75.3638 136.168 74.8776L140.826 70.7239C141.116 70.4652 141.5 70.34 141.886 70.377C142.273 70.4147 142.626 70.6121 142.86 70.9219L146.599 75.8595L148.541 74.4572L145.732 69.3247C145.547 68.9862 145.511 68.5862 145.632 68.2202C145.753 67.8541 146.021 67.5539 146.372 67.3929L152.12 64.75C152.788 64.4427 153.581 64.7091 153.928 65.3582L156.579 70.3208L158.457 69.4794L156.277 64.3841C156.125 64.0308 156.127 63.6296 156.282 63.277C156.436 62.9243 156.73 62.6522 157.093 62.5244L162.764 60.528C163.441 60.2897 164.187 60.6047 164.488 61.255L167.123 66.9344C168.368 67.4717 171.319 68.9914 173.219 71.98C173.631 72.6278 173.44 73.4883 172.791 73.9004C172.143 74.3124 171.283 74.1214 170.871 73.4723C169 70.5299 165.675 69.3479 165.641 69.3365C165.281 69.2145 164.992 68.9513 164.831 68.6069L162.498 63.5716L159.421 64.6551L161.555 69.6418C161.853 70.3394 161.537 71.1476 160.845 71.4586L156.536 73.3911C155.869 73.69 155.084 73.4224 154.74 72.7771L152.093 67.8255L148.892 69.2981L151.573 74.1993C151.91 74.8151 151.736 75.585 151.167 75.995L147.126 78.912C146.513 79.354 145.659 79.2263 145.202 78.6238L141.552 73.8037L138.987 76.0907L142.557 80.7089C142.917 81.1739 142.951 81.8038 142.635 82.2983C142.595 82.3641 141.773 83.7414 141.35 85.9384C140.778 88.9071 141.163 91.9084 142.497 94.8573C143.857 97.8661 146.207 100.777 149.481 103.507C150.071 103.998 150.151 104.876 149.659 105.466C149.385 105.796 148.989 105.967 148.591 105.967Z" fill="black"/>
<path d="M127.828 104.609C127.586 104.609 127.343 104.546 127.126 104.419C122.995 102.003 122.499 97.5781 122.48 97.3908C122.431 96.9123 122.633 96.4428 123.014 96.1483C124.337 95.1267 125.856 94.3486 127.283 93.7661C124.847 92.726 123.508 91.4119 123.423 91.3263C123.181 91.0849 123.037 90.7623 123.018 90.4218C122.74 85.5218 125.138 82.4675 125.241 82.3391C125.664 81.8108 126.406 81.6632 126.999 81.991C131.024 84.2122 135.358 85.5276 139.881 85.8988C140.647 85.9621 141.217 86.6341 141.154 87.3995C141.091 88.1654 140.419 88.7346 139.653 88.672C135.174 88.3034 130.866 87.0851 126.829 85.0466C126.354 85.9902 125.767 87.5835 125.778 89.6865C126.682 90.3969 129.117 92.015 132.773 92.2297C133.481 92.2713 134.043 92.8373 134.081 93.5445C134.119 94.2517 133.619 94.8739 132.921 94.9908C132.876 94.9985 128.613 95.7364 125.411 97.8541C125.498 98.1659 125.627 98.5524 125.82 98.9715C126.31 100.042 127.001 100.917 127.882 101.583C129.611 100.65 133.905 98.6674 138.609 99.031C139.332 99.0802 139.905 99.6826 139.905 100.419C139.905 101.187 139.283 101.81 138.514 101.81H138.513C138.478 101.81 138.441 101.809 138.405 101.806C133.332 101.409 128.623 104.361 128.576 104.392C128.347 104.536 128.088 104.609 127.828 104.609Z" fill="black"/>
<mask id="mask0_2133_16473" style="mask-type:alpha" maskUnits="userSpaceOnUse" x="0" y="0" width="317" height="239">
<rect x="0.761719" width="315.48" height="239" fill="#D9D9D9"/>
</mask>
<g mask="url(#mask0_2133_16473)">
<g opacity="0.2">
<path d="M183.301 11.2988C184.113 16.4452 187.567 27.6317 194.88 31.207C204.022 35.6762 249.729 37.0982 264.152 51.3183C278.576 65.5385 279.591 83.4152 277.56 104.542C275.935 121.444 286.092 150.182 291.374 162.438C300.448 178.961 318.189 215.784 316.564 230.898" stroke="black" stroke-width="3"/>
<path d="M177.613 122.622C185.062 126.685 204.632 131.154 218.242 123.232C230.253 116.24 234.087 106.777 236.322 94.9946C230.158 127.498 246.886 160.61 256.027 170.361C255.011 181.941 260.212 213.997 289.14 249.588M236.322 245.728C227.384 225.21 225.997 162.682 236.56 126.279" stroke="black" stroke-width="3"/>
<path d="M135.867 11.2988C135.055 16.4452 131.601 27.6317 124.288 31.207C115.146 35.6762 68.522 37.5045 55.0156 51.3183C44.6107 61.9601 39.5766 83.4152 41.6081 104.542C43.2332 121.444 33.076 150.182 27.7942 162.438C18.7204 178.961 0.979127 215.784 2.60428 230.898" stroke="black" stroke-width="3"/>
<path d="M141.555 122.622C134.106 126.685 114.536 131.154 100.926 123.232C88.9151 116.24 85.0805 106.777 82.8459 94.9946C89.0103 127.498 72.2824 160.61 63.1408 170.361C64.1566 181.941 58.9561 213.997 30.0283 249.588M82.8459 245.728C91.7842 225.21 93.1713 162.682 82.6077 126.279" stroke="black" stroke-width="3"/>
</g>
</g>
<circle cx="172.843" cy="86.9093" r="6.45273" fill="#428347" stroke="#206225"/>
<circle cx="171.972" cy="126.887" r="6.45273" fill="#428347" stroke="#206225"/>
<circle cx="193.699" cy="141.662" r="6.45273" fill="#428347" stroke="#206225"/>
<circle cx="142.425" cy="86.9093" r="6.45273" fill="#428347" stroke="#206225"/>
</svg>
