<svg width="316" height="239" viewBox="0 0 316 239" fill="none" xmlns="http://www.w3.org/2000/svg">
<mask id="mask0_2133_16535" style="mask-type:alpha" maskUnits="userSpaceOnUse" x="0" y="0" width="316" height="239">
<rect width="315.48" height="239" fill="#D9D9D9"/>
</mask>
<g mask="url(#mask0_2133_16535)">
<g opacity="0.2">
<path d="M182.539 11.2988C183.352 16.4452 186.805 27.6317 194.118 31.207C203.26 35.6762 248.967 37.0982 263.391 51.3183C277.814 65.5385 278.83 83.4152 276.798 104.542C275.173 121.444 285.33 150.182 290.612 162.438C299.686 178.961 317.427 215.784 315.802 230.898" stroke="black" stroke-width="3"/>
<path d="M176.852 122.622C184.3 126.685 203.87 131.154 217.48 123.232C229.491 116.24 233.326 106.777 235.56 94.9946C229.396 127.498 246.124 160.61 255.265 170.361C254.25 181.941 259.45 213.997 288.378 249.588M235.56 245.728C226.622 225.21 225.235 162.682 235.799 126.279" stroke="black" stroke-width="3"/>
<path d="M135.105 11.2988C134.293 16.4452 130.839 27.6317 123.526 31.207C114.385 35.6762 67.7602 37.5045 54.2539 51.3183C43.849 61.9601 38.8149 83.4152 40.8463 104.542C42.4715 121.444 32.3143 150.182 27.0325 162.438C17.9587 178.961 0.217408 215.784 1.84257 230.898" stroke="black" stroke-width="3"/>
<path d="M140.793 122.622C133.344 126.685 113.775 131.154 100.164 123.232C88.1534 116.24 84.3188 106.777 82.0842 94.9946C88.2485 127.498 71.5206 160.61 62.3791 170.361C63.3948 181.941 58.1943 213.997 29.2665 249.588M82.0842 245.728C91.0225 225.21 92.4095 162.682 81.846 126.279" stroke="black" stroke-width="3"/>
</g>
</g>
<path d="M201.645 46.8555L201.423 46.6881C197.468 43.7086 194.18 42.8081 191.615 42.8311C189.045 42.8541 187.115 43.8054 185.882 44.6769L185.882 44.6771C183.322 46.486 181.164 49.4951 179.46 53.7662C177.757 58.0347 176.527 63.5167 175.793 70.2029L175.671 71.3103L174.691 70.781C173.468 70.1207 172.43 69.4492 171.632 68.8398C170.859 68.2489 170.242 67.6638 169.943 67.1643L169.866 67.0354L169.845 66.8868C169.7 65.8858 169.608 63.248 169.552 59.8466C169.495 56.4176 169.476 52.1478 169.488 47.8339C169.511 39.2241 169.658 30.3814 169.885 27.7196L169.885 27.7183C170.016 26.2154 168.901 24.8921 167.403 24.7613L167.402 24.7613C165.896 24.6281 164.583 25.7417 164.452 27.2511C164.289 29.1669 164.087 38.4008 164.042 47.7122C164.019 52.3591 164.035 57.0096 164.114 60.7553C164.153 62.6287 164.208 64.2706 164.282 65.5704C164.356 66.8885 164.447 67.8025 164.547 68.2546L201.645 46.8555ZM201.645 46.8555C210.231 53.4452 219.165 67.5804 224.722 83.797C230.325 100.145 232.429 118.412 227.423 132.944C225.96 137.189 223.139 140.2 219.523 141.501M201.645 46.8555L143.045 112.964M160.089 89.6365C163.197 93.2029 167.52 97.0763 174.682 99.3525C174.917 104.105 174.95 108.947 174.975 113.273C175.026 123.487 175.138 129.427 176.824 132.739M160.089 89.6365L202.702 47.652L202.655 46.695C220.067 60.6743 238.147 104.115 228.132 133.189C226.607 137.614 223.639 140.818 219.776 142.206C218.333 142.725 216.797 142.979 215.208 142.979C211.958 142.979 208.48 141.91 205.06 139.815M160.089 89.6365C160.104 89.6209 160.12 89.6052 160.135 89.5896L159.599 89.0652L159.026 89.5494C159.04 89.5654 159.053 89.5815 159.067 89.5975C155.892 92.7079 151.002 96.3279 144.1 98.5829C143.854 103.48 143.817 108.499 143.795 112.968M160.089 89.6365L143.795 112.968M176.824 132.739C179.242 137.484 184.959 137.484 191.006 137.484C195.812 137.484 201.258 137.484 205.06 139.815M176.824 132.739L177.492 132.399C177.492 132.399 177.492 132.399 177.492 132.399M176.824 132.739L177.492 132.399M205.06 139.815L205.451 139.175M205.06 139.815L205.452 139.175C205.452 139.175 205.451 139.175 205.451 139.175M205.451 139.175C203.42 137.93 200.987 137.328 198.499 137.031C196.017 136.734 193.417 136.734 191.028 136.734H191.006C187.957 136.734 185.112 136.73 182.728 136.161C180.38 135.602 178.571 134.517 177.492 132.399M205.451 139.175C208.779 141.213 212.123 142.229 215.208 142.229C216.717 142.229 218.166 141.988 219.523 141.501M177.492 132.399C176.72 130.881 176.278 128.693 176.034 125.537C175.791 122.393 175.75 118.383 175.725 113.269L175.725 113.269C175.7 108.944 175.667 104.086 175.431 99.3154L175.406 98.7954L174.909 98.6377C167.543 96.2966 163.26 92.2338 160.172 88.581L159.639 87.9513L159.063 88.5408C155.98 91.6928 151.031 95.5294 143.867 97.8699L143.377 98.0301L143.351 98.5452C143.104 103.461 143.067 108.495 143.045 112.964M143.045 112.964C143.016 118.165 142.974 122.245 142.728 125.441C142.481 128.65 142.034 130.871 141.253 132.404C140.174 134.521 138.366 135.606 136.019 136.166C133.634 136.734 130.789 136.738 127.739 136.738H127.717C125.328 136.738 122.728 136.738 120.247 137.035C117.759 137.332 115.327 137.934 113.295 139.18L113.295 139.18C109.953 141.229 106.593 142.25 103.497 142.25C101.947 142.25 100.459 141.995 99.0654 141.482M143.045 112.964L132.86 44.6737C131.645 43.8155 129.748 42.8744 127.23 42.8294C124.718 42.7845 121.505 43.6296 117.647 46.487L117.647 46.4871C109.259 52.6998 100.26 66.9768 94.5649 83.4584C88.8737 99.9282 86.556 118.388 91.3102 132.911C92.6944 137.137 95.4631 140.154 99.0654 141.482M143.045 112.964C143.045 112.964 143.045 112.964 143.045 112.964L143.795 112.968M143.045 112.964L143.795 112.968M219.523 141.501L219.775 142.203L219.523 141.501C219.523 141.501 219.523 141.501 219.523 141.501ZM99.0654 141.482L98.8064 142.186M99.0654 141.482C99.0655 141.482 99.0657 141.482 99.0658 141.483L98.8064 142.186M98.8064 142.186C100.288 142.731 101.864 143 103.497 143C106.757 143 110.252 141.925 113.687 139.819C117.489 137.488 122.932 137.488 127.739 137.488C133.789 137.488 139.504 137.488 141.921 132.745C143.626 129.4 143.738 123.358 143.795 112.968M98.8064 142.186C94.9586 140.768 92.0423 137.556 90.5974 133.144L143.795 112.968M180.961 73.3411L181.02 72.7116C181.58 66.6748 182.557 61.5321 183.888 57.5413C185.209 53.5804 186.918 50.6335 189.027 49.1427L189.027 49.1424C190.212 48.3062 191.622 48.1091 193.164 48.4642C194.684 48.8139 196.351 49.7004 198.15 51.0544C206.16 57.0846 214.462 70.465 219.625 85.5707C224.791 100.685 226.889 117.741 222.264 131.167L222.264 131.167C221.657 132.927 220.361 135.394 217.68 136.357C215.003 137.325 211.651 136.571 208.299 134.514C203.037 131.288 196.489 131.27 191.006 131.27H190.995C189.689 131.27 187.791 131.27 186.155 131.15C185.337 131.09 184.553 130.998 183.929 130.851C183.619 130.779 183.318 130.686 183.062 130.561C182.824 130.444 182.52 130.25 182.349 129.917L182.348 129.915C182.031 129.291 181.827 128.327 181.679 127.225C181.529 126.094 181.427 124.721 181.356 123.215C181.216 120.227 181.197 116.659 181.179 113.328L181.179 113.246C181.158 109.406 181.134 105.174 180.969 100.916L180.934 100.027L181.816 100.143C183.987 100.429 186.329 100.606 188.924 100.606C190.428 100.606 191.652 99.3815 191.652 97.8717C191.652 96.36 190.428 95.1376 188.924 95.1376C180.676 95.1376 175.134 93.4334 171.094 90.9934C167.074 88.5654 164.603 85.4416 162.471 82.7467L162.456 82.728L162.456 82.7279L161.825 81.9298C161.824 81.929 161.824 81.9283 161.823 81.9275C161.285 81.2597 160.445 80.8675 159.668 80.9023L159.657 80.9028L159.647 80.903C158.804 80.9168 158.012 81.3225 157.507 81.9997C157.507 81.9998 157.507 81.9998 157.507 81.9999L156.906 81.5518L180.961 73.3411ZM180.961 73.3411L181.572 73.5052M180.961 73.3411L181.572 73.5052M148.855 66.0806C149.017 63.1738 148.674 52.2037 148.4 43.4593L148.398 43.3945C148.165 35.9792 147.966 29.6243 148.019 27.4201L148.019 27.42C148.056 25.8937 149.306 24.6892 150.798 24.7524L150.798 24.7525L150.812 24.7529C152.318 24.7902 153.511 26.0419 153.473 27.5504C153.422 29.6196 153.631 36.2514 153.85 43.2284L153.852 43.2898L153.855 43.3766C154.163 53.2101 154.478 63.2744 154.3 66.3952L154.3 66.3954C154.165 68.7814 152.79 70.949 150.534 72.8316C148.279 74.7134 145.208 76.2529 141.853 77.3691L141.814 77.3817L141.778 77.3984C141.584 77.4866 141.366 77.5523 141.122 77.5976L141.079 77.6055L141.037 77.6184C137.286 78.7763 133.302 79.405 129.841 79.405C128.336 79.405 127.112 78.1807 127.112 76.6709C127.112 75.1591 128.336 73.9368 129.841 73.9368C132.368 73.9368 134.835 73.5905 137.108 73.0484L137.743 72.8968L137.68 72.2463C137.106 66.3377 136.127 61.3015 134.804 57.3899C133.491 53.5075 131.8 50.6146 129.719 49.144C127.373 47.4855 124.288 48.3638 120.891 50.8857C116.983 53.7801 112.974 58.593 109.299 64.5497C105.617 70.5169 102.243 77.6756 99.6198 85.305C94.3841 100.535 92.099 117.777 96.4944 131.208L96.4944 131.208C97.0625 132.943 98.3017 135.376 100.949 136.353L100.951 136.354C103.654 137.342 107.049 136.601 110.449 134.516C115.713 131.29 122.259 131.272 127.74 131.272H127.752C129.058 131.272 130.957 131.272 132.593 131.151C133.411 131.091 134.194 130.999 134.818 130.853C135.129 130.78 135.429 130.687 135.685 130.562C135.922 130.446 136.226 130.251 136.396 129.918L132.861 44.6738C135.407 46.4727 137.555 49.4593 139.255 53.6932C140.953 57.9248 142.185 63.3559 142.927 69.9766L143.047 71.0517L144.012 70.5618C145.386 69.8637 146.538 69.1185 147.365 68.3975C147.778 68.0373 148.128 67.6687 148.383 67.2997C148.633 66.9386 148.83 66.5234 148.855 66.0806ZM148.855 66.0806L148.106 66.0388L148.855 66.08C148.855 66.0802 148.855 66.0804 148.855 66.0806ZM181.572 73.5052C183.843 74.1159 186.328 74.5238 188.922 74.5238C190.426 74.5238 191.65 75.7481 191.65 77.2579C191.65 78.7697 190.427 79.992 188.922 79.992C183.616 79.992 177.784 78.4416 173.12 76.1519M181.572 73.5052L173.12 76.1519M173.12 76.1519C170.79 75.0081 168.777 73.6921 167.276 72.3163M173.12 76.1519L167.276 72.3163M167.276 72.3163C165.765 70.9312 164.832 69.5403 164.547 68.2556L167.276 72.3163ZM150.83 24.0032L150.83 24.0031L150.83 24.0032Z" fill="black" stroke="white" stroke-width="1.5"/>
<circle cx="209.429" cy="91.4291" r="9.92909" fill="#428347" stroke="#206225"/>
<circle cx="220.429" cy="129.429" r="9.92909" fill="#428347" stroke="#206225"/>
<circle cx="115.56" cy="90.56" r="9.06" fill="#428347" stroke="#206225"/>
<circle cx="98.56" cy="128.56" r="9.06" fill="#428347" stroke="#206225"/>
<circle cx="134.56" cy="52.56" r="9.06" fill="#428347" stroke="#206225"/>
<circle cx="183.56" cy="52.56" r="9.06" fill="#428347" stroke="#206225"/>
</svg>
