<svg width="303" height="140" viewBox="0 0 303 140" fill="none" xmlns="http://www.w3.org/2000/svg">
<rect x="103.316" y="2" width="152.579" height="136" rx="3" stroke="black" stroke-width="4"/>
<path d="M105 5.52637L197.105 14.7369H254.211" stroke="black"/>
<path d="M197.105 14.7373V128.948" stroke="black"/>
<path d="M105.922 136.316L197.106 128.947H256.975" stroke="black"/>
<g filter="url(#filter0_f_2133_13401)">
<ellipse cx="215.527" cy="10.1313" rx="18.4211" ry="2.76316" fill="#2CCBC1"/>
<ellipse cx="215.527" cy="10.1313" rx="18.4211" ry="2.76316" fill="#F13D3D"/>
</g>
<path d="M226.509 9.9518C226.509 9.95181 226.509 9.95274 226.508 9.95461C226.508 9.95274 226.509 9.9518 226.509 9.9518ZM226.443 9.97792C226.452 9.98597 226.46 9.99333 226.467 10C226.46 10.0067 226.452 10.014 226.443 10.0221C226.346 10.1039 226.175 10.2056 225.906 10.3161C225.374 10.5351 224.573 10.7431 223.546 10.9216C221.501 11.2773 218.656 11.5 215.5 11.5C212.344 11.5 209.499 11.2773 207.454 10.9216C206.427 10.7431 205.626 10.5351 205.094 10.3161C204.825 10.2056 204.654 10.1039 204.557 10.0221C204.548 10.014 204.54 10.0067 204.533 10C204.54 9.99333 204.548 9.98597 204.557 9.97792C204.654 9.89615 204.825 9.79436 205.094 9.68394C205.626 9.46494 206.427 9.25693 207.454 9.07839C209.499 8.72273 212.344 8.5 215.5 8.5C218.656 8.5 221.501 8.72273 223.546 9.07839C224.573 9.25693 225.374 9.46494 225.906 9.68394C226.175 9.79436 226.346 9.89615 226.443 9.97792ZM204.491 9.9518C204.491 9.9518 204.492 9.95274 204.492 9.95462C204.491 9.95274 204.491 9.95181 204.491 9.9518ZM204.491 10.0482C204.491 10.0482 204.491 10.0473 204.492 10.0454C204.492 10.0473 204.491 10.0482 204.491 10.0482ZM226.508 10.0454C226.509 10.0473 226.509 10.0482 226.509 10.0482C226.509 10.0482 226.508 10.0473 226.508 10.0454Z" stroke="#2CCBC1"/>
<path d="M226.509 9.9518C226.509 9.95181 226.509 9.95274 226.508 9.95461C226.508 9.95274 226.509 9.9518 226.509 9.9518ZM226.443 9.97792C226.452 9.98597 226.46 9.99333 226.467 10C226.46 10.0067 226.452 10.014 226.443 10.0221C226.346 10.1039 226.175 10.2056 225.906 10.3161C225.374 10.5351 224.573 10.7431 223.546 10.9216C221.501 11.2773 218.656 11.5 215.5 11.5C212.344 11.5 209.499 11.2773 207.454 10.9216C206.427 10.7431 205.626 10.5351 205.094 10.3161C204.825 10.2056 204.654 10.1039 204.557 10.0221C204.548 10.014 204.54 10.0067 204.533 10C204.54 9.99333 204.548 9.98597 204.557 9.97792C204.654 9.89615 204.825 9.79436 205.094 9.68394C205.626 9.46494 206.427 9.25693 207.454 9.07839C209.499 8.72273 212.344 8.5 215.5 8.5C218.656 8.5 221.501 8.72273 223.546 9.07839C224.573 9.25693 225.374 9.46494 225.906 9.68394C226.175 9.79436 226.346 9.89615 226.443 9.97792ZM204.491 9.9518C204.491 9.9518 204.492 9.95274 204.492 9.95462C204.491 9.95274 204.491 9.95181 204.491 9.9518ZM204.491 10.0482C204.491 10.0482 204.491 10.0473 204.492 10.0454C204.492 10.0473 204.491 10.0482 204.491 10.0482ZM226.508 10.0454C226.509 10.0473 226.509 10.0482 226.509 10.0482C226.509 10.0482 226.508 10.0473 226.508 10.0454Z" stroke="#F13D3D"/>
<path d="M252.367 1.8418L296.814 24.4847C299.495 25.8504 301.183 28.6045 301.183 31.613V125.486C301.183 129.556 298.127 132.977 294.083 133.435L252.367 138.158" stroke="black" stroke-width="2" stroke-dasharray="4 2"/>
<path d="M256.973 128.947H299.341" stroke="black" stroke-dasharray="4 4"/>
<path d="M177.753 58.9473H19.0508C14.6325 58.9473 11.0508 62.529 11.0508 66.9473V115.549C11.0508 119.917 14.5438 123.48 18.9109 123.57C40.8035 124.02 81.0879 124.991 131.709 124.342C184.748 123.662 190.618 86.585 184.935 64.2185C184.114 60.9909 181.083 58.9473 177.753 58.9473Z" fill="white" stroke="black" stroke-width="4"/>
<path d="M129.867 58.9473C133.552 61.0199 141.141 66.5129 145.014 73.1716C147.116 76.785 150.595 80.1315 154.775 80.1315H176.68C179.11 80.1315 181.55 79.035 182.162 76.6832C183.665 70.9113 181.378 61.9236 169.472 58.9473" stroke="black" stroke-width="2"/>
<rect y="60.7891" width="20.2632" height="60.7895" fill="white"/>
<defs>
<filter id="filter0_f_2133_13401" x="193.105" y="3.36816" width="44.8438" height="13.5264" filterUnits="userSpaceOnUse" color-interpolation-filters="sRGB">
<feFlood flood-opacity="0" result="BackgroundImageFix"/>
<feBlend mode="normal" in="SourceGraphic" in2="BackgroundImageFix" result="shape"/>
<feGaussianBlur stdDeviation="2" result="effect1_foregroundBlur_2133_13401"/>
</filter>
</defs>
</svg>
