<svg width="161" height="163" viewBox="0 0 161 163" fill="none" xmlns="http://www.w3.org/2000/svg">
<circle cx="79.5" cy="81.5" r="79" fill="white" fill-opacity="0.46" stroke="#D8D8D8"/>
<path d="M56.9716 57V49.542H54.0976V48.36H61.0996V49.542H58.2256V57H56.9716ZM62.1797 49.458V48.24H63.4337V49.458H62.1797ZM62.1797 57V50.52H63.4337V57H62.1797ZM72.9995 57L73.0055 52.962C73.0055 52.494 72.8855 52.13 72.6455 51.87C72.4055 51.606 72.0895 51.474 71.6975 51.474C71.4575 51.474 71.2375 51.53 71.0375 51.642C70.8415 51.75 70.6815 51.914 70.5575 52.134C70.4375 52.35 70.3775 52.622 70.3775 52.95L69.7715 52.644C69.7635 52.188 69.8595 51.788 70.0595 51.444C70.2635 51.1 70.5395 50.834 70.8875 50.646C71.2355 50.454 71.6255 50.358 72.0575 50.358C72.7575 50.358 73.2995 50.568 73.6835 50.988C74.0675 51.408 74.2595 51.966 74.2595 52.662L74.2535 57H72.9995ZM65.2295 57V50.52H66.3455V52.392H66.4895V57H65.2295ZM69.1175 57L69.1235 52.986C69.1235 52.514 69.0035 52.144 68.7635 51.876C68.5275 51.608 68.2095 51.474 67.8095 51.474C67.4135 51.474 67.0935 51.61 66.8495 51.882C66.6095 52.154 66.4895 52.51 66.4895 52.95L65.8895 52.566C65.8895 52.142 65.9915 51.764 66.1955 51.432C66.3995 51.1 66.6755 50.838 67.0235 50.646C67.3715 50.454 67.7655 50.358 68.2055 50.358C68.6655 50.358 69.0575 50.456 69.3815 50.652C69.7055 50.844 69.9515 51.114 70.1195 51.462C70.2915 51.81 70.3775 52.214 70.3775 52.674L70.3715 57H69.1175ZM78.6095 57.18C77.9655 57.18 77.3995 57.04 76.9115 56.76C76.4275 56.476 76.0495 56.082 75.7775 55.578C75.5095 55.07 75.3755 54.482 75.3755 53.814C75.3755 53.106 75.5075 52.492 75.7715 51.972C76.0395 51.452 76.4115 51.05 76.8875 50.766C77.3635 50.482 77.9175 50.34 78.5495 50.34C79.2095 50.34 79.7715 50.494 80.2355 50.802C80.6995 51.106 81.0455 51.54 81.2735 52.104C81.5055 52.668 81.5975 53.338 81.5495 54.114H80.2955V53.658C80.2875 52.906 80.1435 52.35 79.8635 51.99C79.5875 51.63 79.1655 51.45 78.5975 51.45C77.9695 51.45 77.4975 51.648 77.1815 52.044C76.8655 52.44 76.7075 53.012 76.7075 53.76C76.7075 54.472 76.8655 55.024 77.1815 55.416C77.4975 55.804 77.9535 55.998 78.5495 55.998C78.9415 55.998 79.2795 55.91 79.5635 55.734C79.8515 55.554 80.0755 55.298 80.2355 54.966L81.4655 55.356C81.2135 55.936 80.8315 56.386 80.3195 56.706C79.8075 57.022 79.2375 57.18 78.6095 57.18ZM76.2995 54.114V53.136H80.9255V54.114H76.2995ZM85.418 57V48.18H86.672V57H85.418ZM91.3478 57.18C90.7038 57.18 90.1378 57.04 89.6498 56.76C89.1658 56.476 88.7878 56.082 88.5158 55.578C88.2478 55.07 88.1138 54.482 88.1138 53.814C88.1138 53.106 88.2458 52.492 88.5098 51.972C88.7778 51.452 89.1498 51.05 89.6258 50.766C90.1018 50.482 90.6558 50.34 91.2878 50.34C91.9478 50.34 92.5098 50.494 92.9738 50.802C93.4378 51.106 93.7838 51.54 94.0118 52.104C94.2438 52.668 94.3358 53.338 94.2878 54.114H93.0338V53.658C93.0258 52.906 92.8818 52.35 92.6018 51.99C92.3258 51.63 91.9038 51.45 91.3358 51.45C90.7078 51.45 90.2358 51.648 89.9198 52.044C89.6038 52.44 89.4458 53.012 89.4458 53.76C89.4458 54.472 89.6038 55.024 89.9198 55.416C90.2358 55.804 90.6918 55.998 91.2878 55.998C91.6798 55.998 92.0178 55.91 92.3018 55.734C92.5898 55.554 92.8138 55.298 92.9738 54.966L94.2038 55.356C93.9518 55.936 93.5698 56.386 93.0578 56.706C92.5458 57.022 91.9758 57.18 91.3478 57.18ZM89.0378 54.114V53.136H93.6638V54.114H89.0378ZM96.228 57V50.292C96.228 50.128 96.234 49.954 96.246 49.77C96.258 49.582 96.292 49.398 96.348 49.218C96.408 49.034 96.506 48.866 96.642 48.714C96.806 48.534 96.986 48.406 97.182 48.33C97.378 48.254 97.572 48.21 97.764 48.198C97.96 48.186 98.14 48.18 98.304 48.18H99.12V49.212H98.364C98.068 49.212 97.846 49.286 97.698 49.434C97.554 49.578 97.482 49.784 97.482 50.052V57H96.228ZM95.154 51.528V50.52H99.12V51.528H95.154ZM103.783 57C103.375 57.08 102.975 57.114 102.583 57.102C102.191 57.09 101.841 57.014 101.533 56.874C101.225 56.734 100.993 56.514 100.837 56.214C100.697 55.946 100.621 55.674 100.609 55.398C100.601 55.118 100.597 54.802 100.597 54.45V48.72H101.857V54.39C101.857 54.65 101.859 54.876 101.863 55.068C101.871 55.26 101.913 55.422 101.989 55.554C102.133 55.802 102.361 55.944 102.673 55.98C102.989 56.012 103.359 55.998 103.783 55.938V57ZM99.3554 51.528V50.52H103.783V51.528H99.3554Z" fill="#1AB58F"/>
<path d="M64.6177 108.938C62.2657 108.938 60.1857 108.426 58.3777 107.402C56.5697 106.362 55.1457 104.938 54.1057 103.13C53.0817 101.322 52.5697 99.2418 52.5697 96.8898V84.9858C52.5697 82.6338 53.0817 80.5538 54.1057 78.7458C55.1457 76.9378 56.5697 75.5218 58.3777 74.4978C60.1857 73.4578 62.2657 72.9378 64.6177 72.9378C66.9697 72.9378 69.0497 73.4578 70.8577 74.4978C72.6657 75.5218 74.0817 76.9378 75.1057 78.7458C76.1457 80.5538 76.6657 82.6338 76.6657 84.9858V96.8898C76.6657 99.2418 76.1457 101.322 75.1057 103.13C74.0817 104.938 72.6657 106.362 70.8577 107.402C69.0497 108.426 66.9697 108.938 64.6177 108.938ZM64.6177 104.138C65.8977 104.138 67.0577 103.834 68.0977 103.226C69.1537 102.602 69.9937 101.77 70.6177 100.73C71.2417 99.6738 71.5537 98.4978 71.5537 97.2018V84.6258C71.5537 83.3458 71.2417 82.1858 70.6177 81.1458C69.9937 80.0898 69.1537 79.2578 68.0977 78.6498C67.0577 78.0258 65.8977 77.7138 64.6177 77.7138C63.3377 77.7138 62.1697 78.0258 61.1137 78.6498C60.0737 79.2578 59.2417 80.0898 58.6177 81.1458C57.9937 82.1858 57.6817 83.3458 57.6817 84.6258V97.2018C57.6817 98.4978 57.9937 99.6738 58.6177 100.73C59.2417 101.77 60.0737 102.602 61.1137 103.226C62.1697 103.834 63.3377 104.138 64.6177 104.138ZM93.0386 108.866C91.3266 108.866 89.7186 108.546 88.2146 107.906C86.7106 107.25 85.4066 106.322 84.3026 105.122C83.2146 103.922 82.4226 102.506 81.9266 100.874L86.7746 99.5298C87.2386 101.018 88.0466 102.162 89.1986 102.962C90.3506 103.746 91.6306 104.13 93.0386 104.114C94.3026 104.098 95.4146 103.802 96.3746 103.226C97.3346 102.65 98.0866 101.874 98.6306 100.898C99.1746 99.9058 99.4466 98.7698 99.4466 97.4898C99.4466 95.5698 98.8466 93.9858 97.6466 92.7378C96.4626 91.4898 94.9106 90.8658 92.9906 90.8658C92.4466 90.8658 91.8866 90.9458 91.3106 91.1058C90.7506 91.2658 90.2226 91.4738 89.7266 91.7298L87.3746 87.7698L99.5666 76.9938L100.095 78.4338H83.2946V73.6578H104.079V78.4338L93.9506 88.1778L93.9026 86.5458C96.0786 86.5458 97.9666 87.0338 99.5666 88.0098C101.167 88.9698 102.399 90.2818 103.263 91.9458C104.143 93.5938 104.583 95.4418 104.583 97.4898C104.583 99.6978 104.063 101.658 103.023 103.37C101.999 105.082 100.615 106.426 98.8706 107.402C97.1426 108.378 95.1986 108.866 93.0386 108.866Z" fill="#1AB58F"/>
<path d="M114.182 108.145C113.422 108.145 112.796 107.981 112.304 107.653C111.816 107.325 111.516 106.869 111.404 106.285L112.304 106.135C112.4 106.503 112.618 106.797 112.958 107.017C113.302 107.233 113.726 107.341 114.23 107.341C114.722 107.341 115.11 107.239 115.394 107.035C115.678 106.827 115.82 106.545 115.82 106.189C115.82 105.989 115.774 105.827 115.682 105.703C115.594 105.575 115.412 105.457 115.136 105.349C114.86 105.241 114.448 105.113 113.9 104.965C113.312 104.805 112.852 104.645 112.52 104.485C112.188 104.325 111.952 104.141 111.812 103.933C111.672 103.721 111.602 103.463 111.602 103.159C111.602 102.791 111.706 102.469 111.914 102.193C112.122 101.913 112.41 101.697 112.778 101.545C113.146 101.389 113.574 101.311 114.062 101.311C114.55 101.311 114.986 101.391 115.37 101.551C115.758 101.707 116.07 101.927 116.306 102.211C116.542 102.495 116.682 102.825 116.726 103.201L115.826 103.363C115.766 102.983 115.576 102.683 115.256 102.463C114.94 102.239 114.538 102.123 114.05 102.115C113.59 102.103 113.216 102.191 112.928 102.379C112.64 102.563 112.496 102.809 112.496 103.117C112.496 103.289 112.548 103.437 112.652 103.561C112.756 103.681 112.944 103.795 113.216 103.903C113.492 104.011 113.884 104.129 114.392 104.257C114.988 104.409 115.456 104.569 115.796 104.737C116.136 104.905 116.378 105.103 116.522 105.331C116.666 105.559 116.738 105.841 116.738 106.177C116.738 106.789 116.51 107.271 116.054 107.623C115.602 107.971 114.978 108.145 114.182 108.145Z" fill="#1AB58F"/>
<path d="M79.499 0H77.499V4H79.499V0ZM24.3794 135.98C23.6029 135.195 22.3366 135.187 21.551 135.964C20.7655 136.74 20.7581 138.007 21.5346 138.792L24.3794 135.98ZM156.999 81.5C156.999 124.302 122.301 159 79.499 159V163C124.51 163 160.999 126.511 160.999 81.5H156.999ZM79.499 4C122.301 4 156.999 38.6979 156.999 81.5H160.999C160.999 36.4888 124.51 0 79.499 0V4ZM79.499 159C57.9349 159 38.4309 150.195 24.3794 135.98L21.5346 138.792C36.3067 153.736 56.8229 163 79.499 163V159Z" fill="#1AB58F"/>
</svg>
