<svg width="22" height="10" viewBox="0 0 22 10" fill="none" xmlns="http://www.w3.org/2000/svg">
<path d="M8.37233 3.165C8.37233 3.27129 8.289 3.35708 8.18609 3.35708L3.78296 3.35723C3.67991 3.35723 3.59672 3.27129 3.59672 3.16515C3.59672 3.05887 3.68005 2.97308 3.78296 2.97308H8.18573C8.28878 2.97293 8.37233 3.05887 8.37233 3.165ZM8.18595 6.64269H3.78318C3.68013 6.64269 3.59694 6.72863 3.59694 6.83476C3.59694 6.94104 3.68027 7.02683 3.78318 7.02683H8.18595C8.289 7.02683 8.37218 6.9409 8.37218 6.83476C8.37232 6.72863 8.289 6.64269 8.18595 6.64269ZM6.56629 4.99996C6.56629 4.89368 6.48297 4.80789 6.38006 4.80789H1.18623C1.08318 4.80789 1 4.89383 1 4.99996C1 5.10625 1.08332 5.19204 1.18623 5.19204H6.38006C6.48311 5.19204 6.56629 5.10625 6.56629 4.99996ZM21 2.15275V7.84725C21 8.48304 20.4988 9 19.8823 9H11.4218C10.8053 9 10.3041 8.48304 10.3041 7.84725L10.3043 2.15275C10.3043 1.51696 10.8055 1 11.4219 1H19.8825C20.4988 1.00015 21 1.51711 21 2.15275ZM11.4221 1.38431C11.2856 1.38431 11.1591 1.42529 11.0487 1.49178L15.3282 4.98803C15.5 5.12866 15.8012 5.12851 15.9729 4.98817L20.2539 1.49072C20.144 1.42482 20.018 1.38429 19.8823 1.38429L11.4221 1.38431ZM20.6275 2.15275C20.6275 2.01006 20.5871 1.87768 20.5212 1.763L16.2044 5.28948C16.0492 5.41625 15.8501 5.47964 15.6508 5.47964C15.4515 5.47964 15.2521 5.41611 15.0968 5.28904L10.7826 1.76433C10.717 1.87887 10.677 2.01036 10.677 2.15261V7.84711C10.677 8.2709 11.0112 8.61555 11.4221 8.61555H19.8826C20.2935 8.61555 20.6276 8.2709 20.6276 7.84711L20.6275 2.15275Z" fill="#DA5555" stroke="#DA5555" stroke-width="0.5"/>
</svg>
