<svg width="20" height="20" viewBox="0 0 20 20" fill="none" xmlns="http://www.w3.org/2000/svg">
<path d="M9.21718 9.91455V9.79299L9.16138 9.685C8.83609 9.05553 8.65234 8.34088 8.65234 7.58356C8.65234 5.05216 10.7045 3 13.2359 3C15.7673 3 17.8195 5.05216 17.8195 7.58356C17.8195 10.115 15.7673 12.1671 13.2359 12.1671C12.4786 12.1671 11.7639 11.9834 11.1345 11.6581L11.0265 11.6023H10.9049H9.28202C9.24624 11.6023 9.21718 11.5732 9.21718 11.5374V9.91455Z" stroke="white"/>
<path d="M5.52257 7.81364L5.52253 7.8136C5.1289 7.42233 4.49309 7.41987 4.10216 7.8083L5.52257 7.81364ZM5.52257 7.81364L6.75413 9.03756C6.75415 9.03757 6.75416 9.03758 6.75418 9.0376C7.14017 9.42133 7.15807 10.0364 6.79451 10.4361C6.79451 10.4361 6.7945 10.4362 6.79449 10.4362L6.25833 11.0255L5.52257 7.81364ZM3.60691 12.342L3.60692 12.342C5.06263 14.4234 6.55644 15.9305 8.47356 17.2413L8.47362 17.2414C9.88909 18.2095 11.7685 17.9013 12.9695 16.7075L12.9696 16.7075C13.3862 16.2933 13.397 15.6398 12.9958 15.2411L12.9958 15.2411L11.7756 14.0284C11.7756 14.0284 11.7756 14.0283 11.7756 14.0283C11.3898 13.645 10.7715 13.6272 10.3697 13.9883L10.3696 13.9885L9.77657 14.5211C9.77651 14.5212 9.77645 14.5212 9.77639 14.5213C9.49337 14.7756 9.08013 14.8202 8.75939 14.6261C7.55569 13.898 6.87316 13.2134 6.1526 12.0356C5.95799 11.7175 6.00215 11.3071 6.2583 11.0256L3.60691 12.342ZM3.60691 12.342C2.6132 10.9213 2.88395 9.01927 4.10211 7.80835L3.60691 12.342Z" stroke="white"/>
</svg>
