<svg width="24" height="24" viewBox="0 0 24 24" fill="none" xmlns="http://www.w3.org/2000/svg">
<path d="M19.6418 0C17.251 0 15.2872 1.96688 15.2872 4.36146C15.2872 4.79135 15.3527 5.20701 15.4704 5.6006L7.59891 9.10662C6.79829 8.20964 5.6393 7.63811 4.35464 7.63811C1.9638 7.63811 0 9.60499 0 11.9996C0 14.3942 1.96363 16.3619 4.35464 16.3619C5.63917 16.3619 6.79829 15.7907 7.59891 14.8939L15.47 18.3994C15.3521 18.793 15.2866 19.2085 15.2866 19.6385C15.2866 22.0331 17.2504 24 19.6412 24C22.0321 24 23.9997 22.0331 23.9997 19.6385C23.9997 17.244 22.032 15.2771 19.6412 15.2771C18.1874 15.2771 16.8952 16.0066 16.1028 17.115L8.3751 13.6732C8.59222 13.1571 8.71323 12.5916 8.71323 11.9998C8.71323 11.4082 8.59222 10.8434 8.3751 10.3271L16.1028 6.88521C16.8953 7.99377 18.1881 8.72318 19.6419 8.72318C22.0328 8.72318 24 6.75647 24 4.36172C24 1.96697 22.0329 0.000257136 19.6419 0.000257136L19.6418 0Z" fill="#285BF4"/>
</svg>
