<svg width="363" height="253" viewBox="0 0 363 253" fill="none" xmlns="http://www.w3.org/2000/svg">
<path d="M206.074 46.873C206.074 46.873 204.096 44.7107 200.553 45.0327C197.179 45.3394 192.884 49.325 192.884 49.325L117.429 118.953C117.429 118.953 112.214 122.942 108.227 124.169C102.388 125.966 98.3649 124.65 92.5833 126.623C85.3942 129.077 81.8477 133.064 81.8477 133.064L9.45908 205.453C9.45908 205.453 -0.0483416 215.268 2.40432 227.842C4.85697 240.416 10.6873 244.408 10.6873 244.408" stroke="black" stroke-width="3" stroke-linecap="round"/>
<path d="M206.032 46.9099C206.032 46.9099 208.234 48.8436 207.985 52.3923C207.747 55.7719 203.85 60.1467 203.85 60.1467L135.778 137.009C135.778 137.009 131.896 142.304 130.751 146.316C129.074 152.19 130.472 156.185 128.617 162.006C126.311 169.244 122.396 172.871 122.396 172.871L48.7217 244.714C48.7217 244.714 41.6672 252.076 27.8644 250.848C14.0617 249.619 10.3806 244.101 10.3806 244.101" stroke="black" stroke-width="3" stroke-linecap="round"/>
<line x1="175.447" y1="64.9238" x2="188.33" y2="77.8065" stroke="black"/>
<circle cx="46.8823" cy="206.987" r="9.65578" stroke="#1D1D1D" stroke-width="4"/>
<line x1="10.4278" y1="203.565" x2="50.3028" y2="243.44" stroke="black"/>
<rect x="97.1898" y="142.147" width="20.6981" height="57.4767" rx="5" transform="rotate(45.2231 97.1898 142.147)" fill="#53EEC8" stroke="#1D1D1D" stroke-width="2"/>
<path d="M79.6489 180.35C79.3434 180.655 78.9955 180.884 78.6052 181.037C78.2149 181.19 77.8104 181.258 77.3918 181.241C76.976 181.221 76.5758 181.106 76.1911 180.897L76.9124 179.641C77.2263 179.814 77.5431 179.873 77.8627 179.819C78.1823 179.76 78.4539 179.616 78.6773 179.387C78.8781 179.186 79.0111 178.96 79.0761 178.708C79.1412 178.456 79.1398 178.206 79.0719 177.957C79.0012 177.705 78.8668 177.48 78.6688 177.282C78.3662 176.98 78.0155 176.824 77.6167 176.816C77.2178 176.807 76.8643 176.957 76.556 177.265C76.4627 177.359 76.3835 177.463 76.3184 177.579C76.2562 177.692 76.2067 177.813 76.1699 177.94L74.8971 177.601L75.1941 173.791L75.5293 173.948L72.6231 176.854L71.66 175.891L75.4062 172.144L76.3736 173.112L76.3099 176.349L76.0002 176.056C76.3962 175.711 76.8148 175.499 77.256 175.42C77.7001 175.338 78.1343 175.37 78.5585 175.517C78.9856 175.662 79.3689 175.903 79.7083 176.243C80.0929 176.628 80.3433 177.067 80.4592 177.562C80.578 178.054 80.5681 178.548 80.4295 179.043C80.2909 179.532 80.0307 179.968 79.6489 180.35ZM84.9569 175.067C84.5581 175.466 84.1055 175.732 83.5992 175.865C83.093 175.992 82.5796 175.982 82.0592 175.835C81.5387 175.688 81.0621 175.398 80.6294 174.965L78.7711 173.107C78.3073 172.643 77.9961 172.148 77.8377 171.622C77.6822 171.093 77.6779 170.569 77.825 170.048C77.9749 169.525 78.2719 169.041 78.716 168.597C79.0243 168.289 79.3693 168.048 79.7512 167.876C80.1302 167.701 80.5403 167.619 80.9815 167.63L80.9603 169.085C80.7256 169.065 80.4936 169.096 80.2645 169.178C80.0382 169.258 79.8403 169.382 79.6706 169.552C79.433 169.789 79.2816 170.054 79.2166 170.345C79.1487 170.634 79.1558 170.918 79.2378 171.198C79.3227 171.475 79.4683 171.717 79.6748 171.923L80.6888 172.937L80.2985 172.92C80.2702 172.541 80.3225 172.172 80.4554 171.813C80.5856 171.451 80.785 171.136 81.0537 170.867C81.4383 170.482 81.8654 170.231 82.3349 170.112C82.8016 169.99 83.2711 169.996 83.7435 170.129C84.213 170.259 84.6401 170.516 85.0248 170.901C85.4066 171.283 85.6555 171.727 85.7715 172.233C85.8874 172.734 85.8775 173.236 85.7418 173.739C85.6032 174.24 85.3416 174.683 84.9569 175.067ZM83.9768 174.087C84.1748 173.889 84.3092 173.661 84.3799 173.404C84.4478 173.144 84.4492 172.885 84.3841 172.628C84.3191 172.365 84.1876 172.134 83.9896 171.936C83.7916 171.738 83.5625 171.605 83.3023 171.537C83.042 171.469 82.7818 171.469 82.5216 171.537C82.2614 171.6 82.0323 171.73 81.8343 171.928C81.6363 172.126 81.5048 172.356 81.4397 172.619C81.3719 172.879 81.3719 173.14 81.4397 173.4C81.5076 173.66 81.6406 173.889 81.8385 174.087C82.0309 174.279 82.2557 174.411 82.5131 174.482C82.7705 174.547 83.0293 174.548 83.2895 174.486C83.5497 174.418 83.7788 174.285 83.9768 174.087ZM88.9839 172.949L88.6021 172.449C88.7435 172.33 88.8241 172.204 88.8439 172.071C88.8666 171.941 88.8397 171.812 88.7633 171.685C88.6926 171.558 88.5866 171.438 88.4451 171.324L87.9021 171.867L86.8117 170.777L87.8596 169.729L88.9924 170.862C89.363 171.232 89.5553 171.6 89.5694 171.965C89.5836 172.33 89.3884 172.658 88.9839 172.949ZM92.8041 167.22C92.4053 167.619 91.9528 167.885 91.4465 168.018C90.9402 168.145 90.4268 168.135 89.9064 167.988C89.386 167.841 88.9094 167.551 88.4766 167.118L86.6183 165.26C86.1545 164.796 85.8434 164.301 85.685 163.775C85.5294 163.246 85.5252 162.721 85.6722 162.201C85.8221 161.678 86.1191 161.194 86.5632 160.75C86.8715 160.442 87.2166 160.201 87.5984 160.029C87.9774 159.853 88.3875 159.771 88.8288 159.783L88.8075 161.238C88.5728 161.218 88.3409 161.249 88.1118 161.331C87.8855 161.41 87.6875 161.535 87.5178 161.705C87.2802 161.942 87.1289 162.207 87.0638 162.498C86.9959 162.786 87.003 163.071 87.085 163.351C87.1699 163.628 87.3155 163.87 87.522 164.076L88.536 165.09L88.1457 165.073C88.1174 164.694 88.1697 164.325 88.3027 163.966C88.4328 163.604 88.6322 163.288 88.9009 163.02C89.2855 162.635 89.7126 162.383 90.1822 162.265C90.6489 162.143 91.1184 162.149 91.5907 162.282C92.0602 162.412 92.4873 162.669 92.872 163.054C93.2538 163.436 93.5027 163.88 93.6187 164.386C93.7347 164.887 93.7248 165.389 93.589 165.892C93.4504 166.393 93.1888 166.835 92.8041 167.22ZM91.8241 166.24C92.0221 166.042 92.1564 165.814 92.2271 165.557C92.295 165.297 92.2964 165.038 92.2314 164.78C92.1663 164.517 92.0348 164.287 91.8368 164.089C91.6388 163.891 91.4097 163.758 91.1495 163.69C90.8893 163.622 90.6291 163.622 90.3688 163.69C90.1086 163.752 89.8795 163.882 89.6815 164.08C89.4835 164.278 89.352 164.509 89.287 164.772C89.2191 165.032 89.2191 165.292 89.287 165.553C89.3548 165.813 89.4878 166.042 89.6858 166.24C89.8781 166.432 90.103 166.564 90.3604 166.635C90.6177 166.7 90.8765 166.701 91.1368 166.639C91.397 166.571 91.6261 166.438 91.8241 166.24Z" fill="black"/>
<path d="M235.5 36L238.5 31.5L241 35.5L243 42.5L249.5 45L251 47L249 49L243 51.5L240.5 59.5L238.5 62L236 59.5L234 51.5L229.5 49.5L225.5 47L228.5 44.5L234 42.5L235.5 36Z" fill="white"/>
<path d="M215 5.5L218 1L220.5 5L222.5 12L229 14.5L230.5 16.5L228.5 18.5L222.5 21L220 29L218 31.5L215.5 29L213.5 21L209 19L205 16.5L208 14L213.5 12L215 5.5Z" fill="white"/>
<path d="M199 54.5L202 50L204.5 54L206.5 61L213 63.5L214.5 65.5L212.5 67.5L206.5 70L204 78L202 80.5L199.5 78L197.5 70L193 68L189 65.5L192 63L197.5 61L199 54.5Z" fill="white"/>
<path d="M217.994 32.4397C216.881 32.4397 215.935 31.7571 215.586 30.701L212.534 21.4969C212.474 21.3128 212.335 21.1661 212.156 21.0927L205.915 18.5724C204.951 18.1833 204.328 17.2595 204.328 16.2199C204.328 15.1802 204.951 14.2564 205.915 13.8673L212.156 11.3464C212.337 11.2737 212.474 11.1269 212.534 10.9441L215.586 1.73871C215.935 0.682621 216.881 0 217.994 0C219.107 0 220.053 0.682654 220.402 1.74005L223.452 10.9435C223.513 11.1269 223.651 11.2743 223.832 11.347L230.073 13.868C231.037 14.2571 231.66 15.1809 231.66 16.2205C231.66 17.2602 231.037 18.184 230.073 18.5731L223.832 21.094C223.651 21.1674 223.513 21.3148 223.452 21.4982L220.402 30.7017C220.052 31.7571 219.107 32.4397 217.994 32.4397ZM217.994 1.87852C217.882 1.87852 217.507 1.91128 217.369 2.32991L214.317 11.5347C214.084 12.2416 213.552 12.8089 212.859 13.0887L206.618 15.6096C206.246 15.7603 206.206 16.0872 206.206 16.2202C206.206 16.3538 206.246 16.6807 206.618 16.8308L212.859 19.3517C213.552 19.6328 214.084 20.1995 214.318 20.9077L217.368 30.1104C217.506 30.529 217.882 30.5618 217.994 30.5618C218.104 30.5618 218.48 30.529 218.618 30.1104L221.668 20.9063C221.903 20.1988 222.434 19.6321 223.127 19.3523V19.3517L229.368 16.8307C229.74 16.6801 229.78 16.3531 229.78 16.2201C229.78 16.0865 229.74 15.7596 229.368 15.6096L223.127 13.0886C222.435 12.8089 221.903 12.2428 221.668 11.5346L218.618 2.33055C218.48 1.91126 218.105 1.87852 217.994 1.87852Z" fill="black"/>
<path d="M201.664 81.6308C200.552 81.6308 199.606 80.9475 199.256 79.8908L196.206 70.6873C196.144 70.5032 196.006 70.3565 195.827 70.2831L189.587 67.7628C188.622 67.3737 188 66.4506 188 65.411C188 64.3706 188.623 63.4475 189.587 63.0584L195.828 60.5368C196.007 60.4641 196.145 60.3167 196.206 60.1326L199.257 50.9291C199.607 49.8724 200.553 49.1904 201.665 49.1904C202.777 49.1904 203.723 49.8731 204.073 50.9291L207.124 60.1332C207.185 60.3167 207.323 60.4641 207.502 60.5361L213.744 63.0584C214.708 63.4476 215.331 64.3707 215.331 65.411C215.331 66.45 214.708 67.3738 213.744 67.7629L207.502 70.2831C207.323 70.3565 207.185 70.5033 207.124 70.6874L204.073 79.8908C203.722 80.9475 202.777 81.6308 201.664 81.6308ZM201.664 51.0696C201.552 51.0696 201.177 51.1023 201.039 51.521L197.988 60.7251C197.752 61.4339 197.222 62.0006 196.53 62.2797L190.29 64.8C189.918 64.9507 189.878 65.2776 189.878 65.4119C189.878 65.5449 189.918 65.8724 190.29 66.0225L196.53 68.5427C197.222 68.8225 197.754 69.3892 197.988 70.0974L201.039 79.3008C201.178 79.7201 201.552 79.7529 201.664 79.7529C201.776 79.7529 202.15 79.7201 202.29 79.3008L205.34 70.0974C205.575 69.3892 206.106 68.8225 206.798 68.5427L206.799 68.5421L213.04 66.0218C213.412 65.8724 213.452 65.5449 213.452 65.4119C213.452 65.2782 213.412 64.9507 213.04 64.8L206.798 62.2784C206.108 62.0006 205.576 61.4339 205.34 60.7257L202.29 51.5209C202.151 51.1023 201.776 51.0696 201.664 51.0696Z" fill="black"/>
<path d="M238.332 63.0029C237.22 63.0029 236.274 62.3196 235.924 61.2628L232.874 52.0594C232.812 51.8753 232.674 51.7286 232.495 51.6552L226.255 49.1349C225.29 48.7458 224.668 47.8227 224.668 46.783C224.668 45.7427 225.291 44.8196 226.255 44.4305L232.496 41.9089C232.675 41.8361 232.813 41.6887 232.874 41.5046L235.925 32.3012C236.275 31.2445 237.221 30.5625 238.333 30.5625C239.445 30.5625 240.391 31.2452 240.741 32.3012L243.792 41.506C243.853 41.6894 243.991 41.8368 244.17 41.9089L250.412 44.4312C251.376 44.8203 251.999 45.7434 251.999 46.7837C251.999 47.8228 251.376 48.7465 250.412 49.1356L244.17 51.6559C243.991 51.7292 243.853 51.876 243.792 52.0601L240.741 61.2635C240.391 62.3196 239.445 63.0029 238.332 63.0029ZM238.332 32.44C238.22 32.44 237.845 32.4727 237.707 32.8914L234.656 42.0948C234.42 42.8037 233.89 43.3704 233.198 43.6494L226.958 46.1697C226.586 46.3204 226.546 46.6473 226.546 46.7816C226.546 46.9146 226.586 47.2422 226.958 47.3922L233.198 49.9125C233.89 50.1922 234.422 50.7589 234.656 51.4671L237.707 60.6705C237.846 61.0898 238.22 61.1226 238.332 61.1226C238.444 61.1226 238.818 61.0898 238.958 60.6705L242.008 51.4671C242.243 50.7589 242.774 50.1922 243.466 49.9125L243.467 49.9118L249.708 47.3915C250.08 47.2422 250.12 46.9146 250.12 46.7816C250.12 46.648 250.08 46.3204 249.708 46.1697L243.466 43.6481C242.775 43.3703 242.244 42.8036 242.008 42.0954L238.958 32.8913C238.819 32.4727 238.444 32.44 238.332 32.44Z" fill="black"/>
<path d="M296.359 146.613C296.359 146.617 296.359 146.621 296.359 146.626C296.359 146.638 296.36 146.651 296.36 146.664L296.356 211.63C296.356 211.631 296.356 211.633 296.356 211.635C296.356 211.636 296.356 211.638 296.356 211.64L296.355 227.637C296.355 229.497 297.956 231.038 300.817 232.287C303.634 233.517 307.456 234.363 311.424 234.941C319.351 236.096 327.715 236.16 329.427 236.16C331.14 236.16 339.504 236.096 347.43 234.941C351.399 234.363 355.22 233.517 358.038 232.287C360.898 231.038 362.5 229.498 362.5 227.637V143.596C362.386 141.686 361.993 139.852 361.327 138.013L361.327 138.012C360.307 135.17 358.703 132.561 356.571 130.241L351.051 124.268L350.919 124.124L350.919 123.929L350.915 119.928L350.914 119.428H351.415H352.517C353.476 119.428 354.258 118.646 354.258 117.687V109.095C354.258 108.136 353.476 107.354 352.517 107.354H349.375H348.875V106.854V99.9133C348.875 98.9543 348.093 98.1724 347.134 98.1724H343.165H342.665V97.6724V76.8394C342.665 74.432 340.703 72.4697 338.295 72.4697H321.107C318.694 72.4697 316.732 74.4324 316.732 76.8394V97.6711V98.1711H316.232H311.789C310.83 98.1711 310.048 98.953 310.048 99.9121V106.853V107.353H309.548H306.34C305.381 107.353 304.599 108.135 304.599 109.094V117.685C304.599 118.644 305.381 119.426 306.34 119.426H307.423H307.922L307.923 119.925L307.933 123.926L307.933 124.122L307.8 124.266L302.285 130.24L302.285 130.24C300.147 132.555 298.543 135.175 297.524 138.017L297.523 138.018C296.864 139.845 296.476 141.674 296.357 143.455V145.545L296.359 145.543V146.613ZM296.338 211.505C296.336 211.499 296.335 211.495 296.334 211.491L296.332 211.785C296.333 211.781 296.335 211.774 296.338 211.765C296.339 211.76 296.34 211.754 296.342 211.747C296.344 211.74 296.345 211.732 296.347 211.722C296.348 211.718 296.349 211.713 296.35 211.708C296.351 211.701 296.351 211.694 296.352 211.686C296.354 211.674 296.355 211.658 296.355 211.64C296.355 211.638 296.355 211.636 296.355 211.635C296.355 211.633 296.355 211.631 296.355 211.63C296.355 211.611 296.354 211.596 296.352 211.583C296.352 211.577 296.351 211.572 296.35 211.567C296.349 211.56 296.348 211.553 296.347 211.547C296.345 211.537 296.344 211.529 296.342 211.522C296.34 211.515 296.339 211.509 296.338 211.505ZM351.415 120.428L351.419 123.928L297.053 137.848C298.096 134.94 299.737 132.263 301.918 129.901L307.433 123.927L307.423 119.926H306.34C305.105 119.926 304.099 118.92 304.099 117.685V109.094C304.099 107.859 305.105 106.853 306.34 106.853H309.048H309.548V106.353V99.9121C309.548 98.6769 310.554 97.6711 311.789 97.6711H315.732H316.232V97.1711V76.8394C316.232 74.1559 318.418 71.9697 321.107 71.9697H338.295C340.979 71.9697 343.165 74.1559 343.165 76.8394V97.1724V97.6724H343.665H347.134C348.369 97.6724 349.375 98.6782 349.375 99.9133V106.354V106.854H349.875H352.517C353.752 106.854 354.758 107.86 354.758 109.095V117.687C354.758 118.922 353.752 119.928 352.517 119.928H351.915V119.927L351.415 119.928V120.428H351.415ZM338.285 75.9513L338.788 75.9402L338.796 76.4428L339.151 97.6637L339.16 98.1721H338.651H320.715H320.215V97.6721V94.1872V93.7854L320.607 93.6989C323.555 93.0495 325.751 90.6545 325.751 87.7197C325.751 84.7848 323.555 82.3899 320.607 81.7404L320.215 81.654V81.2521V76.8388V76.3497L320.704 76.3389L338.285 75.9513ZM320.214 85.931V84.9968L321.768 87.7209H322.268C322.268 87.7212 322.268 87.7214 322.268 87.7217C322.268 88.6751 321.715 89.4427 320.992 89.9263L320.214 90.4465V89.5107V85.931ZM344.892 101.655H345.392L345.392 102.155L345.391 106.855L345.391 107.355H344.891H314.028H313.528V106.855V102.155V101.655H314.028H344.892ZM350.276 110.836H350.776L350.776 111.336L350.775 115.446L350.775 115.946H350.275H349.171H349.166H308.58H308.08V115.446V111.336V110.836H308.58H350.276ZM359.023 143.689L359.024 143.704L359.023 143.718L359.022 146.448L359.022 146.611L358.926 146.743C358.702 147.049 358.321 147.33 357.859 147.589C357.384 147.855 356.773 148.126 356.039 148.394C354.568 148.932 352.564 149.476 350.069 149.963C345.077 150.937 338.09 151.688 329.426 151.688C320.712 151.688 313.699 150.928 308.707 149.947C306.213 149.456 304.214 148.908 302.756 148.368C302.028 148.098 301.424 147.827 300.958 147.56C300.505 147.3 300.13 147.017 299.918 146.703L299.831 146.576L299.832 146.422L299.834 143.58L299.834 143.564L299.835 143.548C299.921 142.226 300.249 140.71 300.798 139.192C301.663 136.781 303.022 134.565 304.842 132.6L310.952 125.983C311.249 125.66 311.415 125.236 311.415 124.798C311.415 124.798 311.415 124.798 311.415 124.797L311.404 119.929L311.403 119.428H311.904H346.935H347.434L347.435 119.927L347.442 124.803C347.442 124.804 347.442 124.804 347.442 124.805C347.448 125.243 347.61 125.663 347.906 125.984L354.016 132.602L354.016 132.602C355.83 134.567 357.188 136.788 358.059 139.192L358.059 139.193C358.609 140.718 358.937 142.23 359.023 143.689ZM358.314 151.151L359.022 150.826L359.022 151.605L359.019 211.448L359.019 211.613L358.921 211.745C358.696 212.05 358.315 212.33 357.851 212.589C357.376 212.855 356.765 213.125 356.03 213.394C354.558 213.932 352.553 214.475 350.059 214.961C345.069 215.934 338.085 216.684 329.426 216.684C320.65 216.684 313.594 215.913 308.591 214.921C306.09 214.425 304.093 213.872 302.645 213.328C301.922 213.056 301.325 212.782 300.868 212.513C300.426 212.254 300.056 211.965 299.858 211.639L299.786 211.519L299.786 211.379L299.828 151.605L299.829 150.826L300.537 151.151C304.71 153.066 311.255 154.079 317.137 154.607C323 155.133 328.128 155.172 329.426 155.172C330.723 155.172 335.852 155.133 341.714 154.606C347.596 154.078 354.141 153.066 358.314 151.151ZM359.017 227.638L359.017 227.787L358.936 227.912C358.743 228.207 358.374 228.464 357.949 228.692C357.503 228.933 356.915 229.183 356.2 229.435C354.767 229.94 352.778 230.468 350.28 230.947C345.284 231.907 338.218 232.68 329.426 232.68C320.635 232.68 313.568 231.907 308.561 230.913C306.059 230.417 304.062 229.863 302.617 229.319C301.895 229.047 301.3 228.773 300.845 228.504C300.406 228.244 300.037 227.954 299.844 227.625L299.775 227.507L299.775 227.371L299.782 216.574L299.783 215.792L300.492 216.12C304.654 218.046 311.208 219.064 317.105 219.595C322.981 220.125 328.126 220.165 329.426 220.165C330.723 220.165 335.85 220.125 341.711 219.599C347.592 219.071 354.136 218.06 358.31 216.146L359.019 215.821L359.019 216.6L359.017 227.638Z" fill="black" stroke="white"/>
<path d="M329.423 161.151C315.916 161.151 304.925 172.142 304.925 185.65C304.925 199.157 315.916 210.148 329.423 210.148C342.931 210.148 353.922 199.157 353.922 185.65C353.922 172.142 342.931 161.151 329.423 161.151ZM329.424 164.633C341.013 164.633 350.44 174.06 350.44 185.65C350.44 197.239 341.013 206.666 329.424 206.666C317.834 206.666 308.407 197.239 308.407 185.65C308.407 174.06 317.834 164.633 329.424 164.633Z" fill="black" stroke="white"/>
<path d="M323.986 190.588H324.486V191.088V198.199C324.486 199.158 325.268 199.94 326.227 199.94H332.627C333.586 199.94 334.368 199.158 334.368 198.199V191.088V190.588H334.868H341.974C342.933 190.588 343.715 189.806 343.715 188.847V182.447C343.715 181.488 342.933 180.706 341.974 180.706H334.868H334.368V180.206V173.1C334.368 172.141 333.586 171.359 332.627 171.359H326.227C325.268 171.359 324.486 172.141 324.486 173.1V180.206V180.706H323.986H316.876C315.917 180.706 315.135 181.488 315.135 182.447V188.847C315.135 189.806 315.917 190.588 316.876 190.588H323.986ZM328.467 196.457H327.967V195.957V188.847C327.967 187.888 327.186 187.106 326.227 187.106H319.115H318.615V186.606V184.688V184.188H319.115H326.226C327.185 184.188 327.967 183.406 327.967 182.447V175.341V174.841H328.467H330.385H330.885V175.341V182.447C330.885 183.406 331.667 184.188 332.626 184.188H339.732H340.232V184.688V186.606V187.106H339.732H332.626C331.667 187.106 330.885 187.888 330.885 188.847V195.957V196.457H330.385H328.467Z" fill="black" stroke="white"/>
<path d="M279.728 99.9689C280.093 100.018 280.46 100.04 280.826 100.04C284.443 100.04 287.528 97.6294 288.652 94.2256C291.784 93.7366 299.948 92.4641 305.695 91.5682C309.206 91.021 311.815 90.6143 311.826 90.6124C312.908 90.4329 313.7 89.4985 313.699 88.4041L279.728 99.9689ZM279.728 99.9689C279.444 99.9317 279.174 99.8528 278.904 99.7736C278.812 99.7468 278.72 99.72 278.628 99.6947L279.728 99.9689ZM283.637 76.9062L284.132 76.9721C284.079 77.3728 284.149 77.8884 284.337 78.3456C284.528 78.8099 284.806 79.13 285.101 79.2556L285.11 79.2598L285.12 79.2644L285.12 79.2646C285.124 79.2661 285.134 79.2701 285.157 79.2781C285.207 79.2959 285.299 79.3277 285.481 79.3882C285.843 79.5086 286.542 79.7378 287.919 80.1863C290.672 81.083 296.128 82.8547 307.001 86.3819L306.925 87.3514L283.166 91.1109C282.221 91.2782 281.589 92.176 281.75 93.1222C281.864 93.7641 282.376 94.2108 283.074 94.3943L284.151 94.6778L283.223 95.2943C282.386 95.8505 281.362 96.1706 280.247 96.0268L280.246 96.0267C278.889 95.8481 277.712 95.0636 277.016 93.8774C276.53 93.054 275.471 92.781 274.633 93.2631C273.807 93.7518 273.532 94.8166 274.019 95.6434L274.019 95.6438C274.324 96.1609 274.683 96.6336 275.086 97.0619L275.439 97.4379L275.052 97.7792C273.593 99.0664 271.587 99.6932 269.528 99.4206C266.992 99.0888 264.984 97.4377 264.082 95.3057L263.794 94.6245L264.533 94.611C264.805 94.6061 265.061 94.5976 265.311 94.5692L265.314 94.5689C266.268 94.4664 266.956 93.611 266.855 92.6536L266.854 92.6519C266.754 91.68 265.947 90.974 264.955 91.1118L264.942 91.1136L264.929 91.1147C264.518 91.1499 264.082 91.1444 263.656 91.0973L263.656 91.0974L263.646 91.096C260.71 90.7095 258.645 88.0047 259.024 85.0709L259.024 85.0692C259.162 84.0279 259.611 83.0902 260.258 82.3254L260.746 81.7488L261.087 82.4234C261.322 82.8909 261.554 83.3282 261.839 83.7316L261.84 83.7325C262.175 84.2076 262.714 84.4667 263.257 84.4667C263.603 84.4667 263.956 84.3618 264.263 84.1437L264.264 84.1434C265.042 83.5927 265.231 82.5055 264.674 81.72L264.674 81.7191C263.722 80.3706 263.312 78.7253 263.526 77.0921L263.526 77.0902C263.758 75.3655 264.639 73.8305 266.024 72.7708C267.384 71.7207 269.095 71.3077 270.735 71.4848L271.464 71.5636L271.124 72.2138C270.647 73.1245 270.31 74.0979 270.175 75.1294L270.174 75.13C270.048 76.0819 270.713 76.9491 271.661 77.0813C272.684 77.1768 273.5 76.5256 273.621 75.5896L273.621 75.5882C273.807 74.1851 274.526 72.9341 275.648 72.0715C276.772 71.2082 278.206 70.8395 279.566 71.0214C280.969 71.2082 282.22 71.9269 283.083 73.055C283.945 74.1768 284.32 75.5726 284.132 76.9725L283.637 76.9062ZM283.637 76.9062C283.806 75.6387 283.467 74.3761 282.686 73.3591L284.904 79.7155C283.981 79.3217 283.505 77.9008 283.637 76.9062ZM311.74 90.1198L311.744 90.1192L312.147 83.8736C311.993 84.3492 311.993 84.3492 311.993 84.3491L311.993 84.3491L311.992 84.3489L311.99 84.3481L311.98 84.3449L311.94 84.3321L311.786 84.282L311.195 84.0901L309.042 83.3912C307.236 82.8048 304.769 82.0038 302.124 81.145C296.835 79.4276 290.837 77.4791 288 76.5555L287.661 76.445L287.655 76.0883C287.625 74.2511 287 72.4466 285.84 70.9353C284.412 69.0737 282.345 67.88 280.017 67.5745L280.016 67.5743C278.042 67.31 276.084 67.7599 274.386 68.7821L274.166 68.9149L273.93 68.8125C273.074 68.4413 272.206 68.1549 271.296 68.0332C268.627 67.6948 266.022 68.3874 263.903 70.0107C261.784 71.635 260.427 73.9859 260.078 76.6315L260.078 76.6321C260.035 76.9499 260.035 77.2629 260.034 77.6128C260.033 77.6925 260.033 77.774 260.032 77.8579L260.03 78.136L259.792 78.2806C257.52 79.6647 255.931 81.9423 255.575 84.6157C255.101 88.2488 256.911 91.6662 259.89 93.4117L260.111 93.5412L260.135 93.7962C260.566 98.3708 264.215 102.229 269.07 102.866L269.07 102.866C269.546 102.929 270.021 102.96 270.492 102.96C273.528 102.96 276.32 101.612 278.249 99.3687L278.455 99.1291L278.759 99.2124C278.873 99.2433 278.976 99.2736 279.075 99.3023C279.332 99.3776 279.551 99.4413 279.793 99.4732L279.794 99.4733C280.136 99.5188 280.48 99.54 280.826 99.54C284.211 99.54 287.116 97.2836 288.177 94.0687L288.273 93.7787L288.575 93.7315C291.097 93.3377 296.884 92.4357 302.043 91.6315L308.825 90.5743L310.952 90.2428C311.197 90.2045 311.388 90.1747 311.521 90.154C311.666 90.1313 311.741 90.1196 311.74 90.1198Z" fill="black" stroke="white"/>
<path d="M273.734 89.2735L273.734 89.2735L273.736 89.2705C274.287 88.4858 274.095 87.3987 273.312 86.852L273.311 86.8506C272.385 86.1976 271.903 85.1038 272.049 83.9942C272.153 83.197 272.56 82.4874 273.196 82.0007C273.961 81.4143 274.104 80.3246 273.52 79.5666C272.926 78.8029 271.835 78.6633 271.083 79.2418L271.083 79.2421C269.707 80.2985 268.825 81.8244 268.602 83.5391L268.602 83.5405C268.283 85.9391 269.321 88.2976 271.317 89.6943L271.317 89.6942L271.32 89.6964C271.625 89.9132 271.965 90.014 272.314 90.014C272.863 90.014 273.4 89.7551 273.734 89.2735Z" fill="black" stroke="white"/>
<path d="M277.877 84.2656C276.919 84.2656 276.141 85.0412 276.136 86.0014C276.137 86.9612 276.914 87.7422 277.873 87.7463C277.873 87.7463 277.873 87.7463 277.873 87.7463L290.156 87.7737H290.157H290.161C291.12 87.7737 291.898 86.9981 291.902 86.038C291.902 85.0782 291.125 84.2971 290.166 84.293C290.166 84.293 290.166 84.293 290.166 84.293L277.882 84.2656H277.882H277.877Z" fill="black" stroke="white"/>
</svg>
