<svg width="32" height="32" viewBox="0 0 32 32" fill="none" xmlns="http://www.w3.org/2000/svg">
<path d="M20.2054 18.633C19.8529 18.633 19.5272 18.8211 19.3509 19.1265C19.1747 19.4317 19.1747 19.8078 19.3509 20.1129C19.5272 20.4181 19.8529 20.6062 20.2054 20.6062C21.7977 20.6062 23.269 19.7568 24.065 18.3779C24.8612 16.9988 24.8612 15.3 24.065 13.9207C23.269 12.5418 21.7977 11.6924 20.2054 11.6924C19.8529 11.6924 19.5272 11.8804 19.3509 12.1856C19.1747 12.4908 19.1747 12.8669 19.3509 13.1721C19.5272 13.4775 19.8529 13.6655 20.2054 13.6655C21.0927 13.6655 21.9126 14.1388 22.3563 14.9073C22.8 15.6756 22.8 16.6226 22.3563 17.3909C21.9126 18.1595 21.0927 18.6327 20.2054 18.6327V18.633Z" fill="#125873"/>
<path d="M10.9704 20.8591L17.3483 25.3431C17.5465 25.4823 17.789 25.5439 18.0296 25.5159C18.2703 25.4878 18.4922 25.3724 18.653 25.1912C18.8139 25.0102 18.9027 24.7762 18.9022 24.534V7.76239C18.902 7.52033 18.813 7.28686 18.652 7.10637C18.491 6.92572 18.2692 6.81063 18.0289 6.78292C17.7885 6.75505 17.5463 6.81665 17.3483 6.95583L10.9704 11.4372H7.76402C7.50234 11.4372 7.25131 11.5411 7.06638 11.7262C6.88126 11.9112 6.77734 12.1622 6.77734 12.4239V19.8725C6.77734 20.1341 6.88126 20.3852 7.06638 20.5701C7.25132 20.7552 7.50233 20.8591 7.76402 20.8591L10.9704 20.8591ZM8.7507 13.4105H11.3157C11.5879 13.4097 11.8475 13.2963 12.0333 13.0972L16.9291 9.65915V22.6373L12.0381 19.1992C11.8523 19.0002 11.5925 18.8868 11.3203 18.8859H8.75774L8.7507 13.4105Z" fill="#125873"/>
</svg>
