<?xml version="1.0" encoding="UTF-8" standalone="no"?><svg width="356" height="48" viewBox="0 0 356 48" fill="none" xmlns="http://www.w3.org/2000/svg">
<path d="M7.44794 28.7188C4.5602 28.7188 2.25 31.1569 2.25 34.2046C2.25 37.2523 4.5602 39.6905 7.44794 39.6905C10.3357 39.6905 12.6459 37.2523 12.6459 34.2046C12.6459 31.1569 10.3357 28.7188 7.44794 28.7188ZM7.44794 38.1667C5.35433 38.1667 3.69387 36.4142 3.69387 34.2046C3.69387 31.995 5.35433 30.2426 7.44794 30.2426C9.54155 30.2426 11.202 31.995 11.202 34.2046C11.202 36.338 9.54155 38.1667 7.44794 38.1667Z" fill="#285BF4"/>
<path d="M45.9979 16.9837C45.9979 13.0217 43.1823 9.82157 39.5004 9.44061V9.05964C39.5004 6.92624 37.84 5.25 35.8908 5.25H26.7944C24.7729 5.25 23.1847 7.00244 23.1847 9.05964V24.9078C23.1847 27.0412 24.8451 28.7174 26.7944 28.7174H30.6206V35.8033C30.6206 38.8511 28.2382 41.3654 25.3505 41.3654C22.4627 41.3654 20.0804 38.8511 20.0804 35.8033V21.6315C20.0804 17.7456 17.0482 14.5455 13.3664 14.5455C9.68448 14.5455 6.65234 17.7456 6.65234 21.6315V27.1935C6.65234 27.6507 6.94112 27.9555 7.37428 27.9555C7.80744 27.9555 8.09622 27.6507 8.09622 27.1935V21.6315C8.09622 18.5838 10.4786 16.0694 13.3664 16.0694C16.2541 16.0694 18.6365 18.5838 18.6365 21.6315V35.8033C18.6365 39.6892 21.6686 42.8893 25.3505 42.8893C29.0324 42.8893 32.0645 39.6892 32.0645 35.8033V28.7174H35.8908C37.9122 28.7174 39.5004 26.965 39.5004 24.9078V24.5268C43.1101 24.1458 45.9979 20.8695 45.9979 16.9837ZM35.8908 27.1935H31.4869H31.4148H31.3426H26.8666C25.6393 27.1935 24.7008 26.1268 24.7008 24.9078V8.98301C24.7008 7.68774 25.7115 6.69723 26.8666 6.69723H35.963C37.1902 6.69723 38.1288 7.76393 38.1288 8.98301V9.36398C34.5191 9.74494 31.6313 13.0212 31.6313 16.9071C31.6313 20.7929 34.4469 24.0692 38.1288 24.4502V24.8311C38.0566 26.2026 37.0459 27.1931 35.8908 27.1931V27.1935ZM39.5004 22.9267V22.0124C39.5004 21.5553 39.2117 21.2505 38.7785 21.2505C38.3453 21.2505 38.0566 21.5553 38.0566 22.0124V22.9267C35.4576 22.5458 33.4362 20.4124 33.0752 17.6694H33.9415C34.3747 17.6694 34.6635 17.3647 34.6635 16.9075C34.6635 16.4504 34.3747 16.1456 33.9415 16.1456H33.0752C33.4362 13.4026 35.4576 11.2692 38.0566 10.8883V12.1836C38.0566 12.6407 38.3453 12.9455 38.7785 12.9455C39.2117 12.9455 39.5004 12.6407 39.5004 12.1836V10.8883C42.0994 11.2692 44.1208 13.4026 44.4818 16.1456H43.6155C43.1823 16.1456 42.8935 16.4504 42.8935 16.9075C42.8935 17.3647 43.1823 17.6694 43.6155 17.6694H44.4818C44.193 20.4886 42.0994 22.622 39.5004 22.9267Z" fill="#285BF4"/>
<path d="M38.4906 14.8462C38.274 14.8462 38.0575 14.9224 37.9131 14.9986L36.1804 13.17C35.8916 12.8652 35.4585 12.8652 35.1697 13.17C34.8809 13.4748 34.8809 13.9319 35.1697 14.2367L36.9024 16.0653C36.8302 16.2939 36.8302 16.4463 36.8302 16.6749C36.8302 17.6654 37.6243 18.5035 38.5628 18.5035C39.5013 18.5035 40.2955 17.6654 40.2955 16.6749C40.2955 15.6843 39.4291 14.8462 38.4906 14.8462ZM38.4906 16.9034C38.3462 16.9034 38.2018 16.751 38.2018 16.5987C38.2018 16.5225 38.2018 16.4463 38.274 16.4463C38.3462 16.3701 38.4184 16.3701 38.4184 16.3701C38.5628 16.3701 38.7072 16.5225 38.7072 16.6749C38.7072 16.8272 38.635 16.9034 38.4906 16.9034Z" fill="#285BF4"/>
<path d="M321 24L344 24" stroke="#285BF4" stroke-width="2" stroke-linecap="round" stroke-linejoin="round"/>
<path d="M336 16L344 24L336 32" stroke="#285BF4" stroke-width="2" stroke-linecap="round" stroke-linejoin="round"/>
</svg>
