<?xml version="1.0" encoding="UTF-8" standalone="no"?><svg width="356" height="48" viewBox="0 0 356 48" fill="none" xmlns="http://www.w3.org/2000/svg">
<path d="M38.4197 9H10.3303C8.76938 9 7.5 10.2705 7.5 11.8297V36.1701C7.5 37.7306 8.77078 38.9998 10.3303 38.9998L38.4197 39C39.9806 39 41.25 37.7295 41.25 36.1703L41.2498 11.8299C41.2512 10.2696 39.9804 9.00024 38.4197 9.00024L38.4197 9ZM10.3303 10.4214H38.4197C39.1972 10.4214 39.8286 11.0524 39.8286 11.83L39.8283 23.289H34.1509C33.8013 23.289 33.5026 23.5448 33.4487 23.8902L33.1031 26.0932L31.9532 16.6747C31.9106 16.3209 31.6134 16.0537 31.2566 16.0509H31.248C30.8956 16.0509 30.5955 16.3095 30.5443 16.6592L29.2195 25.7196L26.9678 18.743C26.8697 18.4318 26.5456 18.2243 26.2429 18.2512C25.9174 18.2755 25.6473 18.517 25.5918 18.8382L24.8129 23.2891H21.2889C20.9393 23.2891 20.6406 23.5449 20.5866 23.8904L20.2411 26.0934L19.0912 16.673C19.0486 16.3192 18.7514 16.052 18.3946 16.0491C18.0393 16.008 17.7335 16.3049 17.6824 16.6575L16.5482 24.4114L15.5503 18.8331C15.4906 18.4934 15.1948 18.2476 14.8509 18.2476H14.8495C14.5054 18.2476 14.2112 18.4962 14.1515 18.836L13.371 23.2886H8.9203V11.829C8.9203 11.0517 9.55285 10.4207 10.3303 10.4207L10.3303 10.4214ZM38.4197 37.5782H10.3303C9.55278 37.5782 8.92144 36.9473 8.92144 36.1697L8.92168 24.7106H13.9694C14.3149 24.7106 14.6091 24.462 14.6688 24.1222L14.8592 23.0377L15.9196 28.9672C15.9822 29.3098 16.2423 29.5811 16.6304 29.5528C16.9786 29.5471 17.2715 29.2899 17.3227 28.9444L18.3219 22.1054L19.4478 31.3248C19.4904 31.6771 19.7862 31.9443 20.14 31.9486H20.1529C20.5025 31.9486 20.8012 31.6942 20.8551 31.3473L21.8956 24.7075H25.4096C25.7551 24.7075 26.0493 24.4589 26.109 24.1191L26.4971 21.9049L28.8043 29.0564C28.9038 29.3719 29.1981 29.5679 29.5406 29.5468C29.869 29.5184 30.1363 29.2696 30.1846 28.9412L31.1838 22.1022L32.3096 31.3216C32.3522 31.674 32.648 31.9412 33.0019 31.9454H33.0148C33.3643 31.9454 33.663 31.6911 33.717 31.3442L34.7574 24.7044H39.8266V36.164C39.8295 36.9473 39.1969 37.5783 38.4194 37.5783L38.4197 37.5782Z" fill="#285BF4"/>
<path d="M321 24L344 24" stroke="#285BF4" stroke-width="2" stroke-linecap="round" stroke-linejoin="round"/>
<path d="M336 16L344 24L336 32" stroke="#285BF4" stroke-width="2" stroke-linecap="round" stroke-linejoin="round"/>
</svg>
