<?xml version="1.0" encoding="UTF-8" standalone="no"?><svg width="48" height="48" viewBox="0 0 48 48" fill="none" xmlns="http://www.w3.org/2000/svg">
<rect width="48" height="48" rx="10" fill="#EDF4F9"/>
<path d="M24.6145 17.4299V15.7877C24.6145 15.447 24.3395 15.1719 23.9987 15.1719C23.6579 15.1719 23.3828 15.447 23.3828 15.7877V17.4301C23.3828 17.7709 23.6579 18.0459 23.9987 18.0459C24.3395 18.0458 24.6145 17.7707 24.6145 17.4299V17.4299Z" fill="#285BF4"/>
<path d="M23.9987 29.9512C23.6579 29.9512 23.3828 30.2262 23.3828 30.567V32.2094C23.3828 32.5502 23.6579 32.8252 23.9987 32.8252C24.3395 32.8252 24.6145 32.5502 24.6145 32.2094V30.567C24.6145 30.2262 24.3395 29.9512 23.9987 29.9512V29.9512Z" fill="#285BF4"/>
<path d="M19.3555 19.9708C19.5115 19.9708 19.6717 19.9092 19.7907 19.7902C20.033 19.548 20.033 19.158 19.7907 18.9197L18.6287 17.7578C18.3865 17.5156 17.9965 17.5156 17.7582 17.7578C17.5202 18.0001 17.516 18.3901 17.7582 18.6283L18.9202 19.7902C19.0393 19.9092 19.1954 19.9708 19.3555 19.9708V19.9708Z" fill="#285BF4"/>
<path d="M29.0779 28.2071C28.8357 27.9648 28.4457 27.9648 28.2075 28.2071C27.9694 28.4493 27.9652 28.8393 28.2075 29.0775L29.3694 30.2394C29.4884 30.3584 29.6486 30.42 29.8046 30.42C29.9606 30.42 30.1208 30.3584 30.2398 30.2394C30.482 29.9972 30.482 29.6072 30.2398 29.369L29.0779 28.2071Z" fill="#285BF4"/>
<path d="M18.0458 24.0006C18.0458 23.6598 17.7707 23.3848 17.4299 23.3848H15.7877C15.447 23.3848 15.1719 23.6598 15.1719 24.0006C15.1719 24.3414 15.447 24.6165 15.7877 24.6165H17.4301C17.7707 24.6165 18.0458 24.3414 18.0458 24.0006Z" fill="#285BF4"/>
<path d="M32.2113 23.3848H30.569C30.2282 23.3848 29.9531 23.6598 29.9531 24.0006C29.9531 24.3414 30.2282 24.6165 30.569 24.6165H32.2113C32.5521 24.6165 32.8272 24.3414 32.8272 24.0006C32.8272 23.6598 32.5521 23.3848 32.2113 23.3848Z" fill="#285BF4"/>
<path d="M18.9217 28.2059L17.7598 29.3679C17.5176 29.6102 17.5176 30.0002 17.7598 30.2384C17.8788 30.3574 18.039 30.419 18.195 30.419C18.351 30.419 18.5112 30.3574 18.6302 30.2384L19.7921 29.0765C20.0344 28.8343 20.0344 28.4443 19.7921 28.206C19.5499 27.9678 19.1598 27.9678 18.9217 28.2059V28.2059Z" fill="#285BF4"/>
<path d="M29.0755 19.7906L30.2374 18.6287C30.4797 18.3865 30.4797 17.9965 30.2374 17.7582C29.9952 17.5202 29.6052 17.516 29.367 17.7582L28.2051 18.9202C27.9629 19.1624 27.9629 19.5524 28.2051 19.7906C28.3242 19.9096 28.4843 19.9712 28.6403 19.9712C28.7964 19.9712 28.9565 19.9096 29.0755 19.7906V19.7906Z" fill="#285BF4"/>
<path d="M23.9993 18.8691C21.1704 18.8691 18.8672 21.1724 18.8672 24.0012C18.8672 26.83 21.1705 29.1333 23.9993 29.1333C26.828 29.1333 29.1313 26.83 29.1313 24.0012C29.1313 21.1724 26.828 18.8691 23.9993 18.8691ZM23.9993 27.9015C21.8479 27.9015 20.0989 26.1525 20.0989 24.0012C20.0989 21.8499 21.8479 20.1009 23.9993 20.1009C26.1506 20.1009 27.8996 21.8499 27.8996 24.0012C27.8996 26.1525 26.1506 27.9015 23.9993 27.9015Z" fill="#285BF4"/>
</svg>
