<?xml version="1.0" encoding="UTF-8" standalone="no"?><svg width="48" height="48" viewBox="0 0 48 48" fill="none" xmlns="http://www.w3.org/2000/svg">
<rect width="48" height="48" rx="10" fill="#EDF4F9"/>
<path d="M17.4258 30.0397H19.8054C19.985 31.0898 20.6388 31.991 21.5684 32.4698C22.4981 32.9486 23.594 32.9486 24.5236 32.4698C25.4532 31.991 26.107 31.0898 26.2866 30.0397H28.6663C29.254 30.0647 29.81 29.7667 30.1251 29.2578C30.4401 28.7488 30.4663 28.1063 30.1936 27.5723C29.921 27.0383 29.3911 26.6938 28.8034 26.6687V25.7951C30.1714 25.262 31.2157 24.1015 31.6233 22.661C32.0308 21.2207 31.7543 19.6678 30.8767 18.4676C29.999 17.2674 28.6221 16.5595 27.1585 16.5557C26.4958 16.5568 25.8413 16.7043 25.2394 16.9884C25.2168 16.1854 24.7779 15.4559 24.0881 15.0744C23.3982 14.6929 22.5622 14.7176 21.8949 15.139C21.2275 15.5605 20.8303 16.3147 20.8528 17.1175V17.2861C19.7977 17.7292 18.8953 18.484 18.2606 19.4547C17.6257 20.4252 17.2874 21.5675 17.2888 22.7357V26.6685C16.8524 26.6872 16.4413 26.8826 16.1458 27.2118C15.8501 27.5411 15.6941 27.9772 15.7124 28.4243C15.7306 28.8713 15.9213 29.2926 16.2426 29.5954C16.564 29.8984 16.9895 30.0582 17.4259 30.0395L17.4258 30.0397ZM23.0462 31.7252C22.5603 31.7248 22.0881 31.5591 21.704 31.254C21.3199 30.9489 21.0457 30.5217 20.9241 30.0397H25.1709C25.0493 30.5222 24.7746 30.9498 24.3899 31.2549C24.0054 31.56 23.5326 31.7254 23.0462 31.7252V31.7252ZM30.7226 21.3313C30.7226 22.2999 30.3471 23.2288 29.6787 23.9136C29.0104 24.5985 28.1038 24.9832 27.1585 24.9832C26.2133 24.9832 25.3067 24.5985 24.6384 23.9136C23.97 23.2288 23.5945 22.2999 23.5945 21.3313C23.5945 20.3628 23.97 19.4339 24.6384 18.749C25.3067 18.0642 26.2133 17.6794 27.1585 17.6794C28.1038 17.6794 29.0104 18.0642 29.6787 18.749C30.3471 19.4339 30.7226 20.3628 30.7226 21.3313V21.3313ZM23.0462 15.994C23.3074 15.9948 23.5597 16.0913 23.7578 16.2659C23.9558 16.4404 24.0865 16.6817 24.1264 16.9463C23.4125 16.8086 22.6799 16.8086 21.966 16.9463C22.0059 16.6817 22.1366 16.4404 22.3346 16.2659C22.5326 16.0913 22.785 15.9948 23.0462 15.994H23.0462ZM17.0338 27.958C17.1375 27.851 17.2787 27.7913 17.4258 27.7922H17.8371C17.9825 27.7922 18.122 27.733 18.2248 27.6277C18.3276 27.5223 18.3854 27.3794 18.3854 27.2304V22.7358C18.3855 21.7328 18.6939 20.7553 19.2667 19.942C19.8395 19.1288 20.6477 18.5208 21.5767 18.2046C22.2922 17.9586 23.0558 17.8969 23.8 18.0248C22.9522 18.9301 22.4863 20.1409 22.5027 21.3955C22.5192 22.6499 23.0168 23.8474 23.888 24.7292C24.7592 25.6108 25.9341 26.1057 27.1585 26.1069C27.3419 26.1062 27.5249 26.0939 27.7068 26.0704V27.2306C27.7068 27.3796 27.7646 27.5225 27.8674 27.6279C27.9702 27.7332 28.1097 27.7924 28.2551 27.7924H28.6664C28.8118 27.7924 28.9513 27.8516 29.0541 27.9569C29.1569 28.0623 29.2147 28.2052 29.2147 28.3542C29.2147 28.5032 29.1569 28.6462 29.0541 28.7515C28.9513 28.8569 28.8118 28.9161 28.6664 28.9161H17.4259C17.2805 28.9161 17.141 28.8569 17.0382 28.7515C16.9353 28.6462 16.8776 28.5032 16.8776 28.3542C16.8767 28.2062 16.9329 28.0639 17.0339 27.9582L17.0338 27.958Z" fill="#285BF4"/>
<path d="M26.9642 21.8576L29.0889 22.7003L29.4837 21.6497L27.7099 20.9474V18.2422H26.6133V21.3322C26.613 21.4459 26.6465 21.557 26.7091 21.6508C26.7718 21.7446 26.8608 21.8167 26.9642 21.8576L26.9642 21.8576Z" fill="#285BF4"/>
</svg>
