<?xml version="1.0" encoding="UTF-8" standalone="no"?><svg width="134" height="206" viewBox="0 0 134 206" fill="none" xmlns="http://www.w3.org/2000/svg">
<path d="M0.5 0.5H118C126.56 0.5 133.5 7.43959 133.5 16V190C133.5 198.56 126.56 205.5 118 205.5H0.5V0.5Z" fill="white" stroke="#285BF4"/>
<path d="M27 173.5H103" stroke="#285BF4" stroke-width="2" stroke-linecap="round" stroke-linejoin="round"/>
<path d="M91 164L103 173.5L91 183" stroke="#285BF4" stroke-width="2" stroke-linecap="round" stroke-linejoin="round"/>
<path d="M27.98 117.355V107.275H32.054C32.152 107.275 32.2733 107.28 32.418 107.289C32.5627 107.294 32.7003 107.308 32.831 107.331C33.391 107.42 33.8577 107.611 34.231 107.905C34.609 108.199 34.8913 108.57 35.078 109.018C35.2647 109.466 35.358 109.961 35.358 110.502C35.358 111.048 35.2647 111.545 35.078 111.993C34.8913 112.441 34.609 112.812 34.231 113.106C33.8577 113.4 33.391 113.592 32.831 113.68C32.7003 113.699 32.5603 113.713 32.411 113.722C32.2663 113.732 32.1473 113.736 32.054 113.736H29.443V117.355H27.98ZM29.443 112.35H31.998C32.0913 112.35 32.194 112.346 32.306 112.336C32.4227 112.327 32.5323 112.311 32.635 112.287C32.9337 112.217 33.174 112.089 33.356 111.902C33.538 111.711 33.6687 111.492 33.748 111.244C33.8273 110.997 33.867 110.75 33.867 110.502C33.867 110.255 33.8273 110.01 33.748 109.767C33.6687 109.52 33.538 109.303 33.356 109.116C33.174 108.925 32.9337 108.794 32.635 108.724C32.5323 108.696 32.4227 108.678 32.306 108.668C32.194 108.659 32.0913 108.654 31.998 108.654H29.443V112.35ZM36.7573 117.355V109.795H38.0593V111.629L37.8773 111.391C37.9707 111.149 38.092 110.927 38.2413 110.726C38.3907 110.521 38.5633 110.353 38.7593 110.222C38.9507 110.082 39.163 109.975 39.3963 109.9C39.6343 109.821 39.877 109.774 40.1243 109.76C40.3717 109.742 40.6097 109.753 40.8383 109.795V111.167C40.591 111.102 40.3157 111.083 40.0123 111.111C39.7137 111.139 39.4383 111.235 39.1863 111.398C38.9483 111.552 38.7593 111.739 38.6193 111.958C38.484 112.178 38.386 112.423 38.3253 112.693C38.2647 112.959 38.2343 113.242 38.2343 113.54V117.355H36.7573ZM45.3877 117.565C44.6364 117.565 43.976 117.402 43.4067 117.075C42.842 116.744 42.401 116.284 42.0837 115.696C41.771 115.104 41.6147 114.418 41.6147 113.638C41.6147 112.812 41.7687 112.096 42.0767 111.489C42.3894 110.883 42.8234 110.414 43.3787 110.082C43.934 109.751 44.5804 109.585 45.3177 109.585C46.0877 109.585 46.7434 109.765 47.2847 110.124C47.826 110.479 48.2297 110.985 48.4957 111.643C48.7664 112.301 48.8737 113.083 48.8177 113.988H47.3547V113.456C47.3454 112.579 47.1774 111.93 46.8507 111.51C46.5287 111.09 46.0364 110.88 45.3737 110.88C44.641 110.88 44.0904 111.111 43.7217 111.573C43.353 112.035 43.1687 112.703 43.1687 113.575C43.1687 114.406 43.353 115.05 43.7217 115.507C44.0904 115.96 44.6224 116.186 45.3177 116.186C45.775 116.186 46.1694 116.084 46.5007 115.878C46.8367 115.668 47.098 115.37 47.2847 114.982L48.7197 115.437C48.4257 116.114 47.98 116.639 47.3827 117.012C46.7854 117.381 46.1204 117.565 45.3877 117.565ZM42.6927 113.988V112.847H48.0897V113.988H42.6927ZM52.1588 117.355L49.4148 109.795H50.8918L52.9008 115.521L54.9098 109.795H56.3868L53.6428 117.355H52.1588ZM57.788 108.556V107.135H59.251V108.556H57.788ZM57.788 117.355V109.795H59.251V117.355H57.788ZM64.636 117.565C63.88 117.565 63.2244 117.395 62.669 117.054C62.1137 116.714 61.6844 116.245 61.381 115.647C61.0824 115.045 60.933 114.352 60.933 113.568C60.933 112.78 61.087 112.087 61.395 111.489C61.703 110.887 62.1347 110.421 62.69 110.089C63.2454 109.753 63.894 109.585 64.636 109.585C65.392 109.585 66.0477 109.756 66.603 110.096C67.1584 110.437 67.5877 110.906 67.891 111.503C68.1944 112.101 68.346 112.789 68.346 113.568C68.346 114.357 68.192 115.052 67.884 115.654C67.5807 116.252 67.1514 116.721 66.596 117.061C66.0407 117.397 65.3874 117.565 64.636 117.565ZM64.636 116.186C65.3594 116.186 65.8984 115.944 66.253 115.458C66.6124 114.968 66.792 114.338 66.792 113.568C66.792 112.78 66.61 112.15 66.246 111.678C65.8867 111.202 65.35 110.964 64.636 110.964C64.146 110.964 63.7424 111.076 63.425 111.3C63.1077 111.52 62.872 111.825 62.718 112.217C62.564 112.605 62.487 113.055 62.487 113.568C62.487 114.362 62.669 114.996 63.033 115.472C63.397 115.948 63.9314 116.186 64.636 116.186ZM72.7333 117.558C72.2106 117.558 71.772 117.474 71.4173 117.306C71.0626 117.138 70.7733 116.919 70.5493 116.648C70.33 116.373 70.162 116.074 70.0453 115.752C69.9286 115.43 69.8493 115.115 69.8073 114.807C69.7653 114.499 69.7443 114.229 69.7443 113.995V109.795H71.2283V113.512C71.2283 113.806 71.2516 114.11 71.2983 114.422C71.3496 114.73 71.443 115.017 71.5783 115.283C71.7183 115.549 71.912 115.764 72.1593 115.927C72.4113 116.091 72.738 116.172 73.1393 116.172C73.4006 116.172 73.648 116.13 73.8813 116.046C74.1146 115.958 74.3176 115.818 74.4903 115.626C74.6676 115.435 74.8053 115.183 74.9033 114.87C75.006 114.558 75.0573 114.177 75.0573 113.729L75.9673 114.072C75.9673 114.758 75.839 115.365 75.5823 115.892C75.3256 116.415 74.957 116.823 74.4763 117.117C73.9956 117.411 73.4146 117.558 72.7333 117.558ZM75.2323 117.355V115.171H75.0573V109.795H76.5343V117.355H75.2323ZM81.3886 117.558C80.4692 117.558 79.7202 117.355 79.1416 116.949C78.5629 116.543 78.2082 115.972 78.0776 115.234L79.5756 115.003C79.6689 115.395 79.8836 115.706 80.2196 115.934C80.5602 116.158 80.9826 116.27 81.4866 116.27C81.9439 116.27 82.3009 116.177 82.5576 115.99C82.8189 115.804 82.9496 115.547 82.9496 115.22C82.9496 115.029 82.9029 114.875 82.8096 114.758C82.7209 114.637 82.5319 114.523 82.2426 114.415C81.9532 114.308 81.5122 114.175 80.9196 114.016C80.2709 113.848 79.7552 113.669 79.3726 113.477C78.9946 113.281 78.7239 113.055 78.5606 112.798C78.4019 112.537 78.3226 112.222 78.3226 111.853C78.3226 111.396 78.4439 110.997 78.6866 110.656C78.9292 110.316 79.2699 110.052 79.7086 109.865C80.1519 109.679 80.6699 109.585 81.2626 109.585C81.8412 109.585 82.3569 109.676 82.8096 109.858C83.2622 110.04 83.6286 110.299 83.9086 110.635C84.1886 110.967 84.3566 111.356 84.4126 111.804L82.9146 112.077C82.8632 111.713 82.6929 111.426 82.4036 111.216C82.1142 111.006 81.7386 110.892 81.2766 110.873C80.8332 110.855 80.4739 110.929 80.1986 111.097C79.9232 111.261 79.7856 111.487 79.7856 111.776C79.7856 111.944 79.8369 112.087 79.9396 112.203C80.0469 112.32 80.2522 112.432 80.5556 112.539C80.8589 112.647 81.3069 112.775 81.8996 112.924C82.5342 113.088 83.0382 113.27 83.4116 113.47C83.7849 113.666 84.0509 113.902 84.2096 114.177C84.3729 114.448 84.4546 114.777 84.4546 115.164C84.4546 115.911 84.1816 116.497 83.6356 116.921C83.0942 117.346 82.3452 117.558 81.3886 117.558ZM31.634 136.565C30.9107 136.565 30.2573 136.442 29.674 136.194C29.0953 135.942 28.617 135.585 28.239 135.123C27.8657 134.657 27.623 134.104 27.511 133.464L29.037 133.233C29.191 133.849 29.513 134.33 30.003 134.675C30.493 135.016 31.0647 135.186 31.718 135.186C32.124 135.186 32.4973 135.123 32.838 134.997C33.1787 134.867 33.4517 134.682 33.657 134.444C33.867 134.202 33.972 133.912 33.972 133.576C33.972 133.394 33.9393 133.233 33.874 133.093C33.8133 132.953 33.727 132.832 33.615 132.729C33.5077 132.622 33.3747 132.531 33.216 132.456C33.062 132.377 32.8917 132.309 32.705 132.253L30.122 131.49C29.87 131.416 29.6133 131.32 29.352 131.203C29.0907 131.082 28.8503 130.926 28.631 130.734C28.4163 130.538 28.2413 130.298 28.106 130.013C27.9707 129.724 27.903 129.374 27.903 128.963C27.903 128.343 28.0617 127.818 28.379 127.388C28.701 126.954 29.135 126.628 29.681 126.408C30.227 126.184 30.8383 126.072 31.515 126.072C32.1963 126.082 32.8053 126.203 33.342 126.436C33.8833 126.67 34.3313 127.006 34.686 127.444C35.0453 127.878 35.2927 128.406 35.428 129.026L33.86 129.292C33.79 128.914 33.6407 128.59 33.412 128.319C33.1833 128.044 32.9033 127.834 32.572 127.689C32.2407 127.54 31.8813 127.463 31.494 127.458C31.1207 127.449 30.7777 127.505 30.465 127.626C30.157 127.748 29.9097 127.918 29.723 128.137C29.541 128.357 29.45 128.609 29.45 128.893C29.45 129.173 29.5317 129.4 29.695 129.572C29.8583 129.745 30.059 129.883 30.297 129.985C30.5397 130.083 30.78 130.165 31.018 130.23L32.88 130.755C33.1133 130.821 33.377 130.909 33.671 131.021C33.9697 131.129 34.2567 131.28 34.532 131.476C34.812 131.672 35.043 131.934 35.225 132.26C35.407 132.582 35.498 132.988 35.498 133.478C35.498 133.987 35.3953 134.435 35.19 134.822C34.9847 135.205 34.7023 135.527 34.343 135.788C33.9883 136.045 33.5777 136.239 33.111 136.369C32.6443 136.5 32.152 136.565 31.634 136.565ZM40.2238 136.565C39.4491 136.565 38.7911 136.393 38.2498 136.047C37.7084 135.702 37.2931 135.228 37.0038 134.626C36.7191 134.024 36.5744 133.341 36.5698 132.575C36.5744 131.796 36.7238 131.108 37.0178 130.51C37.3118 129.908 37.7318 129.437 38.2778 129.096C38.8238 128.756 39.4794 128.585 40.2448 128.585C41.0708 128.585 41.7754 128.791 42.3588 129.201C42.9468 129.612 43.3341 130.174 43.5208 130.888L42.0648 131.308C41.9201 130.884 41.6821 130.555 41.3508 130.321C41.0241 130.083 40.6484 129.964 40.2238 129.964C39.7431 129.964 39.3488 130.079 39.0408 130.307C38.7328 130.531 38.5041 130.839 38.3548 131.231C38.2054 131.623 38.1284 132.071 38.1238 132.575C38.1284 133.355 38.3058 133.985 38.6558 134.465C39.0104 134.946 39.5331 135.186 40.2238 135.186C40.6951 135.186 41.0754 135.079 41.3648 134.864C41.6588 134.645 41.8828 134.332 42.0368 133.926L43.5208 134.276C43.2734 135.014 42.8651 135.581 42.2958 135.977C41.7264 136.369 41.0358 136.565 40.2238 136.565ZM46.9861 136.565C46.4261 136.565 45.9571 136.463 45.5791 136.257C45.2011 136.047 44.9141 135.772 44.7181 135.431C44.5268 135.086 44.4311 134.708 44.4311 134.297C44.4311 133.915 44.4988 133.579 44.6341 133.289C44.7694 133 44.9701 132.755 45.2361 132.554C45.5021 132.349 45.8288 132.183 46.2161 132.057C46.5521 131.959 46.9324 131.873 47.3571 131.798C47.7818 131.724 48.2274 131.654 48.6941 131.588C49.1654 131.523 49.6321 131.458 50.0941 131.392L49.5621 131.686C49.5714 131.094 49.4454 130.655 49.1841 130.37C48.9274 130.081 48.4841 129.936 47.8541 129.936C47.4574 129.936 47.0934 130.03 46.7621 130.216C46.4308 130.398 46.1998 130.702 46.0691 131.126L44.7041 130.706C44.8908 130.058 45.2454 129.542 45.7681 129.159C46.2954 128.777 46.9954 128.585 47.8681 128.585C48.5448 128.585 49.1328 128.702 49.6321 128.935C50.1361 129.164 50.5048 129.528 50.7381 130.027C50.8594 130.275 50.9341 130.536 50.9621 130.811C50.9901 131.087 51.0041 131.383 51.0041 131.7V136.355H49.7091V134.626L49.9611 134.85C49.6484 135.429 49.2494 135.861 48.7641 136.145C48.2834 136.425 47.6908 136.565 46.9861 136.565ZM47.2451 135.368C47.6604 135.368 48.0174 135.296 48.3161 135.151C48.6148 135.002 48.8551 134.813 49.0371 134.584C49.2191 134.356 49.3381 134.118 49.3941 133.87C49.4734 133.646 49.5178 133.394 49.5271 133.114C49.5411 132.834 49.5481 132.61 49.5481 132.442L50.0241 132.617C49.5621 132.687 49.1421 132.75 48.7641 132.806C48.3861 132.862 48.0431 132.918 47.7351 132.974C47.4318 133.026 47.1611 133.089 46.9231 133.163C46.7224 133.233 46.5428 133.317 46.3841 133.415C46.2301 133.513 46.1064 133.632 46.0131 133.772C45.9244 133.912 45.8801 134.083 45.8801 134.283C45.8801 134.479 45.9291 134.661 46.0271 134.829C46.1251 134.993 46.2744 135.123 46.4751 135.221C46.6758 135.319 46.9324 135.368 47.2451 135.368ZM58.1278 136.355V132.638C58.1278 132.344 58.1021 132.043 58.0508 131.735C58.0041 131.423 57.9108 131.133 57.7708 130.867C57.6355 130.601 57.4418 130.387 57.1898 130.223C56.9425 130.06 56.6181 129.978 56.2168 129.978C55.9555 129.978 55.7081 130.023 55.4748 130.111C55.2415 130.195 55.0361 130.333 54.8588 130.524C54.6861 130.716 54.5485 130.968 54.4458 131.28C54.3478 131.593 54.2988 131.973 54.2988 132.421L53.3888 132.078C53.3888 131.392 53.5171 130.788 53.7738 130.265C54.0305 129.738 54.3991 129.327 54.8798 129.033C55.3605 128.739 55.9415 128.592 56.6228 128.592C57.1455 128.592 57.5841 128.676 57.9388 128.844C58.2935 129.012 58.5805 129.234 58.7998 129.509C59.0238 129.78 59.1941 130.076 59.3108 130.398C59.4275 130.72 59.5068 131.035 59.5488 131.343C59.5908 131.651 59.6118 131.922 59.6118 132.155V136.355H58.1278ZM52.8148 136.355V128.795H54.1238V130.979H54.2988V136.355H52.8148ZM64.3261 136.558C63.4067 136.558 62.6577 136.355 62.0791 135.949C61.5004 135.543 61.1457 134.972 61.0151 134.234L62.5131 134.003C62.6064 134.395 62.8211 134.706 63.1571 134.934C63.4977 135.158 63.9201 135.27 64.4241 135.27C64.8814 135.27 65.2384 135.177 65.4951 134.99C65.7564 134.804 65.8871 134.547 65.8871 134.22C65.8871 134.029 65.8404 133.875 65.7471 133.758C65.6584 133.637 65.4694 133.523 65.1801 133.415C64.8907 133.308 64.4497 133.175 63.8571 133.016C63.2084 132.848 62.6927 132.669 62.3101 132.477C61.9321 132.281 61.6614 132.055 61.4981 131.798C61.3394 131.537 61.2601 131.222 61.2601 130.853C61.2601 130.396 61.3814 129.997 61.6241 129.656C61.8667 129.316 62.2074 129.052 62.6461 128.865C63.0894 128.679 63.6074 128.585 64.2001 128.585C64.7787 128.585 65.2944 128.676 65.7471 128.858C66.1997 129.04 66.5661 129.299 66.8461 129.635C67.1261 129.967 67.2941 130.356 67.3501 130.804L65.8521 131.077C65.8007 130.713 65.6304 130.426 65.3411 130.216C65.0517 130.006 64.6761 129.892 64.2141 129.873C63.7707 129.855 63.4114 129.929 63.1361 130.097C62.8607 130.261 62.7231 130.487 62.7231 130.776C62.7231 130.944 62.7744 131.087 62.8771 131.203C62.9844 131.32 63.1897 131.432 63.4931 131.539C63.7964 131.647 64.2444 131.775 64.8371 131.924C65.4717 132.088 65.9757 132.27 66.3491 132.47C66.7224 132.666 66.9884 132.902 67.1471 133.177C67.3104 133.448 67.3921 133.777 67.3921 134.164C67.3921 134.911 67.1191 135.497 66.5731 135.921C66.0317 136.346 65.2827 136.558 64.3261 136.558Z" fill="#285BF4"/>
<g opacity="0.5">
<path d="M45.8172 45.5117H58.0004C61.3141 45.5117 64.0004 48.198 64.0004 51.5117V86.3546C64.0004 89.6684 61.3141 92.3547 58.0004 92.3547H35.9219C32.6082 92.3547 29.9219 89.6684 29.9219 86.3547V63.695" stroke="#285BF4" stroke-width="2.5"/>
<circle cx="29.801" cy="47.801" r="11.801" stroke="#285BF4" stroke-width="2.5"/>
<path d="M30 42V48H36" stroke="#285BF4" stroke-width="2.5" stroke-linecap="round"/>
<line x1="38.9961" y1="61.4844" x2="54.5589" y2="61.4844" stroke="#285BF4" stroke-width="2.5" stroke-linecap="round"/>
<line x1="38.9961" y1="70.3926" x2="54.5589" y2="70.3926" stroke="#285BF4" stroke-width="2.5" stroke-linecap="round"/>
<line x1="38.9961" y1="79.3047" x2="54.5589" y2="79.3047" stroke="#285BF4" stroke-width="2.5" stroke-linecap="round"/>
</g>
</svg>
