<?xml version="1.0" encoding="UTF-8" standalone="no"?><svg width="238" height="40" viewBox="0 0 238 40" fill="none" xmlns="http://www.w3.org/2000/svg">
<path d="M214 19L237 19" stroke="#285BF4" stroke-width="2" stroke-linecap="round" stroke-linejoin="round"/>
<path d="M229 11L237 19L229 27" stroke="#285BF4" stroke-width="2" stroke-linecap="round" stroke-linejoin="round"/>
<path d="M27.3469 2.34902H22.9766V1.69204C22.9766 0.759416 22.2175 0.000315848 21.2849 0.000315848L8.47676 0C7.54414 0 6.78504 0.759091 6.78504 1.69173V2.34902H2.41481C1.08349 2.34902 0 3.43186 0 4.76318V37.5852C0 38.9165 1.08349 40 2.41481 40H27.3472C28.6672 40 29.7414 38.9165 29.7414 37.5852L29.7417 4.76318C29.7417 3.43186 28.6665 2.34902 27.3465 2.34902L27.3469 2.34902ZM6.81579 6.6358C6.96091 7.42176 7.64854 8.02086 8.4766 8.02086H21.2839C22.1119 8.02086 22.7996 7.42237 22.9447 6.6358H25.4737V35.7129H4.28702V6.6358H6.81579ZM8.20182 1.69206C8.20182 1.54062 8.32575 1.41669 8.47719 1.41669H21.2845C21.436 1.41669 21.5599 1.53999 21.5599 1.69206V6.32945C21.5599 6.48089 21.436 6.60482 21.2845 6.60482L8.47719 6.60451C8.32575 6.60451 8.20182 6.48121 8.20182 6.32914V1.69206ZM28.3258 37.5848C28.3258 38.1267 27.8775 38.5832 27.3479 38.5832L2.41473 38.5835C1.87378 38.5835 1.4163 38.1261 1.4163 37.5851L1.41598 4.76309C1.41598 4.21298 1.86366 3.76531 2.41441 3.76531H6.78464V5.21997H4.06033C3.40462 5.21997 2.87065 5.75397 2.87065 6.40965V35.9392C2.87065 36.5955 3.40464 37.1295 4.06033 37.1295H25.701C26.3567 37.1295 26.8907 36.5955 26.8907 35.9392L26.891 6.40965C26.891 5.75394 26.357 5.21997 25.7013 5.21997H22.977L22.9767 3.76531H27.3469C27.8866 3.76531 28.3248 4.21298 28.3248 4.76309L28.3251 37.5851L28.3258 37.5848Z" fill="#112564"/>
<path d="M7.75255 16.8333H10.8439C11.5888 16.8333 12.1946 16.2279 12.1946 15.4827V12.4112C12.1946 11.6663 11.5891 11.0605 10.8439 11.0605H7.75255C7.01875 11.0605 6.42188 11.666 6.42188 12.4112V15.4827C6.42188 16.2278 7.0191 16.8333 7.75255 16.8333ZM7.83822 12.4773H10.7778V15.4169H7.83822V12.4773Z" fill="#112564"/>
<path d="M13.9777 13.2816H22.6298C23.0206 13.2816 23.338 12.9642 23.338 12.5734C23.338 12.1827 23.0206 11.8652 22.6298 11.8652H13.9777C13.587 11.8652 13.2695 12.1827 13.2695 12.5734C13.2695 12.9642 13.587 13.2816 13.9777 13.2816Z" fill="#112564"/>
<path d="M13.9777 16.0297H19.4378C19.8285 16.0297 20.1459 15.7122 20.1459 15.3215C20.1459 14.9307 19.8285 14.6133 19.4378 14.6133H13.9777C13.587 14.6133 13.2695 14.9307 13.2695 15.3215C13.2695 15.7126 13.587 16.0297 13.9777 16.0297Z" fill="#112564"/>
<path d="M7.75255 24.0589H10.8439C11.5888 24.0589 12.1946 23.4535 12.1946 22.7092V19.6378C12.1946 18.8929 11.5891 18.2871 10.8439 18.2871H7.75255C7.01875 18.2871 6.42188 18.8926 6.42188 19.6378V22.7092C6.42188 23.4534 7.0191 24.0589 7.75255 24.0589ZM7.83822 19.7036H10.7778V22.6432H7.83822V19.7036Z" fill="#112564"/>
<path d="M13.9777 20.5082H22.6298C23.0206 20.5082 23.338 20.1908 23.338 19.8C23.338 19.4092 23.0206 19.0918 22.6298 19.0918H13.9777C13.587 19.0918 13.2695 19.4092 13.2695 19.8C13.2695 20.1911 13.587 20.5082 13.9777 20.5082Z" fill="#112564"/>
<path d="M13.9777 23.2582H19.4378C19.8285 23.2582 20.1459 22.9417 20.1459 22.55C20.1459 22.1583 19.8285 21.8418 19.4378 21.8418H13.9777C13.587 21.8418 13.2695 22.1583 13.2695 22.55C13.2695 22.9417 13.587 23.2582 13.9777 23.2582Z" fill="#112564"/>
<path d="M7.75255 31.2864H10.8439C11.5761 31.2864 12.1946 30.668 12.1946 29.9357V26.8443C12.1946 26.1226 11.5755 25.5137 10.8439 25.5137H7.75255C7.01875 25.5137 6.42188 26.1106 6.42188 26.8443V29.9357C6.42188 30.6682 7.03175 31.2864 7.75255 31.2864ZM7.83822 26.9304H10.7778V29.87H7.83822V26.9304Z" fill="#112564"/>
<path d="M13.9777 27.7133H22.6298C23.0206 27.7133 23.338 27.3968 23.338 27.0051C23.338 26.6134 23.0206 26.2969 22.6298 26.2969H13.9777C13.587 26.2969 13.2695 26.6134 13.2695 27.0051C13.2695 27.3968 13.587 27.7133 13.9777 27.7133Z" fill="#112564"/>
<path d="M13.9777 30.4847H19.4378C19.8285 30.4847 20.1459 30.1683 20.1459 29.7766C20.1459 29.3848 19.8285 29.0684 19.4378 29.0684H13.9777C13.587 29.0684 13.2695 29.3848 13.2695 29.7766C13.2695 30.1683 13.587 30.4847 13.9777 30.4847Z" fill="#112564"/>
</svg>
