<?xml version="1.0" encoding="UTF-8" standalone="no"?><svg width="24" height="17" viewBox="0 0 24 17" fill="none" xmlns="http://www.w3.org/2000/svg">
<path d="M2.24159 8.09613C4.19445 4.68422 7.83691 2.40001 12 2.40001C16.163 2.40001 19.8051 4.68432 21.7584 8.09613C22.0876 8.6713 22.8209 8.87058 23.396 8.5413C23.9712 8.21202 24.1705 7.47881 23.8412 6.90364C21.4828 2.78342 17.0666 0 12 0C6.93319 0 2.51725 2.78331 0.158783 6.90364C-0.170472 7.47881 0.0288098 8.21201 0.604156 8.5413C1.17932 8.87056 1.91237 8.67127 2.24161 8.09613H2.24159Z" fill="white"/>
<path d="M7.42046 10.3152C8.46933 8.90417 10.1317 7.99961 11.9991 7.99961C13.8666 7.99961 15.5289 8.90422 16.5778 10.3152C16.9731 10.8472 17.7249 10.9579 18.2566 10.5627C18.7886 10.1672 18.8993 9.41564 18.5039 8.88372C17.0256 6.8945 14.6637 5.59961 11.9994 5.59961C9.33458 5.59961 6.97292 6.89456 5.49479 8.88372C5.09944 9.41569 5.21012 10.1672 5.74208 10.5627C6.27384 10.9579 7.02556 10.8472 7.42093 10.3152H7.42046Z" fill="white"/>
<path d="M12.0016 12C10.6761 12 9.60156 13.0746 9.60156 14.4C9.60156 15.7255 10.6761 16.7998 12.0016 16.7998C13.327 16.7998 14.4016 15.7255 14.4016 14.4C14.4016 13.0746 13.327 12 12.0016 12Z" fill="white"/>
</svg>
