<?xml version="1.0" encoding="UTF-8" standalone="no"?><svg width="356" height="48" viewBox="0 0 356 48" fill="none" xmlns="http://www.w3.org/2000/svg">
<path d="M30.8765 29.2611C28.886 31.4574 25.6289 35.0857 24.2717 36.6133L17.667 29.2611C17.3051 28.8791 16.7623 28.8791 16.4004 29.2611C16.0384 29.6431 16.0384 30.2159 16.4004 30.5979L23.7286 38.7141C23.9095 38.9049 24.1811 39.0005 24.3619 39.0005C24.6333 39.0005 24.8144 38.9049 24.9952 38.7141C24.9952 38.7141 29.6997 33.4622 32.3235 30.5979C32.6855 30.2159 32.6855 29.6431 32.3235 29.2611C31.8713 28.8791 31.238 28.8791 30.8764 29.2611H30.8765Z" fill="#285BF4"/>
<path d="M37.1225 24.2948C37.3033 24.4856 37.575 24.5812 37.7558 24.5812C37.9366 24.5812 38.2083 24.4856 38.3891 24.2948C40.2891 22.3852 41.1937 19.6161 40.9223 16.847C40.5604 14.0779 39.0224 11.5951 36.5794 10.1632C32.3274 7.77604 26.99 9.20806 24.5464 13.5051C24.4559 13.6007 24.4559 13.6959 24.3656 13.8871C23.2798 11.7863 21.2897 10.1631 19.0278 9.39916C16.6754 8.6352 14.2328 8.9216 12.1517 10.2584C9.79935 11.6907 8.17082 14.0779 7.80885 16.847C7.44691 19.616 8.35159 22.2896 10.2515 24.2947C10.6134 24.6767 11.1561 24.6767 11.5181 24.2947C11.8801 23.9128 11.88 23.34 11.5181 22.9579C10.0704 21.43 9.34682 19.3296 9.61816 17.1333C9.8895 14.9371 11.1561 13.0274 13.0561 11.9771C14.7752 11.0223 16.6751 10.7359 18.575 11.3087C20.3843 11.8815 21.9226 13.123 22.8273 14.8418C23.0987 15.4146 23.6414 15.7965 24.2751 15.7965C24.8178 15.8921 25.4511 15.6057 25.813 15.2237C25.9938 15.0329 25.9938 14.9373 26.2655 14.5553C28.256 11.2134 32.5083 9.97187 35.8557 11.9774C37.7557 13.1233 39.0222 15.0329 39.2936 17.2293C39.5651 19.4256 38.8412 21.526 37.3031 23.0539C36.7604 23.34 36.7604 23.9128 37.1223 24.2948L37.1225 24.2948Z" fill="#285BF4"/>
<path d="M45.081 25.6319H33.8623L32.5957 22.0036C32.5051 21.6216 32.2337 21.4307 31.8718 21.3352C31.5099 21.3352 31.2385 21.4308 30.9672 21.7172L27.9814 26.3006L25.9004 19.2348C25.8098 18.8528 25.4479 18.5664 25.0863 18.5664C24.7244 18.5664 24.3624 18.8528 24.1816 19.2348L22.3723 24.5819L20.1105 21.6219C19.9297 21.3355 19.658 21.2399 19.2964 21.2399C19.025 21.2399 18.7536 21.4308 18.5725 21.7175L16.4915 25.537L3.46325 25.5367C2.9205 25.5367 2.55859 25.9187 2.55859 26.4915C2.55859 27.0642 2.92053 27.4462 3.46325 27.4462H17.1248C17.4867 27.4462 17.7581 27.2554 17.9389 26.9687L19.5674 23.9131L22.1006 27.0642C22.2814 27.3506 22.6433 27.4462 22.9147 27.3506C23.2766 27.2551 23.4574 27.0642 23.6385 26.6823L25.0863 22.4808L26.8956 28.5919C26.9862 28.9739 27.3481 29.2603 27.8003 29.2603C28.0716 29.2603 28.343 29.0694 28.5241 28.8783L31.6001 24.1996L32.4142 26.6823C32.5047 27.0643 32.8667 27.3507 33.2283 27.3507H45.0811C45.6239 27.3507 45.9858 26.9687 45.9858 26.3959C45.9858 25.8231 45.6238 25.6319 45.0811 25.6319L45.081 25.6319Z" fill="#285BF4"/>
<path d="M321 24L344 24" stroke="#285BF4" stroke-width="2" stroke-linecap="round" stroke-linejoin="round"/>
<path d="M336 16L344 24L336 32" stroke="#285BF4" stroke-width="2" stroke-linecap="round" stroke-linejoin="round"/>
</svg>
