<?xml version="1.0" encoding="UTF-8" standalone="no"?><svg width="238" height="40" viewBox="0 0 238 40" fill="none" xmlns="http://www.w3.org/2000/svg">
<path d="M214 19L237 19" stroke="#285BF4" stroke-width="2" stroke-linecap="round" stroke-linejoin="round"/>
<path d="M229 11L237 19L229 27" stroke="#285BF4" stroke-width="2" stroke-linecap="round" stroke-linejoin="round"/>
<path d="M27.3469 2.34902H22.9766V1.69204C22.9766 0.759416 22.2175 0.000315848 21.2849 0.000315848L8.47676 0C7.54414 0 6.78504 0.759091 6.78504 1.69173V2.34902H2.41481C1.08349 2.34902 0 3.43186 0 4.76318V37.5852C0 38.9165 1.08349 40 2.41481 40H27.3472C28.6672 40 29.7414 38.9165 29.7414 37.5852L29.7417 4.76318C29.7417 3.43186 28.6665 2.34902 27.3465 2.34902L27.3469 2.34902ZM6.81579 6.6358C6.96091 7.42176 7.64854 8.02086 8.4766 8.02086H21.2839C22.1119 8.02086 22.7996 7.42237 22.9447 6.6358H25.4737V35.7129H4.28702V6.6358H6.81579ZM8.20182 1.69206C8.20182 1.54062 8.32575 1.41669 8.47719 1.41669H21.2845C21.436 1.41669 21.5599 1.53999 21.5599 1.69206V6.32945C21.5599 6.48089 21.436 6.60482 21.2845 6.60482L8.47719 6.60451C8.32575 6.60451 8.20182 6.48121 8.20182 6.32914V1.69206ZM28.3258 37.5848C28.3258 38.1267 27.8775 38.5832 27.3479 38.5832L2.41473 38.5835C1.87378 38.5835 1.4163 38.1261 1.4163 37.5851L1.41598 4.76309C1.41598 4.21298 1.86366 3.76531 2.41441 3.76531H6.78464V5.21997H4.06033C3.40462 5.21997 2.87065 5.75397 2.87065 6.40965V35.9392C2.87065 36.5955 3.40464 37.1295 4.06033 37.1295H25.701C26.3567 37.1295 26.8907 36.5955 26.8907 35.9392L26.891 6.40965C26.891 5.75394 26.357 5.21997 25.7013 5.21997H22.977L22.9767 3.76531H27.3469C27.8866 3.76531 28.3248 4.21298 28.3248 4.76309L28.3251 37.5851L28.3258 37.5848Z" fill="#112564"/>
<path d="M7.75255 16.8343H10.8439C11.5888 16.8343 12.1946 16.2288 12.1946 15.4836V12.4122C12.1946 11.6673 11.5891 11.0615 10.8439 11.0615H7.75255C7.01875 11.0615 6.42188 11.667 6.42188 12.4122V15.4836C6.42188 16.2288 7.0191 16.8343 7.75255 16.8343ZM7.83822 12.4783H10.7778V15.4179H7.83822V12.4783Z" fill="#112564"/>
<path d="M13.9777 13.2806H22.6298C23.0206 13.2806 23.338 12.9632 23.338 12.5724C23.338 12.1817 23.0206 11.8643 22.6298 11.8643H13.9777C13.587 11.8643 13.2695 12.1817 13.2695 12.5724C13.2695 12.9632 13.587 13.2806 13.9777 13.2806Z" fill="#112564"/>
<path d="M13.9777 16.0306H19.4378C19.8285 16.0306 20.1459 15.7132 20.1459 15.3224C20.1459 14.9317 19.8285 14.6143 19.4378 14.6143H13.9777C13.587 14.6143 13.2695 14.9317 13.2695 15.3224C13.2695 15.7135 13.587 16.0306 13.9777 16.0306Z" fill="#112564"/>
<path d="M7.75255 24.0599H10.8439C11.5888 24.0599 12.1946 23.4544 12.1946 22.7102V19.6387C12.1946 18.8939 11.5891 18.2881 10.8439 18.2881H7.75255C7.01875 18.2881 6.42188 18.8935 6.42188 19.6387V22.7102C6.42188 23.4544 7.0191 24.0599 7.75255 24.0599ZM7.83822 19.7045H10.7778V22.6441H7.83822V19.7045Z" fill="#112564"/>
<path d="M13.9777 20.5082H22.6298C23.0206 20.5082 23.338 20.1908 23.338 19.8C23.338 19.4092 23.0206 19.0918 22.6298 19.0918H13.9777C13.587 19.0918 13.2695 19.4092 13.2695 19.8C13.2695 20.1911 13.587 20.5082 13.9777 20.5082Z" fill="#112564"/>
<path d="M13.9777 23.2582H19.4378C19.8285 23.2582 20.1459 22.9417 20.1459 22.55C20.1459 22.1583 19.8285 21.8418 19.4378 21.8418H13.9777C13.587 21.8418 13.2695 22.1583 13.2695 22.55C13.2695 22.9417 13.587 23.2582 13.9777 23.2582Z" fill="#112564"/>
<path d="M7.75255 31.2864H10.8439C11.5761 31.2864 12.1946 30.668 12.1946 29.9357V26.8443C12.1946 26.1226 11.5755 25.5137 10.8439 25.5137H7.75255C7.01875 25.5137 6.42188 26.1106 6.42188 26.8443V29.9357C6.42188 30.6682 7.03175 31.2864 7.75255 31.2864ZM7.83822 26.9304H10.7778V29.87H7.83822V26.9304Z" fill="#112564"/>
<path d="M13.9777 27.7142H22.6298C23.0206 27.7142 23.338 27.3978 23.338 27.006C23.338 26.6143 23.0206 26.2979 22.6298 26.2979H13.9777C13.587 26.2979 13.2695 26.6143 13.2695 27.006C13.2695 27.3978 13.587 27.7142 13.9777 27.7142Z" fill="#112564"/>
<path d="M13.9777 30.4847H19.4378C19.8285 30.4847 20.1459 30.1683 20.1459 29.7766C20.1459 29.3848 19.8285 29.0684 19.4378 29.0684H13.9777C13.587 29.0684 13.2695 29.3848 13.2695 29.7766C13.2695 30.1683 13.587 30.4847 13.9777 30.4847Z" fill="#112564"/>
<path d="M48.12 28.24C47.3147 28.24 46.5893 28.1067 45.944 27.84C45.304 27.568 44.7733 27.184 44.352 26.688C43.936 26.192 43.664 25.6027 43.536 24.92L44.736 24.72C44.928 25.4667 45.3333 26.0533 45.952 26.48C46.5707 26.9013 47.3093 27.112 48.168 27.112C48.7333 27.112 49.24 27.024 49.688 26.848C50.136 26.6667 50.488 26.4107 50.744 26.08C51 25.7493 51.128 25.3573 51.128 24.904C51.128 24.6053 51.0747 24.352 50.968 24.144C50.8613 23.9307 50.72 23.7547 50.544 23.616C50.368 23.4773 50.176 23.3627 49.968 23.272C49.76 23.176 49.5573 23.0987 49.36 23.04L46.44 22.168C46.088 22.0667 45.7627 21.9387 45.464 21.784C45.1653 21.624 44.904 21.4347 44.68 21.216C44.4613 20.992 44.2907 20.7307 44.168 20.432C44.0453 20.1333 43.984 19.792 43.984 19.408C43.984 18.7573 44.1547 18.1947 44.496 17.72C44.8373 17.2453 45.304 16.88 45.896 16.624C46.488 16.368 47.1627 16.2427 47.92 16.248C48.688 16.248 49.3733 16.384 49.976 16.656C50.584 16.928 51.0853 17.3173 51.48 17.824C51.8747 18.3253 52.136 18.92 52.264 19.608L51.032 19.832C50.952 19.3307 50.768 18.896 50.48 18.528C50.192 18.16 49.824 17.8773 49.376 17.68C48.9333 17.4773 48.4453 17.3733 47.912 17.368C47.3947 17.368 46.9333 17.456 46.528 17.632C46.128 17.8027 45.8107 18.0373 45.576 18.336C45.3413 18.6347 45.224 18.976 45.224 19.36C45.224 19.7493 45.3307 20.0613 45.544 20.296C45.7627 20.5307 46.0293 20.7147 46.344 20.848C46.664 20.9813 46.9733 21.0907 47.272 21.176L49.528 21.84C49.7627 21.904 50.0373 21.9973 50.352 22.12C50.672 22.2373 50.9813 22.408 51.28 22.632C51.584 22.8507 51.8347 23.1387 52.032 23.496C52.2293 23.8533 52.328 24.3067 52.328 24.856C52.328 25.3893 52.2213 25.8667 52.008 26.288C51.8 26.7093 51.504 27.064 51.12 27.352C50.7413 27.64 50.296 27.8587 49.784 28.008C49.2773 28.1627 48.7227 28.24 48.12 28.24ZM60.2194 28V23.592C60.2194 23.112 60.174 22.672 60.0834 22.272C59.9927 21.8667 59.846 21.5147 59.6434 21.216C59.446 20.912 59.1874 20.6773 58.8674 20.512C58.5527 20.3467 58.1687 20.264 57.7154 20.264C57.2994 20.264 56.9314 20.336 56.6114 20.48C56.2967 20.624 56.03 20.832 55.8114 21.104C55.598 21.3707 55.4354 21.696 55.3234 22.08C55.2114 22.464 55.1554 22.9013 55.1554 23.392L54.3234 23.208C54.3234 22.3227 54.478 21.5787 54.7874 20.976C55.0967 20.3733 55.5234 19.9173 56.0674 19.608C56.6114 19.2987 57.2354 19.144 57.9394 19.144C58.4567 19.144 58.9074 19.224 59.2914 19.384C59.6807 19.544 60.0087 19.76 60.2754 20.032C60.5474 20.304 60.766 20.616 60.9314 20.968C61.0967 21.3147 61.2167 21.6853 61.2914 22.08C61.366 22.4693 61.4034 22.8587 61.4034 23.248V28H60.2194ZM53.9714 28V16.48H55.0354V22.984H55.1554V28H53.9714ZM67.0874 28.24C66.2287 28.24 65.4954 28.0453 64.8874 27.656C64.2794 27.2667 63.8127 26.728 63.4874 26.04C63.162 25.352 62.9994 24.5627 62.9994 23.672C62.9994 22.7653 63.1647 21.9707 63.4954 21.288C63.826 20.6053 64.2954 20.0747 64.9034 19.696C65.5167 19.312 66.2447 19.12 67.0874 19.12C67.9514 19.12 68.6874 19.3147 69.2954 19.704C69.9087 20.088 70.3754 20.624 70.6954 21.312C71.0207 21.9947 71.1834 22.7813 71.1834 23.672C71.1834 24.5787 71.0207 25.376 70.6954 26.064C70.37 26.7467 69.9007 27.28 69.2874 27.664C68.674 28.048 67.9407 28.24 67.0874 28.24ZM67.0874 27.112C68.0474 27.112 68.762 26.7947 69.2314 26.16C69.7007 25.52 69.9354 24.6907 69.9354 23.672C69.9354 22.6267 69.698 21.7947 69.2234 21.176C68.754 20.5573 68.042 20.248 67.0874 20.248C66.442 20.248 65.9087 20.3947 65.4874 20.688C65.0714 20.976 64.7594 21.3787 64.5514 21.896C64.3487 22.408 64.2474 23 64.2474 23.672C64.2474 24.712 64.4874 25.5467 64.9674 26.176C65.4474 26.8 66.154 27.112 67.0874 27.112ZM74.4756 28L71.8356 19.352L73.0116 19.36L75.0596 26.072L77.1156 19.36H78.1876L80.2436 26.072L82.3076 19.36H83.4756L80.8356 28H79.8116L77.6516 21.12L75.4996 28H74.4756ZM90.592 28.24C89.9413 28.24 89.3947 28.1227 88.952 27.888C88.5147 27.6533 88.1867 27.3413 87.968 26.952C87.7493 26.5627 87.64 26.1387 87.64 25.68C87.64 25.2107 87.7333 24.8107 87.92 24.48C88.112 24.144 88.3707 23.8693 88.696 23.656C89.0267 23.4427 89.408 23.28 89.84 23.168C90.2773 23.0613 90.76 22.968 91.288 22.888C91.8213 22.8027 92.3413 22.7307 92.848 22.672C93.36 22.608 93.808 22.5467 94.192 22.488L93.776 22.744C93.792 21.8907 93.6267 21.2587 93.28 20.848C92.9333 20.4373 92.3307 20.232 91.472 20.232C90.88 20.232 90.3787 20.3653 89.968 20.632C89.5627 20.8987 89.2773 21.32 89.112 21.896L87.968 21.56C88.1653 20.7867 88.5627 20.1867 89.16 19.76C89.7573 19.3333 90.5333 19.12 91.488 19.12C92.2773 19.12 92.9467 19.2693 93.496 19.568C94.0507 19.8613 94.4427 20.288 94.672 20.848C94.7787 21.0987 94.848 21.3787 94.88 21.688C94.912 21.9973 94.928 22.312 94.928 22.632V28H93.88V25.832L94.184 25.96C93.8907 26.7013 93.4347 27.2667 92.816 27.656C92.1973 28.0453 91.456 28.24 90.592 28.24ZM90.728 27.224C91.2773 27.224 91.7573 27.1253 92.168 26.928C92.5787 26.7307 92.9093 26.4613 93.16 26.12C93.4107 25.7733 93.5733 25.384 93.648 24.952C93.712 24.6747 93.7467 24.3707 93.752 24.04C93.7573 23.704 93.76 23.4533 93.76 23.288L94.208 23.52C93.808 23.5733 93.3733 23.6267 92.904 23.68C92.44 23.7333 91.9813 23.7947 91.528 23.864C91.08 23.9333 90.6747 24.016 90.312 24.112C90.0667 24.1813 89.8293 24.28 89.6 24.408C89.3707 24.5307 89.1813 24.696 89.032 24.904C88.888 25.112 88.816 25.3707 88.816 25.68C88.816 25.9307 88.8773 26.1733 89 26.408C89.128 26.6427 89.3307 26.8373 89.608 26.992C89.8907 27.1467 90.264 27.224 90.728 27.224ZM97.1706 28V16.24H98.3466V28H97.1706ZM100.905 28V16.24H102.081V28H100.905ZM112.387 28C111.901 28.1013 111.421 28.1413 110.947 28.12C110.477 28.0987 110.056 27.9973 109.683 27.816C109.315 27.6347 109.035 27.352 108.843 26.968C108.688 26.648 108.603 26.3253 108.587 26C108.576 25.6693 108.571 25.2933 108.571 24.872V16.96H109.739V24.824C109.739 25.1867 109.741 25.4907 109.747 25.736C109.757 25.976 109.813 26.1893 109.915 26.376C110.107 26.7333 110.411 26.9467 110.827 27.016C111.248 27.0853 111.768 27.0693 112.387 26.968V28ZM106.723 20.368V19.36H112.387V20.368H106.723ZM117.432 28.24C116.59 28.24 115.859 28.0533 115.24 27.68C114.627 27.3067 114.15 26.7813 113.808 26.104C113.467 25.4267 113.296 24.632 113.296 23.72C113.296 22.776 113.464 21.96 113.8 21.272C114.136 20.584 114.608 20.0533 115.216 19.68C115.83 19.3067 116.552 19.12 117.384 19.12C118.238 19.12 118.966 19.3173 119.568 19.712C120.171 20.1013 120.627 20.6613 120.936 21.392C121.246 22.1227 121.387 22.9947 121.36 24.008H120.16V23.592C120.139 22.472 119.896 21.6267 119.432 21.056C118.974 20.4853 118.302 20.2 117.416 20.2C116.488 20.2 115.776 20.5013 115.28 21.104C114.79 21.7067 114.544 22.5653 114.544 23.68C114.544 24.768 114.79 25.6133 115.28 26.216C115.776 26.8133 116.478 27.112 117.384 27.112C118.003 27.112 118.542 26.9707 119 26.688C119.464 26.4 119.83 25.9867 120.096 25.448L121.192 25.872C120.851 26.624 120.347 27.208 119.68 27.624C119.019 28.0347 118.27 28.24 117.432 28.24ZM114.128 24.008V23.024H120.728V24.008H114.128ZM126.36 28.232C125.346 28.232 124.512 28.0133 123.856 27.576C123.205 27.1387 122.805 26.5307 122.656 25.752L123.856 25.552C123.984 26.0427 124.274 26.4347 124.728 26.728C125.186 27.016 125.752 27.16 126.424 27.16C127.08 27.16 127.597 27.024 127.976 26.752C128.354 26.4747 128.544 26.0987 128.544 25.624C128.544 25.3573 128.482 25.1413 128.36 24.976C128.242 24.8053 128 24.648 127.632 24.504C127.264 24.36 126.714 24.1893 125.984 23.992C125.2 23.7787 124.586 23.5653 124.144 23.352C123.701 23.1387 123.386 22.8933 123.2 22.616C123.013 22.3333 122.92 21.9893 122.92 21.584C122.92 21.0933 123.058 20.664 123.336 20.296C123.613 19.9227 123.997 19.6347 124.488 19.432C124.978 19.224 125.549 19.12 126.2 19.12C126.85 19.12 127.432 19.2267 127.944 19.44C128.461 19.648 128.877 19.9413 129.192 20.32C129.506 20.6987 129.693 21.1387 129.752 21.64L128.552 21.856C128.472 21.3493 128.218 20.9493 127.792 20.656C127.37 20.3573 126.834 20.2027 126.184 20.192C125.57 20.176 125.072 20.2933 124.688 20.544C124.304 20.7893 124.112 21.1173 124.112 21.528C124.112 21.7573 124.181 21.9547 124.32 22.12C124.458 22.28 124.709 22.432 125.072 22.576C125.44 22.72 125.962 22.8773 126.64 23.048C127.434 23.2507 128.058 23.464 128.512 23.688C128.965 23.912 129.288 24.176 129.48 24.48C129.672 24.784 129.768 25.16 129.768 25.608C129.768 26.424 129.464 27.0667 128.856 27.536C128.253 28 127.421 28.232 126.36 28.232ZM136.246 28C135.761 28.1013 135.281 28.1413 134.806 28.12C134.337 28.0987 133.915 27.9973 133.542 27.816C133.174 27.6347 132.894 27.352 132.702 26.968C132.547 26.648 132.462 26.3253 132.446 26C132.435 25.6693 132.43 25.2933 132.43 24.872V16.96H133.598V24.824C133.598 25.1867 133.601 25.4907 133.606 25.736C133.617 25.976 133.673 26.1893 133.774 26.376C133.966 26.7333 134.27 26.9467 134.686 27.016C135.107 27.0853 135.627 27.0693 136.246 26.968V28ZM130.582 20.368V19.36H136.246V20.368H130.582ZM141.172 28.232C140.159 28.232 139.324 28.0133 138.668 27.576C138.017 27.1387 137.617 26.5307 137.468 25.752L138.668 25.552C138.796 26.0427 139.087 26.4347 139.54 26.728C139.999 27.016 140.564 27.16 141.236 27.16C141.892 27.16 142.409 27.024 142.788 26.752C143.167 26.4747 143.356 26.0987 143.356 25.624C143.356 25.3573 143.295 25.1413 143.172 24.976C143.055 24.8053 142.812 24.648 142.444 24.504C142.076 24.36 141.527 24.1893 140.796 23.992C140.012 23.7787 139.399 23.5653 138.956 23.352C138.513 23.1387 138.199 22.8933 138.012 22.616C137.825 22.3333 137.732 21.9893 137.732 21.584C137.732 21.0933 137.871 20.664 138.148 20.296C138.425 19.9227 138.809 19.6347 139.3 19.432C139.791 19.224 140.361 19.12 141.012 19.12C141.663 19.12 142.244 19.2267 142.756 19.44C143.273 19.648 143.689 19.9413 144.004 20.32C144.319 20.6987 144.505 21.1387 144.564 21.64L143.364 21.856C143.284 21.3493 143.031 20.9493 142.604 20.656C142.183 20.3573 141.647 20.2027 140.996 20.192C140.383 20.176 139.884 20.2933 139.5 20.544C139.116 20.7893 138.924 21.1173 138.924 21.528C138.924 21.7573 138.993 21.9547 139.132 22.12C139.271 22.28 139.521 22.432 139.884 22.576C140.252 22.72 140.775 22.8773 141.452 23.048C142.247 23.2507 142.871 23.464 143.324 23.688C143.777 23.912 144.1 24.176 144.292 24.48C144.484 24.784 144.58 25.16 144.58 25.608C144.58 26.424 144.276 27.0667 143.668 27.536C143.065 28 142.233 28.232 141.172 28.232Z" fill="#112564"/>
</svg>
