<?xml version="1.0" encoding="UTF-8" standalone="no"?><svg width="356" height="48" viewBox="0 0 356 48" fill="none" xmlns="http://www.w3.org/2000/svg">
<path d="M41.2479 19.8152C41.2462 18.1919 40.6344 16.6355 39.5469 15.4878C38.4592 14.3398 36.9848 13.6941 35.4466 13.6922C28.8817 13.8267 27.4583 23.2745 33.5577 25.598V32.3451C33.1981 41.9141 20.231 41.9055 19.8929 32.3451V28.7648C22.2993 28.2296 24.4591 26.8393 26.0118 24.8264C27.5642 22.8132 28.4151 20.2988 28.423 17.7032V10.6809C28.4209 9.53103 27.9869 8.42935 27.2159 7.61701C26.4452 6.80489 25.4006 6.3483 24.3114 6.34798H22.885C22.1955 4.19564 18.548 4.64516 18.6067 7.04956V9.93479C18.5535 12.4654 22.503 12.7792 22.9592 10.3852H23.5751C23.8954 10.3868 24.2023 10.5222 24.4283 10.762C24.6541 11.0018 24.7809 11.3263 24.7803 11.6643V17.6273C24.4417 27.153 11.5177 27.1593 11.1602 17.6273V11.6643C11.1654 11.2879 11.3237 10.9317 11.5948 10.687C11.866 10.442 12.2238 10.332 12.5772 10.3852C13.0346 12.7809 16.9821 12.4638 16.9297 9.93473V7.0495C16.9873 4.5932 13.2044 4.19312 12.6179 6.46091H10.2449C9.32413 6.65833 8.497 7.18705 7.90439 7.95646C7.31179 8.72621 6.99087 9.68908 6.99616 10.6808V17.7031C6.99761 20.3543 7.88205 22.9202 9.4952 24.9525C11.108 26.9847 13.347 28.3538 15.8198 28.8199V32.1184C15.8198 36.1839 17.8746 39.9406 21.2106 41.9735C24.5466 44.0065 28.6565 44.0061 31.9925 41.9735C35.3282 39.9409 37.3833 36.1843 37.3833 32.1184V25.5795C38.5124 25.157 39.4896 24.3759 40.1817 23.344C40.8735 22.312 41.2461 21.0793 41.2482 19.8152L41.2479 19.8152ZM21.0538 10.6227H20.5613C20.2014 10.6224 19.9099 10.3148 19.9096 9.93497V7.04974C19.9099 6.66993 20.2014 6.36228 20.5613 6.36197H21.0538C21.4137 6.36228 21.7052 6.66993 21.7054 7.04974V9.69091C21.7581 9.9086 21.7153 10.1395 21.5891 10.32C21.4628 10.5009 21.2662 10.612 21.0538 10.6228V10.6227ZM13.8302 7.04974C13.8305 6.66993 14.122 6.36228 14.4819 6.36197H14.9744C15.334 6.36228 15.6258 6.66993 15.6261 7.04974V9.93497C15.6258 10.3148 15.334 10.6224 14.9744 10.6227H14.4819C14.2724 10.612 14.0784 10.5036 13.9524 10.3267C13.8264 10.1499 13.7816 9.923 13.8302 9.70776C13.8247 9.69087 13.834 7.06973 13.8302 7.04977V7.04974ZM8.29919 17.7034V10.6811C8.29832 10.0382 8.49614 9.41242 8.8627 8.89908C9.22927 8.38573 9.7448 8.01269 10.3307 7.8367H12.5268V9.0099C11.8342 8.96845 11.1557 9.22913 10.6507 9.73114C10.1457 10.2331 9.85852 10.9326 9.85651 11.6646V17.6275C10.3083 28.9949 25.6536 28.9862 26.0833 17.6275V11.6646C26.0685 10.858 25.7188 10.0987 25.1271 9.58777C24.5353 9.07686 23.7612 8.86562 23.0089 9.00992V7.72376H24.311C25.0546 7.72376 25.7679 8.0351 26.2945 8.58964C26.8211 9.14415 27.1176 9.89607 27.1193 10.6811V17.7034C27.1193 21.2516 25.3258 24.5301 22.4142 26.304C19.5029 28.078 15.9159 28.078 13.0042 26.304C10.0926 24.53 8.29907 21.2514 8.29907 17.7034L8.29919 17.7034ZM36.0794 32.1189V32.1192C36.0794 35.6929 34.2728 38.9953 31.3403 40.7819C28.4075 42.5688 24.7946 42.5688 21.8618 40.7819C18.9293 38.995 17.1226 35.6925 17.1226 32.1185V28.9903C17.6111 29.021 18.1013 29.0143 18.5889 28.9698V32.3453C19.0247 43.7457 34.4061 43.7449 34.8604 32.3453V25.9064C35.2657 25.95 35.6744 25.9476 36.0791 25.8997L36.0794 32.1189ZM35.4461 24.5627H35.4464C34.2551 24.5572 33.1138 24.0552 32.2716 23.1663C31.4291 22.2771 30.9534 21.0729 30.9481 19.8156C31.159 13.5336 39.7333 13.5336 39.9441 19.8156H39.9444C39.9429 21.0741 39.4687 22.2808 38.6253 23.1706C37.7823 24.0607 36.6389 24.5611 35.4464 24.5627H35.4461Z" fill="#285BF4"/>
<path d="M35.4505 17.1152C34.5416 17.1238 33.7052 17.6403 33.2531 18.4724C32.801 19.3044 32.801 20.3272 33.2531 21.1593C33.7052 21.9914 34.5416 22.5081 35.4505 22.5167C36.3593 22.5081 37.1954 21.9914 37.6475 21.1593C38.0996 20.3272 38.0996 19.3044 37.6475 18.4724C37.1954 17.6403 36.359 17.1239 35.4505 17.1152ZM35.4505 21.1411C35.0065 21.1335 34.5995 20.8792 34.3796 20.4724C34.1596 20.0656 34.1596 19.5664 34.3796 19.1592C34.5995 18.7524 35.0065 18.4981 35.4505 18.4908C35.8941 18.4982 36.3014 18.7524 36.5211 19.1592C36.741 19.5663 36.741 20.0656 36.5211 20.4724C36.3014 20.8792 35.8941 21.1335 35.4505 21.1411Z" fill="#285BF4"/>
<path d="M321 24L344 24" stroke="#285BF4" stroke-width="2" stroke-linecap="round" stroke-linejoin="round"/>
<path d="M336 16L344 24L336 32" stroke="#285BF4" stroke-width="2" stroke-linecap="round" stroke-linejoin="round"/>
</svg>
