<?xml version="1.0" encoding="UTF-8" standalone="no"?><svg width="44" height="44" viewBox="0 0 44 44" fill="none" xmlns="http://www.w3.org/2000/svg">
<circle opacity="0.1" cx="22" cy="22" r="22" fill="#285BF4"/>
<path d="M14.6088 27.7497C14.6074 27.7242 14.6074 27.6983 14.6088 27.6728C14.7687 24.1247 18.3853 21.2708 22.0735 21.2708C25.7618 21.2708 30.0287 24.1245 30.1773 27.6803C30.1798 27.7032 30.1798 27.7263 30.1773 27.7492V30.6361H32.775L32.7747 27.763C32.7742 27.6324 32.7595 27.502 32.7307 27.3746C32.425 23.6035 29.0121 20.452 25.244 19.2236C26.3615 18.3139 27.0506 16.9809 27.1473 15.5431C27.2437 14.1056 26.7388 12.6921 25.753 11.6412C24.7673 10.5903 23.3895 9.9958 21.9485 10C20.5075 10.0042 19.1332 10.6068 18.1536 11.6636C17.1741 12.7204 16.6775 14.1365 16.7825 15.5736C16.8875 17.0109 17.5848 18.3398 18.7075 19.2431C15.1844 20.491 12.3005 23.6504 12.0386 27.3941V27.3938C12.013 27.5153 12 27.639 12 27.763V30.6361H14.5947L14.6088 27.7497ZM21.9747 12.5999C22.6695 12.597 23.3367 12.8707 23.8294 13.3609C24.3217 13.8508 24.5989 14.5166 24.5996 15.2114C24.6004 15.9062 24.3247 16.5724 23.833 17.0636C23.3416 17.5545 22.6748 17.8297 21.98 17.8283C21.2855 17.8268 20.6198 17.5489 20.1303 17.0557C19.6409 16.5626 19.3679 15.8951 19.3716 15.2003C19.3716 14.509 19.6455 13.8456 20.1333 13.3557C20.6212 12.8658 21.2833 12.5891 21.9746 12.5862L21.9747 12.5999Z" fill="#285BF4"/>
</svg>
