<?xml version="1.0" encoding="UTF-8" standalone="no"?><svg width="88" height="150" viewBox="0 0 88 150" fill="none" xmlns="http://www.w3.org/2000/svg">
<path d="M11 139.5H87" stroke="#285BF4" stroke-width="2" stroke-linecap="round" stroke-linejoin="round"/>
<path d="M75 130L87 139.5L75 149" stroke="#285BF4" stroke-width="2" stroke-linecap="round" stroke-linejoin="round"/>
<path d="M11.98 83.3555V73.2755H16.054C16.152 73.2755 16.2733 73.2801 16.418 73.2895C16.5627 73.2941 16.7003 73.3081 16.831 73.3315C17.391 73.4201 17.8577 73.6115 18.231 73.9055C18.609 74.1995 18.8913 74.5705 19.078 75.0185C19.2647 75.4665 19.358 75.9611 19.358 76.5025C19.358 77.0485 19.2647 77.5455 19.078 77.9935C18.8913 78.4415 18.609 78.8125 18.231 79.1065C17.8577 79.4005 17.391 79.5918 16.831 79.6805C16.7003 79.6991 16.5603 79.7131 16.411 79.7225C16.2663 79.7318 16.1473 79.7365 16.054 79.7365H13.443V83.3555H11.98ZM13.443 78.3505H15.998C16.0913 78.3505 16.194 78.3458 16.306 78.3365C16.4227 78.3271 16.5323 78.3108 16.635 78.2875C16.9337 78.2175 17.174 78.0891 17.356 77.9025C17.538 77.7111 17.6687 77.4918 17.748 77.2445C17.8273 76.9971 17.867 76.7498 17.867 76.5025C17.867 76.2551 17.8273 76.0101 17.748 75.7675C17.6687 75.5201 17.538 75.3031 17.356 75.1165C17.174 74.9251 16.9337 74.7945 16.635 74.7245C16.5323 74.6965 16.4227 74.6778 16.306 74.6685C16.194 74.6591 16.0913 74.6545 15.998 74.6545H13.443V78.3505ZM20.7573 83.3555V75.7955H22.0593V77.6295L21.8773 77.3915C21.9707 77.1488 22.092 76.9271 22.2413 76.7265C22.3907 76.5211 22.5633 76.3531 22.7593 76.2225C22.9507 76.0825 23.163 75.9751 23.3963 75.9005C23.6343 75.8211 23.877 75.7745 24.1243 75.7605C24.3717 75.7418 24.6097 75.7535 24.8383 75.7955V77.1675C24.591 77.1021 24.3157 77.0835 24.0123 77.1115C23.7137 77.1395 23.4383 77.2351 23.1863 77.3985C22.9483 77.5525 22.7593 77.7391 22.6193 77.9585C22.484 78.1778 22.386 78.4228 22.3253 78.6935C22.2647 78.9595 22.2343 79.2418 22.2343 79.5405V83.3555H20.7573ZM29.3877 83.5655C28.6364 83.5655 27.976 83.4021 27.4067 83.0755C26.842 82.7441 26.401 82.2845 26.0837 81.6965C25.771 81.1038 25.6147 80.4178 25.6147 79.6385C25.6147 78.8125 25.7687 78.0961 26.0767 77.4895C26.3894 76.8828 26.8234 76.4138 27.3787 76.0825C27.934 75.7511 28.5804 75.5855 29.3177 75.5855C30.0877 75.5855 30.7434 75.7651 31.2847 76.1245C31.826 76.4791 32.2297 76.9855 32.4957 77.6435C32.7664 78.3015 32.8737 79.0831 32.8177 79.9885H31.3547V79.4565C31.3454 78.5791 31.1774 77.9305 30.8507 77.5105C30.5287 77.0905 30.0364 76.8805 29.3737 76.8805C28.641 76.8805 28.0904 77.1115 27.7217 77.5735C27.353 78.0355 27.1687 78.7028 27.1687 79.5755C27.1687 80.4061 27.353 81.0501 27.7217 81.5075C28.0904 81.9601 28.6224 82.1865 29.3177 82.1865C29.775 82.1865 30.1694 82.0838 30.5007 81.8785C30.8367 81.6685 31.098 81.3698 31.2847 80.9825L32.7197 81.4375C32.4257 82.1141 31.98 82.6391 31.3827 83.0125C30.7854 83.3811 30.1204 83.5655 29.3877 83.5655ZM26.6927 79.9885V78.8475H32.0897V79.9885H26.6927ZM36.1588 83.3555L33.4148 75.7955H34.8918L36.9008 81.5215L38.9098 75.7955H40.3868L37.6428 83.3555H36.1588ZM41.788 74.5565V73.1355H43.251V74.5565H41.788ZM41.788 83.3555V75.7955H43.251V83.3555H41.788ZM48.636 83.5655C47.88 83.5655 47.2244 83.3951 46.669 83.0545C46.1137 82.7138 45.6844 82.2448 45.381 81.6475C45.0824 81.0455 44.933 80.3525 44.933 79.5685C44.933 78.7798 45.087 78.0868 45.395 77.4895C45.703 76.8875 46.1347 76.4208 46.69 76.0895C47.2454 75.7535 47.894 75.5855 48.636 75.5855C49.392 75.5855 50.0477 75.7558 50.603 76.0965C51.1584 76.4371 51.5877 76.9061 51.891 77.5035C52.1944 78.1008 52.346 78.7891 52.346 79.5685C52.346 80.3571 52.192 81.0525 51.884 81.6545C51.5807 82.2518 51.1514 82.7208 50.596 83.0615C50.0407 83.3975 49.3874 83.5655 48.636 83.5655ZM48.636 82.1865C49.3594 82.1865 49.8984 81.9438 50.253 81.4585C50.6124 80.9685 50.792 80.3385 50.792 79.5685C50.792 78.7798 50.61 78.1498 50.246 77.6785C49.8867 77.2025 49.35 76.9645 48.636 76.9645C48.146 76.9645 47.7424 77.0765 47.425 77.3005C47.1077 77.5198 46.872 77.8255 46.718 78.2175C46.564 78.6048 46.487 79.0551 46.487 79.5685C46.487 80.3618 46.669 80.9965 47.033 81.4725C47.397 81.9485 47.9314 82.1865 48.636 82.1865ZM56.7333 83.5585C56.2106 83.5585 55.772 83.4745 55.4173 83.3065C55.0626 83.1385 54.7733 82.9191 54.5493 82.6485C54.33 82.3731 54.162 82.0745 54.0453 81.7525C53.9286 81.4305 53.8493 81.1155 53.8073 80.8075C53.7653 80.4995 53.7443 80.2288 53.7443 79.9955V75.7955H55.2283V79.5125C55.2283 79.8065 55.2516 80.1098 55.2983 80.4225C55.3496 80.7305 55.443 81.0175 55.5783 81.2835C55.7183 81.5495 55.912 81.7641 56.1593 81.9275C56.4113 82.0908 56.738 82.1725 57.1393 82.1725C57.4006 82.1725 57.648 82.1305 57.8813 82.0465C58.1146 81.9578 58.3176 81.8178 58.4903 81.6265C58.6676 81.4351 58.8053 81.1831 58.9033 80.8705C59.006 80.5578 59.0573 80.1775 59.0573 79.7295L59.9673 80.0725C59.9673 80.7585 59.839 81.3651 59.5823 81.8925C59.3256 82.4151 58.957 82.8235 58.4763 83.1175C57.9956 83.4115 57.4146 83.5585 56.7333 83.5585ZM59.2323 83.3555V81.1715H59.0573V75.7955H60.5343V83.3555H59.2323ZM65.3886 83.5585C64.4692 83.5585 63.7202 83.3555 63.1416 82.9495C62.5629 82.5435 62.2082 81.9718 62.0776 81.2345L63.5756 81.0035C63.6689 81.3955 63.8836 81.7058 64.2196 81.9345C64.5602 82.1585 64.9826 82.2705 65.4866 82.2705C65.9439 82.2705 66.3009 82.1771 66.5576 81.9905C66.8189 81.8038 66.9496 81.5471 66.9496 81.2205C66.9496 81.0291 66.9029 80.8751 66.8096 80.7585C66.7209 80.6371 66.5319 80.5228 66.2426 80.4155C65.9532 80.3081 65.5122 80.1751 64.9196 80.0165C64.2709 79.8485 63.7552 79.6688 63.3726 79.4775C62.9946 79.2815 62.7239 79.0551 62.5606 78.7985C62.4019 78.5371 62.3226 78.2221 62.3226 77.8535C62.3226 77.3961 62.4439 76.9971 62.6866 76.6565C62.9292 76.3158 63.2699 76.0521 63.7086 75.8655C64.1519 75.6788 64.6699 75.5855 65.2626 75.5855C65.8412 75.5855 66.3569 75.6765 66.8096 75.8585C67.2622 76.0405 67.6286 76.2995 67.9086 76.6355C68.1886 76.9668 68.3566 77.3565 68.4126 77.8045L66.9146 78.0775C66.8632 77.7135 66.6929 77.4265 66.4036 77.2165C66.1142 77.0065 65.7386 76.8921 65.2766 76.8735C64.8332 76.8548 64.4739 76.9295 64.1986 77.0975C63.9232 77.2608 63.7856 77.4871 63.7856 77.7765C63.7856 77.9445 63.8369 78.0868 63.9396 78.2035C64.0469 78.3201 64.2522 78.4321 64.5556 78.5395C64.8589 78.6468 65.3069 78.7751 65.8996 78.9245C66.5342 79.0878 67.0382 79.2698 67.4116 79.4705C67.7849 79.6665 68.0509 79.9021 68.2096 80.1775C68.3729 80.4481 68.4546 80.7771 68.4546 81.1645C68.4546 81.9111 68.1816 82.4968 67.6356 82.9215C67.0942 83.3461 66.3452 83.5585 65.3886 83.5585ZM15.634 102.565C14.9107 102.565 14.2573 102.442 13.674 102.194C13.0953 101.942 12.617 101.585 12.239 101.123C11.8657 100.657 11.623 100.104 11.511 99.4645L13.037 99.2335C13.191 99.8495 13.513 100.33 14.003 100.675C14.493 101.016 15.0647 101.186 15.718 101.186C16.124 101.186 16.4973 101.123 16.838 100.997C17.1787 100.867 17.4517 100.682 17.657 100.444C17.867 100.202 17.972 99.9125 17.972 99.5765C17.972 99.3945 17.9393 99.2335 17.874 99.0935C17.8133 98.9535 17.727 98.8321 17.615 98.7295C17.5077 98.6221 17.3747 98.5311 17.216 98.4565C17.062 98.3771 16.8917 98.3095 16.705 98.2535L14.122 97.4905C13.87 97.4158 13.6133 97.3201 13.352 97.2035C13.0907 97.0821 12.8503 96.9258 12.631 96.7345C12.4163 96.5385 12.2413 96.2981 12.106 96.0135C11.9707 95.7241 11.903 95.3741 11.903 94.9635C11.903 94.3428 12.0617 93.8178 12.379 93.3885C12.701 92.9545 13.135 92.6278 13.681 92.4085C14.227 92.1845 14.8383 92.0725 15.515 92.0725C16.1963 92.0818 16.8053 92.2031 17.342 92.4365C17.8833 92.6698 18.3313 93.0058 18.686 93.4445C19.0453 93.8785 19.2927 94.4058 19.428 95.0265L17.86 95.2925C17.79 94.9145 17.6407 94.5901 17.412 94.3195C17.1833 94.0441 16.9033 93.8341 16.572 93.6895C16.2407 93.5401 15.8813 93.4631 15.494 93.4585C15.1207 93.4491 14.7777 93.5051 14.465 93.6265C14.157 93.7478 13.9097 93.9181 13.723 94.1375C13.541 94.3568 13.45 94.6088 13.45 94.8935C13.45 95.1735 13.5317 95.3998 13.695 95.5725C13.8583 95.7451 14.059 95.8828 14.297 95.9855C14.5397 96.0835 14.78 96.1651 15.018 96.2305L16.88 96.7555C17.1133 96.8208 17.377 96.9095 17.671 97.0215C17.9697 97.1288 18.2567 97.2805 18.532 97.4765C18.812 97.6725 19.043 97.9338 19.225 98.2605C19.407 98.5825 19.498 98.9885 19.498 99.4785C19.498 99.9871 19.3953 100.435 19.19 100.822C18.9847 101.205 18.7023 101.527 18.343 101.788C17.9883 102.045 17.5777 102.239 17.111 102.369C16.6443 102.5 16.152 102.565 15.634 102.565ZM24.2238 102.565C23.4491 102.565 22.7911 102.393 22.2498 102.047C21.7084 101.702 21.2931 101.228 21.0038 100.626C20.7191 100.024 20.5744 99.3408 20.5698 98.5755C20.5744 97.7961 20.7238 97.1078 21.0178 96.5105C21.3118 95.9085 21.7318 95.4371 22.2778 95.0965C22.8238 94.7558 23.4794 94.5855 24.2448 94.5855C25.0708 94.5855 25.7754 94.7908 26.3588 95.2015C26.9468 95.6121 27.3341 96.1745 27.5208 96.8885L26.0648 97.3085C25.9201 96.8838 25.6821 96.5548 25.3508 96.3215C25.0241 96.0835 24.6484 95.9645 24.2238 95.9645C23.7431 95.9645 23.3488 96.0788 23.0408 96.3075C22.7328 96.5315 22.5041 96.8395 22.3548 97.2315C22.2054 97.6235 22.1284 98.0715 22.1238 98.5755C22.1284 99.3548 22.3058 99.9848 22.6558 100.465C23.0104 100.946 23.5331 101.186 24.2238 101.186C24.6951 101.186 25.0754 101.079 25.3648 100.864C25.6588 100.645 25.8828 100.332 26.0368 99.9265L27.5208 100.276C27.2734 101.014 26.8651 101.581 26.2958 101.977C25.7264 102.369 25.0358 102.565 24.2238 102.565ZM30.9861 102.565C30.4261 102.565 29.9571 102.463 29.5791 102.257C29.2011 102.047 28.9141 101.772 28.7181 101.431C28.5268 101.086 28.4311 100.708 28.4311 100.297C28.4311 99.9148 28.4988 99.5788 28.6341 99.2895C28.7694 99.0001 28.9701 98.7551 29.2361 98.5545C29.5021 98.3491 29.8288 98.1835 30.2161 98.0575C30.5521 97.9595 30.9324 97.8731 31.3571 97.7985C31.7818 97.7238 32.2274 97.6538 32.6941 97.5885C33.1654 97.5231 33.6321 97.4578 34.0941 97.3925L33.5621 97.6865C33.5714 97.0938 33.4454 96.6551 33.1841 96.3705C32.9274 96.0811 32.4841 95.9365 31.8541 95.9365C31.4574 95.9365 31.0934 96.0298 30.7621 96.2165C30.4308 96.3985 30.1998 96.7018 30.0691 97.1265L28.7041 96.7065C28.8908 96.0578 29.2454 95.5421 29.7681 95.1595C30.2954 94.7768 30.9954 94.5855 31.8681 94.5855C32.5448 94.5855 33.1328 94.7021 33.6321 94.9355C34.1361 95.1641 34.5048 95.5281 34.7381 96.0275C34.8594 96.2748 34.9341 96.5361 34.9621 96.8115C34.9901 97.0868 35.0041 97.3831 35.0041 97.7005V102.355H33.7091V100.626L33.9611 100.85C33.6484 101.429 33.2494 101.861 32.7641 102.145C32.2834 102.425 31.6908 102.565 30.9861 102.565ZM31.2451 101.368C31.6604 101.368 32.0174 101.296 32.3161 101.151C32.6148 101.002 32.8551 100.813 33.0371 100.584C33.2191 100.356 33.3381 100.118 33.3941 99.8705C33.4734 99.6465 33.5178 99.3945 33.5271 99.1145C33.5411 98.8345 33.5481 98.6105 33.5481 98.4425L34.0241 98.6175C33.5621 98.6875 33.1421 98.7505 32.7641 98.8065C32.3861 98.8625 32.0431 98.9185 31.7351 98.9745C31.4318 99.0258 31.1611 99.0888 30.9231 99.1635C30.7224 99.2335 30.5428 99.3175 30.3841 99.4155C30.2301 99.5135 30.1064 99.6325 30.0131 99.7725C29.9244 99.9125 29.8801 100.083 29.8801 100.283C29.8801 100.479 29.9291 100.661 30.0271 100.829C30.1251 100.993 30.2744 101.123 30.4751 101.221C30.6758 101.319 30.9324 101.368 31.2451 101.368ZM42.1278 102.355V98.6385C42.1278 98.3445 42.1021 98.0435 42.0508 97.7355C42.0041 97.4228 41.9108 97.1335 41.7708 96.8675C41.6355 96.6015 41.4418 96.3868 41.1898 96.2235C40.9425 96.0601 40.6181 95.9785 40.2168 95.9785C39.9555 95.9785 39.7081 96.0228 39.4748 96.1115C39.2415 96.1955 39.0361 96.3331 38.8588 96.5245C38.6861 96.7158 38.5485 96.9678 38.4458 97.2805C38.3478 97.5931 38.2988 97.9735 38.2988 98.4215L37.3888 98.0785C37.3888 97.3925 37.5171 96.7881 37.7738 96.2655C38.0305 95.7381 38.3991 95.3275 38.8798 95.0335C39.3605 94.7395 39.9415 94.5925 40.6228 94.5925C41.1455 94.5925 41.5841 94.6765 41.9388 94.8445C42.2935 95.0125 42.5805 95.2341 42.7998 95.5095C43.0238 95.7801 43.1941 96.0765 43.3108 96.3985C43.4275 96.7205 43.5068 97.0355 43.5488 97.3435C43.5908 97.6515 43.6118 97.9221 43.6118 98.1555V102.355H42.1278ZM36.8148 102.355V94.7955H38.1238V96.9795H38.2988V102.355H36.8148ZM48.3261 102.558C47.4067 102.558 46.6577 102.355 46.0791 101.949C45.5004 101.543 45.1457 100.972 45.0151 100.234L46.5131 100.003C46.6064 100.395 46.8211 100.706 47.1571 100.934C47.4977 101.158 47.9201 101.27 48.4241 101.27C48.8814 101.27 49.2384 101.177 49.4951 100.99C49.7564 100.804 49.8871 100.547 49.8871 100.22C49.8871 100.029 49.8404 99.8751 49.7471 99.7585C49.6584 99.6371 49.4694 99.5228 49.1801 99.4155C48.8907 99.3081 48.4497 99.1751 47.8571 99.0165C47.2084 98.8485 46.6927 98.6688 46.3101 98.4775C45.9321 98.2815 45.6614 98.0551 45.4981 97.7985C45.3394 97.5371 45.2601 97.2221 45.2601 96.8535C45.2601 96.3961 45.3814 95.9971 45.6241 95.6565C45.8667 95.3158 46.2074 95.0521 46.6461 94.8655C47.0894 94.6788 47.6074 94.5855 48.2001 94.5855C48.7787 94.5855 49.2944 94.6765 49.7471 94.8585C50.1997 95.0405 50.5661 95.2995 50.8461 95.6355C51.1261 95.9668 51.2941 96.3565 51.3501 96.8045L49.8521 97.0775C49.8007 96.7135 49.6304 96.4265 49.3411 96.2165C49.0517 96.0065 48.6761 95.8921 48.2141 95.8735C47.7707 95.8548 47.4114 95.9295 47.1361 96.0975C46.8607 96.2608 46.7231 96.4871 46.7231 96.7765C46.7231 96.9445 46.7744 97.0868 46.8771 97.2035C46.9844 97.3201 47.1897 97.4321 47.4931 97.5395C47.7964 97.6468 48.2444 97.7751 48.8371 97.9245C49.4717 98.0878 49.9757 98.2698 50.3491 98.4705C50.7224 98.6665 50.9884 98.9021 51.1471 99.1775C51.3104 99.4481 51.3921 99.7771 51.3921 100.164C51.3921 100.911 51.1191 101.497 50.5731 101.921C50.0317 102.346 49.2827 102.558 48.3261 102.558Z" fill="#285BF4"/>
<g opacity="0.5">
<path d="M29.8172 11.5117H42.0004C45.3141 11.5117 48.0004 14.198 48.0004 17.5117V52.3546C48.0004 55.6684 45.3141 58.3547 42.0004 58.3547H19.9219C16.6082 58.3547 13.9219 55.6684 13.9219 52.3547V29.695" stroke="#285BF4" stroke-width="2.5"/>
<circle cx="13.801" cy="13.801" r="11.801" stroke="#285BF4" stroke-width="2.5"/>
<path d="M14 8V14H20" stroke="#285BF4" stroke-width="2.5" stroke-linecap="round"/>
<line x1="22.9961" y1="27.4844" x2="38.5589" y2="27.4844" stroke="#285BF4" stroke-width="2.5" stroke-linecap="round"/>
<line x1="22.9961" y1="36.3926" x2="38.5589" y2="36.3926" stroke="#285BF4" stroke-width="2.5" stroke-linecap="round"/>
<line x1="22.9961" y1="45.3047" x2="38.5589" y2="45.3047" stroke="#285BF4" stroke-width="2.5" stroke-linecap="round"/>
</g>
</svg>
