<?xml version="1.0" encoding="UTF-8" standalone="no"?><svg width="90" height="32" viewBox="0 0 90 32" fill="none" xmlns="http://www.w3.org/2000/svg">
<rect opacity="0.1" width="90" height="32" rx="16" fill="#285BF4"/>
<rect x="3" y="2" width="40" height="27" rx="13.5" fill="#285BF4"/>
<path d="M16.836 11.136C16.5047 11.136 16.2013 11.0567 15.926 10.898C15.6553 10.7347 15.4383 10.5177 15.275 10.247C15.1163 9.97167 15.037 9.66833 15.037 9.337C15.037 9.00567 15.1163 8.70467 15.275 8.434C15.4383 8.15867 15.6553 7.94167 15.926 7.783C16.2013 7.61967 16.5047 7.538 16.836 7.538C17.1673 7.538 17.4683 7.61967 17.739 7.783C18.0143 7.94167 18.2313 8.15867 18.39 8.434C18.5533 8.70467 18.635 9.00567 18.635 9.337C18.635 9.66833 18.5533 9.97167 18.39 10.247C18.2313 10.5177 18.0143 10.7347 17.739 10.898C17.4683 11.0567 17.1673 11.136 16.836 11.136ZM16.836 10.107C17.0507 10.107 17.2327 10.0323 17.382 9.883C17.5313 9.729 17.606 9.547 17.606 9.337C17.606 9.12233 17.5313 8.94033 17.382 8.791C17.2327 8.64167 17.0507 8.567 16.836 8.567C16.626 8.567 16.444 8.64167 16.29 8.791C16.1407 8.94033 16.066 9.12233 16.066 9.337C16.066 9.547 16.1407 9.729 16.29 9.883C16.444 10.0323 16.626 10.107 16.836 10.107ZM21.6499 22V11.92H27.7189V13.607H23.3369V16.12H26.8789V17.8H23.3369V22H21.6499Z" fill="white"/>
<path d="M56.374 11.101C56.094 11.101 55.8373 11.0333 55.604 10.898C55.3707 10.758 55.184 10.5737 55.044 10.345C54.9087 10.1117 54.841 9.85267 54.841 9.568C54.841 9.288 54.9087 9.03133 55.044 8.798C55.184 8.56467 55.3707 8.38033 55.604 8.245C55.8373 8.105 56.094 8.035 56.374 8.035C56.6587 8.035 56.9153 8.105 57.144 8.245C57.3773 8.38033 57.5617 8.56467 57.697 8.798C57.837 9.03133 57.907 9.288 57.907 9.568C57.907 9.85267 57.837 10.1117 57.697 10.345C57.5617 10.5737 57.3773 10.758 57.144 10.898C56.9153 11.0333 56.6587 11.101 56.374 11.101ZM56.374 10.338C56.5933 10.338 56.7753 10.2633 56.92 10.114C57.0693 9.96 57.144 9.778 57.144 9.568C57.144 9.35333 57.0693 9.17133 56.92 9.022C56.7753 8.87267 56.5933 8.798 56.374 8.798C56.164 8.798 55.982 8.87267 55.828 9.022C55.6787 9.17133 55.604 9.35333 55.604 9.568C55.604 9.778 55.6787 9.96 55.828 10.114C55.982 10.2633 56.164 10.338 56.374 10.338ZM64.8149 22.21C63.8116 22.21 62.9646 21.9883 62.2739 21.545C61.5832 21.097 61.0606 20.4787 60.7059 19.69C60.3512 18.9013 60.1739 17.9913 60.1739 16.96C60.1739 15.9287 60.3512 15.0187 60.7059 14.23C61.0606 13.4413 61.5832 12.8253 62.2739 12.382C62.9646 11.934 63.8116 11.71 64.8149 11.71C65.9862 11.71 66.9429 12.011 67.6849 12.613C68.4269 13.2103 68.9356 14.013 69.2109 15.021L68.1609 15.294C67.9462 14.496 67.5612 13.8637 67.0059 13.397C66.4506 12.9303 65.7202 12.697 64.8149 12.697C64.0262 12.697 63.3706 12.8767 62.8479 13.236C62.3252 13.5953 61.9309 14.097 61.6649 14.741C61.4036 15.3803 61.2682 16.12 61.2589 16.96C61.2542 17.8 61.3826 18.5397 61.6439 19.179C61.9099 19.8183 62.3066 20.32 62.8339 20.684C63.3659 21.0433 64.0262 21.223 64.8149 21.223C65.7202 21.223 66.4506 20.9897 67.0059 20.523C67.5612 20.0517 67.9462 19.4193 68.1609 18.626L69.2109 18.899C68.9356 19.907 68.4269 20.712 67.6849 21.314C66.9429 21.9113 65.9862 22.21 64.8149 22.21Z" fill="#285BF4"/>
</svg>
