<?xml version="1.0" encoding="UTF-8" standalone="no"?><svg width="236" height="91" viewBox="0 0 236 91" fill="none" xmlns="http://www.w3.org/2000/svg">
<path d="M212 19L235 19" stroke="white" stroke-width="2" stroke-linecap="round" stroke-linejoin="round"/>
<path d="M227 11L235 19L227 27" stroke="white" stroke-width="2" stroke-linecap="round" stroke-linejoin="round"/>
<g opacity="0.36">
<path d="M25.731 24.3852C24.0723 26.2155 21.3581 29.2391 20.2271 30.5121L14.7231 24.3852C14.4215 24.0669 13.9693 24.0669 13.6676 24.3852C13.366 24.7035 13.366 25.1809 13.6676 25.4992L19.7745 32.2627C19.9252 32.4217 20.1516 32.5014 20.3023 32.5014C20.5284 32.5014 20.6794 32.4217 20.83 32.2627C20.83 32.2627 24.7504 27.8861 26.9369 25.4992C27.2385 25.1809 27.2385 24.7036 26.9369 24.3852C26.5601 24.0669 26.0323 24.0669 25.731 24.3852H25.731Z" fill="white"/>
<path d="M30.9348 20.2466C31.0855 20.4057 31.3119 20.4853 31.4625 20.4853C31.6132 20.4853 31.8396 20.4057 31.9903 20.2466C33.5736 18.6553 34.3275 16.3477 34.1013 14.0401C33.7997 11.7326 32.518 9.66357 30.4822 8.47029C26.9388 6.48101 22.491 7.67436 20.4547 11.2552C20.3792 11.3349 20.3792 11.4142 20.304 11.5735C19.3992 9.82289 17.7407 8.47025 15.8559 7.83361C13.8955 7.19698 11.86 7.43564 10.1258 8.54961C8.16547 9.74325 6.80837 11.7325 6.50672 14.0401C6.20511 16.3477 6.95901 18.5757 8.54224 20.2466C8.84386 20.5649 9.29612 20.5649 9.59777 20.2466C9.89942 19.9283 9.89938 19.451 9.59777 19.1326C8.39132 17.8593 7.78836 16.109 8.01448 14.2787C8.2406 12.4485 9.29612 10.8572 10.8794 9.9819C12.312 9.18625 13.8953 8.94754 15.4785 9.42491C16.9862 9.90225 18.2682 10.9368 19.0221 12.3691C19.2483 12.8465 19.7005 13.1648 20.2286 13.1648C20.6808 13.2444 21.2086 13.0057 21.5102 12.6874C21.6609 12.5284 21.6609 12.4487 21.8873 12.1304C23.546 9.34551 27.0896 8.31087 29.8791 9.98215C31.4624 10.9371 32.5179 12.5284 32.7441 14.3587C32.9702 16.189 32.367 17.9393 31.0853 19.2126C30.633 19.451 30.633 19.9283 30.9346 20.2466L30.9348 20.2466Z" fill="white"/>
<path d="M37.5682 21.3606H28.2192L27.1637 18.3369C27.0882 18.0186 26.8621 17.8596 26.5605 17.78C26.2589 17.78 26.0327 17.8596 25.8066 18.0983L23.3185 21.9178L21.5843 16.0296C21.5088 15.7113 21.2072 15.4727 20.9059 15.4727C20.6043 15.4727 20.3027 15.7113 20.152 16.0296L18.6442 20.4856L16.7594 18.0189C16.6087 17.7803 16.3823 17.7006 16.081 17.7006C15.8548 17.7006 15.6287 17.8596 15.4777 18.0986L13.7435 21.2815L2.88669 21.2812C2.4344 21.2812 2.13281 21.5995 2.13281 22.0769C2.13281 22.5542 2.43442 22.8725 2.88669 22.8725H14.2713C14.5729 22.8725 14.799 22.7135 14.9497 22.4745L16.3068 19.9283L18.4178 22.5542C18.5685 22.7928 18.8701 22.8725 19.0962 22.7928C19.3978 22.7132 19.5485 22.5542 19.6994 22.2359L20.9059 18.7347L22.4137 23.8272C22.4891 24.1455 22.7907 24.3842 23.1675 24.3842C23.3937 24.3842 23.6198 24.2252 23.7707 24.0659L26.334 20.167L27.0125 22.2359C27.0879 22.5542 27.3895 22.7929 27.6909 22.7929H37.5683C38.0205 22.7929 38.3221 22.4745 38.3221 21.9972C38.3221 21.5199 38.0205 21.3606 37.5683 21.3606L37.5682 21.3606Z" fill="white"/>
</g>
<g opacity="0.5">
<path d="M62.2066 23.9316C59.8002 23.9316 57.875 25.9635 57.875 28.5032C57.875 31.043 59.8002 33.0748 62.2066 33.0748C64.6131 33.0748 66.5382 31.043 66.5382 28.5032C66.5382 25.9635 64.6131 23.9316 62.2066 23.9316ZM62.2066 31.8049C60.4619 31.8049 59.0782 30.3445 59.0782 28.5032C59.0782 26.6619 60.4619 25.2015 62.2066 25.2015C63.9513 25.2015 65.335 26.6619 65.335 28.5032C65.335 30.281 63.9513 31.8049 62.2066 31.8049Z" fill="white"/>
<path d="M94.3309 14.1531C94.3309 10.8514 91.9846 8.18464 88.9164 7.86717V7.5497C88.9164 5.77187 87.5327 4.375 85.9083 4.375H78.328C76.6435 4.375 75.3199 5.83536 75.3199 7.5497V20.7565C75.3199 22.5343 76.7036 23.9312 78.328 23.9312H81.5165V29.8361C81.5165 32.3759 79.5312 34.4712 77.1248 34.4712C74.7183 34.4712 72.733 32.3759 72.733 29.8361V18.0262C72.733 14.788 70.2062 12.1213 67.138 12.1213C64.0697 12.1213 61.543 14.788 61.543 18.0262V22.6613C61.543 23.0423 61.7836 23.2962 62.1446 23.2962C62.5056 23.2962 62.7462 23.0423 62.7462 22.6613V18.0262C62.7462 15.4865 64.7315 13.3912 67.138 13.3912C69.5444 13.3912 71.5298 15.4865 71.5298 18.0262V29.8361C71.5298 33.0743 74.0565 35.7411 77.1248 35.7411C80.193 35.7411 82.7198 33.0743 82.7198 29.8361V23.9312H85.9083C87.5928 23.9312 88.9164 22.4708 88.9164 20.7565V20.439C91.9244 20.1215 94.3309 17.3913 94.3309 14.1531ZM85.9083 22.6613H82.2385H82.1783H82.1182H78.3881C77.3654 22.6613 76.5833 21.7724 76.5833 20.7565V7.48585C76.5833 6.40645 77.4256 5.58102 78.3881 5.58102H85.9685C86.9912 5.58102 87.7733 6.46994 87.7733 7.48585V7.80332C84.7652 8.12079 82.3588 10.851 82.3588 14.0892C82.3588 17.3274 84.7051 20.0577 87.7733 20.3751V20.6926C87.7132 21.8355 86.8709 22.6609 85.9083 22.6609V22.6613ZM88.9164 19.1056V18.3437C88.9164 17.9627 88.6757 17.7088 88.3148 17.7088C87.9538 17.7088 87.7132 17.9627 87.7132 18.3437V19.1056C85.5473 18.7881 83.8628 17.0103 83.562 14.7245H84.284C84.6449 14.7245 84.8856 14.4706 84.8856 14.0896C84.8856 13.7086 84.6449 13.4546 84.284 13.4546H83.562C83.8628 11.1689 85.5473 9.39103 87.7132 9.07356V10.153C87.7132 10.5339 87.9538 10.7879 88.3148 10.7879C88.6757 10.7879 88.9164 10.5339 88.9164 10.153V9.07356C91.0822 9.39103 92.7667 11.1689 93.0675 13.4546H92.3456C91.9846 13.4546 91.744 13.7086 91.744 14.0896C91.744 14.4706 91.9846 14.7245 92.3456 14.7245H93.0675C92.8269 17.0738 91.0822 18.8516 88.9164 19.1056Z" fill="white"/>
<path d="M88.0768 12.3725C87.8963 12.3725 87.7158 12.436 87.5955 12.4995L86.1516 10.9756C85.911 10.7217 85.55 10.7217 85.3094 10.9756C85.0687 11.2296 85.0687 11.6106 85.3094 11.8646L86.7533 13.3884C86.6931 13.5789 86.6931 13.7059 86.6931 13.8964C86.6931 14.7218 87.3549 15.4202 88.137 15.4202C88.9191 15.4202 89.5808 14.7218 89.5808 13.8964C89.5808 13.0709 88.8589 12.3725 88.0768 12.3725ZM88.0768 14.0868C87.9565 14.0868 87.8362 13.9599 87.8362 13.8329C87.8362 13.7694 87.8362 13.7059 87.8963 13.7059C87.9565 13.6424 88.0167 13.6424 88.0167 13.6424C88.137 13.6424 88.2573 13.7694 88.2573 13.8964C88.2573 14.0234 88.1971 14.0868 88.0768 14.0868Z" fill="white"/>
</g>
<g opacity="0.5">
<path d="M136.059 24.0993V9.10118C136.059 6.83965 134.316 5 132.173 5C130.03 5 128.286 6.83994 128.286 9.10118V24.0986C127.068 25.2593 126.375 26.8978 126.375 28.6382C126.375 32.0128 128.976 34.7575 132.172 34.7575C135.369 34.7575 137.97 32.0128 137.97 28.6382C137.97 26.8987 137.277 25.2608 136.059 24.0992V24.0993ZM132.172 33.5508C129.606 33.5508 127.519 31.3471 127.519 28.6385C127.519 27.1634 128.139 25.7798 129.221 24.8416C129.353 24.7268 129.43 24.5558 129.43 24.3751V9.1011C129.43 7.5053 130.661 6.20702 132.173 6.20702C133.515 6.20702 134.634 7.2317 134.868 8.57884H133.199C132.884 8.57884 132.628 8.84883 132.628 9.18224C132.628 9.51566 132.884 9.78564 133.199 9.78564H134.915V12.1516H133.199C132.884 12.1516 132.628 12.4216 132.628 12.755C132.628 13.0884 132.884 13.3584 133.199 13.3584H134.915V15.7246H133.199C132.884 15.7246 132.628 15.9946 132.628 16.328C132.628 16.6614 132.884 16.9314 133.199 16.9314H134.915V24.3755C134.915 24.5557 134.991 24.7271 135.124 24.8419C136.206 25.7807 136.826 27.1643 136.826 28.6389C136.826 31.3475 134.738 33.5509 132.172 33.5509L132.172 33.5508Z" fill="white"/>
<path d="M134.396 25.7727L133.769 25.2291V19.8964C133.769 19.563 133.513 19.293 133.197 19.293H131.143C130.827 19.293 130.572 19.563 130.572 19.8964V25.2291L129.945 25.7719C129.128 26.4805 128.66 27.524 128.66 28.6365C128.66 30.6797 130.235 32.3417 132.17 32.3417C134.105 32.3417 135.681 30.6796 135.681 28.6365C135.681 27.5243 135.212 26.4802 134.396 25.7727L134.396 25.7727ZM132.17 31.1346C130.866 31.1346 129.804 30.0139 129.804 28.6365C129.804 27.8868 130.12 27.1824 130.671 26.7044L131.506 25.9806C131.638 25.8658 131.715 25.6949 131.715 25.5142L131.715 20.4998H132.625V25.5145C132.625 25.6952 132.702 25.8661 132.834 25.9809L133.67 26.7056C134.221 27.1835 134.537 27.8871 134.537 28.6368C134.537 30.0142 133.475 31.1346 132.17 31.1346H132.17Z" fill="white"/>
<path d="M133.206 28.0332C132.89 28.0332 132.634 28.3035 132.634 28.6366C132.634 28.9049 132.427 29.123 132.173 29.123C131.857 29.123 131.602 29.3932 131.602 29.7264C131.602 30.0595 131.857 30.3298 132.173 30.3298C133.058 30.3298 133.778 29.5701 133.778 28.6363C133.777 28.3035 133.521 28.0332 133.206 28.0332L133.206 28.0332Z" fill="white"/>
</g>
<path d="M1.12 67V55.48H2.296V60.672H8.664V55.48H9.832V67H8.664V61.8H2.296V67H1.12ZM15.7291 67.24C14.8865 67.24 14.1558 67.0533 13.5371 66.68C12.9238 66.3067 12.4465 65.7813 12.1051 65.104C11.7638 64.4267 11.5931 63.632 11.5931 62.72C11.5931 61.776 11.7611 60.96 12.0971 60.272C12.4331 59.584 12.9051 59.0533 13.5131 58.68C14.1265 58.3067 14.8491 58.12 15.6811 58.12C16.5345 58.12 17.2625 58.3173 17.8651 58.712C18.4678 59.1013 18.9238 59.6613 19.2331 60.392C19.5425 61.1227 19.6838 61.9947 19.6571 63.008H18.4571V62.592C18.4358 61.472 18.1931 60.6267 17.7291 60.056C17.2705 59.4853 16.5985 59.2 15.7131 59.2C14.7851 59.2 14.0731 59.5013 13.5771 60.104C13.0865 60.7067 12.8411 61.5653 12.8411 62.68C12.8411 63.768 13.0865 64.6133 13.5771 65.216C14.0731 65.8133 14.7745 66.112 15.6811 66.112C16.2998 66.112 16.8385 65.9707 17.2971 65.688C17.7611 65.4 18.1265 64.9867 18.3931 64.448L19.4891 64.872C19.1478 65.624 18.6438 66.208 17.9771 66.624C17.3158 67.0347 16.5665 67.24 15.7291 67.24ZM12.4251 63.008V62.024H19.0251V63.008H12.4251ZM23.7483 67.24C23.0976 67.24 22.5509 67.1227 22.1083 66.888C21.6709 66.6533 21.3429 66.3413 21.1243 65.952C20.9056 65.5627 20.7963 65.1387 20.7963 64.68C20.7963 64.2107 20.8896 63.8107 21.0763 63.48C21.2683 63.144 21.5269 62.8693 21.8523 62.656C22.1829 62.4427 22.5643 62.28 22.9963 62.168C23.4336 62.0613 23.9163 61.968 24.4443 61.888C24.9776 61.8027 25.4976 61.7307 26.0043 61.672C26.5163 61.608 26.9643 61.5467 27.3483 61.488L26.9323 61.744C26.9483 60.8907 26.7829 60.2587 26.4363 59.848C26.0896 59.4373 25.4869 59.232 24.6283 59.232C24.0363 59.232 23.5349 59.3653 23.1243 59.632C22.7189 59.8987 22.4336 60.32 22.2682 60.896L21.1243 60.56C21.3216 59.7867 21.7189 59.1867 22.3163 58.76C22.9136 58.3333 23.6896 58.12 24.6443 58.12C25.4336 58.12 26.1029 58.2693 26.6523 58.568C27.2069 58.8613 27.5989 59.288 27.8283 59.848C27.9349 60.0987 28.0043 60.3787 28.0363 60.688C28.0683 60.9973 28.0843 61.312 28.0843 61.632V67H27.0363V64.832L27.3403 64.96C27.0469 65.7013 26.5909 66.2667 25.9723 66.656C25.3536 67.0453 24.6123 67.24 23.7483 67.24ZM23.8843 66.224C24.4336 66.224 24.9136 66.1253 25.3243 65.928C25.7349 65.7307 26.0656 65.4613 26.3163 65.12C26.5669 64.7733 26.7296 64.384 26.8043 63.952C26.8683 63.6747 26.9029 63.3707 26.9083 63.04C26.9136 62.704 26.9163 62.4533 26.9163 62.288L27.3643 62.52C26.9643 62.5733 26.5296 62.6267 26.0603 62.68C25.5963 62.7333 25.1376 62.7947 24.6843 62.864C24.2363 62.9333 23.8309 63.016 23.4683 63.112C23.2229 63.1813 22.9856 63.28 22.7563 63.408C22.5269 63.5307 22.3376 63.696 22.1883 63.904C22.0443 64.112 21.9723 64.3707 21.9723 64.68C21.9723 64.9307 22.0336 65.1733 22.1562 65.408C22.2843 65.6427 22.4869 65.8373 22.7643 65.992C23.0469 66.1467 23.4203 66.224 23.8843 66.224ZM30.1669 67V58.36H31.2229V60.44L31.0149 60.168C31.1109 59.912 31.2362 59.6773 31.3909 59.464C31.5455 59.2453 31.7135 59.0667 31.8949 58.928C32.1189 58.7307 32.3802 58.5813 32.6789 58.48C32.9775 58.3733 33.2789 58.312 33.5829 58.296C33.8869 58.2747 34.1642 58.296 34.4149 58.36V59.464C34.1002 59.384 33.7562 59.3653 33.3829 59.408C33.0095 59.4507 32.6655 59.6 32.3509 59.856C32.0629 60.08 31.8469 60.3493 31.7029 60.664C31.5589 60.9733 31.4629 61.304 31.4149 61.656C31.3669 62.0027 31.3429 62.3467 31.3429 62.688V67H30.1669ZM40.6365 67C40.1512 67.1013 39.6712 67.1413 39.1965 67.12C38.7272 67.0987 38.3058 66.9973 37.9325 66.816C37.5645 66.6347 37.2845 66.352 37.0925 65.968C36.9378 65.648 36.8525 65.3253 36.8365 65C36.8258 64.6693 36.8205 64.2933 36.8205 63.872V55.96H37.9885V63.824C37.9885 64.1867 37.9912 64.4907 37.9965 64.736C38.0072 64.976 38.0632 65.1893 38.1645 65.376C38.3565 65.7333 38.6605 65.9467 39.0765 66.016C39.4978 66.0853 40.0178 66.0693 40.6365 65.968V67ZM34.9725 59.368V58.36H40.6365V59.368H34.9725ZM45.5419 67V58.36H46.5979V60.44L46.3899 60.168C46.4859 59.912 46.6112 59.6773 46.7659 59.464C46.9205 59.2453 47.0885 59.0667 47.2699 58.928C47.4939 58.7307 47.7552 58.5813 48.0539 58.48C48.3525 58.3733 48.6539 58.312 48.9579 58.296C49.2619 58.2747 49.5392 58.296 49.7899 58.36V59.464C49.4752 59.384 49.1312 59.3653 48.7579 59.408C48.3845 59.4507 48.0405 59.6 47.7259 59.856C47.4379 60.08 47.2219 60.3493 47.0779 60.664C46.9339 60.9733 46.8379 61.304 46.7899 61.656C46.7419 62.0027 46.7179 62.3467 46.7179 62.688V67H45.5419ZM53.4514 67.24C52.8007 67.24 52.254 67.1227 51.8114 66.888C51.374 66.6533 51.046 66.3413 50.8274 65.952C50.6087 65.5627 50.4994 65.1387 50.4994 64.68C50.4994 64.2107 50.5927 63.8107 50.7794 63.48C50.9714 63.144 51.23 62.8693 51.5554 62.656C51.886 62.4427 52.2674 62.28 52.6994 62.168C53.1367 62.0613 53.6194 61.968 54.1474 61.888C54.6807 61.8027 55.2007 61.7307 55.7074 61.672C56.2194 61.608 56.6674 61.5467 57.0514 61.488L56.6354 61.744C56.6514 60.8907 56.486 60.2587 56.1394 59.848C55.7927 59.4373 55.19 59.232 54.3314 59.232C53.7394 59.232 53.238 59.3653 52.8274 59.632C52.422 59.8987 52.1367 60.32 51.9714 60.896L50.8274 60.56C51.0247 59.7867 51.422 59.1867 52.0194 58.76C52.6167 58.3333 53.3927 58.12 54.3474 58.12C55.1367 58.12 55.806 58.2693 56.3554 58.568C56.91 58.8613 57.302 59.288 57.5314 59.848C57.638 60.0987 57.7074 60.3787 57.7394 60.688C57.7714 60.9973 57.7874 61.312 57.7874 61.632V67H56.7394V64.832L57.0434 64.96C56.75 65.7013 56.294 66.2667 55.6754 66.656C55.0567 67.0453 54.3154 67.24 53.4514 67.24ZM53.5874 66.224C54.1367 66.224 54.6167 66.1253 55.0274 65.928C55.438 65.7307 55.7687 65.4613 56.0194 65.12C56.27 64.7733 56.4327 64.384 56.5074 63.952C56.5714 63.6747 56.606 63.3707 56.6114 63.04C56.6167 62.704 56.6194 62.4533 56.6194 62.288L57.0674 62.52C56.6674 62.5733 56.2327 62.6267 55.7634 62.68C55.2994 62.7333 54.8407 62.7947 54.3874 62.864C53.9394 62.9333 53.534 63.016 53.1714 63.112C52.926 63.1813 52.6887 63.28 52.4594 63.408C52.23 63.5307 52.0407 63.696 51.8914 63.904C51.7474 64.112 51.6754 64.3707 51.6754 64.68C51.6754 64.9307 51.7367 65.1733 51.8594 65.408C51.9874 65.6427 52.19 65.8373 52.4674 65.992C52.75 66.1467 53.1234 66.224 53.5874 66.224ZM64.574 67C64.0887 67.1013 63.6087 67.1413 63.134 67.12C62.6647 67.0987 62.2433 66.9973 61.87 66.816C61.502 66.6347 61.222 66.352 61.03 65.968C60.8753 65.648 60.79 65.3253 60.774 65C60.7633 64.6693 60.758 64.2933 60.758 63.872V55.96H61.926V63.824C61.926 64.1867 61.9287 64.4907 61.934 64.736C61.9447 64.976 62.0007 65.1893 62.102 65.376C62.294 65.7333 62.598 65.9467 63.014 66.016C63.4353 66.0853 63.9553 66.0693 64.574 65.968V67ZM58.91 59.368V58.36H64.574V59.368H58.91ZM69.6198 67.24C68.7771 67.24 68.0464 67.0533 67.4278 66.68C66.8144 66.3067 66.3371 65.7813 65.9958 65.104C65.6544 64.4267 65.4838 63.632 65.4838 62.72C65.4838 61.776 65.6518 60.96 65.9878 60.272C66.3238 59.584 66.7958 59.0533 67.4038 58.68C68.0171 58.3067 68.7398 58.12 69.5718 58.12C70.4251 58.12 71.1531 58.3173 71.7558 58.712C72.3584 59.1013 72.8144 59.6613 73.1238 60.392C73.4331 61.1227 73.5744 61.9947 73.5478 63.008H72.3478V62.592C72.3264 61.472 72.0838 60.6267 71.6198 60.056C71.1611 59.4853 70.4891 59.2 69.6038 59.2C68.6758 59.2 67.9638 59.5013 67.4678 60.104C66.9771 60.7067 66.7318 61.5653 66.7318 62.68C66.7318 63.768 66.9771 64.6133 67.4678 65.216C67.9638 65.8133 68.6651 66.112 69.5718 66.112C70.1904 66.112 70.7291 65.9707 71.1878 65.688C71.6518 65.4 72.0171 64.9867 72.2838 64.448L73.3798 64.872C73.0384 65.624 72.5344 66.208 71.8678 66.624C71.2064 67.0347 70.4571 67.24 69.6198 67.24ZM66.3158 63.008V62.024H72.9158V63.008H66.3158ZM82.2303 67.24C81.5903 67.24 80.9956 67.1493 80.4463 66.968C79.9023 66.7813 79.4463 66.4907 79.0783 66.096C78.7903 65.7867 78.5769 65.4427 78.4383 65.064C78.2996 64.68 78.2223 64.2747 78.2063 63.848C78.2009 63.4427 78.2596 63.04 78.3823 62.64C78.5049 62.24 78.6969 61.8853 78.9583 61.576C79.1129 61.384 79.2863 61.224 79.4783 61.096C79.6756 60.968 79.8783 60.8587 80.0863 60.768C79.6863 60.352 79.3796 59.968 79.1663 59.616C78.9583 59.2587 78.8543 58.8213 78.8543 58.304C78.8543 57.712 79.0036 57.1707 79.3023 56.68C79.6063 56.1893 80.0249 55.824 80.5583 55.584C80.8303 55.4613 81.1076 55.376 81.3903 55.328C81.6783 55.2747 81.9636 55.248 82.2463 55.248C82.6783 55.248 83.1023 55.3093 83.5183 55.432C83.9343 55.5493 84.2889 55.736 84.5823 55.992C84.7796 56.1467 84.9529 56.3307 85.1023 56.544C85.2516 56.752 85.3689 56.9707 85.4543 57.2L84.3183 57.536C84.2063 57.248 84.0196 57.0053 83.7583 56.808C83.5556 56.648 83.3209 56.536 83.0543 56.472C82.7929 56.408 82.5289 56.376 82.2623 56.376C81.8089 56.376 81.3983 56.464 81.0303 56.64C80.7103 56.8 80.4703 57.0213 80.3103 57.304C80.1503 57.5867 80.0703 57.9173 80.0703 58.296C80.0703 58.6213 80.1236 58.8907 80.2303 59.104C80.3369 59.312 80.4916 59.5387 80.6943 59.784C80.8116 59.912 80.9423 60.0427 81.0863 60.176C81.2303 60.304 81.3769 60.4373 81.5263 60.576L85.1743 63.96C85.1956 63.8107 85.2089 63.6667 85.2143 63.528C85.2196 63.384 85.2223 63.2427 85.2223 63.104L85.2143 61.416H86.3263V63.184C86.3263 63.6053 86.3103 63.9493 86.2783 64.216C86.2463 64.4827 86.2036 64.704 86.1503 64.88L87.6383 66.248L86.8623 67.072L85.5903 65.872C85.4143 66.1013 85.1903 66.3067 84.9183 66.488C84.6516 66.6693 84.3849 66.8107 84.1183 66.912C83.8303 67.04 83.5263 67.1253 83.2063 67.168C82.8863 67.216 82.5609 67.24 82.2303 67.24ZM82.2463 66.104C82.5503 66.104 82.8249 66.0853 83.0703 66.048C83.3156 66.0107 83.5503 65.9333 83.7743 65.816C84.0569 65.6667 84.2676 65.528 84.4063 65.4C84.5449 65.2667 84.6569 65.1493 84.7423 65.048L80.9983 61.624C80.7743 61.6933 80.5636 61.7893 80.3663 61.912C80.1743 62.0293 80.0089 62.1707 79.8703 62.336C79.7156 62.528 79.6009 62.7493 79.5263 63C79.4516 63.2507 79.4143 63.5147 79.4143 63.792C79.4249 64.0853 79.4729 64.3573 79.5583 64.608C79.6489 64.8533 79.7823 65.072 79.9583 65.264C80.2089 65.5573 80.5449 65.7707 80.9663 65.904C81.3876 66.0373 81.8143 66.104 82.2463 66.104ZM96.1513 67.24C95.3459 67.24 94.6206 67.1067 93.9753 66.84C93.3353 66.568 92.8046 66.184 92.3833 65.688C91.9673 65.192 91.6953 64.6027 91.5673 63.92L92.7673 63.72C92.9593 64.4667 93.3646 65.0533 93.9833 65.48C94.6019 65.9013 95.3406 66.112 96.1993 66.112C96.7646 66.112 97.2713 66.024 97.7193 65.848C98.1673 65.6667 98.5193 65.4107 98.7753 65.08C99.0313 64.7493 99.1593 64.3573 99.1593 63.904C99.1593 63.6053 99.1059 63.352 98.9993 63.144C98.8926 62.9307 98.7513 62.7547 98.5753 62.616C98.3993 62.4773 98.2073 62.3627 97.9993 62.272C97.7913 62.176 97.5886 62.0987 97.3913 62.04L94.4713 61.168C94.1193 61.0667 93.7939 60.9387 93.4953 60.784C93.1966 60.624 92.9353 60.4347 92.7113 60.216C92.4926 59.992 92.3219 59.7307 92.1993 59.432C92.0766 59.1333 92.0153 58.792 92.0153 58.408C92.0153 57.7573 92.1859 57.1947 92.5273 56.72C92.8686 56.2453 93.3353 55.88 93.9273 55.624C94.5193 55.368 95.1939 55.2427 95.9513 55.248C96.7193 55.248 97.4046 55.384 98.0073 55.656C98.6153 55.928 99.1166 56.3173 99.5113 56.824C99.9059 57.3253 100.167 57.92 100.295 58.608L99.0633 58.832C98.9833 58.3307 98.7993 57.896 98.5113 57.528C98.2233 57.16 97.8553 56.8773 97.4073 56.68C96.9646 56.4773 96.4766 56.3733 95.9433 56.368C95.4259 56.368 94.9646 56.456 94.5593 56.632C94.1593 56.8027 93.8419 57.0373 93.6073 57.336C93.3726 57.6347 93.2553 57.976 93.2553 58.36C93.2553 58.7493 93.3619 59.0613 93.5753 59.296C93.7939 59.5307 94.0606 59.7147 94.3753 59.848C94.6953 59.9813 95.0046 60.0907 95.3033 60.176L97.5593 60.84C97.7939 60.904 98.0686 60.9973 98.3833 61.12C98.7033 61.2373 99.0126 61.408 99.3113 61.632C99.6153 61.8507 99.8659 62.1387 100.063 62.496C100.261 62.8533 100.359 63.3067 100.359 63.856C100.359 64.3893 100.253 64.8667 100.039 65.288C99.8313 65.7093 99.5353 66.064 99.1513 66.352C98.7726 66.64 98.3273 66.8587 97.8153 67.008C97.3086 67.1627 96.7539 67.24 96.1513 67.24ZM105.891 67.24C105.096 67.24 104.424 67.04 103.875 66.64C103.325 66.2347 102.909 65.688 102.627 65C102.344 64.3067 102.203 63.5307 102.203 62.672C102.203 61.7973 102.344 61.0187 102.627 60.336C102.915 59.648 103.336 59.1067 103.891 58.712C104.445 58.3173 105.128 58.12 105.939 58.12C106.728 58.12 107.405 58.32 107.971 58.72C108.536 59.12 108.968 59.664 109.267 60.352C109.571 61.04 109.723 61.8133 109.723 62.672C109.723 63.536 109.571 64.312 109.267 65C108.963 65.688 108.525 66.2347 107.955 66.64C107.384 67.04 106.696 67.24 105.891 67.24ZM102.003 70.84V58.36H103.059V64.864H103.187V70.84H102.003ZM105.771 66.144C106.373 66.144 106.875 65.992 107.275 65.688C107.675 65.384 107.973 64.9707 108.171 64.448C108.373 63.92 108.475 63.328 108.475 62.672C108.475 62.0213 108.376 61.4347 108.179 60.912C107.981 60.3893 107.68 59.976 107.275 59.672C106.875 59.368 106.365 59.216 105.747 59.216C105.144 59.216 104.643 59.3627 104.243 59.656C103.848 59.9493 103.552 60.3573 103.355 60.88C103.157 61.3973 103.059 61.9947 103.059 62.672C103.059 63.3387 103.157 63.936 103.355 64.464C103.552 64.9867 103.851 65.3973 104.251 65.696C104.651 65.9947 105.157 66.144 105.771 66.144ZM116.143 67.24C114.997 67.24 114.029 66.9867 113.239 66.48C112.45 65.968 111.853 65.2613 111.447 64.36C111.042 63.4587 110.839 62.4187 110.839 61.24C110.839 60.0613 111.042 59.0213 111.447 58.12C111.853 57.2187 112.45 56.5147 113.239 56.008C114.029 55.496 114.997 55.24 116.143 55.24C117.295 55.24 118.263 55.496 119.047 56.008C119.837 56.5147 120.434 57.2187 120.839 58.12C121.25 59.0213 121.455 60.0613 121.455 61.24C121.455 62.4187 121.25 63.4587 120.839 64.36C120.434 65.2613 119.837 65.968 119.047 66.48C118.263 66.9867 117.295 67.24 116.143 67.24ZM116.143 66.112C117.045 66.112 117.797 65.9067 118.399 65.496C119.002 65.0853 119.453 64.5147 119.751 63.784C120.055 63.048 120.207 62.2 120.207 61.24C120.207 60.28 120.055 59.4347 119.751 58.704C119.453 57.9733 119.002 57.4027 118.399 56.992C117.797 56.5813 117.045 56.3733 116.143 56.368C115.242 56.368 114.493 56.5733 113.895 56.984C113.298 57.3947 112.847 57.968 112.543 58.704C112.245 59.4347 112.093 60.28 112.087 61.24C112.082 62.2 112.229 63.0453 112.527 63.776C112.831 64.5013 113.285 65.072 113.887 65.488C114.49 65.8987 115.242 66.1067 116.143 66.112ZM122.738 66.992L122.746 65.92L127.954 61.216C128.402 60.8107 128.698 60.4267 128.842 60.064C128.991 59.696 129.066 59.312 129.066 58.912C129.066 58.4373 128.954 58.008 128.73 57.624C128.506 57.24 128.204 56.936 127.826 56.712C127.447 56.4827 127.023 56.368 126.554 56.368C126.063 56.368 125.626 56.4853 125.242 56.72C124.858 56.9547 124.554 57.264 124.33 57.648C124.111 58.032 124.004 58.4507 124.01 58.904H122.81C122.81 58.2053 122.975 57.5787 123.306 57.024C123.636 56.4693 124.084 56.0347 124.65 55.72C125.215 55.4 125.855 55.24 126.57 55.24C127.268 55.24 127.895 55.4053 128.45 55.736C129.01 56.0613 129.45 56.504 129.77 57.064C130.095 57.6187 130.258 58.2373 130.258 58.92C130.258 59.4 130.199 59.824 130.082 60.192C129.97 60.5547 129.791 60.8933 129.546 61.208C129.306 61.5173 128.999 61.8373 128.626 62.168L124.002 66.344L123.818 65.864H130.258V66.992H122.738ZM132.023 68.672L132.095 68.088C132.308 68.104 132.463 68.0613 132.559 67.96C132.655 67.8587 132.713 67.7227 132.735 67.552C132.756 67.3813 132.761 67.1973 132.751 67H132.023V65.312H133.391V67.32C133.391 67.8107 133.265 68.1787 133.015 68.424C132.769 68.6693 132.439 68.752 132.023 68.672ZM139.636 67V55.48H144.084C144.729 55.48 145.292 55.6133 145.772 55.88C146.252 56.1467 146.625 56.5067 146.892 56.96C147.158 57.408 147.292 57.904 147.292 58.448C147.292 59.0667 147.126 59.6187 146.796 60.104C146.465 60.584 146.022 60.9173 145.468 61.104L145.452 60.712C146.198 60.9253 146.785 61.2987 147.212 61.832C147.638 62.3653 147.852 63.0107 147.852 63.768C147.852 64.4347 147.71 65.0107 147.428 65.496C147.145 65.976 146.748 66.3467 146.236 66.608C145.724 66.8693 145.129 67 144.452 67H139.636ZM140.82 65.872H144.164C144.633 65.872 145.054 65.7893 145.428 65.624C145.801 65.4533 146.094 65.2133 146.308 64.904C146.526 64.5947 146.636 64.2213 146.636 63.784C146.636 63.3573 146.537 62.9733 146.34 62.632C146.142 62.2907 145.873 62.0187 145.532 61.816C145.196 61.608 144.812 61.504 144.38 61.504H140.82V65.872ZM140.82 60.392H144.076C144.444 60.392 144.78 60.3093 145.084 60.144C145.388 59.9733 145.628 59.7413 145.804 59.448C145.985 59.1547 146.076 58.816 146.076 58.432C146.076 57.888 145.886 57.4453 145.508 57.104C145.134 56.7627 144.657 56.592 144.076 56.592H140.82V60.392ZM149.608 67V55.24H150.784V67H149.608ZM156.791 67.24C155.932 67.24 155.199 67.0453 154.591 66.656C153.983 66.2667 153.516 65.728 153.191 65.04C152.865 64.352 152.703 63.5627 152.703 62.672C152.703 61.7653 152.868 60.9707 153.199 60.288C153.529 59.6053 153.999 59.0747 154.607 58.696C155.22 58.312 155.948 58.12 156.791 58.12C157.655 58.12 158.391 58.3147 158.999 58.704C159.612 59.088 160.079 59.624 160.399 60.312C160.724 60.9947 160.887 61.7813 160.887 62.672C160.887 63.5787 160.724 64.376 160.399 65.064C160.073 65.7467 159.604 66.28 158.991 66.664C158.377 67.048 157.644 67.24 156.791 67.24ZM156.791 66.112C157.751 66.112 158.465 65.7947 158.935 65.16C159.404 64.52 159.639 63.6907 159.639 62.672C159.639 61.6267 159.401 60.7947 158.927 60.176C158.457 59.5573 157.745 59.248 156.791 59.248C156.145 59.248 155.612 59.3947 155.191 59.688C154.775 59.976 154.463 60.3787 154.255 60.896C154.052 61.408 153.951 62 153.951 62.672C153.951 63.712 154.191 64.5467 154.671 65.176C155.151 65.8 155.857 66.112 156.791 66.112ZM166.259 67.24C165.401 67.24 164.667 67.0453 164.059 66.656C163.451 66.2667 162.985 65.728 162.659 65.04C162.334 64.352 162.171 63.5627 162.171 62.672C162.171 61.7653 162.337 60.9707 162.667 60.288C162.998 59.6053 163.467 59.0747 164.075 58.696C164.689 58.312 165.417 58.12 166.259 58.12C167.123 58.12 167.859 58.3147 168.467 58.704C169.081 59.088 169.547 59.624 169.867 60.312C170.193 60.9947 170.355 61.7813 170.355 62.672C170.355 63.5787 170.193 64.376 169.867 65.064C169.542 65.7467 169.073 66.28 168.459 66.664C167.846 67.048 167.113 67.24 166.259 67.24ZM166.259 66.112C167.219 66.112 167.934 65.7947 168.403 65.16C168.873 64.52 169.107 63.6907 169.107 62.672C169.107 61.6267 168.87 60.7947 168.395 60.176C167.926 59.5573 167.214 59.248 166.259 59.248C165.614 59.248 165.081 59.3947 164.659 59.688C164.243 59.976 163.931 60.3787 163.723 60.896C163.521 61.408 163.419 62 163.419 62.672C163.419 63.712 163.659 64.5467 164.139 65.176C164.619 65.8 165.326 66.112 166.259 66.112ZM175.472 67.24C174.667 67.24 173.979 67.04 173.408 66.64C172.837 66.2347 172.4 65.688 172.096 65C171.792 64.312 171.64 63.536 171.64 62.672C171.64 61.8133 171.789 61.04 172.088 60.352C172.392 59.664 172.827 59.12 173.392 58.72C173.957 58.32 174.635 58.12 175.424 58.12C176.235 58.12 176.917 58.3173 177.472 58.712C178.027 59.1067 178.445 59.648 178.728 60.336C179.016 61.0187 179.16 61.7973 179.16 62.672C179.16 63.5307 179.019 64.3067 178.736 65C178.453 65.688 178.037 66.2347 177.488 66.64C176.939 67.04 176.267 67.24 175.472 67.24ZM175.592 66.144C176.205 66.144 176.712 65.9947 177.112 65.696C177.512 65.3973 177.811 64.9867 178.008 64.464C178.205 63.936 178.304 63.3387 178.304 62.672C178.304 61.9947 178.205 61.3973 178.008 60.88C177.811 60.3573 177.512 59.9493 177.112 59.656C176.717 59.3627 176.219 59.216 175.616 59.216C174.997 59.216 174.485 59.368 174.08 59.672C173.675 59.976 173.373 60.3893 173.176 60.912C172.984 61.4347 172.888 62.0213 172.888 62.672C172.888 63.328 172.987 63.92 173.184 64.448C173.387 64.9707 173.688 65.384 174.088 65.688C174.488 65.992 174.989 66.144 175.592 66.144ZM178.304 67V60.496H178.176V55.48H179.36V67H178.304ZM5 87.24C4.20533 87.24 3.53333 87.04 2.984 86.64C2.43467 86.2347 2.01867 85.688 1.736 85C1.45333 84.3067 1.312 83.5307 1.312 82.672C1.312 81.7973 1.45333 81.0187 1.736 80.336C2.024 79.648 2.44533 79.1067 3 78.712C3.55467 78.3173 4.23733 78.12 5.048 78.12C5.83733 78.12 6.51467 78.32 7.08 78.72C7.64533 79.12 8.07733 79.664 8.376 80.352C8.68 81.04 8.832 81.8133 8.832 82.672C8.832 83.536 8.68 84.312 8.376 85C8.072 85.688 7.63467 86.2347 7.064 86.64C6.49333 87.04 5.80533 87.24 5 87.24ZM1.112 90.84V78.36H2.168V84.864H2.296V90.84H1.112ZM4.88 86.144C5.48267 86.144 5.984 85.992 6.384 85.688C6.784 85.384 7.08267 84.9707 7.28 84.448C7.48267 83.92 7.584 83.328 7.584 82.672C7.584 82.0213 7.48533 81.4347 7.288 80.912C7.09067 80.3893 6.78933 79.976 6.384 79.672C5.984 79.368 5.47467 79.216 4.856 79.216C4.25333 79.216 3.752 79.3627 3.352 79.656C2.95733 79.9493 2.66133 80.3573 2.464 80.88C2.26667 81.3973 2.168 81.9947 2.168 82.672C2.168 83.3387 2.26667 83.936 2.464 84.464C2.66133 84.9867 2.96 85.3973 3.36 85.696C3.76 85.9947 4.26667 86.144 4.88 86.144ZM10.5888 87V78.36H11.6448V80.44L11.4368 80.168C11.5328 79.912 11.6581 79.6773 11.8128 79.464C11.9674 79.2453 12.1354 79.0667 12.3168 78.928C12.5408 78.7307 12.8021 78.5813 13.1008 78.48C13.3994 78.3733 13.7008 78.312 14.0048 78.296C14.3088 78.2747 14.5861 78.296 14.8368 78.36V79.464C14.5221 79.384 14.1781 79.3653 13.8048 79.408C13.4314 79.4507 13.0874 79.6 12.7728 79.856C12.4848 80.08 12.2688 80.3493 12.1248 80.664C11.9808 80.9733 11.8848 81.304 11.8368 81.656C11.7888 82.0027 11.7648 82.3467 11.7648 82.688V87H10.5888ZM19.8541 87.24C19.0115 87.24 18.2808 87.0533 17.6621 86.68C17.0488 86.3067 16.5715 85.7813 16.2301 85.104C15.8888 84.4267 15.7181 83.632 15.7181 82.72C15.7181 81.776 15.8861 80.96 16.2221 80.272C16.5581 79.584 17.0301 79.0533 17.6381 78.68C18.2515 78.3067 18.9741 78.12 19.8061 78.12C20.6595 78.12 21.3875 78.3173 21.9901 78.712C22.5928 79.1013 23.0488 79.6613 23.3581 80.392C23.6675 81.1227 23.8088 81.9947 23.7821 83.008H22.5821V82.592C22.5608 81.472 22.3181 80.6267 21.8541 80.056C21.3955 79.4853 20.7235 79.2 19.8381 79.2C18.9101 79.2 18.1981 79.5013 17.7021 80.104C17.2115 80.7067 16.9661 81.5653 16.9661 82.68C16.9661 83.768 17.2115 84.6133 17.7021 85.216C18.1981 85.8133 18.8995 86.112 19.8061 86.112C20.4248 86.112 20.9635 85.9707 21.4221 85.688C21.8861 85.4 22.2515 84.9867 22.5181 84.448L23.6141 84.872C23.2728 85.624 22.7688 86.208 22.1021 86.624C21.4408 87.0347 20.6915 87.24 19.8541 87.24ZM16.5501 83.008V82.024H23.1501V83.008H16.5501ZM28.7815 87.232C27.7682 87.232 26.9335 87.0133 26.2775 86.576C25.6268 86.1387 25.2268 85.5307 25.0775 84.752L26.2775 84.552C26.4055 85.0427 26.6962 85.4347 27.1495 85.728C27.6082 86.016 28.1735 86.16 28.8455 86.16C29.5015 86.16 30.0188 86.024 30.3975 85.752C30.7762 85.4747 30.9655 85.0987 30.9655 84.624C30.9655 84.3573 30.9042 84.1413 30.7815 83.976C30.6642 83.8053 30.4215 83.648 30.0535 83.504C29.6855 83.36 29.1362 83.1893 28.4055 82.992C27.6215 82.7787 27.0082 82.5653 26.5655 82.352C26.1228 82.1387 25.8082 81.8933 25.6215 81.616C25.4348 81.3333 25.3415 80.9893 25.3415 80.584C25.3415 80.0933 25.4802 79.664 25.7575 79.296C26.0348 78.9227 26.4188 78.6347 26.9095 78.432C27.4002 78.224 27.9708 78.12 28.6215 78.12C29.2722 78.12 29.8535 78.2267 30.3655 78.44C30.8828 78.648 31.2988 78.9413 31.6135 79.32C31.9282 79.6987 32.1148 80.1387 32.1735 80.64L30.9735 80.856C30.8935 80.3493 30.6402 79.9493 30.2135 79.656C29.7922 79.3573 29.2562 79.2027 28.6055 79.192C27.9922 79.176 27.4935 79.2933 27.1095 79.544C26.7255 79.7893 26.5335 80.1173 26.5335 80.528C26.5335 80.7573 26.6028 80.9547 26.7415 81.12C26.8802 81.28 27.1308 81.432 27.4935 81.576C27.8615 81.72 28.3842 81.8773 29.0615 82.048C29.8562 82.2507 30.4802 82.464 30.9335 82.688C31.3868 82.912 31.7095 83.176 31.9015 83.48C32.0935 83.784 32.1895 84.16 32.1895 84.608C32.1895 85.424 31.8855 86.0667 31.2775 86.536C30.6748 87 29.8428 87.232 28.7815 87.232ZM37.1878 87.232C36.1744 87.232 35.3398 87.0133 34.6838 86.576C34.0331 86.1387 33.6331 85.5307 33.4838 84.752L34.6838 84.552C34.8118 85.0427 35.1024 85.4347 35.5558 85.728C36.0144 86.016 36.5798 86.16 37.2517 86.16C37.9078 86.16 38.4251 86.024 38.8038 85.752C39.1824 85.4747 39.3718 85.0987 39.3718 84.624C39.3718 84.3573 39.3104 84.1413 39.1878 83.976C39.0704 83.8053 38.8278 83.648 38.4598 83.504C38.0918 83.36 37.5424 83.1893 36.8118 82.992C36.0278 82.7787 35.4144 82.5653 34.9718 82.352C34.5291 82.1387 34.2144 81.8933 34.0278 81.616C33.8411 81.3333 33.7478 80.9893 33.7478 80.584C33.7478 80.0933 33.8864 79.664 34.1638 79.296C34.4411 78.9227 34.8251 78.6347 35.3158 78.432C35.8064 78.224 36.3771 78.12 37.0278 78.12C37.6784 78.12 38.2598 78.2267 38.7718 78.44C39.2891 78.648 39.7051 78.9413 40.0198 79.32C40.3344 79.6987 40.5211 80.1387 40.5798 80.64L39.3798 80.856C39.2998 80.3493 39.0464 79.9493 38.6198 79.656C38.1984 79.3573 37.6624 79.2027 37.0118 79.192C36.3984 79.176 35.8998 79.2933 35.5158 79.544C35.1318 79.7893 34.9398 80.1173 34.9398 80.528C34.9398 80.7573 35.0091 80.9547 35.1478 81.12C35.2864 81.28 35.5371 81.432 35.8998 81.576C36.2678 81.72 36.7904 81.8773 37.4678 82.048C38.2624 82.2507 38.8864 82.464 39.3398 82.688C39.7931 82.912 40.1158 83.176 40.3078 83.48C40.4998 83.784 40.5958 84.16 40.5958 84.608C40.5958 85.424 40.2918 86.0667 39.6838 86.536C39.0811 87 38.2491 87.232 37.1878 87.232ZM45.674 87.216C45.1567 87.216 44.7033 87.136 44.314 86.976C43.93 86.816 43.602 86.6 43.33 86.328C43.0633 86.056 42.8473 85.7467 42.682 85.4C42.5167 85.048 42.3967 84.6773 42.322 84.288C42.2473 83.8933 42.21 83.5013 42.21 83.112V78.36H43.394V82.768C43.394 83.2427 43.4393 83.6827 43.53 84.088C43.6207 84.4933 43.7647 84.848 43.962 85.152C44.1647 85.4507 44.4233 85.6827 44.738 85.848C45.058 86.0133 45.4447 86.096 45.898 86.096C46.314 86.096 46.6793 86.024 46.994 85.88C47.314 85.736 47.5807 85.5307 47.794 85.264C48.0127 84.992 48.178 84.664 48.29 84.28C48.402 83.8907 48.458 83.4533 48.458 82.968L49.29 83.152C49.29 84.0373 49.1353 84.7813 48.826 85.384C48.5167 85.9867 48.09 86.4427 47.546 86.752C47.002 87.0613 46.378 87.216 45.674 87.216ZM48.578 87V84.872H48.458V78.36H49.634V87H48.578ZM51.87 87V78.36H52.926V80.44L52.718 80.168C52.814 79.912 52.9393 79.6773 53.094 79.464C53.2487 79.2453 53.4167 79.0667 53.598 78.928C53.822 78.7307 54.0833 78.5813 54.382 78.48C54.6807 78.3733 54.982 78.312 55.286 78.296C55.59 78.2747 55.8673 78.296 56.118 78.36V79.464C55.8033 79.384 55.4593 79.3653 55.086 79.408C54.7127 79.4507 54.3687 79.6 54.054 79.856C53.766 80.08 53.55 80.3493 53.406 80.664C53.262 80.9733 53.166 81.304 53.118 81.656C53.07 82.0027 53.046 82.3467 53.046 82.688V87H51.87ZM61.1354 87.24C60.2927 87.24 59.562 87.0533 58.9434 86.68C58.33 86.3067 57.8527 85.7813 57.5114 85.104C57.17 84.4267 56.9994 83.632 56.9994 82.72C56.9994 81.776 57.1674 80.96 57.5034 80.272C57.8394 79.584 58.3114 79.0533 58.9194 78.68C59.5327 78.3067 60.2554 78.12 61.0874 78.12C61.9407 78.12 62.6687 78.3173 63.2714 78.712C63.874 79.1013 64.33 79.6613 64.6394 80.392C64.9487 81.1227 65.09 81.9947 65.0634 83.008H63.8634V82.592C63.842 81.472 63.5994 80.6267 63.1354 80.056C62.6767 79.4853 62.0047 79.2 61.1194 79.2C60.1914 79.2 59.4794 79.5013 58.9834 80.104C58.4927 80.7067 58.2474 81.5653 58.2474 82.68C58.2474 83.768 58.4927 84.6133 58.9834 85.216C59.4794 85.8133 60.1807 86.112 61.0874 86.112C61.706 86.112 62.2447 85.9707 62.7034 85.688C63.1674 85.4 63.5327 84.9867 63.7994 84.448L64.8954 84.872C64.554 85.624 64.05 86.208 63.3834 86.624C62.722 87.0347 61.9727 87.24 61.1354 87.24ZM57.8314 83.008V82.024H64.4314V83.008H57.8314ZM66.3663 88.672L66.4383 88.088C66.6516 88.104 66.8063 88.0613 66.9023 87.96C66.9983 87.8587 67.0569 87.7227 67.0783 87.552C67.0996 87.3813 67.1049 87.1973 67.0943 87H66.3663V85.312H67.7343V87.32C67.7343 87.8107 67.6089 88.1787 67.3583 88.424C67.1129 88.6693 66.7823 88.752 66.3663 88.672ZM73.9794 87V75.48H78.4274C79.0727 75.48 79.6354 75.6133 80.1154 75.88C80.5954 76.1467 80.9687 76.5067 81.2354 76.96C81.502 77.408 81.6354 77.904 81.6354 78.448C81.6354 79.0667 81.47 79.6187 81.1394 80.104C80.8087 80.584 80.366 80.9173 79.8114 81.104L79.7954 80.712C80.542 80.9253 81.1287 81.2987 81.5554 81.832C81.982 82.3653 82.1954 83.0107 82.1954 83.768C82.1954 84.4347 82.054 85.0107 81.7714 85.496C81.4887 85.976 81.0914 86.3467 80.5794 86.608C80.0674 86.8693 79.4727 87 78.7954 87H73.9794ZM75.1634 85.872H78.5074C78.9767 85.872 79.398 85.7893 79.7714 85.624C80.1447 85.4533 80.438 85.2133 80.6514 84.904C80.87 84.5947 80.9794 84.2213 80.9794 83.784C80.9794 83.3573 80.8807 82.9733 80.6834 82.632C80.486 82.2907 80.2167 82.0187 79.8754 81.816C79.5394 81.608 79.1554 81.504 78.7234 81.504H75.1634V85.872ZM75.1634 80.392H78.4194C78.7874 80.392 79.1234 80.3093 79.4274 80.144C79.7314 79.9733 79.9714 79.7413 80.1474 79.448C80.3287 79.1547 80.4194 78.816 80.4194 78.432C80.4194 77.888 80.23 77.4453 79.8514 77.104C79.478 76.7627 79.0007 76.592 78.4194 76.592H75.1634V80.392ZM87.3999 87.24C86.5412 87.24 85.8079 87.0453 85.1999 86.656C84.5919 86.2667 84.1252 85.728 83.7999 85.04C83.4745 84.352 83.3119 83.5627 83.3119 82.672C83.3119 81.7653 83.4772 80.9707 83.8079 80.288C84.1385 79.6053 84.6079 79.0747 85.2159 78.696C85.8292 78.312 86.5572 78.12 87.3999 78.12C88.2639 78.12 88.9999 78.3147 89.6079 78.704C90.2212 79.088 90.6879 79.624 91.0079 80.312C91.3332 80.9947 91.4959 81.7813 91.4959 82.672C91.4959 83.5787 91.3332 84.376 91.0079 85.064C90.6825 85.7467 90.2132 86.28 89.5999 86.664C88.9865 87.048 88.2532 87.24 87.3999 87.24ZM87.3999 86.112C88.3599 86.112 89.0745 85.7947 89.5439 85.16C90.0132 84.52 90.2479 83.6907 90.2479 82.672C90.2479 81.6267 90.0105 80.7947 89.5359 80.176C89.0665 79.5573 88.3545 79.248 87.3999 79.248C86.7545 79.248 86.2212 79.3947 85.7999 79.688C85.3839 79.976 85.0719 80.3787 84.8639 80.896C84.6612 81.408 84.5599 82 84.5599 82.672C84.5599 83.712 84.7999 84.5467 85.2799 85.176C85.7599 85.8 86.4665 86.112 87.3999 86.112ZM96.6126 87.24C95.8073 87.24 95.1193 87.04 94.5486 86.64C93.978 86.2347 93.5406 85.688 93.2366 85C92.9326 84.312 92.7806 83.536 92.7806 82.672C92.7806 81.8133 92.93 81.04 93.2286 80.352C93.5326 79.664 93.9673 79.12 94.5326 78.72C95.098 78.32 95.7753 78.12 96.5646 78.12C97.3753 78.12 98.058 78.3173 98.6126 78.712C99.1673 79.1067 99.586 79.648 99.8686 80.336C100.157 81.0187 100.301 81.7973 100.301 82.672C100.301 83.5307 100.159 84.3067 99.8766 85C99.594 85.688 99.178 86.2347 98.6286 86.64C98.0793 87.04 97.4073 87.24 96.6126 87.24ZM96.7326 86.144C97.346 86.144 97.8526 85.9947 98.2526 85.696C98.6526 85.3973 98.9513 84.9867 99.1486 84.464C99.346 83.936 99.4446 83.3387 99.4446 82.672C99.4446 81.9947 99.346 81.3973 99.1486 80.88C98.9513 80.3573 98.6526 79.9493 98.2526 79.656C97.858 79.3627 97.3593 79.216 96.7566 79.216C96.138 79.216 95.626 79.368 95.2206 79.672C94.8153 79.976 94.514 80.3893 94.3166 80.912C94.1246 81.4347 94.0286 82.0213 94.0286 82.672C94.0286 83.328 94.1273 83.92 94.3246 84.448C94.5273 84.9707 94.8286 85.384 95.2286 85.688C95.6286 85.992 96.13 86.144 96.7326 86.144ZM99.4446 87V80.496H99.3166V75.48H100.501V87H99.4446ZM103.977 90.84L105.649 86.304L105.673 87.648L101.889 78.36H103.137L106.241 86.128H105.729L108.593 78.36H109.793L105.153 90.84H103.977ZM119.09 87C118.604 87.1013 118.124 87.1413 117.65 87.12C117.18 87.0987 116.759 86.9973 116.386 86.816C116.018 86.6347 115.738 86.352 115.546 85.968C115.391 85.648 115.306 85.3253 115.29 85C115.279 84.6693 115.274 84.2933 115.274 83.872V75.96H116.442V83.824C116.442 84.1867 116.444 84.4907 116.45 84.736C116.46 84.976 116.516 85.1893 116.618 85.376C116.81 85.7333 117.114 85.9467 117.53 86.016C117.951 86.0853 118.471 86.0693 119.09 85.968V87ZM113.426 79.368V78.36H119.09V79.368H113.426ZM124.135 87.24C123.293 87.24 122.562 87.0533 121.943 86.68C121.33 86.3067 120.853 85.7813 120.511 85.104C120.17 84.4267 119.999 83.632 119.999 82.72C119.999 81.776 120.167 80.96 120.503 80.272C120.839 79.584 121.311 79.0533 121.919 78.68C122.533 78.3067 123.255 78.12 124.087 78.12C124.941 78.12 125.669 78.3173 126.271 78.712C126.874 79.1013 127.33 79.6613 127.639 80.392C127.949 81.1227 128.09 81.9947 128.063 83.008H126.863V82.592C126.842 81.472 126.599 80.6267 126.135 80.056C125.677 79.4853 125.005 79.2 124.119 79.2C123.191 79.2 122.479 79.5013 121.983 80.104C121.493 80.7067 121.247 81.5653 121.247 82.68C121.247 83.768 121.493 84.6133 121.983 85.216C122.479 85.8133 123.181 86.112 124.087 86.112C124.706 86.112 125.245 85.9707 125.703 85.688C126.167 85.4 126.533 84.9867 126.799 84.448L127.895 84.872C127.554 85.624 127.05 86.208 126.383 86.624C125.722 87.0347 124.973 87.24 124.135 87.24ZM120.831 83.008V82.024H127.431V83.008H120.831ZM139.908 87L139.916 81.328C139.916 80.6613 139.73 80.1387 139.356 79.76C138.988 79.376 138.519 79.184 137.948 79.184C137.623 79.184 137.306 79.2587 136.996 79.408C136.687 79.5573 136.431 79.7973 136.228 80.128C136.031 80.4587 135.932 80.8907 135.932 81.424L135.236 81.224C135.22 80.6053 135.34 80.064 135.596 79.6C135.858 79.136 136.215 78.776 136.668 78.52C137.127 78.2587 137.644 78.128 138.22 78.128C139.09 78.128 139.786 78.3973 140.308 78.936C140.831 79.4693 141.092 80.192 141.092 81.104L141.084 87H139.908ZM129.596 87V78.36H130.652V80.488H130.78V87H129.596ZM134.764 87L134.772 81.408C134.772 80.72 134.588 80.1787 134.22 79.784C133.858 79.384 133.378 79.184 132.78 79.184C132.183 79.184 131.7 79.3893 131.332 79.8C130.964 80.2053 130.78 80.7467 130.78 81.424L130.076 81.04C130.076 80.4853 130.207 79.9893 130.468 79.552C130.73 79.1093 131.087 78.7627 131.54 78.512C131.994 78.256 132.508 78.128 133.084 78.128C133.634 78.128 134.122 78.2453 134.548 78.48C134.98 78.7147 135.319 79.056 135.564 79.504C135.81 79.952 135.932 80.496 135.932 81.136L135.924 87H134.764ZM147.047 87.24C146.252 87.24 145.58 87.04 145.031 86.64C144.482 86.2347 144.066 85.688 143.783 85C143.5 84.3067 143.359 83.5307 143.359 82.672C143.359 81.7973 143.5 81.0187 143.783 80.336C144.071 79.648 144.492 79.1067 145.047 78.712C145.602 78.3173 146.284 78.12 147.095 78.12C147.884 78.12 148.562 78.32 149.127 78.72C149.692 79.12 150.124 79.664 150.423 80.352C150.727 81.04 150.879 81.8133 150.879 82.672C150.879 83.536 150.727 84.312 150.423 85C150.119 85.688 149.682 86.2347 149.111 86.64C148.54 87.04 147.852 87.24 147.047 87.24ZM143.159 90.84V78.36H144.215V84.864H144.343V90.84H143.159ZM146.927 86.144C147.53 86.144 148.031 85.992 148.431 85.688C148.831 85.384 149.13 84.9707 149.327 84.448C149.53 83.92 149.631 83.328 149.631 82.672C149.631 82.0213 149.532 81.4347 149.335 80.912C149.138 80.3893 148.836 79.976 148.431 79.672C148.031 79.368 147.522 79.216 146.903 79.216C146.3 79.216 145.799 79.3627 145.399 79.656C145.004 79.9493 144.708 80.3573 144.511 80.88C144.314 81.3973 144.215 81.9947 144.215 82.672C144.215 83.3387 144.314 83.936 144.511 84.464C144.708 84.9867 145.007 85.3973 145.407 85.696C145.807 85.9947 146.314 86.144 146.927 86.144ZM156.292 87.24C155.449 87.24 154.718 87.0533 154.1 86.68C153.486 86.3067 153.009 85.7813 152.668 85.104C152.326 84.4267 152.156 83.632 152.156 82.72C152.156 81.776 152.324 80.96 152.66 80.272C152.996 79.584 153.468 79.0533 154.076 78.68C154.689 78.3067 155.412 78.12 156.244 78.12C157.097 78.12 157.825 78.3173 158.428 78.712C159.03 79.1013 159.486 79.6613 159.796 80.392C160.105 81.1227 160.246 81.9947 160.22 83.008H159.02V82.592C158.998 81.472 158.756 80.6267 158.292 80.056C157.833 79.4853 157.161 79.2 156.276 79.2C155.348 79.2 154.636 79.5013 154.14 80.104C153.649 80.7067 153.404 81.5653 153.404 82.68C153.404 83.768 153.649 84.6133 154.14 85.216C154.636 85.8133 155.337 86.112 156.244 86.112C156.862 86.112 157.401 85.9707 157.86 85.688C158.324 85.4 158.689 84.9867 158.956 84.448L160.052 84.872C159.71 85.624 159.206 86.208 158.54 86.624C157.878 87.0347 157.129 87.24 156.292 87.24ZM152.988 83.008V82.024H159.588V83.008H152.988ZM161.995 87V78.36H163.051V80.44L162.843 80.168C162.939 79.912 163.064 79.6773 163.219 79.464C163.374 79.2453 163.542 79.0667 163.723 78.928C163.947 78.7307 164.208 78.5813 164.507 78.48C164.806 78.3733 165.107 78.312 165.411 78.296C165.715 78.2747 165.992 78.296 166.243 78.36V79.464C165.928 79.384 165.584 79.3653 165.211 79.408C164.838 79.4507 164.494 79.6 164.179 79.856C163.891 80.08 163.675 80.3493 163.531 80.664C163.387 80.9733 163.291 81.304 163.243 81.656C163.195 82.0027 163.171 82.3467 163.171 82.688V87H161.995ZM169.905 87.24C169.254 87.24 168.707 87.1227 168.265 86.888C167.827 86.6533 167.499 86.3413 167.281 85.952C167.062 85.5627 166.953 85.1387 166.953 84.68C166.953 84.2107 167.046 83.8107 167.233 83.48C167.425 83.144 167.683 82.8693 168.009 82.656C168.339 82.4427 168.721 82.28 169.153 82.168C169.59 82.0613 170.073 81.968 170.601 81.888C171.134 81.8027 171.654 81.7307 172.161 81.672C172.673 81.608 173.121 81.5467 173.505 81.488L173.089 81.744C173.105 80.8907 172.939 80.2587 172.593 79.848C172.246 79.4373 171.643 79.232 170.785 79.232C170.193 79.232 169.691 79.3653 169.281 79.632C168.875 79.8987 168.59 80.32 168.424 80.896L167.281 80.56C167.478 79.7867 167.875 79.1867 168.473 78.76C169.07 78.3333 169.846 78.12 170.801 78.12C171.59 78.12 172.259 78.2693 172.809 78.568C173.363 78.8613 173.755 79.288 173.985 79.848C174.091 80.0987 174.161 80.3787 174.193 80.688C174.225 80.9973 174.241 81.312 174.241 81.632V87H173.193V84.832L173.497 84.96C173.203 85.7013 172.747 86.2667 172.129 86.656C171.51 87.0453 170.769 87.24 169.905 87.24ZM170.041 86.224C170.59 86.224 171.07 86.1253 171.481 85.928C171.891 85.7307 172.222 85.4613 172.473 85.12C172.723 84.7733 172.886 84.384 172.961 83.952C173.025 83.6747 173.059 83.3707 173.065 83.04C173.07 82.704 173.073 82.4533 173.073 82.288L173.521 82.52C173.121 82.5733 172.686 82.6267 172.217 82.68C171.753 82.7333 171.294 82.7947 170.841 82.864C170.393 82.9333 169.987 83.016 169.625 83.112C169.379 83.1813 169.142 83.28 168.913 83.408C168.683 83.5307 168.494 83.696 168.345 83.904C168.201 84.112 168.129 84.3707 168.129 84.68C168.129 84.9307 168.19 85.1733 168.312 85.408C168.441 85.6427 168.643 85.8373 168.921 85.992C169.203 86.1467 169.577 86.224 170.041 86.224ZM181.027 87C180.542 87.1013 180.062 87.1413 179.587 87.12C179.118 87.0987 178.696 86.9973 178.323 86.816C177.955 86.6347 177.675 86.352 177.483 85.968C177.328 85.648 177.243 85.3253 177.227 85C177.216 84.6693 177.211 84.2933 177.211 83.872V75.96H178.379V83.824C178.379 84.1867 178.382 84.4907 178.387 84.736C178.398 84.976 178.454 85.1893 178.555 85.376C178.747 85.7333 179.051 85.9467 179.467 86.016C179.888 86.0853 180.408 86.0693 181.027 85.968V87ZM175.363 79.368V78.36H181.027V79.368H175.363ZM186.033 87.216C185.516 87.216 185.063 87.136 184.673 86.976C184.289 86.816 183.961 86.6 183.689 86.328C183.423 86.056 183.207 85.7467 183.041 85.4C182.876 85.048 182.756 84.6773 182.681 84.288C182.607 83.8933 182.569 83.5013 182.569 83.112V78.36H183.753V82.768C183.753 83.2427 183.799 83.6827 183.889 84.088C183.98 84.4933 184.124 84.848 184.321 85.152C184.524 85.4507 184.783 85.6827 185.097 85.848C185.417 86.0133 185.804 86.096 186.257 86.096C186.673 86.096 187.039 86.024 187.353 85.88C187.673 85.736 187.94 85.5307 188.153 85.264C188.372 84.992 188.537 84.664 188.649 84.28C188.761 83.8907 188.817 83.4533 188.817 82.968L189.649 83.152C189.649 84.0373 189.495 84.7813 189.185 85.384C188.876 85.9867 188.449 86.4427 187.905 86.752C187.361 87.0613 186.737 87.216 186.033 87.216ZM188.937 87V84.872H188.817V78.36H189.993V87H188.937ZM192.229 87V78.36H193.285V80.44L193.077 80.168C193.173 79.912 193.299 79.6773 193.453 79.464C193.608 79.2453 193.776 79.0667 193.957 78.928C194.181 78.7307 194.443 78.5813 194.741 78.48C195.04 78.3733 195.341 78.312 195.645 78.296C195.949 78.2747 196.227 78.296 196.477 78.36V79.464C196.163 79.384 195.819 79.3653 195.445 79.408C195.072 79.4507 194.728 79.6 194.413 79.856C194.125 80.08 193.909 80.3493 193.765 80.664C193.621 80.9733 193.525 81.304 193.477 81.656C193.429 82.0027 193.405 82.3467 193.405 82.688V87H192.229ZM201.495 87.24C200.652 87.24 199.921 87.0533 199.303 86.68C198.689 86.3067 198.212 85.7813 197.871 85.104C197.529 84.4267 197.359 83.632 197.359 82.72C197.359 81.776 197.527 80.96 197.863 80.272C198.199 79.584 198.671 79.0533 199.279 78.68C199.892 78.3067 200.615 78.12 201.447 78.12C202.3 78.12 203.028 78.3173 203.631 78.712C204.233 79.1013 204.689 79.6613 204.999 80.392C205.308 81.1227 205.449 81.9947 205.423 83.008H204.223V82.592C204.201 81.472 203.959 80.6267 203.495 80.056C203.036 79.4853 202.364 79.2 201.479 79.2C200.551 79.2 199.839 79.5013 199.343 80.104C198.852 80.7067 198.607 81.5653 198.607 82.68C198.607 83.768 198.852 84.6133 199.343 85.216C199.839 85.8133 200.54 86.112 201.447 86.112C202.065 86.112 202.604 85.9707 203.063 85.688C203.527 85.4 203.892 84.9867 204.159 84.448L205.255 84.872C204.913 85.624 204.409 86.208 203.743 86.624C203.081 87.0347 202.332 87.24 201.495 87.24ZM198.191 83.008V82.024H204.791V83.008H198.191Z" fill="#DAEBF1"/>
</svg>
