<?xml version="1.0" encoding="UTF-8" standalone="no"?><svg width="48" height="48" viewBox="0 0 48 48" fill="none" xmlns="http://www.w3.org/2000/svg">
<rect width="48" height="48" rx="10" fill="#EDF4F9"/>
<path d="M30.6346 23.2934C30.6346 22.9164 30.9403 22.6104 31.3176 22.6104C31.6946 22.6104 32.0003 22.9164 32.0003 23.2934V32.1459C32.0003 32.5232 31.6946 32.8289 31.3176 32.8289C30.9403 32.8289 30.6346 32.5232 30.6346 32.1459V23.2934ZM30.6346 15.0736C30.6346 14.6963 30.9403 14.3906 31.3176 14.3906C31.6946 14.3906 32.0003 14.6963 32.0003 15.0736V19.1709C32.0003 19.5479 31.6946 19.8536 31.3176 19.8536C30.9403 19.8536 30.6346 19.5479 30.6346 19.1709V15.0736ZM29.9516 19.8536V22.5853H32.6833V19.8536H29.9516ZM32.6846 18.4879C33.4382 18.4879 34.0489 19.0987 34.0489 19.8525V22.5866C34.0489 23.3402 33.4382 23.951 32.6846 23.951H29.9505C29.1968 23.951 28.5859 23.3402 28.5859 22.5866V19.8525C28.5859 19.0989 29.1967 18.4879 29.9505 18.4879H32.6846Z" fill="#285BF4"/>
<path d="M23.8025 23.9261C23.8025 24.3032 24.1084 24.6091 24.4855 24.6091C24.8625 24.6091 25.1684 24.3032 25.1684 23.9261V15.0736C25.1684 14.6963 24.8625 14.3906 24.4855 14.3906C24.1084 14.3906 23.8025 14.6963 23.8025 15.0736V23.9261ZM23.8025 32.1459C23.8025 32.5232 24.1084 32.8289 24.4855 32.8289C24.8625 32.8289 25.1684 32.5232 25.1684 32.1459V28.0486C25.1684 27.6716 24.8625 27.3659 24.4855 27.3659C24.1084 27.3659 23.8025 27.6716 23.8025 28.0486V32.1459ZM23.1198 27.3659V24.6343H25.8512V27.3659H23.1198ZM25.8526 28.7316C26.6062 28.7316 27.2171 28.1209 27.2171 27.3671V24.6329C27.2171 23.8793 26.6061 23.2686 25.8526 23.2686H23.1184C22.3648 23.2686 21.7539 23.8793 21.7539 24.6329V27.3671C21.7539 28.1207 22.3649 28.7316 23.1184 28.7316H25.8526Z" fill="#285BF4"/>
<path d="M16.9744 23.2934C16.9744 22.9164 17.2801 22.6104 17.6572 22.6104C18.0344 22.6104 18.3401 22.9164 18.3401 23.2934V32.1459C18.3401 32.5232 18.0344 32.8289 17.6572 32.8289C17.2801 32.8289 16.9744 32.5232 16.9744 32.1459V23.2934ZM16.9744 15.0736C16.9744 14.6963 17.2801 14.3906 17.6572 14.3906C18.0344 14.3906 18.3401 14.6963 18.3401 15.0736V19.1709C18.3401 19.5479 18.0344 19.8536 17.6572 19.8536C17.2801 19.8536 16.9744 19.5479 16.9744 19.1709V15.0736ZM16.2915 19.8536V22.5853H19.0231V19.8536H16.2915ZM19.0243 18.4879C19.7779 18.4879 20.3888 19.0987 20.3888 19.8525V22.5866C20.3888 23.3402 19.7781 23.951 19.0243 23.951H16.2901C15.5365 23.951 14.9258 23.3402 14.9258 22.5866V19.8525C14.9258 19.0989 15.5365 18.4879 16.2901 18.4879H19.0243Z" fill="#285BF4"/>
</svg>
