<?xml version="1.0" encoding="UTF-8" standalone="no"?><svg width="356" height="48" viewBox="0 0 356 48" fill="none" xmlns="http://www.w3.org/2000/svg">
<path d="M13.75 17.0299V38.1336C13.7511 39.0078 14.0806 39.846 14.6661 40.4642C15.2519 41.0822 16.0461 41.4299 16.8744 41.4311H31.8714C32.6997 41.4299 33.4939 41.0822 34.0797 40.4642C34.6652 39.846 34.9947 39.0078 34.9958 38.1336V17.0299C34.9947 16.1557 34.6652 15.3175 34.0797 14.6993C33.4939 14.0813 32.6997 13.7336 31.8714 13.7324H16.8744C16.0461 13.7336 15.2519 14.0813 14.6661 14.6993C14.0806 15.3175 13.7511 16.1557 13.75 17.0299ZM33.746 17.0299V38.1336C33.746 38.6583 33.5485 39.1618 33.197 39.5327C32.8456 39.9036 32.3685 40.1121 31.8715 40.1121H16.8744C16.3773 40.1121 15.9003 39.9036 15.5488 39.5327C15.1974 39.1617 14.9998 38.6582 14.9998 38.1336V17.0299C14.9998 16.5052 15.1973 16.0018 15.5488 15.6309C15.9003 15.26 16.3774 15.0514 16.8744 15.0514H31.8715C32.3686 15.0514 32.8456 15.2599 33.197 15.6309C33.5485 16.0018 33.746 16.5053 33.746 17.0299Z" fill="#285BF4"/>
<path d="M16.875 26.8014C16.8756 27.3581 17.0856 27.8919 17.4586 28.2858C17.8318 28.6794 18.3376 28.9011 18.8651 28.9017H29.8822C30.4097 28.9011 30.9155 28.6794 31.2887 28.2858C31.6617 27.8919 31.8717 27.3581 31.8723 26.8014V18.4714C31.8717 17.9147 31.6617 17.3809 31.2887 16.987C30.9155 16.5934 30.4097 16.3717 29.8822 16.3711H18.8651C18.3376 16.3717 17.8318 16.5934 17.4586 16.987C17.0856 17.3809 16.8756 17.9147 16.875 18.4714V26.8014ZM18.1248 18.4722V18.4719C18.125 18.0406 18.4564 17.6908 18.8651 17.6905H29.8822C30.2909 17.6908 30.6223 18.0406 30.6226 18.4719V26.8018C30.6223 27.2332 30.2909 27.5829 29.8822 27.5832H18.8651C18.4564 27.5829 18.125 27.2332 18.1248 26.8018V18.4722Z" fill="#285BF4"/>
<path d="M25.6221 4.5H23.1226C22.6255 4.5 22.1484 4.70844 21.797 5.07941C21.4456 5.45038 21.248 5.95386 21.248 6.47844V11.0949H16.8739C15.3828 11.0966 13.9534 11.7226 12.899 12.8352C11.8447 13.9481 11.2517 15.4567 11.25 17.0303V38.1341C11.2517 39.7077 11.8447 41.2163 12.899 42.3292C13.9535 43.4418 15.3828 44.0677 16.8739 44.0695H31.8709C33.362 44.0677 34.7914 43.4418 35.8458 42.3292C36.9001 41.2163 37.4931 39.7077 37.4948 38.1341V17.0303C37.4931 15.4567 36.9001 13.948 35.8458 12.8352C34.7913 11.7226 33.362 11.0967 31.8709 11.0949H27.4968V6.47844C27.4968 5.95379 27.2993 5.45031 26.9478 5.07941C26.5963 4.70851 26.1192 4.5 25.6222 4.5H25.6221ZM22.4977 6.47848C22.4977 6.11429 22.7775 5.81898 23.1226 5.81898H23.7475V7.79746C23.7475 8.16165 24.0273 8.45695 24.3724 8.45695C24.7174 8.45695 24.9972 8.16165 24.9972 7.79746V5.81898H25.6221C25.7878 5.81898 25.9468 5.88847 26.064 6.01212C26.1812 6.13578 26.247 6.30359 26.247 6.47848V11.0949H22.4977V6.47848ZM31.8709 12.4139C33.0305 12.4154 34.1422 12.9023 34.9623 13.7676C35.7822 14.6332 36.2436 15.8065 36.245 17.0304V38.1341C36.2436 39.358 35.7822 40.5313 34.9623 41.3968C34.1422 42.2621 33.0305 42.749 31.8709 42.7505H16.8739C15.7142 42.7491 14.6025 42.2621 13.7824 41.3968C12.9626 40.5313 12.5011 39.358 12.4997 38.1341V17.0304C12.5011 15.8065 12.9625 14.6332 13.7824 13.7676C14.6025 12.9024 15.7142 12.4154 16.8739 12.4139H31.8709Z" fill="#285BF4"/>
<path d="M24.3744 25.9366C25.0991 25.9357 25.794 25.6315 26.3065 25.0904C26.8192 24.5495 27.1074 23.8162 27.1083 23.0512C27.1083 22.2472 26.5157 21.0648 25.3475 19.5368C25.1025 19.2394 24.7477 19.0684 24.3744 19.0684C24.0012 19.0684 23.6464 19.2394 23.4014 19.5368C22.2329 21.0648 21.6406 22.2472 21.6406 23.0512C21.6415 23.8161 21.9296 24.5495 22.4424 25.0904C22.9548 25.6315 23.6497 25.9357 24.3745 25.9366H24.3744ZM24.3744 20.365C25.4699 21.7974 25.8584 22.7074 25.8584 23.0513C25.8584 23.611 25.5756 24.128 25.1164 24.4077C24.6572 24.6877 24.0914 24.6877 23.6323 24.4077C23.1731 24.128 22.8902 23.611 22.8902 23.0513C22.8902 22.7051 23.2788 21.7977 24.3743 20.365H24.3744Z" fill="#285BF4"/>
<path d="M24.3704 30.8789C23.459 30.8789 22.5848 31.2611 21.9401 31.9412C21.2957 32.6216 20.9336 33.5443 20.9336 34.5061C20.9336 35.4679 21.2957 36.3907 21.9401 37.071C22.5848 37.7511 23.4591 38.1333 24.3704 38.1333C25.2817 38.1333 26.1561 37.7512 26.8007 37.071C27.4451 36.3907 27.8072 35.4679 27.8072 34.5061C27.8061 33.5445 27.4437 32.6228 26.7994 31.9426C26.155 31.2625 25.2815 30.88 24.3704 30.8789ZM24.3704 36.8143C23.7905 36.8143 23.2342 36.5711 22.8239 36.1384C22.4138 35.7053 22.1834 35.1182 22.1834 34.5061C22.1834 33.894 22.4138 33.307 22.8239 32.8739C23.2342 32.4411 23.7905 32.1979 24.3704 32.1979C24.9504 32.1979 25.5066 32.4411 25.917 32.8739C26.327 33.307 26.5575 33.894 26.5575 34.5061C26.5575 35.1182 26.327 35.7053 25.917 36.1384C25.5066 36.5711 24.9504 36.8143 24.3704 36.8143Z" fill="#285BF4"/>
<path d="M24.9998 34.5052C24.9998 34.8694 24.72 35.1647 24.3749 35.1647C24.0298 35.1647 23.75 34.8694 23.75 34.5052C23.75 34.141 24.0298 33.8457 24.3749 33.8457C24.72 33.8457 24.9998 34.141 24.9998 34.5052Z" fill="#285BF4"/>
<path d="M321 24L344 24" stroke="#285BF4" stroke-width="2" stroke-linecap="round" stroke-linejoin="round"/>
<path d="M336 16L344 24L336 32" stroke="#285BF4" stroke-width="2" stroke-linecap="round" stroke-linejoin="round"/>
</svg>
