<?xml version="1.0" encoding="UTF-8" standalone="no"?><svg width="48" height="48" viewBox="0 0 48 48" fill="none" xmlns="http://www.w3.org/2000/svg">
<rect width="48" height="48" rx="10" fill="#EDF4F9"/>
<path d="M27.8717 26.518C27.5672 26.518 27.286 26.6804 27.1336 26.9441C26.9815 27.2077 26.9815 27.5325 27.1336 27.7961C27.286 28.0597 27.5672 28.2221 27.8717 28.2221C29.2469 28.2221 30.5177 27.4885 31.2052 26.2976C31.8928 25.1065 31.8928 23.6393 31.2052 22.448C30.5177 21.257 29.2469 20.5234 27.8717 20.5234C27.5672 20.5234 27.286 20.6858 27.1336 20.9494C26.9815 21.213 26.9815 21.5379 27.1336 21.8014C27.286 22.0652 27.5672 22.2276 27.8717 22.2276C28.638 22.2276 29.3462 22.6364 29.7294 23.3001C30.1126 23.9637 30.1126 24.7815 29.7294 25.4452C29.3462 26.1089 28.638 26.5177 27.8717 26.5177V26.518Z" fill="#285BF4"/>
<path d="M19.8949 28.4403L25.4033 32.3131C25.5745 32.4333 25.784 32.4865 25.9918 32.4623C26.1996 32.4381 26.3913 32.3384 26.5302 32.1819C26.6692 32.0256 26.7459 31.8235 26.7454 31.6143V17.129C26.7453 16.9199 26.6684 16.7182 26.5294 16.5624C26.3903 16.4063 26.1987 16.3069 25.9912 16.283C25.7836 16.2589 25.5744 16.3121 25.4034 16.4323L19.8949 20.3028H17.1256C16.8996 20.3028 16.6828 20.3926 16.5231 20.5525C16.3632 20.7122 16.2734 20.929 16.2734 21.155V27.5882C16.2734 27.8142 16.3632 28.031 16.5231 28.1907C16.6828 28.3506 16.8996 28.4404 17.1256 28.4404L19.8949 28.4403ZM17.9778 22.0071H20.1931C20.4282 22.0064 20.6524 21.9085 20.8129 21.7366L25.0413 18.7671V29.9761L20.8171 27.0067C20.6566 26.8348 20.4322 26.7369 20.1971 26.7361H17.9839L17.9778 22.0071Z" fill="#285BF4"/>
</svg>
