<?xml version="1.0" encoding="UTF-8" standalone="no"?><svg width="32" height="32" viewBox="0 0 32 32" fill="none" xmlns="http://www.w3.org/2000/svg">
<path d="M19.4235 8.1333C19.2457 7.95557 18.9614 7.95557 18.8014 8.1333L9.91497 17.0173C9.89724 17.035 9.86166 17.0706 9.84393 17.1061C9.84393 17.1061 9.84393 17.1238 9.8262 17.1238C9.80848 17.1416 9.80848 17.1771 9.79062 17.1949V17.2126L8.01334 23.4314C7.97776 23.5912 8.01334 23.7511 8.11996 23.8756C8.20885 23.9467 8.31547 24 8.43994 24C8.47552 24 8.52883 24 8.56441 23.9823L14.7849 22.2055H14.8026C14.8203 22.2055 14.8559 22.1878 14.8737 22.1699C14.8737 22.1699 14.8914 22.1699 14.8914 22.1522C14.927 22.1345 14.9447 22.1166 14.9803 22.0812L23.8667 13.1972C24.0444 13.0195 24.0444 12.7353 23.8667 12.5753L19.4235 8.1333ZM9.6129 22.7563L9.2396 22.3831L10.4481 18.1721L13.8249 21.548L9.6129 22.7563ZM14.6604 21.1571L10.8392 17.337L19.1036 9.07493L22.9247 12.895L14.6604 21.1571Z" fill="#0487FF" stroke="#285BF4" stroke-width="0.5" stroke-linejoin="round"/>
</svg>
