<?xml version="1.0" encoding="UTF-8" standalone="no"?><svg width="236" height="40" viewBox="0 0 236 40" fill="none" xmlns="http://www.w3.org/2000/svg">
<path d="M212 19L235 19" stroke="white" stroke-width="2" stroke-linecap="round" stroke-linejoin="round"/>
<path d="M227 11L235 19L227 27" stroke="white" stroke-width="2" stroke-linecap="round" stroke-linejoin="round"/>
<g opacity="0.36">
<path d="M25.731 24.3852C24.0723 26.2155 21.3581 29.2391 20.2271 30.5121L14.7231 24.3852C14.4215 24.0669 13.9693 24.0669 13.6676 24.3852C13.366 24.7035 13.366 25.1809 13.6676 25.4992L19.7745 32.2627C19.9252 32.4217 20.1516 32.5014 20.3023 32.5014C20.5284 32.5014 20.6794 32.4217 20.83 32.2627C20.83 32.2627 24.7504 27.8861 26.9369 25.4992C27.2385 25.1809 27.2385 24.7036 26.9369 24.3852C26.5601 24.0669 26.0323 24.0669 25.731 24.3852H25.731Z" fill="white"/>
<path d="M30.9348 20.2466C31.0855 20.4057 31.3119 20.4853 31.4625 20.4853C31.6132 20.4853 31.8396 20.4057 31.9903 20.2466C33.5736 18.6553 34.3275 16.3477 34.1013 14.0401C33.7997 11.7326 32.518 9.66357 30.4822 8.47029C26.9388 6.48101 22.491 7.67436 20.4547 11.2552C20.3792 11.3349 20.3792 11.4142 20.304 11.5735C19.3992 9.82289 17.7407 8.47025 15.8559 7.83361C13.8955 7.19698 11.86 7.43564 10.1258 8.54961C8.16547 9.74325 6.80837 11.7325 6.50672 14.0401C6.20511 16.3477 6.95901 18.5757 8.54224 20.2466C8.84386 20.5649 9.29612 20.5649 9.59777 20.2466C9.89942 19.9283 9.89938 19.451 9.59777 19.1326C8.39132 17.8593 7.78836 16.109 8.01448 14.2787C8.2406 12.4485 9.29612 10.8572 10.8794 9.9819C12.312 9.18625 13.8953 8.94754 15.4785 9.42491C16.9862 9.90225 18.2682 10.9368 19.0221 12.3691C19.2483 12.8465 19.7005 13.1648 20.2286 13.1648C20.6808 13.2444 21.2086 13.0057 21.5102 12.6874C21.6609 12.5284 21.6609 12.4487 21.8873 12.1304C23.546 9.34551 27.0896 8.31087 29.8791 9.98215C31.4624 10.9371 32.5179 12.5284 32.7441 14.3587C32.9702 16.189 32.367 17.9393 31.0853 19.2126C30.633 19.451 30.633 19.9283 30.9346 20.2466L30.9348 20.2466Z" fill="white"/>
<path d="M37.5682 21.3606H28.2192L27.1637 18.3369C27.0882 18.0186 26.8621 17.8596 26.5605 17.78C26.2589 17.78 26.0327 17.8596 25.8066 18.0983L23.3185 21.9178L21.5843 16.0296C21.5088 15.7113 21.2072 15.4727 20.9059 15.4727C20.6043 15.4727 20.3027 15.7113 20.152 16.0296L18.6442 20.4856L16.7594 18.0189C16.6087 17.7803 16.3823 17.7006 16.081 17.7006C15.8548 17.7006 15.6287 17.8596 15.4777 18.0986L13.7435 21.2815L2.88669 21.2812C2.4344 21.2812 2.13281 21.5995 2.13281 22.0769C2.13281 22.5542 2.43442 22.8725 2.88669 22.8725H14.2713C14.5729 22.8725 14.799 22.7135 14.9497 22.4745L16.3068 19.9283L18.4178 22.5542C18.5685 22.7928 18.8701 22.8725 19.0962 22.7928C19.3978 22.7132 19.5485 22.5542 19.6994 22.2359L20.9059 18.7347L22.4137 23.8272C22.4891 24.1455 22.7907 24.3842 23.1675 24.3842C23.3937 24.3842 23.6198 24.2252 23.7707 24.0659L26.334 20.167L27.0125 22.2359C27.0879 22.5542 27.3895 22.7929 27.6909 22.7929H37.5683C38.0205 22.7929 38.3221 22.4745 38.3221 21.9972C38.3221 21.5199 38.0205 21.3606 37.5683 21.3606L37.5682 21.3606Z" fill="white"/>
</g>
<g opacity="0.5">
<path d="M62.2066 23.9316C59.8002 23.9316 57.875 25.9635 57.875 28.5032C57.875 31.043 59.8002 33.0748 62.2066 33.0748C64.6131 33.0748 66.5382 31.043 66.5382 28.5032C66.5382 25.9635 64.6131 23.9316 62.2066 23.9316ZM62.2066 31.8049C60.4619 31.8049 59.0782 30.3445 59.0782 28.5032C59.0782 26.6619 60.4619 25.2015 62.2066 25.2015C63.9513 25.2015 65.335 26.6619 65.335 28.5032C65.335 30.281 63.9513 31.8049 62.2066 31.8049Z" fill="white"/>
<path d="M94.3309 14.1531C94.3309 10.8514 91.9846 8.18464 88.9164 7.86717V7.5497C88.9164 5.77187 87.5327 4.375 85.9083 4.375H78.328C76.6435 4.375 75.3199 5.83536 75.3199 7.5497V20.7565C75.3199 22.5343 76.7036 23.9312 78.328 23.9312H81.5165V29.8361C81.5165 32.3759 79.5312 34.4712 77.1248 34.4712C74.7183 34.4712 72.733 32.3759 72.733 29.8361V18.0262C72.733 14.788 70.2062 12.1213 67.138 12.1213C64.0697 12.1213 61.543 14.788 61.543 18.0262V22.6613C61.543 23.0423 61.7836 23.2962 62.1446 23.2962C62.5056 23.2962 62.7462 23.0423 62.7462 22.6613V18.0262C62.7462 15.4865 64.7315 13.3912 67.138 13.3912C69.5444 13.3912 71.5298 15.4865 71.5298 18.0262V29.8361C71.5298 33.0743 74.0565 35.7411 77.1248 35.7411C80.193 35.7411 82.7198 33.0743 82.7198 29.8361V23.9312H85.9083C87.5928 23.9312 88.9164 22.4708 88.9164 20.7565V20.439C91.9244 20.1215 94.3309 17.3913 94.3309 14.1531ZM85.9083 22.6613H82.2385H82.1783H82.1182H78.3881C77.3654 22.6613 76.5833 21.7724 76.5833 20.7565V7.48585C76.5833 6.40645 77.4256 5.58102 78.3881 5.58102H85.9685C86.9912 5.58102 87.7733 6.46994 87.7733 7.48585V7.80332C84.7652 8.12079 82.3588 10.851 82.3588 14.0892C82.3588 17.3274 84.7051 20.0577 87.7733 20.3751V20.6926C87.7132 21.8355 86.8709 22.6609 85.9083 22.6609V22.6613ZM88.9164 19.1056V18.3437C88.9164 17.9627 88.6757 17.7088 88.3148 17.7088C87.9538 17.7088 87.7132 17.9627 87.7132 18.3437V19.1056C85.5473 18.7881 83.8628 17.0103 83.562 14.7245H84.284C84.6449 14.7245 84.8856 14.4706 84.8856 14.0896C84.8856 13.7086 84.6449 13.4546 84.284 13.4546H83.562C83.8628 11.1689 85.5473 9.39103 87.7132 9.07356V10.153C87.7132 10.5339 87.9538 10.7879 88.3148 10.7879C88.6757 10.7879 88.9164 10.5339 88.9164 10.153V9.07356C91.0822 9.39103 92.7667 11.1689 93.0675 13.4546H92.3456C91.9846 13.4546 91.744 13.7086 91.744 14.0896C91.744 14.4706 91.9846 14.7245 92.3456 14.7245H93.0675C92.8269 17.0738 91.0822 18.8516 88.9164 19.1056Z" fill="white"/>
<path d="M88.0768 12.3725C87.8963 12.3725 87.7158 12.436 87.5955 12.4995L86.1516 10.9756C85.911 10.7217 85.55 10.7217 85.3094 10.9756C85.0687 11.2296 85.0687 11.6106 85.3094 11.8646L86.7533 13.3884C86.6931 13.5789 86.6931 13.7059 86.6931 13.8964C86.6931 14.7218 87.3549 15.4202 88.137 15.4202C88.9191 15.4202 89.5808 14.7218 89.5808 13.8964C89.5808 13.0709 88.8589 12.3725 88.0768 12.3725ZM88.0768 14.0868C87.9565 14.0868 87.8362 13.9599 87.8362 13.8329C87.8362 13.7694 87.8362 13.7059 87.8963 13.7059C87.9565 13.6424 88.0167 13.6424 88.0167 13.6424C88.137 13.6424 88.2573 13.7694 88.2573 13.8964C88.2573 14.0234 88.1971 14.0868 88.0768 14.0868Z" fill="white"/>
</g>
<g opacity="0.5">
<path d="M136.059 24.0993V9.10118C136.059 6.83965 134.316 5 132.173 5C130.03 5 128.286 6.83994 128.286 9.10118V24.0986C127.068 25.2593 126.375 26.8978 126.375 28.6382C126.375 32.0128 128.976 34.7575 132.172 34.7575C135.369 34.7575 137.97 32.0128 137.97 28.6382C137.97 26.8987 137.277 25.2608 136.059 24.0992V24.0993ZM132.172 33.5508C129.606 33.5508 127.519 31.3471 127.519 28.6385C127.519 27.1634 128.139 25.7798 129.221 24.8416C129.353 24.7268 129.43 24.5558 129.43 24.3751V9.1011C129.43 7.5053 130.661 6.20702 132.173 6.20702C133.515 6.20702 134.634 7.2317 134.868 8.57884H133.199C132.884 8.57884 132.628 8.84883 132.628 9.18224C132.628 9.51566 132.884 9.78564 133.199 9.78564H134.915V12.1516H133.199C132.884 12.1516 132.628 12.4216 132.628 12.755C132.628 13.0884 132.884 13.3584 133.199 13.3584H134.915V15.7246H133.199C132.884 15.7246 132.628 15.9946 132.628 16.328C132.628 16.6614 132.884 16.9314 133.199 16.9314H134.915V24.3755C134.915 24.5557 134.991 24.7271 135.124 24.8419C136.206 25.7807 136.826 27.1643 136.826 28.6389C136.826 31.3475 134.738 33.5509 132.172 33.5509L132.172 33.5508Z" fill="white"/>
<path d="M134.396 25.7727L133.769 25.2291V19.8964C133.769 19.563 133.513 19.293 133.197 19.293H131.143C130.827 19.293 130.572 19.563 130.572 19.8964V25.2291L129.945 25.7719C129.128 26.4805 128.66 27.524 128.66 28.6365C128.66 30.6797 130.235 32.3417 132.17 32.3417C134.105 32.3417 135.681 30.6796 135.681 28.6365C135.681 27.5243 135.212 26.4802 134.396 25.7727L134.396 25.7727ZM132.17 31.1346C130.866 31.1346 129.804 30.0139 129.804 28.6365C129.804 27.8868 130.12 27.1824 130.671 26.7044L131.506 25.9806C131.638 25.8658 131.715 25.6949 131.715 25.5142L131.715 20.4998H132.625V25.5145C132.625 25.6952 132.702 25.8661 132.834 25.9809L133.67 26.7056C134.221 27.1835 134.537 27.8871 134.537 28.6368C134.537 30.0142 133.475 31.1346 132.17 31.1346H132.17Z" fill="white"/>
<path d="M133.206 28.0332C132.89 28.0332 132.634 28.3035 132.634 28.6366C132.634 28.9049 132.427 29.123 132.173 29.123C131.857 29.123 131.602 29.3932 131.602 29.7264C131.602 30.0595 131.857 30.3298 132.173 30.3298C133.058 30.3298 133.778 29.5701 133.778 28.6363C133.777 28.3035 133.521 28.0332 133.206 28.0332L133.206 28.0332Z" fill="white"/>
</g>
</svg>
