<svg width="175" height="191" viewBox="0 0 175 191" fill="none" xmlns="http://www.w3.org/2000/svg">
<path d="M173.417 48C173.417 74.0411 154.085 95 130.417 95C106.749 95 87.417 74.0411 87.417 48C87.417 21.9589 106.749 1 130.417 1C154.085 1 173.417 21.9589 173.417 48Z" stroke="#1D1D1D" stroke-width="2"/>
<path d="M166.417 48C166.417 70.1904 150.205 88 130.417 88C110.629 88 94.417 70.1904 94.417 48C94.417 25.8096 110.629 8 130.417 8C150.205 8 166.417 25.8096 166.417 48Z" stroke="#1D1D1D" stroke-width="2"/>
<path d="M146.917 48C146.917 62.6824 136.127 74.5 122.917 74.5C109.707 74.5 98.917 62.6824 98.917 48C98.917 33.3176 109.707 21.5 122.917 21.5C136.127 21.5 146.917 33.3176 146.917 48Z" stroke="#1D1D1D"/>
<path fill-rule="evenodd" clip-rule="evenodd" d="M126.917 65V75C126.917 94.7619 121.286 124.105 103.952 148.353C86.1983 173.189 56.6285 191.938 10.9909 189.991L1 189.565L1.85231 169.583L11.8432 170.009C50.6057 171.662 73.7858 156.161 87.6819 136.722C101.998 116.695 106.917 91.7381 106.917 75V65H126.917Z" fill="white" stroke="black" stroke-linecap="square"/>
<path d="M136.417 48.5C136.417 65.9267 122.732 80 105.917 80C89.1015 80 75.417 65.9267 75.417 48.5C75.417 31.0733 89.1015 17 105.917 17C122.732 17 136.417 31.0733 136.417 48.5Z" fill="white" stroke="#1D1D1D" stroke-width="2"/>
<path d="M126.917 49C126.917 63.132 116.573 74.5 103.917 74.5C91.2608 74.5 80.917 63.132 80.917 49C80.917 34.868 91.2608 23.5 103.917 23.5C116.573 23.5 126.917 34.868 126.917 49Z" stroke="#1D1D1D"/>
</svg>
