<svg width="84" height="84" viewBox="0 0 84 84" fill="none" xmlns="http://www.w3.org/2000/svg">
<g filter="url(#filter0_d_57_32)">
<rect x="20" y="10" width="43.4388" height="43.4388" rx="5" fill="white"/>
</g>
<path d="M46.2039 34.6323C45.8514 34.6323 45.5258 34.8204 45.3494 35.1257C45.1732 35.4309 45.1732 35.807 45.3494 36.1122C45.5258 36.4174 45.8514 36.6054 46.2039 36.6054C47.7962 36.6054 49.2675 35.7561 50.0636 34.3771C50.8598 32.9981 50.8598 31.2993 50.0636 29.92C49.2675 28.541 47.7962 27.6917 46.2039 27.6917C45.8514 27.6917 45.5258 27.8797 45.3494 28.1849C45.1732 28.4901 45.1732 28.8662 45.3494 29.1714C45.5258 29.4767 45.8514 29.6648 46.2039 29.6648C47.0912 29.6648 47.9111 30.1381 48.3548 30.9066C48.7985 31.6749 48.7985 32.6218 48.3548 33.3902C47.9111 34.1587 47.0912 34.632 46.2039 34.632V34.6323Z" fill="#125873"/>
<path d="M36.9687 36.8586L43.3466 41.3426C43.5448 41.4818 43.7873 41.5434 44.0279 41.5154C44.2685 41.4873 44.4905 41.3719 44.6513 41.1907C44.8122 41.0097 44.901 40.7758 44.9005 40.5335V23.7619C44.9003 23.5198 44.8113 23.2864 44.6503 23.1059C44.4893 22.9252 44.2675 22.8101 44.0272 22.7824C43.7868 22.7546 43.5446 22.8162 43.3466 22.9553L36.9687 27.4367H33.7623C33.5006 27.4367 33.2496 27.5406 33.0647 27.7258C32.8796 27.9107 32.7756 28.1617 32.7756 28.4234V35.872C32.7756 36.1337 32.8796 36.3847 33.0647 36.5696C33.2496 36.7547 33.5006 36.8586 33.7623 36.8586L36.9687 36.8586ZM34.749 29.41H37.314C37.5861 29.4092 37.8457 29.2958 38.0316 29.0968L42.9274 25.6587V38.6368L38.0364 35.1987C37.8506 34.9997 37.5908 34.8863 37.3186 34.8855H34.756L34.749 29.41Z" fill="#125873"/>
<defs>
<filter id="filter0_d_57_32" x="0" y="0" width="83.4387" height="83.4387" filterUnits="userSpaceOnUse" color-interpolation-filters="sRGB">
<feFlood flood-opacity="0" result="BackgroundImageFix"/>
<feColorMatrix in="SourceAlpha" type="matrix" values="0 0 0 0 0 0 0 0 0 0 0 0 0 0 0 0 0 0 127 0" result="hardAlpha"/>
<feOffset dy="10"/>
<feGaussianBlur stdDeviation="10"/>
<feComposite in2="hardAlpha" operator="out"/>
<feColorMatrix type="matrix" values="0 0 0 0 0.0187153 0 0 0 0 0.236739 0 0 0 0 0.320833 0 0 0 0.16 0"/>
<feBlend mode="normal" in2="BackgroundImageFix" result="effect1_dropShadow_57_32"/>
<feBlend mode="normal" in="SourceGraphic" in2="effect1_dropShadow_57_32" result="shape"/>
</filter>
</defs>
</svg>
