<svg width="24" height="24" viewBox="0 0 24 24" fill="none" xmlns="http://www.w3.org/2000/svg">
<path d="M12.9122 13.0969C13.2518 13.0969 13.5334 13.3748 13.5334 13.7099C13.5334 14.0531 13.2518 14.3229 12.9122 14.3229H11.6696C11.3217 14.3229 11.0483 14.0532 11.0483 13.7099C11.0483 13.3748 11.3216 13.0969 11.6696 13.0969V11.3068C11.3217 11.3068 11.0483 11.0289 11.0483 10.6938C11.0483 10.3587 11.3216 10.0808 11.6696 10.0808H12.2909C12.6305 10.0808 12.9122 10.3587 12.9122 10.6938V13.0969Z" fill="#125873"/>
<path d="M12.8031 8.8946C12.8031 9.27881 12.4883 9.59752 12.0907 9.59752C11.7013 9.59752 11.3866 9.27884 11.3866 8.8946C11.3866 8.51036 11.7015 8.19995 12.0907 8.19995C12.4882 8.19995 12.8031 8.51047 12.8031 8.8946V8.8946Z" fill="#125873"/>
<path d="M17.7574 11.257C17.7574 9.72862 17.128 8.35545 16.1173 7.35847C15.1065 6.3532 13.7066 5.74018 12.166 5.74018C10.617 5.74018 9.22523 6.3532 8.20637 7.35847C7.19587 8.35551 6.57457 9.72859 6.57457 11.257C6.57457 12.7855 7.19587 14.1586 8.20637 15.1556C9.22523 16.1609 10.617 16.7739 12.166 16.7739C13.7067 16.7739 15.1068 16.1609 16.1173 15.1556C17.128 14.1585 17.7574 12.7855 17.7574 11.257ZM19 11.257C19 14.9841 15.935 17.9999 12.166 17.9999C8.38861 17.9999 5.33203 14.9841 5.33203 11.257C5.33203 7.52999 8.38861 4.51416 12.166 4.51416C15.935 4.51416 19 7.52999 19 11.257Z" fill="#125873"/>
</svg>
