<svg width="40" height="40" viewBox="0 0 40 40" fill="none" xmlns="http://www.w3.org/2000/svg">
<path d="M33.6217 5.33325H7.24035C6.00488 5.33325 5 6.32474 5 7.54416V28.9149C5 30.1343 6.00488 31.1253 7.24035 31.1253H33.6217C34.8576 31.1253 35.862 30.1339 35.862 28.9149V7.54416C35.862 6.32474 34.8572 5.33325 33.6217 5.33325V5.33325ZM34.4154 28.9149C34.4154 29.3469 34.0595 29.698 33.6217 29.698H7.24035C6.80248 29.698 6.44665 29.3469 6.44665 28.9149V7.54416C6.44665 7.11213 6.8025 6.76105 7.24035 6.76105H33.6217C34.0596 6.76062 34.4154 7.11215 34.4154 7.54416V28.9149Z" fill="#A0F1DD"/>
<path d="M32.5685 7.7439H8.29517C7.89541 7.7439 7.57185 8.06314 7.57185 8.45758V25.3385C7.57185 25.7325 7.89541 26.0522 8.29517 26.0522H32.5685C32.9679 26.0522 33.2919 25.7325 33.2919 25.3385V8.45758C33.2919 8.06357 32.9677 7.7439 32.5685 7.7439V7.7439ZM31.8452 9.17126V16.1846H30.7217L28.7416 10.5926C28.7368 10.5793 28.7295 10.5684 28.7241 10.5555C28.714 10.5312 28.7035 10.507 28.6903 10.4841C28.6798 10.4641 28.6671 10.4461 28.6546 10.428C28.641 10.4085 28.627 10.3889 28.6118 10.3709C28.5963 10.3528 28.5795 10.3361 28.562 10.3195C28.5457 10.3042 28.5297 10.2891 28.5119 10.2747C28.4916 10.2585 28.4703 10.2447 28.4482 10.2309C28.4361 10.2228 28.4256 10.2133 28.4124 10.2063C28.4057 10.2029 28.3995 10.201 28.3926 10.1978C28.37 10.1863 28.3463 10.1774 28.3227 10.1678C28.3013 10.1593 28.2807 10.1506 28.2589 10.1445C28.2372 10.1383 28.215 10.1349 28.1928 10.1307C28.1683 10.126 28.1442 10.1207 28.1201 10.1188C28.0998 10.1173 28.0785 10.1183 28.0579 10.1183C28.0314 10.1183 28.0053 10.1183 27.9793 10.1207C27.9595 10.1226 27.9403 10.1273 27.9205 10.1311C27.893 10.1364 27.8665 10.1415 27.84 10.1502C27.8333 10.1525 27.8264 10.1525 27.8198 10.1549C27.8062 10.1595 27.7948 10.1672 27.7817 10.1725C27.7571 10.1825 27.733 10.1925 27.7098 10.2054C27.6904 10.2158 27.6721 10.2284 27.6538 10.2407C27.6336 10.2541 27.6138 10.2683 27.595 10.2836C27.5767 10.2989 27.5604 10.3146 27.544 10.3316C27.5281 10.3477 27.5126 10.3639 27.4973 10.3819C27.4814 10.4019 27.4669 10.4229 27.4529 10.4442C27.4452 10.4565 27.4355 10.4671 27.428 10.4798L21.9393 20.144L16.7361 12.3884C16.726 12.3738 16.7139 12.3623 16.7034 12.3485C16.6885 12.3294 16.6739 12.3105 16.6571 12.2928C16.6373 12.2725 16.6156 12.2544 16.594 12.2361C16.5828 12.2266 16.5742 12.2162 16.5626 12.2077C16.5587 12.2049 16.554 12.2034 16.5501 12.2005C16.5251 12.1828 16.4991 12.1686 16.472 12.1548C16.456 12.1463 16.4412 12.1372 16.4246 12.1301C16.399 12.1191 16.3729 12.111 16.3465 12.103C16.3277 12.0972 16.3094 12.0906 16.2901 12.0864C16.2644 12.0807 16.239 12.0787 16.213 12.076C16.1928 12.0741 16.173 12.0702 16.1523 12.0698C16.1267 12.0694 16.1013 12.0717 16.0752 12.0741C16.055 12.0756 16.0343 12.076 16.0145 12.0794C15.9904 12.0832 15.9672 12.0904 15.9437 12.097C15.9215 12.1027 15.8993 12.1081 15.8776 12.1161C15.8578 12.1238 15.8391 12.1338 15.8201 12.1427C15.7956 12.1541 15.7715 12.1656 15.7482 12.1803C15.7435 12.183 15.7385 12.1845 15.7338 12.1879C15.7202 12.1971 15.7093 12.2083 15.6968 12.2179C15.6761 12.2332 15.6552 12.2482 15.6365 12.2669C15.6167 12.2854 15.5999 12.3054 15.5825 12.326C15.5723 12.3375 15.5611 12.347 15.5517 12.3598L12.6922 16.1856L9.0185 16.1851V9.17178H31.8452V9.17126ZM9.0185 24.6248V17.6114H13.057C13.1111 17.6114 13.1632 17.6048 13.2138 17.5934C13.2273 17.5906 13.2398 17.5849 13.2534 17.5815C13.2904 17.5715 13.3261 17.5596 13.361 17.5435C13.3774 17.5358 13.3924 17.5269 13.4084 17.5182C13.4387 17.5016 13.4678 17.4834 13.4951 17.4625C13.51 17.4511 13.5246 17.4396 13.5386 17.4273C13.5675 17.4016 13.5935 17.3735 13.6183 17.344C13.6249 17.3355 13.6338 17.3298 13.64 17.3211L16.1021 14.0267L21.3886 21.9073C21.3929 21.9135 21.3988 21.9173 21.4026 21.9231C21.4291 21.9606 21.4595 21.9948 21.4933 22.0273C21.4999 22.0339 21.5057 22.0416 21.5126 22.0477C21.5507 22.0807 21.5923 22.1106 21.6379 22.1363C21.6407 22.1378 21.6437 22.1382 21.6465 22.1397C21.6836 22.1597 21.7236 22.1731 21.7636 22.1864C21.7811 22.1926 21.7979 22.2017 21.8153 22.206C21.865 22.2179 21.9156 22.2232 21.9662 22.2245C21.9744 22.2249 21.9826 22.2279 21.9908 22.2279H21.9916C21.9951 22.2279 21.9983 22.2264 22.0017 22.2264C22.0644 22.2255 22.1262 22.2164 22.186 22.2002C22.2078 22.1941 22.228 22.1826 22.2497 22.1741C22.2917 22.1584 22.3326 22.1418 22.3707 22.1185C22.3774 22.1142 22.3847 22.1132 22.391 22.1089C22.4846 22.0475 22.5574 21.967 22.6108 21.8782C22.6142 21.8725 22.6194 21.8683 22.6224 21.8629L27.9061 12.5587L29.5258 17.134C29.5278 17.1386 29.5312 17.1425 29.5332 17.1467C29.5568 17.2085 29.588 17.2661 29.6272 17.319C29.6354 17.33 29.6447 17.34 29.6537 17.3504C29.6918 17.3961 29.7347 17.4375 29.7835 17.4727C29.7889 17.4766 29.7936 17.4819 29.799 17.4855C29.8515 17.5216 29.9099 17.5484 29.9712 17.5692C29.9852 17.5739 29.9997 17.5783 30.0141 17.5819C30.0748 17.5991 30.1381 17.611 30.205 17.6114C30.2065 17.6114 30.2078 17.6119 30.2093 17.6119H30.2108H31.8465V24.6252L9.0185 24.6248Z" fill="#A0F1DD"/>
<path d="M10.5282 27.1611H8.29517C7.89541 27.1611 7.57185 27.4808 7.57185 27.8748C7.57185 28.2688 7.89541 28.5885 8.29517 28.5885H10.5289C10.9286 28.5885 11.2522 28.2688 11.2522 27.8748C11.252 27.4808 10.928 27.1611 10.5282 27.1611H10.5282Z" fill="#A0F1DD"/>
<path d="M15.5841 27.1611H13.35C12.9502 27.1611 12.6267 27.4808 12.6267 27.8748C12.6267 28.2688 12.9502 28.5885 13.35 28.5885H15.5841C15.9839 28.5885 16.3074 28.2688 16.3074 27.8748C16.3074 27.4808 15.9839 27.1611 15.5841 27.1611Z" fill="#A0F1DD"/>
</svg>
