<svg width="472" height="357" viewBox="0 0 472 357" fill="none" xmlns="http://www.w3.org/2000/svg">
<ellipse opacity="0.5" cx="300.362" cy="160.943" rx="5.16655" ry="2.12741" fill="black"/>
<ellipse opacity="0.5" cx="172.717" cy="160.943" rx="5.16655" ry="2.12741" fill="black"/>
<path d="M116.779 94.8535V86.1262H119.89C120.566 86.1262 121.127 86.2427 121.573 86.4757C122.022 86.7086 122.357 87.0311 122.579 87.443C122.8 87.8521 122.911 88.3251 122.911 88.862C122.911 89.3961 122.799 89.8663 122.575 90.2725C122.353 90.676 122.018 90.9899 121.569 91.2143C121.123 91.4387 120.562 91.551 119.886 91.551H117.529V90.4174H119.766C120.192 90.4174 120.539 90.3564 120.806 90.2342C121.076 90.112 121.273 89.9345 121.398 89.7015C121.523 89.4686 121.586 89.1887 121.586 88.862C121.586 88.5325 121.522 88.247 121.394 88.0055C121.269 87.764 121.072 87.5794 120.802 87.4515C120.535 87.3208 120.184 87.2555 119.749 87.2555H118.096V94.8535H116.779ZM121.087 90.916L123.244 94.8535H121.744L119.63 90.916H121.087ZM125.251 94.8535H123.853L126.994 86.1262H128.515L131.656 94.8535H130.258L127.79 87.7115H127.722L125.251 94.8535ZM125.485 91.4359H130.019V92.5439H125.485V91.4359Z" fill="black"/>
<path d="M313.904 98.5742V89.8469H315.221V97.4407H319.175V98.5742H313.904ZM321.86 98.5742H320.462L323.603 89.8469H325.124L328.265 98.5742H326.867L324.4 91.4322H324.332L321.86 98.5742ZM322.094 95.1566H326.629V96.2646H322.094V95.1566Z" fill="black"/>
<path d="M271.473 0.169922C272.688 7.8691 277.855 24.6047 288.796 29.9536C302.472 36.6397 370.853 38.7671 392.431 60.0412C414.009 81.3152 415.528 108.06 412.489 139.667C410.058 164.953 425.254 207.946 433.155 226.283C446.73 251.001 473.272 306.091 470.841 328.702" stroke="black"/>
<path d="M262.969 166.715C274.112 172.794 303.389 179.48 323.752 167.627C341.72 157.168 347.457 143.01 350.8 125.383C341.578 174.009 366.604 223.547 380.28 238.135C378.76 255.458 386.541 303.416 429.818 356.662M350.8 350.888C337.428 320.192 335.353 226.647 351.156 172.186" stroke="black"/>
<path d="M200.527 0.169922C199.312 7.8691 194.145 24.6047 183.204 29.9536C169.528 36.6397 99.7754 39.375 79.5692 60.0412C64.0029 75.9618 56.4716 108.06 59.5108 139.667C61.9421 164.953 46.7464 207.946 38.8446 226.283C25.2697 251.001 -1.27221 306.091 1.15911 328.702" stroke="black"/>
<path d="M209.031 166.715C197.888 172.794 168.611 179.48 148.248 167.627C130.28 157.168 124.543 143.01 121.2 125.383C130.422 174.009 105.396 223.547 91.7201 238.135C93.2396 255.458 85.4594 303.416 42.1819 356.662M121.2 350.888C134.572 320.192 136.647 226.647 120.844 172.186" stroke="black"/>
<line opacity="0.3" x1="236.73" y1="0.169922" x2="236.73" y2="356.358" stroke="black" stroke-dasharray="4 4"/>
<line opacity="0.3" x1="332.16" y1="0.169922" x2="332.16" y2="356.358" stroke="black" stroke-dasharray="4 4"/>
<line opacity="0.3" x1="12.5508" y1="67.1387" x2="443.502" y2="67.1387" stroke="black" stroke-dasharray="4 4"/>
<line opacity="0.3" x1="12.5508" y1="162.57" x2="443.502" y2="162.57" stroke="black" stroke-dasharray="4 4"/>
<circle cx="139.59" cy="67.6399" r="8.61745" fill="#D93930" stroke="#881A14"/>
<circle cx="331.664" cy="67.6399" r="8.61745" fill="#428347" stroke="#206225"/>
<path d="M312.722 198.273L315.151 205.381H315.249L317.678 198.273H319.101L315.96 207H314.439L311.298 198.273H312.722ZM323.289 207.119C322.9 207.114 322.516 207.043 322.138 206.906C321.763 206.77 321.422 206.543 321.115 206.224C320.809 205.906 320.563 205.479 320.378 204.942C320.196 204.405 320.105 203.734 320.105 202.93C320.105 202.169 320.181 201.493 320.331 200.902C320.485 200.311 320.705 199.812 320.992 199.406C321.279 198.997 321.625 198.686 322.032 198.473C322.438 198.26 322.894 198.153 323.4 198.153C323.919 198.153 324.381 198.256 324.784 198.46C325.188 198.665 325.515 198.947 325.765 199.308C326.017 199.669 326.178 200.08 326.246 200.54H324.946C324.858 200.176 324.684 199.879 324.422 199.649C324.161 199.419 323.82 199.304 323.4 199.304C322.76 199.304 322.262 199.582 321.904 200.139C321.549 200.696 321.37 201.47 321.367 202.462H321.431C321.581 202.214 321.766 202.004 321.985 201.831C322.206 201.655 322.453 201.52 322.726 201.426C323.002 201.33 323.292 201.281 323.596 201.281C324.101 201.281 324.559 201.405 324.968 201.652C325.38 201.896 325.708 202.234 325.952 202.666C326.196 203.098 326.319 203.592 326.319 204.149C326.319 204.706 326.192 205.21 325.939 205.662C325.689 206.114 325.337 206.472 324.882 206.736C324.428 206.997 323.897 207.125 323.289 207.119ZM323.284 206.011C323.62 206.011 323.919 205.929 324.184 205.764C324.448 205.599 324.657 205.378 324.81 205.099C324.963 204.821 325.04 204.51 325.04 204.166C325.04 203.831 324.965 203.526 324.814 203.25C324.667 202.974 324.462 202.756 324.201 202.594C323.942 202.432 323.647 202.351 323.314 202.351C323.061 202.351 322.827 202.399 322.611 202.496C322.398 202.592 322.211 202.726 322.049 202.896C321.887 203.067 321.759 203.263 321.665 203.484C321.574 203.703 321.529 203.935 321.529 204.179C321.529 204.506 321.604 204.808 321.755 205.087C321.908 205.365 322.117 205.589 322.381 205.76C322.648 205.928 322.949 206.011 323.284 206.011Z" fill="black"/>
<circle cx="332.117" cy="185.117" r="8.61745" fill="#F6D44A" stroke="#B4961E"/>
</svg>
