<svg width="472" height="357" viewBox="0 0 472 357" fill="none" xmlns="http://www.w3.org/2000/svg">
<mask id="mask0_42_271" style="mask-type:luminance" maskUnits="userSpaceOnUse" x="0" y="0" width="472" height="357">
<path d="M472 0H0V357H472V0Z" fill="white"/>
</mask>
<g mask="url(#mask0_42_271)">
<path opacity="0.5" d="M300.363 163.07C303.216 163.07 305.53 162.118 305.53 160.943C305.53 159.768 303.216 158.816 300.363 158.816C297.51 158.816 295.196 159.768 295.196 160.943C295.196 162.118 297.51 163.07 300.363 163.07Z" fill="black"/>
<path opacity="0.5" d="M172.716 163.07C175.569 163.07 177.883 162.118 177.883 160.943C177.883 159.768 175.569 158.816 172.716 158.816C169.863 158.816 167.549 159.768 167.549 160.943C167.549 162.118 169.863 163.07 172.716 163.07Z" fill="black"/>
<path d="M116.78 94.8528V86.1255H119.891C120.567 86.1255 121.128 86.242 121.574 86.4749C122.023 86.7079 122.358 87.0303 122.58 87.4423C122.801 87.8514 122.912 88.3244 122.912 88.8613C122.912 89.3954 122.8 89.8656 122.575 90.2718C122.354 90.6752 122.018 90.9891 121.57 91.2136C121.124 91.438 120.563 91.5502 119.886 91.5502H117.53V90.4167H119.767C120.193 90.4167 120.54 90.3556 120.807 90.2335C121.077 90.1113 121.274 89.9337 121.399 89.7008C121.524 89.4678 121.587 89.188 121.587 88.8613C121.587 88.5318 121.523 88.2462 121.395 88.0048C121.27 87.7633 121.072 87.5786 120.803 87.4508C120.536 87.3201 120.185 87.2548 119.75 87.2548H118.097V94.8528H116.78ZM121.088 90.9153L123.244 94.8528H121.744L119.631 90.9153H121.088ZM125.251 94.8528H123.854L126.994 86.1255H128.516L131.656 94.8528H130.259L127.791 87.7107H127.723L125.251 94.8528ZM125.486 91.4352H130.02V92.5431H125.486V91.4352Z" fill="black"/>
<path d="M313.903 98.5731V89.8459H315.22V97.4396H319.175V98.5731H313.903ZM321.859 98.5731H320.462L323.602 89.8459H325.124L328.264 98.5731H326.866L324.399 91.4311H324.331L321.859 98.5731ZM322.094 95.1555H326.628V96.2635H322.094V95.1555Z" fill="black"/>
<path d="M271.476 0.169434C272.691 7.86861 277.858 24.6042 288.799 29.9531C302.475 36.6392 370.856 38.7666 392.434 60.0407C414.012 81.3147 415.531 108.059 412.492 139.666C410.061 164.952 425.257 207.946 433.158 226.282C446.733 251.001 473.275 306.09 470.844 328.702" stroke="black"/>
<path d="M262.97 166.715C274.114 172.793 303.391 179.479 323.753 167.627C341.722 157.167 347.459 143.009 350.802 125.382C341.58 174.009 366.605 223.547 380.282 238.135C378.762 255.458 386.542 303.416 429.82 356.662M350.802 350.887C337.43 320.192 335.355 226.647 351.158 172.185" stroke="black"/>
<path d="M200.525 0.169434C199.309 7.86861 194.142 24.6042 183.201 29.9531C169.525 36.6392 99.7726 39.3745 79.5664 60.0407C64.0001 75.9613 56.4688 108.059 59.508 139.666C61.9393 164.952 46.7435 207.946 38.8418 226.282C25.2669 251.001 -1.27499 306.09 1.15633 328.702" stroke="black"/>
<path d="M209.03 166.715C197.886 172.793 168.609 179.479 148.247 167.627C130.278 157.167 124.541 143.009 121.198 125.382C130.421 174.009 105.395 223.547 91.7186 238.135C93.2382 255.458 85.4579 303.416 42.1804 356.662M121.198 350.887C134.571 320.192 136.646 226.647 120.842 172.185" stroke="black"/>
<path opacity="0.3" d="M236.732 0.169678V356.358" stroke="black" stroke-dasharray="4 4"/>
<path opacity="0.3" d="M332.16 0.169678V356.358" stroke="black" stroke-dasharray="4 4"/>
<path opacity="0.3" d="M12.5515 67.1384L443.503 67.1385" stroke="black" stroke-dasharray="4 4"/>
<path opacity="0.3" d="M12.5515 162.57H443.503" stroke="black" stroke-dasharray="4 4"/>
<path d="M139.589 76.2574C144.348 76.2574 148.206 72.3992 148.206 67.6399C148.206 62.8806 144.348 59.0225 139.589 59.0225C134.83 59.0225 130.972 62.8806 130.972 67.6399C130.972 72.3992 134.83 76.2574 139.589 76.2574Z" fill="#D93930" stroke="#881A14"/>
<path d="M331.665 76.2574C336.424 76.2574 340.282 72.3992 340.282 67.6399C340.282 62.8806 336.424 59.0225 331.665 59.0225C326.906 59.0225 323.048 62.8806 323.048 67.6399C323.048 72.3992 326.906 76.2574 331.665 76.2574Z" fill="#428347" stroke="#206225"/>
<path d="M179.722 132.272L182.151 139.38H182.249L184.678 132.272H186.101L182.96 141H181.439L178.298 132.272H179.722ZM190.553 132.272V141H189.232V133.593H189.181L187.093 134.957V133.696L189.27 132.272H190.553Z" fill="black"/>
<path d="M199.755 162.569C204.514 162.569 208.372 158.711 208.372 153.952C208.372 149.193 204.514 145.334 199.755 145.334C194.996 145.334 191.138 149.193 191.138 153.952C191.138 158.711 194.996 162.569 199.755 162.569Z" fill="#F6D44A" stroke="#B4961E"/>
</g>
</svg>
