<svg width="472" height="357" viewBox="0 0 472 357" fill="none" xmlns="http://www.w3.org/2000/svg">
<ellipse opacity="0.5" cx="300.362" cy="160.943" rx="5.16655" ry="2.12741" fill="black"/>
<ellipse opacity="0.5" cx="172.717" cy="160.943" rx="5.16655" ry="2.12741" fill="black"/>
<path d="M116.779 94.8535V86.1262H119.89C120.566 86.1262 121.127 86.2427 121.573 86.4757C122.022 86.7086 122.357 87.0311 122.579 87.443C122.8 87.8521 122.911 88.3251 122.911 88.862C122.911 89.3961 122.799 89.8663 122.575 90.2725C122.353 90.676 122.018 90.9899 121.569 91.2143C121.123 91.4387 120.562 91.551 119.886 91.551H117.529V90.4174H119.766C120.192 90.4174 120.539 90.3564 120.806 90.2342C121.076 90.112 121.273 89.9345 121.398 89.7015C121.523 89.4686 121.586 89.1887 121.586 88.862C121.586 88.5325 121.522 88.247 121.394 88.0055C121.269 87.764 121.072 87.5794 120.802 87.4515C120.535 87.3208 120.184 87.2555 119.749 87.2555H118.096V94.8535H116.779ZM121.087 90.916L123.244 94.8535H121.744L119.63 90.916H121.087ZM125.251 94.8535H123.853L126.994 86.1262H128.515L131.656 94.8535H130.258L127.79 87.7115H127.722L125.251 94.8535ZM125.485 91.4359H130.019V92.5439H125.485V91.4359Z" fill="black"/>
<path d="M313.904 98.5742V89.8469H315.221V97.4407H319.175V98.5742H313.904ZM321.86 98.5742H320.462L323.603 89.8469H325.124L328.265 98.5742H326.867L324.4 91.4322H324.332L321.86 98.5742ZM322.094 95.1566H326.629V96.2646H322.094V95.1566Z" fill="black"/>
<path d="M271.473 0.169922C272.688 7.8691 277.855 24.6047 288.796 29.9536C302.472 36.6397 370.853 38.7671 392.431 60.0412C414.009 81.3152 415.528 108.06 412.489 139.667C410.058 164.953 425.254 207.946 433.155 226.283C446.73 251.001 473.272 306.091 470.841 328.702" stroke="black"/>
<path d="M262.969 166.715C274.112 172.794 303.389 179.48 323.752 167.627C341.72 157.168 347.457 143.01 350.8 125.383C341.578 174.009 366.604 223.547 380.28 238.135C378.76 255.458 386.541 303.416 429.818 356.662M350.8 350.888C337.428 320.192 335.353 226.647 351.156 172.186" stroke="black"/>
<path d="M200.527 0.169922C199.312 7.8691 194.145 24.6047 183.204 29.9536C169.528 36.6397 99.7754 39.375 79.5692 60.0412C64.0029 75.9618 56.4716 108.06 59.5108 139.667C61.9421 164.953 46.7464 207.946 38.8446 226.283C25.2697 251.001 -1.27221 306.091 1.15911 328.702" stroke="black"/>
<path d="M209.031 166.715C197.888 172.794 168.611 179.48 148.248 167.627C130.28 157.168 124.543 143.01 121.2 125.383C130.422 174.009 105.396 223.547 91.7201 238.135C93.2396 255.458 85.4594 303.416 42.1819 356.662M121.2 350.888C134.572 320.192 136.647 226.647 120.844 172.186" stroke="black"/>
<line opacity="0.3" x1="236.73" y1="0.169922" x2="236.73" y2="356.358" stroke="black" stroke-dasharray="4 4"/>
<line opacity="0.3" x1="332.16" y1="0.169922" x2="332.16" y2="356.358" stroke="black" stroke-dasharray="4 4"/>
<line opacity="0.3" x1="12.5508" y1="67.1387" x2="443.502" y2="67.1387" stroke="black" stroke-dasharray="4 4"/>
<line opacity="0.3" x1="12.5508" y1="162.57" x2="443.502" y2="162.57" stroke="black" stroke-dasharray="4 4"/>
<circle cx="139.59" cy="67.6399" r="8.61745" fill="#D93930" stroke="#881A14"/>
<circle cx="331.664" cy="67.6399" r="8.61745" fill="#428347" stroke="#206225"/>
<path d="M280.722 201.273L283.151 208.381H283.249L285.678 201.273H287.101L283.96 210H282.439L279.298 201.273H280.722ZM287.648 208.295V207.23L291.42 201.273H292.259V202.841H291.727L289.029 207.111V207.179H294.198V208.295H287.648ZM291.786 210V207.972L291.795 207.486V201.273H293.043V210H291.786Z" fill="black"/>
<circle cx="295.117" cy="188.117" r="8.61745" fill="#F6D44A" stroke="#B4961E"/>
</svg>
