<svg width="472" height="357" viewBox="0 0 472 357" fill="none" xmlns="http://www.w3.org/2000/svg">
<ellipse opacity="0.5" cx="300.362" cy="160.943" rx="5.16655" ry="2.12741" fill="black"/>
<ellipse opacity="0.5" cx="172.717" cy="160.943" rx="5.16655" ry="2.12741" fill="black"/>
<path d="M116.779 94.8535V86.1262H119.89C120.566 86.1262 121.127 86.2427 121.573 86.4757C122.022 86.7086 122.357 87.0311 122.579 87.443C122.8 87.8521 122.911 88.3251 122.911 88.862C122.911 89.3961 122.799 89.8663 122.575 90.2725C122.353 90.676 122.018 90.9899 121.569 91.2143C121.123 91.4387 120.562 91.551 119.886 91.551H117.529V90.4174H119.766C120.192 90.4174 120.539 90.3564 120.806 90.2342C121.076 90.112 121.273 89.9345 121.398 89.7015C121.523 89.4686 121.586 89.1887 121.586 88.862C121.586 88.5325 121.522 88.247 121.394 88.0055C121.269 87.764 121.072 87.5794 120.802 87.4515C120.535 87.3208 120.184 87.2555 119.749 87.2555H118.096V94.8535H116.779ZM121.087 90.916L123.244 94.8535H121.744L119.63 90.916H121.087ZM125.251 94.8535H123.853L126.994 86.1262H128.515L131.656 94.8535H130.258L127.79 87.7115H127.722L125.251 94.8535ZM125.485 91.4359H130.019V92.5439H125.485V91.4359Z" fill="black"/>
<path d="M313.904 98.5742V89.8469H315.221V97.4407H319.175V98.5742H313.904ZM321.86 98.5742H320.462L323.603 89.8469H325.124L328.265 98.5742H326.867L324.4 91.4322H324.332L321.86 98.5742ZM322.094 95.1566H326.629V96.2646H322.094V95.1566Z" fill="black"/>
<path d="M271.477 0.169922C272.692 7.8691 277.859 24.6047 288.8 29.9536C302.476 36.6397 370.857 38.7671 392.435 60.0412C414.013 81.3152 415.532 108.06 412.493 139.667C410.062 164.953 425.258 207.946 433.159 226.283C446.734 251.001 473.276 306.091 470.845 328.702" stroke="black"/>
<path d="M262.971 166.715C274.114 172.794 303.391 179.48 323.754 167.627C341.722 157.168 347.459 143.01 350.802 125.383C341.58 174.009 366.606 223.547 380.282 238.135C378.762 255.458 386.543 303.416 429.82 356.662M350.802 350.888C337.43 320.192 335.355 226.647 351.158 172.186" stroke="black"/>
<path d="M200.527 0.169922C199.312 7.8691 194.145 24.6047 183.204 29.9536C169.528 36.6397 99.7754 39.375 79.5692 60.0412C64.0029 75.9618 56.4716 108.06 59.5108 139.667C61.9421 164.953 46.7464 207.946 38.8446 226.283C25.2697 251.001 -1.27221 306.091 1.15911 328.702" stroke="black"/>
<path d="M209.031 166.715C197.888 172.794 168.611 179.48 148.248 167.627C130.28 157.168 124.543 143.01 121.2 125.383C130.422 174.009 105.396 223.547 91.7201 238.135C93.2396 255.458 85.4594 303.416 42.1819 356.662M121.2 350.888C134.572 320.192 136.647 226.647 120.844 172.186" stroke="black"/>
<line opacity="0.3" x1="236.73" y1="0.169922" x2="236.73" y2="356.358" stroke="black" stroke-dasharray="4 4"/>
<line opacity="0.3" x1="332.16" y1="0.169922" x2="332.16" y2="356.358" stroke="black" stroke-dasharray="4 4"/>
<line opacity="0.3" x1="12.5508" y1="67.1387" x2="443.502" y2="67.1387" stroke="black" stroke-dasharray="4 4"/>
<line opacity="0.3" x1="12.5508" y1="162.57" x2="443.502" y2="162.57" stroke="black" stroke-dasharray="4 4"/>
<circle cx="139.59" cy="67.6399" r="8.61745" fill="#D93930" stroke="#881A14"/>
<circle cx="331.664" cy="67.6399" r="8.61745" fill="#428347" stroke="#206225"/>
<path d="M287.959 340V331.273H289.276V338.866H293.23V340H287.959ZM297.451 340.132C296.806 340.132 296.251 339.994 295.785 339.719C295.322 339.44 294.964 339.05 294.711 338.547C294.461 338.041 294.336 337.449 294.336 336.77C294.336 336.099 294.461 335.509 294.711 334.997C294.964 334.486 295.316 334.087 295.768 333.8C296.222 333.513 296.754 333.369 297.362 333.369C297.731 333.369 298.089 333.43 298.435 333.553C298.782 333.675 299.093 333.866 299.369 334.128C299.644 334.389 299.862 334.729 300.021 335.146C300.18 335.561 300.259 336.065 300.259 336.659V337.111H295.056V336.156H299.011C299.011 335.821 298.942 335.524 298.806 335.266C298.67 335.004 298.478 334.798 298.231 334.648C297.987 334.497 297.7 334.422 297.37 334.422C297.012 334.422 296.7 334.51 296.433 334.686C296.168 334.859 295.964 335.087 295.819 335.368C295.677 335.646 295.606 335.949 295.606 336.276V337.021C295.606 337.459 295.683 337.831 295.836 338.138C295.992 338.445 296.21 338.679 296.488 338.841C296.766 339 297.092 339.08 297.464 339.08C297.705 339.08 297.925 339.045 298.124 338.977C298.323 338.906 298.495 338.801 298.64 338.662C298.785 338.523 298.896 338.351 298.972 338.146L300.178 338.364C300.082 338.719 299.908 339.03 299.658 339.297C299.411 339.561 299.1 339.767 298.725 339.915C298.353 340.06 297.928 340.132 297.451 340.132ZM303.578 340.145C303.163 340.145 302.788 340.068 302.453 339.915C302.118 339.759 301.852 339.533 301.656 339.237C301.463 338.942 301.366 338.58 301.366 338.151C301.366 337.781 301.437 337.477 301.579 337.239C301.721 337 301.913 336.811 302.154 336.672C302.396 336.533 302.666 336.428 302.964 336.357C303.262 336.286 303.566 336.232 303.876 336.195C304.268 336.149 304.586 336.112 304.831 336.084C305.075 336.053 305.252 336.003 305.363 335.935C305.474 335.866 305.529 335.756 305.529 335.602V335.572C305.529 335.2 305.424 334.912 305.214 334.707C305.007 334.503 304.697 334.401 304.285 334.401C303.856 334.401 303.518 334.496 303.271 334.686C303.027 334.874 302.858 335.082 302.764 335.312L301.566 335.04C301.708 334.642 301.916 334.321 302.189 334.077C302.464 333.83 302.781 333.651 303.139 333.54C303.497 333.426 303.873 333.369 304.268 333.369C304.529 333.369 304.806 333.401 305.099 333.463C305.395 333.523 305.67 333.634 305.926 333.795C306.184 333.957 306.396 334.189 306.561 334.49C306.725 334.788 306.808 335.176 306.808 335.653V340H305.564V339.105H305.512C305.43 339.27 305.306 339.432 305.142 339.591C304.977 339.75 304.765 339.882 304.507 339.987C304.248 340.092 303.939 340.145 303.578 340.145ZM303.855 339.122C304.207 339.122 304.508 339.053 304.758 338.913C305.011 338.774 305.203 338.592 305.333 338.368C305.467 338.141 305.534 337.898 305.534 337.639V336.795C305.488 336.841 305.4 336.884 305.27 336.923C305.142 336.96 304.995 336.993 304.831 337.021C304.666 337.047 304.505 337.071 304.349 337.094C304.193 337.114 304.062 337.131 303.957 337.145C303.71 337.176 303.484 337.229 303.279 337.303C303.078 337.376 302.916 337.483 302.794 337.622C302.674 337.759 302.615 337.94 302.615 338.168C302.615 338.483 302.731 338.722 302.964 338.884C303.197 339.043 303.494 339.122 303.855 339.122ZM310.955 340.128C310.427 340.128 309.955 339.993 309.54 339.723C309.129 339.45 308.805 339.062 308.569 338.56C308.336 338.054 308.219 337.447 308.219 336.74C308.219 336.033 308.337 335.428 308.573 334.925C308.812 334.422 309.138 334.037 309.553 333.77C309.968 333.503 310.438 333.369 310.964 333.369C311.37 333.369 311.697 333.438 311.944 333.574C312.194 333.707 312.387 333.864 312.523 334.043C312.663 334.222 312.771 334.379 312.847 334.516H312.924V331.273H314.198V340H312.954V338.982H312.847C312.771 339.121 312.66 339.28 312.515 339.459C312.373 339.638 312.177 339.794 311.927 339.928C311.677 340.061 311.353 340.128 310.955 340.128ZM311.237 339.041C311.603 339.041 311.913 338.945 312.165 338.751C312.421 338.555 312.614 338.284 312.745 337.938C312.879 337.591 312.945 337.187 312.945 336.727C312.945 336.273 312.88 335.875 312.749 335.534C312.619 335.193 312.427 334.928 312.174 334.737C311.921 334.547 311.609 334.452 311.237 334.452C310.853 334.452 310.533 334.551 310.278 334.75C310.022 334.949 309.829 335.22 309.698 335.564C309.57 335.908 309.506 336.295 309.506 336.727C309.506 337.165 309.572 337.558 309.702 337.908C309.833 338.257 310.026 338.534 310.282 338.739C310.54 338.94 310.859 339.041 311.237 339.041ZM320.612 331.273V340H319.295V331.273H320.612ZM323.846 331.273V340H322.529V331.273H323.846Z" fill="black"/>
<circle cx="328.117" cy="313.117" r="8.61745" fill="#F6D44A" stroke="#B4961E"/>
</svg>
