<svg width="472" height="357" viewBox="0 0 472 357" fill="none" xmlns="http://www.w3.org/2000/svg">
<ellipse opacity="0.5" cx="300.362" cy="160.943" rx="5.16655" ry="2.12741" fill="black"/>
<ellipse opacity="0.5" cx="172.717" cy="160.943" rx="5.16655" ry="2.12741" fill="black"/>
<path d="M116.779 94.8535V86.1262H119.89C120.566 86.1262 121.127 86.2427 121.573 86.4757C122.022 86.7086 122.357 87.0311 122.579 87.443C122.8 87.8521 122.911 88.3251 122.911 88.862C122.911 89.3961 122.799 89.8663 122.575 90.2725C122.353 90.676 122.018 90.9899 121.569 91.2143C121.123 91.4387 120.562 91.551 119.886 91.551H117.529V90.4174H119.766C120.192 90.4174 120.539 90.3564 120.806 90.2342C121.076 90.112 121.273 89.9345 121.398 89.7015C121.523 89.4686 121.586 89.1887 121.586 88.862C121.586 88.5325 121.522 88.247 121.394 88.0055C121.269 87.764 121.072 87.5794 120.802 87.4515C120.535 87.3208 120.184 87.2555 119.749 87.2555H118.096V94.8535H116.779ZM121.087 90.916L123.244 94.8535H121.744L119.63 90.916H121.087ZM125.251 94.8535H123.853L126.994 86.1262H128.515L131.656 94.8535H130.258L127.79 87.7115H127.722L125.251 94.8535ZM125.485 91.4359H130.019V92.5439H125.485V91.4359Z" fill="black"/>
<path d="M313.904 98.5742V89.8469H315.221V97.4407H319.175V98.5742H313.904ZM321.86 98.5742H320.462L323.603 89.8469H325.124L328.265 98.5742H326.867L324.4 91.4322H324.332L321.86 98.5742ZM322.094 95.1566H326.629V96.2646H322.094V95.1566Z" fill="black"/>
<path d="M271.473 0.169922C272.688 7.8691 277.855 24.6047 288.796 29.9536C302.472 36.6397 370.853 38.7671 392.431 60.0412C414.009 81.3152 415.528 108.06 412.489 139.667C410.058 164.953 425.254 207.946 433.155 226.283C446.73 251.001 473.272 306.091 470.841 328.702" stroke="black"/>
<path d="M262.969 166.715C274.112 172.794 303.389 179.48 323.752 167.627C341.72 157.168 347.457 143.01 350.8 125.383C341.578 174.009 366.604 223.547 380.28 238.135C378.76 255.458 386.541 303.416 429.818 356.662M350.8 350.888C337.428 320.192 335.353 226.647 351.156 172.186" stroke="black"/>
<path d="M200.527 0.169922C199.312 7.8691 194.145 24.6047 183.204 29.9536C169.528 36.6397 99.7754 39.375 79.5692 60.0412C64.0029 75.9618 56.4716 108.06 59.5108 139.667C61.9421 164.953 46.7464 207.946 38.8446 226.283C25.2697 251.001 -1.27221 306.091 1.15911 328.702" stroke="black"/>
<path d="M209.031 166.715C197.888 172.794 168.611 179.48 148.248 167.627C130.28 157.168 124.543 143.01 121.2 125.383C130.422 174.009 105.396 223.547 91.7201 238.135C93.2396 255.458 85.4594 303.416 42.1819 356.662M121.2 350.888C134.572 320.192 136.647 226.647 120.844 172.186" stroke="black"/>
<line opacity="0.3" x1="236.73" y1="0.169922" x2="236.73" y2="356.358" stroke="black" stroke-dasharray="4 4"/>
<line opacity="0.3" x1="332.16" y1="0.169922" x2="332.16" y2="356.358" stroke="black" stroke-dasharray="4 4"/>
<line opacity="0.3" x1="12.5508" y1="67.1387" x2="443.502" y2="67.1387" stroke="black" stroke-dasharray="4 4"/>
<line opacity="0.3" x1="12.5508" y1="162.57" x2="443.502" y2="162.57" stroke="black" stroke-dasharray="4 4"/>
<circle cx="139.59" cy="67.6399" r="8.61745" fill="#D93930" stroke="#881A14"/>
<circle cx="331.664" cy="67.6399" r="8.61745" fill="#428347" stroke="#206225"/>
<path d="M252.722 195.273L255.151 202.381H255.249L257.678 195.273H259.101L255.96 204H254.439L251.298 195.273H252.722ZM263.28 204.119C262.695 204.119 262.172 204.018 261.712 203.817C261.255 203.615 260.892 203.335 260.625 202.977C260.361 202.616 260.219 202.199 260.199 201.724H261.537C261.554 201.983 261.641 202.207 261.797 202.398C261.956 202.585 262.164 202.73 262.419 202.832C262.675 202.935 262.959 202.986 263.272 202.986C263.615 202.986 263.919 202.926 264.184 202.807C264.451 202.687 264.659 202.521 264.81 202.308C264.961 202.092 265.036 201.844 265.036 201.562C265.036 201.27 264.961 201.013 264.81 200.791C264.662 200.567 264.445 200.391 264.158 200.263C263.874 200.135 263.53 200.071 263.127 200.071H262.39V198.997H263.127C263.451 198.997 263.735 198.939 263.979 198.822C264.226 198.706 264.419 198.544 264.559 198.337C264.698 198.126 264.767 197.881 264.767 197.599C264.767 197.33 264.706 197.095 264.584 196.896C264.465 196.695 264.294 196.537 264.073 196.423C263.854 196.31 263.596 196.253 263.297 196.253C263.013 196.253 262.748 196.305 262.5 196.411C262.256 196.513 262.057 196.661 261.904 196.854C261.75 197.044 261.668 197.273 261.657 197.54H260.382C260.397 197.068 260.536 196.653 260.8 196.295C261.067 195.937 261.419 195.658 261.857 195.456C262.294 195.254 262.78 195.153 263.314 195.153C263.874 195.153 264.357 195.263 264.763 195.482C265.172 195.697 265.488 195.986 265.709 196.347C265.934 196.707 266.044 197.102 266.042 197.531C266.044 198.02 265.908 198.435 265.632 198.776C265.36 199.116 264.996 199.345 264.542 199.462V199.53C265.121 199.618 265.57 199.848 265.888 200.22C266.209 200.592 266.368 201.054 266.365 201.605C266.368 202.085 266.235 202.516 265.965 202.896C265.698 203.277 265.333 203.577 264.87 203.795C264.407 204.011 263.877 204.119 263.28 204.119Z" fill="black"/>
<circle cx="267.117" cy="182.117" r="8.61745" fill="#F6D44A" stroke="#B4961E"/>
</svg>
