<svg width="472" height="357" viewBox="0 0 472 357" fill="none" xmlns="http://www.w3.org/2000/svg">
<ellipse opacity="0.5" cx="300.362" cy="160.942" rx="5.16655" ry="2.12741" fill="black"/>
<ellipse opacity="0.5" cx="172.717" cy="160.942" rx="5.16655" ry="2.12741" fill="black"/>
<path d="M116.779 94.8525V86.1253H119.89C120.566 86.1253 121.127 86.2417 121.573 86.4747C122.022 86.7077 122.357 87.0301 122.579 87.442C122.8 87.8511 122.911 88.3241 122.911 88.8611C122.911 89.3952 122.799 89.8653 122.575 90.2716C122.353 90.675 122.018 90.9889 121.569 91.2133C121.123 91.4378 120.562 91.55 119.886 91.55H117.529V90.4165H119.766C120.192 90.4165 120.539 90.3554 120.806 90.2332C121.076 90.1111 121.273 89.9335 121.398 89.7006C121.523 89.4676 121.586 89.1878 121.586 88.8611C121.586 88.5315 121.522 88.246 121.394 88.0045C121.269 87.7631 121.072 87.5784 120.802 87.4506C120.535 87.3199 120.184 87.2545 119.749 87.2545H118.096V94.8525H116.779ZM121.087 90.915L123.244 94.8525H121.744L119.63 90.915H121.087ZM125.251 94.8525H123.853L126.994 86.1253H128.515L131.656 94.8525H130.258L127.79 87.7105H127.722L125.251 94.8525ZM125.485 91.4349H130.019V92.5429H125.485V91.4349Z" fill="black"/>
<path d="M313.904 98.5732V89.846H315.221V97.4397H319.175V98.5732H313.904ZM321.86 98.5732H320.462L323.603 89.846H325.124L328.265 98.5732H326.867L324.4 91.4312H324.332L321.86 98.5732ZM322.094 95.1556H326.629V96.2636H322.094V95.1556Z" fill="black"/>
<path d="M271.473 0.168945C272.688 7.86813 277.855 24.6037 288.796 29.9526C302.472 36.6387 370.853 38.7662 392.431 60.0402C414.009 81.3143 415.528 108.059 412.489 139.666C410.058 164.952 425.254 207.946 433.155 226.282C446.73 251 473.272 306.09 470.841 328.701" stroke="black"/>
<path d="M262.969 166.714C274.112 172.793 303.389 179.479 323.752 167.626C341.72 157.167 347.457 143.009 350.8 125.382C341.578 174.008 366.604 223.546 380.28 238.134C378.76 255.457 386.541 303.415 429.818 356.661M350.8 350.887C337.428 320.191 335.353 226.646 351.156 172.185" stroke="black"/>
<path d="M200.527 0.168945C199.312 7.86813 194.145 24.6037 183.204 29.9526C169.528 36.6387 99.7754 39.374 79.5692 60.0402C64.0029 75.9608 56.4716 108.059 59.5108 139.666C61.9421 164.952 46.7464 207.946 38.8446 226.282C25.2697 251 -1.27221 306.09 1.15911 328.701" stroke="black"/>
<path d="M209.031 166.714C197.888 172.793 168.611 179.479 148.248 167.626C130.28 157.167 124.543 143.009 121.2 125.382C130.422 174.008 105.396 223.546 91.7201 238.134C93.2396 255.457 85.4594 303.415 42.1819 356.661M121.2 350.887C134.572 320.191 136.647 226.646 120.844 172.185" stroke="black"/>
<line opacity="0.3" x1="236.73" y1="0.168945" x2="236.73" y2="356.357" stroke="black" stroke-dasharray="4 4"/>
<line opacity="0.3" x1="332.16" y1="0.168945" x2="332.16" y2="356.357" stroke="black" stroke-dasharray="4 4"/>
<line opacity="0.3" x1="12.5508" y1="67.1377" x2="443.502" y2="67.1377" stroke="black" stroke-dasharray="4 4"/>
<line opacity="0.3" x1="12.5508" y1="162.569" x2="443.502" y2="162.569" stroke="black" stroke-dasharray="4 4"/>
<circle cx="139.59" cy="67.6389" r="8.61745" fill="#D93930" stroke="#881A14"/>
<circle cx="331.664" cy="67.6389" r="8.61745" fill="#428347" stroke="#206225"/>
<path d="M251.722 132.272L254.151 139.38H254.249L256.678 132.272H258.101L254.96 140.999H253.439L250.298 132.272H251.722ZM259.242 140.999V140.044L262.195 136.985C262.51 136.652 262.77 136.361 262.975 136.111C263.182 135.858 263.337 135.618 263.439 135.391C263.542 135.164 263.593 134.922 263.593 134.667C263.593 134.377 263.525 134.127 263.388 133.917C263.252 133.704 263.066 133.54 262.83 133.427C262.594 133.31 262.328 133.252 262.033 133.252C261.721 133.252 261.448 133.316 261.215 133.444C260.982 133.571 260.803 133.752 260.678 133.985C260.553 134.218 260.49 134.491 260.49 134.803H259.233C259.233 134.272 259.355 133.807 259.6 133.41C259.844 133.012 260.179 132.704 260.605 132.485C261.032 132.263 261.516 132.152 262.059 132.152C262.607 132.152 263.09 132.262 263.507 132.481C263.928 132.696 264.256 132.992 264.492 133.367C264.728 133.739 264.846 134.16 264.846 134.628C264.846 134.952 264.784 135.269 264.662 135.579C264.543 135.888 264.334 136.233 264.036 136.614C263.738 136.992 263.323 137.451 262.792 137.991L261.057 139.806V139.87H264.986V140.999H259.242Z" fill="black"/>
<circle cx="271.754" cy="153.95" r="8.61745" fill="#F6D44A" stroke="#B4961E"/>
</svg>
