<svg width="19" height="20" viewBox="0 0 19 20" fill="none" xmlns="http://www.w3.org/2000/svg">
<path d="M14.2054 12.633C13.8529 12.633 13.5272 12.8211 13.3509 13.1265C13.1747 13.4317 13.1747 13.8078 13.3509 14.1129C13.5272 14.4181 13.8529 14.6062 14.2054 14.6062C15.7977 14.6062 17.269 13.7568 18.065 12.3779C18.8612 10.9988 18.8612 9.3 18.065 7.9207C17.269 6.54175 15.7977 5.69238 14.2054 5.69238C13.8529 5.69238 13.5272 5.88043 13.3509 6.18562C13.1747 6.49083 13.1747 6.86692 13.3509 7.1721C13.5272 7.47748 13.8529 7.66551 14.2054 7.66551C15.0927 7.66551 15.9126 8.1388 16.3563 8.90731C16.8 9.67564 16.8 10.6226 16.3563 11.3909C15.9126 12.1595 15.0927 12.6327 14.2054 12.6327V12.633Z" fill="#125873"/>
<path d="M4.97038 14.8591L11.3483 19.3431C11.5465 19.4823 11.789 19.5439 12.0296 19.5159C12.2703 19.4878 12.4922 19.3724 12.653 19.1912C12.8139 19.0102 12.9027 18.7762 12.9022 18.534V1.76239C12.902 1.52033 12.813 1.28686 12.652 1.10637C12.491 0.925721 12.2692 0.810628 12.0289 0.782925C11.7885 0.755054 11.5463 0.816645 11.3483 0.955829L4.9704 5.43722H1.76402C1.50234 5.43722 1.25131 5.54113 1.06638 5.72625C0.881259 5.91119 0.777344 6.1622 0.777344 6.42389V13.8725C0.777344 14.1341 0.881259 14.3852 1.06638 14.5701C1.25132 14.7552 1.50233 14.8591 1.76402 14.8591L4.97038 14.8591ZM2.7507 7.41053H5.31568C5.58785 7.40967 5.84746 7.29629 6.03327 7.09724L10.9291 3.65915V16.6373L6.03812 13.1992C5.85231 13.0002 5.59253 12.8868 5.32035 12.8859H2.75774L2.7507 7.41053Z" fill="#125873"/>
</svg>
